<svg width="360" height="280" viewBox="0 0 360 280" fill="none" xmlns="http://www.w3.org/2000/svg">
<path fill-rule="evenodd" clip-rule="evenodd" d="M327.059 41.4203C328.596 43.5977 324.856 50.9791 323.575 52.9176C316.728 63.2812 301.934 73.2721 303.698 83.9504C304.273 87.443 306.381 90.1993 308.672 92.0139C313.581 95.9038 315.222 97.2009 320.785 94.7586C324.454 93.1467 326.753 97.9354 333.384 96.779C341.209 95.4137 344.609 89.9458 345.936 85.1773C349.699 71.6575 339.903 53.4758 342.533 46.8014C343.792 46.536 343.913 46.8261 344.663 47.8234C345.184 48.5153 345.751 49.3221 346.279 50.0202C352.456 58.1931 352.821 69.0632 353.331 78.7275C353.535 82.5826 353.798 87.0943 355.889 90.8804C357.524 93.8377 361.36 96.3285 363.893 96.59C369.369 97.1553 371.71 92.4623 374.198 92.4123C376.416 92.367 379.908 94.6081 384.595 93.5349C388.715 92.5929 392.2 89.7276 393.237 86.9866L395.008 82.4324C395.549 80.5948 395.721 79.2879 398.094 78.5589C403.431 76.919 404.341 75.4573 405.259 71.3098C407.694 60.2835 401.05 54.5481 392.691 50.8971C391.862 50.536 391.221 50.3817 390.4 50.0171L385.916 48.1139C381.679 46.3316 363.383 39.6128 361.842 36.1319C366.252 35.2614 382.261 39.5931 387.69 41.0961C392.736 42.4928 397.343 44.2785 402.249 45.9862C408.39 48.1223 415.4 51.2817 423.059 44.929C430.604 38.6706 425.662 34.8624 428.111 30.4393C430.376 26.3469 434.625 22.656 431.498 15.3528C429.783 11.3474 426.623 9.93829 424.092 7.66218C420.6 4.52361 423.993 -0.0649491 420.126 -3.28061C417.514 -5.45163 413.085 -5.4047 409.65 -4.7979C404.369 -3.86596 392.994 3.57832 388.241 6.48472C384.038 9.054 369.159 16.9759 364.707 16.6968C364.452 14.6687 369.065 12.9299 370.681 11.9999C373.208 10.5437 375.37 9.167 377.752 7.66557C379.824 6.36085 382.218 4.67746 384.085 3.2092C389.52 -1.06531 396.683 -6.75379 396.789 -13.9475C396.832 -16.7928 394.886 -19.9162 393.144 -21.2539C391.557 -22.4724 387.578 -23.5056 386.838 -24.475C385.103 -26.7515 387.084 -29.2764 382.936 -31.1002C378.561 -33.0229 370.847 -30.2935 367.76 -26.8569C362.915 -21.462 360.288 -15.0364 356.601 -8.9015C355.259 -6.66818 351.293 2.11048 348.507 2.86646C348.7 -0.83946 357.478 -11.3632 357.566 -26.193C357.606 -32.9873 355.867 -38.6171 350.675 -41.4233C347.942 -42.9015 345.824 -41.5709 343.832 -44.4816C342.011 -47.1449 340.261 -48.771 338.115 -49.7918C334.369 -51.573 325.518 -51.0749 321.033 -47.7302C316.749 -44.5349 313.941 -39.6176 313.054 -34.9889C312.005 -29.52 312.175 -23.576 313.581 -17.8309C314.405 -14.4647 315.348 -11.323 316.551 -8.02468C317.289 -6.00493 320.332 -0.161228 319.837 1.5106C318.358 1.44673 315.875 -2.04262 314.881 -3.40097C306.019 -15.4927 310.054 -32.0139 302.725 -45.044C300.061 -49.7824 296.001 -53.4107 291.582 -53.5509C284.913 -53.7612 283.69 -47.3268 276.805 -50.8824C269.912 -54.4426 261.431 -52.4248 257.31 -44.7963C256.772 -43.8016 256.218 -42.8555 255.928 -41.6327C255.65 -40.4555 255.517 -39.1851 254.746 -38.3592C252.046 -35.4642 246.396 -36.9768 244.111 -28.3458C240.609 -15.1078 252.727 -7.87054 260.985 -2.97839C261.628 -2.59698 261.695 -2.65421 262.447 -2.29161C263.805 -1.636 274.08 4.29023 274.279 4.84784C274.632 5.83583 274.042 5.99452 273.118 5.88434L266.509 3.56125C261.277 1.44272 251.461 -2.03819 245.795 -0.727445C240.509 0.494668 236.333 5.48933 237.389 10.0626C237.699 11.4002 238.799 12.7786 238.989 13.9311C239.455 16.7455 235.219 19.8926 239.757 24.7683C241.811 26.9723 243.047 27.6709 245.62 28.4403C258.23 32.2105 291.163 19.7687 308.743 25.0948C310.683 25.683 315.889 26.7334 310.125 28.2817C307.679 28.939 304.015 29.4936 301.549 29.7976C297.326 30.3182 290.028 30.4181 285.945 30.0679C281.821 29.7143 274.65 30.5927 270.006 31.3809C260.502 32.9925 252.709 39.5726 256.289 47.0507C257.704 50.0101 260.124 50.8765 259.242 53.9585C257.836 58.8684 256.979 63.8272 261.711 68.6189C266.615 73.5849 272.808 72.485 274.101 74.1443C274.835 75.0878 275.17 76.5191 276.176 77.7318C282.217 85.0227 294.202 79.7777 299.388 73.2762C309.132 61.0611 311.295 53.5374 323.377 43.0251C323.784 42.6724 324.348 42.1746 324.789 41.9078L326.303 41.3434C326.866 41.2951 326.715 41.3138 327.059 41.4203Z" fill="#40972E"/>
<path fill-rule="evenodd" clip-rule="evenodd" d="M-82.5334 239.557C-82.6944 241.185 -87.4848 248.946 -89.4134 257.275L-90.536 263.403C-91.8764 272.159 -90.4592 278.657 -85.0051 289.072L-73.9121 290.319C-70.4855 290.062 -66.5692 289.727 -62.5867 288.313C-58.7942 286.968 -54.0135 284.305 -50.5928 281.705C-43.5417 276.349 -43.9747 275.36 -39.8604 271.628C-39.378 272.574 -39.1484 277.935 -39.0278 279.449C-38.3977 287.318 -35.027 296.467 -29.9973 303.244C-21.4974 314.696 -16.5715 316.203 -5.73538 319.568C-5.07094 319.777 -4.51871 319.892 -3.87258 320.107C-3.20781 320.328 -2.53344 320.656 -2.05019 320.798C14.0194 311.38 16.994 294.695 16.3073 279.087C16.2064 276.789 14.9377 269.663 15.1348 268.663C16.4278 268.569 19.4539 271.32 22.4633 273.017C38.7978 282.227 57.9065 280.686 70.9795 266.832C72.1896 265.549 73.0167 264.471 73.9986 263.132C76.1121 260.251 75.7383 261.717 77.9111 260.087C78.3096 258.724 78.2798 251.219 78.1091 249.168C77.7685 245.084 77.0222 242.016 75.4167 237.766C73.7959 233.48 71.2442 229.689 68.1247 225.949C64.8564 222.035 58.7037 217.02 58.1244 216.137C59.3303 215.59 60.5811 215.442 61.9722 214.908C67.2009 212.898 68.8157 212.642 74.2728 209.278C79.3186 206.172 86.0192 201.443 89.614 196.857C93.9087 191.378 95.5568 188.875 97.5313 182.659C98.2929 180.264 98.8109 177.578 99.2082 175.386C99.5596 173.448 99.6497 173.431 98.0385 171.648C92.1206 165.1 90.0206 162.61 80.498 158.98C74.6538 156.751 70.7125 156.736 65.6675 156.052C63.4998 155.759 60.5445 155.926 58.1999 156.081C43.7386 157.033 38.5275 161.186 34.6112 162.035C34.2316 161.038 33.983 161.982 35.5239 159.3C36.0823 158.324 36.6751 157.387 37.2067 156.371C40.2254 150.604 42.1434 144.93 43.0236 138.772C43.5503 135.076 43.6056 131.145 42.7132 126.684C42.1015 123.625 39.4437 116.534 37.6473 113.78L27.3787 113.158C7.766 115.247 -0.486295 129.504 -5.06993 131.835C-5.75977 130.818 -6.20252 126.57 -6.6983 124.871C-7.39895 122.475 -8.14005 119.922 -9.1888 117.347C-14.1248 105.244 -24.5283 90.9939 -37.9644 88.2337L-44.9498 86.4091C-50.4953 89.4474 -54.9571 92.493 -57.8891 97.7879C-59.2362 100.219 -59.9867 102.012 -60.716 104.429C-63.2375 112.811 -63.091 116.111 -62.488 125.18C-62.3417 127.38 -62.0137 129.814 -61.4568 132.303C-61.1728 133.571 -60.8769 134.499 -60.6301 135.775C-59.9824 139.104 -59.5416 138.211 -60.3154 139.335C-61.084 139.082 -64.4777 135.92 -65.4863 135.17C-73.322 129.325 -83.5668 124.458 -93.188 125.335C-95.6745 125.56 -102.954 127.165 -105.454 128.338C-105.712 132.191 -108.977 139.761 -108.464 146.464C-107.936 153.37 -106.309 159.69 -102.315 165.988C-98.4506 172.076 -95.9299 173.856 -91.27 178.49C-93.2421 179.127 -96.9197 179.413 -99.2297 179.783C-106.649 180.968 -117.329 185.619 -123.8 190.481C-133.05 197.43 -136.869 205.165 -139.999 215.326C-141.456 220.058 -140.876 217.551 -138.152 223.026C-136.014 227.324 -131.807 231.017 -128.103 233.728C-123.116 237.379 -118.437 239.032 -113.502 240.311C-110.86 240.996 -108.491 241.477 -105.934 241.584C-99.9366 241.837 -97.1277 242.237 -90.4528 241.097C-88.708 240.798 -83.9603 239.373 -82.5334 239.557Z" fill="#40972E"/>
</svg>
