<svg width="1200" height="190" viewBox="0 0 1200 190" fill="none" xmlns="http://www.w3.org/2000/svg">
<path fill-rule="evenodd" clip-rule="evenodd" d="M459.059 -2.57973C460.596 -0.402309 456.856 6.97913 455.575 8.91761C448.728 19.2812 433.934 29.2721 435.698 39.9504C436.273 43.443 438.381 46.1993 440.672 48.0139C445.581 51.9038 447.222 53.2009 452.785 50.7586C456.454 49.1467 458.753 53.9354 465.384 52.779C473.209 51.4137 476.609 45.9458 477.936 41.1773C481.699 27.6575 471.903 9.47582 474.533 2.80142C475.792 2.53604 475.913 2.8261 476.663 3.82338C477.184 4.5153 477.751 5.32212 478.279 6.02016C484.456 14.1931 484.821 25.0632 485.331 34.7275C485.535 38.5826 485.798 43.0943 487.889 46.8804C489.524 49.8377 493.36 52.3285 495.893 52.59C501.369 53.1553 503.71 48.4623 506.198 48.4123C508.416 48.367 511.908 50.6081 516.595 49.5349C520.715 48.5929 524.2 45.7276 525.237 42.9866L527.008 38.4324C527.549 36.5948 527.721 35.2879 530.094 34.5589C535.431 32.919 536.341 31.4573 537.259 27.3098C539.694 16.2835 533.05 10.5481 524.691 6.89706C523.862 6.53603 523.221 6.38173 522.4 6.01708L517.916 4.1139C513.679 2.33156 495.383 -4.3872 493.842 -7.86806C498.252 -8.73861 514.261 -4.40694 519.69 -2.9039C524.736 -1.50721 529.343 0.278461 534.249 1.98619C540.39 4.12229 547.4 7.2817 555.059 0.928984C562.604 -5.32941 557.662 -9.13762 560.111 -13.5607C562.376 -17.6531 566.625 -21.344 563.498 -28.6472C561.783 -32.6526 558.623 -34.0617 556.092 -36.3378C552.6 -39.4764 555.993 -44.0649 552.126 -47.2806C549.514 -49.4516 545.085 -49.4047 541.65 -48.7979C536.369 -47.866 524.994 -40.4217 520.241 -37.5153C516.038 -34.946 501.159 -27.0241 496.707 -27.3032C496.452 -29.3313 501.065 -31.0701 502.681 -32.0001C505.208 -33.4563 507.37 -34.833 509.752 -36.3344C511.824 -37.6391 514.218 -39.3225 516.085 -40.7908C521.52 -45.0653 528.683 -50.7538 528.789 -57.9475C528.832 -60.7928 526.886 -63.9162 525.144 -65.2539C523.557 -66.4724 519.578 -67.5056 518.838 -68.475C517.103 -70.7515 519.084 -73.2764 514.936 -75.1002C510.561 -77.0229 502.847 -74.2935 499.76 -70.8569C494.915 -65.462 492.288 -59.0364 488.601 -52.9015C487.259 -50.6682 483.293 -41.8895 480.507 -41.1335C480.7 -44.8395 489.478 -55.3632 489.566 -70.193C489.606 -76.9873 487.867 -82.6171 482.675 -85.4233C479.942 -86.9015 477.824 -85.5709 475.832 -88.4816C474.011 -91.1449 472.261 -92.771 470.115 -93.7918C466.369 -95.573 457.518 -95.0749 453.033 -91.7302C448.749 -88.5349 445.941 -83.6176 445.054 -78.9889C444.005 -73.52 444.175 -67.576 445.581 -61.8309C446.405 -58.4647 447.348 -55.323 448.551 -52.0247C449.289 -50.0049 452.332 -44.1612 451.837 -42.4894C450.358 -42.5533 447.875 -46.0426 446.881 -47.401C438.019 -59.4927 442.054 -76.0139 434.725 -89.044C432.061 -93.7824 428.001 -97.4107 423.582 -97.5509C416.913 -97.7612 415.69 -91.3268 408.805 -94.8824C401.912 -98.4426 393.431 -96.4248 389.31 -88.7963C388.772 -87.8016 388.218 -86.8555 387.928 -85.6327C387.65 -84.4555 387.517 -83.1851 386.746 -82.3592C384.046 -79.4642 378.396 -80.9768 376.111 -72.3458C372.609 -59.1078 384.727 -51.8705 392.985 -46.9784C393.628 -46.597 393.695 -46.6542 394.447 -46.2916C395.805 -45.636 406.08 -39.7098 406.279 -39.1522C406.632 -38.1642 406.042 -38.0055 405.118 -38.1157L398.509 -40.4388C393.277 -42.5573 383.461 -46.0382 377.795 -44.7274C372.509 -43.5053 368.333 -38.5107 369.389 -33.9374C369.699 -32.5998 370.799 -31.2214 370.989 -30.0689C371.455 -27.2545 367.219 -24.1074 371.757 -19.2317C373.811 -17.0277 375.047 -16.3291 377.62 -15.5597C390.23 -11.7895 423.163 -24.2313 440.743 -18.9052C442.683 -18.317 447.889 -17.2666 442.125 -15.7183C439.679 -15.061 436.015 -14.5064 433.549 -14.2024C429.326 -13.6818 422.028 -13.5819 417.945 -13.9321C413.821 -14.2857 406.65 -13.4073 402.006 -12.6191C392.502 -11.0075 384.709 -4.42735 388.289 3.05073C389.704 6.01006 392.124 6.87645 391.242 9.95847C389.836 14.8684 388.979 19.8272 393.711 24.6189C398.615 29.5849 404.808 28.485 406.101 30.1443C406.835 31.0878 407.17 32.5191 408.176 33.7318C414.217 41.0227 426.202 35.7777 431.388 29.2762C441.132 17.0611 443.295 9.53743 455.377 -0.974949C455.784 -1.32763 456.348 -1.82536 456.789 -2.09221L458.303 -2.65661C458.866 -2.70495 458.715 -2.68617 459.059 -2.57973Z" fill="#40972E"/>
<path fill-rule="evenodd" clip-rule="evenodd" d="M118.467 288.557C118.306 290.185 113.516 297.946 111.587 306.275L110.464 312.403C109.124 321.159 110.541 327.657 115.995 338.072L127.088 339.319C130.515 339.062 134.431 338.727 138.414 337.313C142.206 335.968 146.987 333.305 150.408 330.705C157.459 325.349 157.026 324.36 161.14 320.628C161.622 321.574 161.852 326.935 161.973 328.449C162.603 336.318 165.974 345.467 171.003 352.244C179.503 363.696 184.429 365.203 195.265 368.568C195.93 368.777 196.482 368.892 197.128 369.107C197.793 369.328 198.467 369.656 198.95 369.798C215.02 360.38 217.995 343.695 217.308 328.087C217.207 325.789 215.938 318.663 216.135 317.663C217.428 317.569 220.454 320.32 223.464 322.017C239.798 331.227 258.907 329.686 271.98 315.832C273.19 314.549 274.017 313.471 274.999 312.132C277.113 309.251 276.739 310.717 278.912 309.087C279.31 307.724 279.28 300.219 279.11 298.168C278.769 294.084 278.023 291.016 276.417 286.766C274.796 282.48 272.245 278.689 269.125 274.949C265.857 271.035 259.704 266.02 259.125 265.137C260.331 264.59 261.582 264.442 262.973 263.908C268.201 261.898 269.816 261.642 275.273 258.278C280.319 255.172 287.02 250.443 290.614 245.857C294.909 240.378 296.557 237.875 298.532 231.659C299.293 229.264 299.811 226.578 300.209 224.386C300.56 222.448 300.65 222.431 299.039 220.648C293.121 214.1 291.021 211.61 281.498 207.98C275.654 205.751 271.713 205.736 266.668 205.052C264.5 204.759 261.545 204.926 259.2 205.081C244.739 206.033 239.528 210.186 235.612 211.035C235.232 210.038 234.984 210.982 236.524 208.3C237.083 207.324 237.676 206.387 238.207 205.371C241.226 199.604 243.144 193.93 244.024 187.772C244.551 184.076 244.606 180.145 243.714 175.684C243.102 172.625 240.444 165.534 238.648 162.78L228.379 162.158C208.766 164.247 200.514 178.504 195.931 180.835C195.241 179.818 194.798 175.57 194.302 173.871C193.602 171.475 192.86 168.922 191.812 166.347C186.876 154.244 176.472 139.994 163.036 137.234L156.051 135.409C150.505 138.447 146.043 141.493 143.111 146.788C141.764 149.219 141.014 151.012 140.285 153.429C137.763 161.811 137.91 165.111 138.512 174.18C138.659 176.38 138.987 178.814 139.544 181.303C139.828 182.571 140.124 183.499 140.37 184.775C141.018 188.104 141.459 187.211 140.685 188.335C139.916 188.082 136.523 184.92 135.514 184.17C127.678 178.325 117.434 173.458 107.813 174.335C105.326 174.56 98.0463 176.165 95.5463 177.338C95.2885 181.191 92.0237 188.761 92.5363 195.464C93.064 202.37 94.6915 208.69 98.686 214.988C102.55 221.076 105.071 222.856 109.73 227.49C107.758 228.127 104.081 228.413 101.771 228.783C94.3512 229.968 83.671 234.619 77.2008 239.481C67.9507 246.43 64.1313 254.165 61.002 264.326C59.5446 269.058 60.1241 266.551 62.8482 272.026C64.987 276.324 69.1934 280.017 72.8973 282.728C77.8849 286.379 82.564 288.032 87.4986 289.311C90.1408 289.996 92.5091 290.477 95.066 290.584C101.064 290.837 103.873 291.237 110.548 290.097C112.292 289.798 117.04 288.373 118.467 288.557Z" fill="#40972E"/>
<path fill-rule="evenodd" clip-rule="evenodd" d="M1103.24 88.0014C1102.57 88.5128 1099.08 90.0687 1098.07 90.5186C1093.66 92.4934 1092.45 92.1431 1086.81 95.3463C1085.02 96.3627 1083.34 97.0264 1081.46 98.051C1069.33 104.68 1055.42 117.89 1051.25 131.542C1048.28 141.273 1051.13 150.087 1056.55 155.434C1057.94 156.806 1058.79 158.179 1060.36 159.34C1063.66 161.772 1066.87 163.899 1071.18 164.547C1073.37 164.874 1076.9 164.843 1079.13 164.708C1085.78 164.313 1096.16 155.082 1098.64 152.035C1101.06 149.061 1103.81 146.802 1106.27 143.913C1112.15 137.023 1118.25 128.017 1124.15 121.539C1124.99 120.614 1128.85 115.321 1127.86 119.273C1127.07 122.448 1127.23 119.346 1126.72 125.516C1125.58 139.023 1123.98 156.269 1129.57 168.809C1130.6 171.135 1131.12 173.011 1132.41 175.446C1133.67 177.832 1135 178.943 1136.82 180.828C1140.38 184.497 1146.02 185.05 1151.58 185.33C1159.51 185.73 1160.65 183.038 1161.87 176.515C1164.46 162.681 1159.4 142.986 1160.26 141.017C1160.79 141.435 1164.99 148.805 1165.59 149.918C1166.47 151.553 1167.51 152.618 1168.54 153.973C1169.7 155.494 1170.39 156.714 1171.5 158.35C1177.63 167.329 1184.53 174.036 1192.63 180.64C1195.15 182.701 1198.21 184.733 1201.3 186.316C1209.11 190.313 1215.9 192.297 1222.51 185.72C1224.3 183.931 1227.67 180.065 1228.64 177.51C1231.9 168.938 1227 164.481 1222.04 157.833C1218.58 153.207 1205.45 139.768 1201 135.117C1198.37 132.364 1187.39 122.251 1187.23 119.989C1188.68 120.187 1194.33 122.908 1196.44 123.571C1199.67 124.589 1203.22 125.924 1206.6 126.726C1211.63 127.92 1217.85 129.468 1223.2 129.569C1232.71 129.752 1242.61 131.019 1253.16 127.438C1256.12 126.432 1259.79 125.031 1262.22 123.563C1267.69 120.25 1266.11 105.869 1264.35 102.511C1260.3 94.8395 1246.29 90.2479 1238.86 88.443C1231.82 86.7324 1224.41 85.2814 1217.13 83.9182L1197.56 80.7695C1196.02 80.5258 1195.66 80.7578 1194.97 79.9441C1196.66 79.0607 1219.83 76.8756 1227.49 74.793C1235.92 72.5001 1248.39 69.6003 1255.2 64.0011C1260.06 60.0158 1262.47 53.2936 1260.01 44.473C1258.28 38.3056 1253.95 32.4984 1247.95 30.9923C1229.7 26.4071 1212.21 32.5248 1195.72 39.4315C1193.26 40.4626 1188.18 43.568 1186.83 43.4766C1186.78 42.3542 1189.45 36.2646 1190.24 34.6606C1191.96 31.185 1195.59 20.0504 1196.39 15.9339C1197.06 12.4653 1197.7 8.97331 1198.2 5.21707C1199.04 -0.995483 1199.09 -12.3158 1197.64 -18.0843C1195.38 -27.1163 1194.39 -29.1438 1187.3 -32.9499C1180.65 -36.5134 1173.27 -35.1549 1168.4 -31.0038C1160.62 -24.3765 1156.2 -4.79161 1155.3 6.02075C1155.01 9.47121 1154.17 13.5245 1153.97 17.238C1153.83 19.8448 1153.82 27.0796 1152.57 28.4299C1152.09 27.8634 1149.54 18.4881 1148.94 16.665L1144.57 5.64175C1142.79 2.24754 1141.08 -1.27785 1139.26 -4.44418C1133.57 -14.328 1117.9 -33.9165 1105.68 -33.0032C1102.76 -32.7835 1096.75 -29.4063 1094.85 -27.9547C1089.1 -23.5728 1084.42 -16.8125 1086.28 -6.07684C1088.39 6.13034 1099.82 24.9496 1107.2 35.3577L1113.9 44.0594C1115.12 45.7085 1120.44 51.7793 1120.61 52.8291C1118.59 52.6879 1114.18 50.1982 1112.18 49.2984C1109.1 47.9117 1106.34 47.0084 1103.09 45.7829C1091.49 41.4004 1071.46 38.6823 1059.27 41.8357C1052.68 43.541 1046.57 47.1233 1044.25 52.0418C1042.37 56.0253 1042.01 56.9456 1042 62.0814C1042 66.3707 1041.87 69.5224 1043.68 73.0443C1049.33 84.0723 1067.13 87.1877 1079.12 87.709C1085.81 87.9979 1090.82 88.2937 1097.67 88.1179C1099.45 88.071 1101.88 87.2843 1103.24 88.0014Z" fill="#40972E"/>
</svg>
