<svg width="1171" height="190" viewBox="0 0 1171 190" fill="none" xmlns="http://www.w3.org/2000/svg">
<g opacity="0.4">
<path fill-rule="evenodd" clip-rule="evenodd" d="M814.481 72.4821C814.826 72.9136 815.25 73.0669 815.57 73.4556C816.668 74.7923 817.052 76.6096 816.666 78.3965C815.424 84.162 810.821 84.1141 810.624 81.6174C810.573 80.9557 811.012 80.4486 811.273 80.1777C815.408 75.8824 810.382 76.1722 810.271 74.1501C810.206 72.9493 810.681 71.7195 811.071 70.8428C812.203 68.3003 814.371 65.0433 817.425 64.7773C820.661 64.4956 821.477 68.259 818.896 68.6649C816.541 69.0355 815.288 70.0423 814.481 72.4821Z" fill="#40972E"/>
<path fill-rule="evenodd" clip-rule="evenodd" d="M769.357 60.7059C768.205 60.7031 766.634 60.934 766.86 59.4385C767.014 58.4229 767.76 57.6529 768.387 57.2308C771.806 54.9325 778.268 57.862 778.742 60.2157C778.963 61.3101 777.862 62.1594 776.898 62.0251C776.043 61.9052 774.951 61.2666 774.086 61.0895C774.058 62.7659 773.196 64.2404 771.408 63.9747C770.611 63.8555 769.929 63.3441 769.622 62.9135C768.837 61.8145 769.394 61.6138 769.357 60.7059Z" fill="#40972E"/>
</g>
<path fill-rule="evenodd" clip-rule="evenodd" d="M768.555 162.564C768.684 161.566 767.713 160.411 766.829 160.318C765.73 160.203 764.833 161.245 764.699 162.182C764.259 165.251 768.25 164.908 768.555 162.564ZM822.538 118.283C822.053 118.842 820.649 120.899 820.086 121.509C819.867 121.745 819.802 121.754 819.61 122.007C819.424 122.252 819.379 122.351 819.165 122.55L815.384 126.429C815.035 126.771 814.776 127.001 814.43 127.343C814.072 127.699 813.748 127.907 813.414 128.293C813.088 128.668 812.842 128.746 812.431 129.175C811.526 130.119 805.749 134.861 805.064 135.362L800.643 138.609C799.922 139.165 799.142 139.673 798.38 140.183C797.02 141.094 789.435 146.085 789.244 146.459C791.1 147.117 794.039 148.48 795.599 149.716C797.682 151.369 798.614 152.037 800.616 154.427C801.087 154.99 801.349 155.523 801.897 155.995C802.566 156.572 803.252 155.779 803.711 155.428C803.841 155.328 803.989 155.237 804.114 155.138L805.211 154.177C805.566 153.918 805.625 153.788 805.929 153.522C807.794 151.885 809.089 150.459 810.932 148.7C811.569 148.092 811.816 147.666 812.254 147.272L815.215 143.943C816.294 142.619 818.362 140.218 819.238 138.931C819.453 138.615 819.598 138.464 819.821 138.144C820.189 137.617 820.576 137.105 820.963 136.531C821.36 135.941 821.733 135.437 822.085 134.903C823.514 132.731 825.142 130.244 826.17 127.886C826.459 127.223 826.662 126.389 826.452 125.533C826.248 124.7 825.899 124.335 825.472 123.77C823.732 121.467 822.942 118.852 822.538 118.283ZM771.483 91.1214C771.042 91.0945 769.493 92.2525 768.812 92.6359C767.841 93.1837 766.873 93.5971 765.709 93.953C760.614 95.511 755.475 95.7676 750.286 94.4381C747.73 93.7829 746.487 92.9382 745.075 90.8874C744.712 92.7463 744.94 98.7086 745.024 100.872C745.08 102.297 745.163 104.215 746.007 105.004C747.378 106.286 748.723 104.661 749.06 103.83C749.914 101.724 746.256 95.888 750.881 97.2726C753.322 98.0039 755.094 98.1428 757.592 97.8071C758.289 97.7136 759.2 97.3569 759.774 97.3146C761.214 97.2093 761.86 99.1204 760.766 100.301C759.956 101.176 759.068 101.731 758.691 103.318C758.319 104.887 759.571 105.834 760.94 105.981C763.052 106.206 765.062 104.865 766.478 103.75C768.4 102.238 770.474 98.2719 771.156 95.6702C771.416 94.6792 772.041 92.0055 771.483 91.1214ZM768.438 88.29C766.652 88.3118 764.82 88.1468 763.01 88.0327L752.299 87.3268C750.568 87.1822 748.718 86.9657 746.996 86.8916C747.443 92.6192 762.694 91.4215 766.374 89.8916C767.179 89.5567 768.193 89.0859 768.438 88.29ZM745.215 80.4383C744.51 79.5863 743.817 79.4715 742.987 77.463C742.562 76.4338 742.369 75.2235 742.417 74.0519C742.445 73.3626 742.619 73.0618 742.315 72.7291C742.245 73.6161 740.947 74.7754 740.625 79.3554C740.532 80.6997 740.775 85.9976 741.394 86.8683C741.778 86.3758 742.091 83.9934 743.808 81.6748L745.155 80.474C745.168 80.4668 745.197 80.4522 745.215 80.4383ZM759.547 122.006C759.892 123.585 761.713 124.456 762.513 129.955C763.7 138.115 765.496 139.32 768.953 145.427C770.753 148.607 771.183 149.416 772.33 152.647C772.406 152.861 772.362 152.796 772.436 152.91L774.679 150.561C777.161 147.978 781.291 145.674 784.335 143.81C787.093 142.122 788.76 141.197 791.634 139.323L797.179 135.533C801.111 132.763 804.209 130.45 807.848 127.345L810.985 124.582C811.641 123.865 812.025 123.734 812.808 122.871C813.273 122.357 813.55 122.123 813.987 121.694L815.156 120.519C815.373 120.005 813.545 115.471 813.284 114.638C812.024 110.634 811.519 104.716 811.887 100.481C811.994 99.2578 812.123 98.06 812.236 96.8477C812.312 96.021 812.757 94.0366 812.695 93.4538C806.012 93.44 807.438 89.1477 809.576 88.9909C810.773 88.903 813.906 90.5571 816.812 85.6203C819.576 80.9221 823.84 76.5891 824.251 70.8065C824.817 62.8305 817.645 59.5205 812.735 63.4699C808.361 66.9877 807.004 73.776 806.193 79.3175C805.954 80.9455 805.878 82.614 805.62 84.2381C804.724 89.8516 804.806 92.3686 803.132 98.5569C802.023 102.661 800.103 106.717 797.229 109.355C796.144 110.351 794.514 111.652 793.285 112.392L790.665 113.898C789.421 114.54 788.188 115.053 786.819 115.651C784.464 116.68 781.159 117.732 778.427 118.462C772.941 119.928 765.273 121.862 759.547 122.006ZM772.392 52.5275C770.295 52.0901 767.373 52.6159 765.708 54.1588C765.333 54.506 765.021 54.9043 764.741 55.356L764.068 56.7398C762.871 59.8574 763.691 64.2958 765.564 66.8801C766.594 68.3026 768.392 69.7051 771.16 69.7153C778.415 69.7438 782.368 61.4823 778.786 56.6963C777.115 54.4632 775.786 53.2342 772.392 52.5275ZM759.836 57.1785C758.391 56.9735 758.307 56.9643 756.867 57.2047C756.741 57.9043 756.819 58.2369 756.603 58.8985C756.427 59.439 756.23 59.8618 755.964 60.3259C754.21 63.3848 746.323 68.7979 746.595 75.2366C746.645 76.4367 747.551 77.2044 748.366 77.5808C749.915 78.2968 753.717 77.6439 755.736 77.7036C756.918 77.7384 758.306 77.8945 759.4 77.5147C759.833 77.3651 760.36 76.9197 760.388 76.4126C760.422 75.7945 759.947 75.3855 760.107 74.6998C760.745 71.9591 766.903 74.9622 763.434 79.2906C763.123 79.6801 762.783 79.9233 762.332 80.2561C761.407 80.9368 761.339 80.5496 761.068 81.0006C761.348 81.1313 764.091 81.682 765.999 82.5514C766.239 82.6611 766.414 82.7513 766.667 82.8571C767.323 83.1339 771.334 85.2347 771.754 85.0312C771.443 84.8636 771.277 84.6579 770.985 84.4452C770.675 84.2186 770.483 84.039 770.157 83.7994C768.937 82.9007 767.95 82.2442 767.257 80.9947C766.786 80.1457 766.575 77.3133 769.582 78.5715C772.663 79.8607 775.622 82.6465 776.623 85.8863C777.904 90.0297 775.628 91.6721 778.093 92.6533C780.892 93.7685 786.794 91.4345 789.252 89.8814L791.774 88.0837C793.396 86.6905 794.713 85.5181 796.046 83.713C800.751 77.3469 802.38 72.7981 803.257 64.9087C803.292 64.5892 803.45 63.9455 803.23 63.6885C802.914 63.2861 795.106 61.4982 793.894 61.1513C792.355 60.7103 790.751 60.3912 789.169 59.9853C787.842 59.6452 785.596 59.094 784.276 58.9785C783.816 60.905 783.958 62.9338 783.297 64.8631C781.568 69.9093 777.25 73.5274 771.061 73.4831C767.72 73.4592 764.807 71.9242 762.895 69.549C761.143 67.3742 759.836 63.5729 759.755 60.5962C759.724 59.4695 759.881 58.1977 759.836 57.1785ZM752.686 56.9687C752.685 55.7635 752.51 54.8635 751.539 53.9853C749.897 52.5006 747.25 52.2092 745.213 53.3147C742.424 54.8287 741.266 58.6828 741.86 62.2009C742.183 64.12 743.375 66.5649 744.756 67.6407C745.064 67.1018 745.471 66.6579 745.874 66.1567C746.517 65.3577 747.148 64.7927 747.864 64.1169C748.245 63.7566 748.279 63.9157 748.206 63.2359C748.092 62.1571 748.145 61.5485 748.424 60.6362C747.47 60.7074 742.986 61.3675 744.379 58.6728C745.098 57.2823 747.043 56.4805 748.759 56.4069C750.254 56.3439 751.444 56.8966 752.686 56.9687ZM803.538 59.5371C803.677 57.9811 802.797 56.0054 802.064 54.7356C800.488 52.0058 798.573 48.716 800.294 45.2301C800.556 44.6984 800.766 44.4324 801.061 43.9363C801.305 43.5273 801.651 43.1285 801.953 42.7575C803.805 40.4825 805.73 40.2485 806.788 37.279C807.563 35.1011 807.334 32.1913 806.402 30.3542C803.71 25.0464 794.243 23.0069 789.268 22.5476C778.312 21.538 768.995 22.223 762.223 27.8824C760.656 29.1921 758.792 30.9774 757.494 32.5841L756.11 34.3436C755.939 34.5847 755.817 34.6929 755.644 34.9609C755.458 35.2502 755.423 35.2835 755.235 35.5298C754.472 36.5351 753.441 38.2827 752.791 39.3703C751.844 40.9545 749.129 47.2684 749.439 48.2403C750.443 48.5548 750.705 48.5722 751.58 49.024C752.08 49.2818 752.832 49.8122 753.26 50.1971C754.383 51.2104 755.022 51.8272 755.933 53.3191C756.718 53.2407 757.509 52.9226 758.483 52.8883C759.446 52.8542 760.316 53.0236 761.238 53.03L761.98 51.9056C762.227 51.567 762.503 51.2816 762.795 50.9561C763.329 50.3621 763.937 49.7643 764.858 49.3771C766.509 48.6819 769.15 48.2701 771.164 48.4023C772.832 48.512 774.227 48.7646 775.757 49.3059C775.967 49.3807 776.245 49.467 776.416 49.5398C776.614 49.6234 776.812 49.7287 777.013 49.8194C778.851 50.6497 781.147 52.2274 782.408 53.5689C782.578 53.7514 782.702 53.8582 782.859 54.0056C783.004 54.1429 783.087 54.2808 783.306 54.4371C783.62 54.66 785.592 55.0575 786.188 55.1867C788.769 55.7481 802.921 59.1143 803.538 59.5371ZM816.361 110.011C818.049 109.889 819.162 109.49 821.066 109.639C824.656 109.92 825.313 111.553 826.362 114.539C826.992 116.333 827.524 117.432 828.245 119.037C829.134 121.013 830.41 122.825 831.512 124.714C832.026 125.595 833.742 126.163 834.682 126.641L843.128 131.062C843.685 131.362 844.198 131.702 844.742 132.004C845.876 132.633 846.796 133.31 847.875 133.977C848.407 134.306 848.896 134.593 849.433 134.977C850.086 135.445 850.385 135.609 850.749 136.321C851.051 136.908 851.031 137.85 850.62 138.379C850.068 139.09 846.487 140.546 845.554 140.986C842.644 142.358 839.918 143.86 837.111 145.407C834.019 147.11 830.51 149.188 827.596 151.22L820.811 155.929C820.541 156.142 820.385 156.273 820.093 156.485C819.592 156.848 819.13 157.19 818.606 157.552C814.001 160.733 809.471 163.966 804.433 166.473C798.406 169.471 792.127 171.877 785.454 173.234C772.934 175.781 761.433 175.663 749.058 172.294C742.151 170.415 736.425 168.167 730.587 165.125C730.022 164.83 729.54 164.581 728.905 164.25C728.373 163.972 727.841 163.624 727.269 163.334C725.423 162.403 715.682 156.464 714.954 155.109C714.18 153.666 716.002 150.939 717.064 149.924C719.843 147.271 720.743 146.455 724.332 144.323C728.692 141.731 733.494 139.76 738.166 137.622C741.764 135.975 745.358 134.577 748.987 133.018C751.005 132.15 751.024 132.565 751.948 130.875C752.505 129.854 753.281 128.714 753.991 127.811C754.367 127.334 756.17 125.189 756.356 125.106C756.038 124.599 755.782 124.106 755.466 123.535C755.306 123.244 755.203 123.033 755.045 122.774C754.153 121.317 754.781 121.748 752.779 121.318C749.487 120.609 746.451 119.86 743.849 117.768C741.931 116.225 740.742 114.078 740.062 111.627C739.121 108.242 739.573 105.848 739.189 102.465C739.02 100.977 738.929 99.5432 738.672 98.0664C738.185 95.275 737.592 92.2489 737.384 89.4362C737.279 88.014 737.272 86.086 737.066 84.7488C736.056 78.2097 737.689 72.9418 740.296 68.6498C739.497 67.3975 738.982 66.2469 738.558 64.6038C738.029 62.553 738.029 61.5725 737.924 59.4346C737.184 59.0751 737.063 59.0628 736.544 58.4657C735.391 57.1393 735.571 54.4043 738.924 54.588C739.519 53.3301 740.178 52.1585 741.21 51.2721C742.138 50.4746 743.304 49.5928 744.762 49.2302C746.02 44.3488 747.919 39.7291 750.53 35.4506C751.401 34.0233 752.321 32.476 753.422 31.1678C753.752 30.7755 753.934 30.4603 754.249 30.1277C754.517 29.8435 754.807 29.455 755.05 29.1572L757.75 26.4578C757.934 26.3082 758.076 26.2116 758.239 26.056C758.601 25.7083 759.345 25.1968 759.626 24.7981C759.844 24.4916 759.75 23.7382 759.866 23.2749C760.812 19.5113 765.96 17.5645 769.438 16.6233C776.819 14.6255 787.792 14.3926 795.24 16.3675C801.348 17.9865 805.447 19.2927 810.707 22.4198C814.393 24.6113 817.759 27.2117 820.594 30.323C820.786 30.5328 820.843 30.5546 821.011 30.7822C821.192 31.0269 821.191 31.0333 821.411 31.2652C823.833 33.8301 826.168 37.7336 827.57 41.325C830.441 48.6839 831.189 57.698 828.777 65.9373C828.279 67.635 828.382 67.2594 828.404 69.0427C828.465 73.9284 826.478 78.5948 823.8 82.3879L820.903 86.66C819.933 88.0691 819.162 89.6548 818.029 90.9646C817.074 92.0693 817.475 91.6895 817.062 93.5294C816.351 96.7044 815.925 99.9407 815.909 103.229C815.904 104.3 815.899 105.691 816.018 106.74C816.131 107.721 816.345 109.065 816.361 110.011Z" fill="#40972E"/>
<path opacity="0.4" fill-rule="evenodd" clip-rule="evenodd" d="M430.059 -2.57973C431.596 -0.402309 427.856 6.97913 426.575 8.91761C419.728 19.2812 404.934 29.2721 406.698 39.9504C407.273 43.443 409.381 46.1993 411.672 48.0139C416.581 51.9038 418.222 53.2009 423.785 50.7586C427.454 49.1467 429.753 53.9354 436.384 52.779C444.209 51.4137 447.609 45.9458 448.936 41.1773C452.699 27.6575 442.903 9.47582 445.533 2.80142C446.792 2.53604 446.913 2.8261 447.663 3.82338C448.184 4.5153 448.751 5.32212 449.279 6.02016C455.456 14.1931 455.821 25.0632 456.331 34.7275C456.535 38.5826 456.798 43.0943 458.889 46.8804C460.524 49.8377 464.36 52.3285 466.893 52.59C472.369 53.1553 474.71 48.4623 477.198 48.4123C479.416 48.367 482.908 50.6081 487.595 49.5349C491.715 48.5929 495.2 45.7276 496.237 42.9866L498.008 38.4324C498.549 36.5948 498.721 35.2879 501.094 34.5589C506.431 32.919 507.341 31.4573 508.259 27.3098C510.694 16.2835 504.05 10.5481 495.691 6.89706C494.862 6.53603 494.221 6.38173 493.4 6.01708L488.916 4.1139C484.679 2.33156 466.383 -4.3872 464.842 -7.86806C469.252 -8.73861 485.261 -4.40694 490.69 -2.9039C495.736 -1.50721 500.343 0.278461 505.249 1.98619C511.39 4.12229 518.4 7.2817 526.059 0.928984C533.604 -5.32941 528.662 -9.13762 531.111 -13.5607C533.376 -17.6531 537.625 -21.344 534.498 -28.6472C532.783 -32.6526 529.623 -34.0617 527.092 -36.3378C523.6 -39.4764 526.993 -44.0649 523.126 -47.2806C520.514 -49.4516 516.085 -49.4047 512.65 -48.7979C507.369 -47.866 495.994 -40.4217 491.241 -37.5153C487.038 -34.946 472.159 -27.0241 467.707 -27.3032C467.452 -29.3313 472.065 -31.0701 473.681 -32.0001C476.208 -33.4563 478.37 -34.833 480.752 -36.3344C482.824 -37.6391 485.218 -39.3225 487.085 -40.7908C492.52 -45.0653 499.683 -50.7538 499.789 -57.9475C499.832 -60.7928 497.886 -63.9162 496.144 -65.2539C494.557 -66.4724 490.578 -67.5056 489.838 -68.475C488.103 -70.7515 490.084 -73.2764 485.936 -75.1002C481.561 -77.0229 473.847 -74.2935 470.76 -70.8569C465.915 -65.462 463.288 -59.0364 459.601 -52.9015C458.259 -50.6682 454.293 -41.8895 451.507 -41.1335C451.7 -44.8395 460.478 -55.3632 460.566 -70.193C460.606 -76.9873 458.867 -82.6171 453.675 -85.4233C450.942 -86.9015 448.824 -85.5709 446.832 -88.4816C445.011 -91.1449 443.261 -92.771 441.115 -93.7918C437.369 -95.573 428.518 -95.0749 424.033 -91.7302C419.749 -88.5349 416.941 -83.6176 416.054 -78.9889C415.005 -73.52 415.175 -67.576 416.581 -61.8309C417.405 -58.4647 418.348 -55.323 419.551 -52.0247C420.289 -50.0049 423.332 -44.1612 422.837 -42.4894C421.358 -42.5533 418.875 -46.0426 417.881 -47.401C409.019 -59.4927 413.054 -76.0139 405.725 -89.044C403.061 -93.7824 399.001 -97.4107 394.582 -97.5509C387.913 -97.7612 386.69 -91.3268 379.805 -94.8824C372.912 -98.4426 364.431 -96.4248 360.31 -88.7963C359.772 -87.8016 359.218 -86.8555 358.928 -85.6327C358.65 -84.4555 358.517 -83.1851 357.746 -82.3592C355.046 -79.4642 349.396 -80.9768 347.111 -72.3458C343.609 -59.1078 355.727 -51.8705 363.985 -46.9784C364.628 -46.597 364.695 -46.6542 365.447 -46.2916C366.805 -45.636 377.08 -39.7098 377.279 -39.1522C377.632 -38.1642 377.042 -38.0055 376.118 -38.1157L369.509 -40.4388C364.277 -42.5573 354.461 -46.0382 348.795 -44.7274C343.509 -43.5053 339.333 -38.5107 340.389 -33.9374C340.699 -32.5998 341.799 -31.2214 341.989 -30.0689C342.455 -27.2545 338.219 -24.1074 342.757 -19.2317C344.811 -17.0277 346.047 -16.3291 348.62 -15.5597C361.23 -11.7895 394.163 -24.2313 411.743 -18.9052C413.683 -18.317 418.889 -17.2666 413.125 -15.7183C410.679 -15.061 407.015 -14.5064 404.549 -14.2024C400.326 -13.6818 393.028 -13.5819 388.945 -13.9321C384.821 -14.2857 377.65 -13.4073 373.006 -12.6191C363.502 -11.0075 355.709 -4.42735 359.289 3.05073C360.704 6.01006 363.124 6.87645 362.242 9.95847C360.836 14.8684 359.979 19.8272 364.711 24.6189C369.615 29.5849 375.808 28.485 377.101 30.1443C377.835 31.0878 378.17 32.5191 379.176 33.7318C385.217 41.0227 397.202 35.7777 402.388 29.2762C412.132 17.0611 414.295 9.53743 426.377 -0.974949C426.784 -1.32763 427.348 -1.82536 427.789 -2.09221L429.303 -2.65661C429.866 -2.70495 429.715 -2.68617 430.059 -2.57973Z" fill="#40972E"/>
<path opacity="0.6" fill-rule="evenodd" clip-rule="evenodd" d="M89.4666 288.559C89.3056 290.187 84.5152 297.948 82.5866 306.277L81.464 312.405C80.1236 321.161 81.5408 327.659 86.9949 338.074L98.0879 339.321C101.515 339.064 105.431 338.729 109.413 337.315C113.206 335.97 117.986 333.307 121.407 330.707C128.458 325.351 128.025 324.362 132.14 320.63C132.622 321.576 132.852 326.937 132.972 328.451C133.602 336.32 136.973 345.469 142.003 352.246C150.503 363.697 155.428 365.205 166.265 368.57C166.929 368.778 167.481 368.894 168.127 369.109C168.792 369.33 169.467 369.657 169.95 369.8C186.019 360.382 188.994 343.697 188.307 328.089C188.206 325.79 186.938 318.665 187.135 317.665C188.428 317.571 191.454 320.322 194.463 322.019C210.798 331.229 229.907 329.688 242.979 315.834C244.19 314.551 245.017 313.473 245.999 312.134C248.112 309.253 247.738 310.719 249.911 309.089C250.31 307.726 250.28 300.221 250.109 298.17C249.769 294.086 249.022 291.018 247.417 286.768C245.796 282.482 243.244 278.691 240.125 274.951C236.856 271.037 230.704 266.022 230.124 265.139C231.33 264.592 232.581 264.444 233.972 263.91C239.201 261.9 240.816 261.643 246.273 258.28C251.319 255.173 258.019 250.445 261.614 245.859C265.909 240.379 267.557 237.877 269.531 231.661C270.293 229.266 270.811 226.58 271.208 224.388C271.56 222.45 271.65 222.433 270.039 220.65C264.121 214.102 262.021 211.612 252.498 207.982C246.654 205.753 242.713 205.738 237.667 205.054C235.5 204.761 232.544 204.928 230.2 205.083C215.739 206.035 210.528 210.188 206.611 211.036C206.232 210.04 205.983 210.983 207.524 208.302C208.082 207.326 208.675 206.389 209.207 205.373C212.225 199.606 214.143 193.932 215.024 187.774C215.55 184.078 215.606 180.147 214.713 175.686C214.102 172.627 211.444 165.536 209.647 162.782L199.379 162.16C179.766 164.249 171.514 178.506 166.93 180.837C166.24 179.819 165.797 175.572 165.302 173.873C164.601 171.477 163.86 168.924 162.811 166.349C157.875 154.246 147.472 139.996 134.036 137.236L127.05 135.411C121.505 138.449 117.043 141.495 114.111 146.79C112.764 149.221 112.013 151.014 111.284 153.431C108.763 161.813 108.909 165.113 109.512 174.182C109.658 176.382 109.986 178.816 110.543 181.305C110.827 182.573 111.123 183.501 111.37 184.777C112.018 188.106 112.458 187.213 111.685 188.337C110.916 188.084 107.522 184.922 106.514 184.172C98.678 178.327 88.4332 173.46 78.812 174.337C76.3255 174.562 69.0458 176.167 66.5458 177.34C66.288 181.192 63.0232 188.762 63.5358 195.466C64.0635 202.372 65.691 208.692 69.6855 214.99C73.5494 221.078 76.0701 222.858 80.73 227.492C78.7579 228.129 75.0803 228.415 72.7703 228.784C65.3507 229.97 54.6705 234.621 48.2003 239.483C38.9502 246.432 35.1308 254.167 32.0015 264.328C30.5441 269.06 31.1236 266.553 33.8477 272.028C35.9865 276.326 40.1929 280.019 43.8968 282.73C48.8844 286.381 53.5635 288.034 58.4981 289.312C61.1403 289.998 63.5086 290.479 66.0656 290.586C72.0634 290.839 74.8723 291.239 81.5472 290.099C83.292 289.8 88.0397 288.375 89.4666 288.559Z" fill="#40972E"/>
<path opacity="0.4" fill-rule="evenodd" clip-rule="evenodd" d="M1074.24 88.0014C1073.57 88.5128 1070.07 90.0687 1069.07 90.5186C1064.66 92.4934 1063.45 92.1431 1057.81 95.3463C1056.02 96.3627 1054.34 97.0264 1052.46 98.051C1040.33 104.68 1026.42 117.89 1022.25 131.542C1019.28 141.273 1022.13 150.087 1027.55 155.434C1028.94 156.806 1029.79 158.179 1031.36 159.34C1034.66 161.772 1037.87 163.899 1042.18 164.547C1044.37 164.874 1047.9 164.843 1050.13 164.708C1056.78 164.313 1067.16 155.082 1069.64 152.035C1072.06 149.061 1074.81 146.802 1077.27 143.913C1083.15 137.023 1089.25 128.017 1095.15 121.539C1095.99 120.614 1099.85 115.321 1098.86 119.273C1098.06 122.448 1098.23 119.346 1097.71 125.516C1096.58 139.023 1094.98 156.269 1100.57 168.809C1101.6 171.135 1102.12 173.011 1103.41 175.446C1104.67 177.832 1106 178.943 1107.82 180.828C1111.38 184.497 1117.02 185.05 1122.58 185.33C1130.51 185.73 1131.65 183.038 1132.87 176.515C1135.46 162.681 1130.4 142.986 1131.26 141.017C1131.79 141.435 1135.99 148.805 1136.59 149.918C1137.47 151.553 1138.51 152.618 1139.54 153.973C1140.7 155.494 1141.39 156.714 1142.5 158.35C1148.63 167.329 1155.53 174.036 1163.62 180.64C1166.15 182.701 1169.21 184.733 1172.3 186.316C1180.11 190.313 1186.9 192.297 1193.51 185.72C1195.3 183.931 1198.67 180.065 1199.64 177.51C1202.9 168.938 1198 164.481 1193.04 157.833C1189.58 153.207 1176.45 139.768 1172 135.117C1169.37 132.364 1158.39 122.251 1158.22 119.989C1159.68 120.187 1165.33 122.908 1167.44 123.571C1170.67 124.589 1174.21 125.924 1177.6 126.726C1182.63 127.92 1188.85 129.468 1194.2 129.569C1203.71 129.752 1213.61 131.019 1224.16 127.438C1227.12 126.432 1230.79 125.031 1233.21 123.563C1238.69 120.25 1237.11 105.869 1235.35 102.511C1231.3 94.8395 1217.29 90.2479 1209.86 88.443C1202.82 86.7324 1195.41 85.2814 1188.13 83.9182L1168.56 80.7695C1167.02 80.5258 1166.66 80.7578 1165.96 79.9441C1167.66 79.0607 1190.83 76.8756 1198.49 74.793C1206.91 72.5001 1219.39 69.6003 1226.2 64.0011C1231.06 60.0158 1233.47 53.2936 1231 44.473C1229.28 38.3056 1224.95 32.4984 1218.95 30.9923C1200.7 26.4071 1183.21 32.5248 1166.72 39.4315C1164.26 40.4626 1159.18 43.568 1157.83 43.4766C1157.78 42.3542 1160.45 36.2646 1161.24 34.6606C1162.96 31.185 1166.59 20.0504 1167.39 15.9339C1168.06 12.4653 1168.7 8.97331 1169.2 5.21707C1170.04 -0.995483 1170.09 -12.3158 1168.64 -18.0843C1166.38 -27.1163 1165.39 -29.1438 1158.3 -32.9499C1151.65 -36.5134 1144.27 -35.1549 1139.4 -31.0038C1131.62 -24.3765 1127.2 -4.79161 1126.3 6.02075C1126.01 9.47121 1125.17 13.5245 1124.97 17.238C1124.83 19.8448 1124.82 27.0796 1123.57 28.4299C1123.09 27.8634 1120.54 18.4881 1119.94 16.665L1115.57 5.64175C1113.79 2.24754 1112.08 -1.27785 1110.26 -4.44418C1104.57 -14.328 1088.9 -33.9165 1076.68 -33.0032C1073.76 -32.7835 1067.75 -29.4063 1065.85 -27.9547C1060.1 -23.5728 1055.42 -16.8125 1057.27 -6.07684C1059.39 6.13034 1070.82 24.9496 1078.2 35.3577L1084.9 44.0594C1086.11 45.7085 1091.44 51.7793 1091.61 52.8291C1089.59 52.6879 1085.17 50.1982 1083.18 49.2984C1080.09 47.9117 1077.34 47.0084 1074.09 45.7829C1062.49 41.4004 1042.46 38.6823 1030.27 41.8357C1023.68 43.541 1017.56 47.1233 1015.25 52.0418C1013.37 56.0253 1013 56.9456 1013 62.0814C1013 66.3707 1012.87 69.5224 1014.67 73.0443C1020.33 84.0723 1038.13 87.1877 1050.12 87.709C1056.81 87.9979 1061.82 88.2937 1068.67 88.1179C1070.44 88.071 1072.88 87.2843 1074.24 88.0014Z" fill="#40972E"/>
</svg>
