<svg width="360" height="274" viewBox="0 0 360 274" fill="none" xmlns="http://www.w3.org/2000/svg">
<path opacity="0.6" fill-rule="evenodd" clip-rule="evenodd" d="M339.059 41.4203C340.596 43.5977 336.856 50.9791 335.575 52.9176C328.728 63.2812 313.934 73.2721 315.698 83.9504C316.273 87.443 318.381 90.1993 320.672 92.0139C325.581 95.9038 327.222 97.2009 332.785 94.7586C336.454 93.1467 338.753 97.9354 345.384 96.779C353.209 95.4137 356.609 89.9458 357.936 85.1773C361.699 71.6575 351.903 53.4758 354.533 46.8014C355.792 46.536 355.913 46.8261 356.663 47.8234C357.184 48.5153 357.751 49.3221 358.279 50.0202C364.456 58.1931 364.821 69.0632 365.331 78.7275C365.535 82.5826 365.798 87.0943 367.889 90.8804C369.524 93.8377 373.36 96.3285 375.893 96.59C381.369 97.1553 383.71 92.4623 386.198 92.4123C388.416 92.367 391.908 94.6081 396.595 93.5349C400.715 92.5929 404.2 89.7276 405.237 86.9866L407.008 82.4324C407.549 80.5948 407.721 79.2879 410.094 78.5589C415.431 76.919 416.341 75.4573 417.259 71.3098C419.694 60.2835 413.05 54.5481 404.691 50.8971C403.862 50.536 403.221 50.3817 402.4 50.0171L397.916 48.1139C393.679 46.3316 375.383 39.6128 373.842 36.1319C378.252 35.2614 394.261 39.5931 399.69 41.0961C404.736 42.4928 409.343 44.2785 414.249 45.9862C420.39 48.1223 427.4 51.2817 435.059 44.929C442.604 38.6706 437.662 34.8624 440.111 30.4393C442.376 26.3469 446.625 22.656 443.498 15.3528C441.783 11.3474 438.623 9.93829 436.092 7.66218C432.6 4.52361 435.993 -0.0649491 432.126 -3.28061C429.514 -5.45163 425.085 -5.4047 421.65 -4.7979C416.369 -3.86596 404.994 3.57832 400.241 6.48472C396.038 9.054 381.159 16.9759 376.707 16.6968C376.452 14.6687 381.065 12.9299 382.681 11.9999C385.208 10.5437 387.37 9.167 389.752 7.66557C391.824 6.36085 394.218 4.67746 396.085 3.2092C401.52 -1.06531 408.683 -6.75379 408.789 -13.9475C408.832 -16.7928 406.886 -19.9162 405.144 -21.2539C403.557 -22.4724 399.578 -23.5056 398.838 -24.475C397.103 -26.7515 399.084 -29.2764 394.936 -31.1002C390.561 -33.0229 382.847 -30.2935 379.76 -26.8569C374.915 -21.462 372.288 -15.0364 368.601 -8.9015C367.259 -6.66818 363.293 2.11048 360.507 2.86646C360.7 -0.83946 369.478 -11.3632 369.566 -26.193C369.606 -32.9873 367.867 -38.6171 362.675 -41.4233C359.942 -42.9015 357.824 -41.5709 355.832 -44.4816C354.011 -47.1449 352.261 -48.771 350.115 -49.7918C346.369 -51.573 337.518 -51.0749 333.033 -47.7302C328.749 -44.5349 325.941 -39.6176 325.054 -34.9889C324.005 -29.52 324.175 -23.576 325.581 -17.8309C326.405 -14.4647 327.348 -11.323 328.551 -8.02468C329.289 -6.00493 332.332 -0.161228 331.837 1.5106C330.358 1.44673 327.875 -2.04262 326.881 -3.40097C318.019 -15.4927 322.054 -32.0139 314.725 -45.044C312.061 -49.7824 308.001 -53.4107 303.582 -53.5509C296.913 -53.7612 295.69 -47.3268 288.805 -50.8824C281.912 -54.4426 273.431 -52.4248 269.31 -44.7963C268.772 -43.8016 268.218 -42.8555 267.928 -41.6327C267.65 -40.4555 267.517 -39.1851 266.746 -38.3592C264.046 -35.4642 258.396 -36.9768 256.111 -28.3458C252.609 -15.1078 264.727 -7.87054 272.985 -2.97839C273.628 -2.59698 273.695 -2.65421 274.447 -2.29161C275.805 -1.636 286.08 4.29023 286.279 4.84784C286.632 5.83583 286.042 5.99452 285.118 5.88434L278.509 3.56125C273.277 1.44272 263.461 -2.03819 257.795 -0.727445C252.509 0.494668 248.333 5.48933 249.389 10.0626C249.699 11.4002 250.799 12.7786 250.989 13.9311C251.455 16.7455 247.219 19.8926 251.757 24.7683C253.811 26.9723 255.047 27.6709 257.62 28.4403C270.23 32.2105 303.163 19.7687 320.743 25.0948C322.683 25.683 327.889 26.7334 322.125 28.2817C319.679 28.939 316.015 29.4936 313.549 29.7976C309.326 30.3182 302.028 30.4181 297.945 30.0679C293.821 29.7143 286.65 30.5927 282.006 31.3809C272.502 32.9925 264.709 39.5726 268.289 47.0507C269.704 50.0101 272.124 50.8765 271.242 53.9585C269.836 58.8684 268.979 63.8272 273.711 68.6189C278.615 73.5849 284.808 72.485 286.101 74.1443C286.835 75.0878 287.17 76.5191 288.176 77.7318C294.217 85.0227 306.202 79.7777 311.388 73.2762C321.132 61.0611 323.295 53.5374 335.377 43.0251C335.784 42.6724 336.348 42.1746 336.789 41.9078L338.303 41.3434C338.866 41.2951 338.715 41.3138 339.059 41.4203Z" fill="#40972E"/>
<path opacity="0.6" fill-rule="evenodd" clip-rule="evenodd" d="M-32.5334 252.557C-32.6944 254.185 -37.4848 261.946 -39.4134 270.275L-40.536 276.403C-41.8764 285.159 -40.4592 291.657 -35.0051 302.072L-23.9121 303.319C-20.4855 303.062 -16.5692 302.727 -12.5867 301.313C-8.79422 299.968 -4.01354 297.305 -0.592838 294.705C6.45825 289.349 6.02533 288.36 10.1396 284.628C10.622 285.574 10.8516 290.935 10.9722 292.449C11.6023 300.318 14.973 309.467 20.0027 316.244C28.5026 327.696 33.4285 329.203 44.2646 332.568C44.9291 332.777 45.4813 332.892 46.1274 333.107C46.7922 333.328 47.4666 333.656 47.9498 333.798C64.0194 324.38 66.994 307.695 66.3073 292.087C66.2064 289.789 64.9377 282.663 65.1348 281.663C66.4278 281.569 69.4539 284.32 72.4633 286.017C88.7978 295.227 107.907 293.686 120.979 279.832C122.19 278.549 123.017 277.471 123.999 276.132C126.112 273.251 125.738 274.717 127.911 273.087C128.31 271.724 128.28 264.219 128.109 262.168C127.769 258.084 127.022 255.016 125.417 250.766C123.796 246.48 121.244 242.689 118.125 238.949C114.856 235.035 108.704 230.02 108.124 229.137C109.33 228.59 110.581 228.442 111.972 227.908C117.201 225.898 118.816 225.642 124.273 222.278C129.319 219.172 136.019 214.443 139.614 209.857C143.909 204.378 145.557 201.875 147.531 195.659C148.293 193.264 148.811 190.578 149.208 188.386C149.56 186.448 149.65 186.431 148.039 184.648C142.121 178.1 140.021 175.61 130.498 171.98C124.654 169.751 120.713 169.736 115.667 169.052C113.5 168.759 110.544 168.926 108.2 169.081C93.7386 170.033 88.5275 174.186 84.6112 175.035C84.2316 174.038 83.983 174.982 85.5239 172.3C86.0823 171.324 86.6751 170.387 87.2067 169.371C90.2254 163.604 92.1434 157.93 93.0236 151.772C93.5503 148.076 93.6056 144.145 92.7132 139.684C92.1015 136.625 89.4437 129.534 87.6473 126.78L77.3787 126.158C57.766 128.247 49.5137 142.504 44.9301 144.835C44.2402 143.818 43.7975 139.57 43.3017 137.871C42.601 135.475 41.8599 132.922 40.8112 130.347C35.8752 118.244 25.4717 103.994 12.0356 101.234L5.05021 99.4091C-0.495313 102.447 -4.95712 105.493 -7.88915 110.788C-9.23618 113.219 -9.98674 115.012 -10.716 117.429C-13.2375 125.811 -13.091 129.111 -12.488 138.18C-12.3417 140.38 -12.0137 142.814 -11.4568 145.303C-11.1728 146.571 -10.8769 147.499 -10.6301 148.775C-9.98243 152.104 -9.54161 151.211 -10.3154 152.335C-11.084 152.082 -14.4777 148.92 -15.4863 148.17C-23.322 142.325 -33.5668 137.458 -43.188 138.335C-45.6745 138.56 -52.9542 140.165 -55.4542 141.338C-55.712 145.191 -58.9768 152.761 -58.4642 159.464C-57.9365 166.37 -56.309 172.69 -52.3145 178.988C-48.4506 185.076 -45.9299 186.856 -41.27 191.49C-43.2421 192.127 -46.9197 192.413 -49.2297 192.783C-56.6493 193.968 -67.3295 198.619 -73.7997 203.481C-83.0498 210.43 -86.8692 218.165 -89.9985 228.326C-91.4559 233.058 -90.8764 230.551 -88.1523 236.026C-86.0135 240.324 -81.8071 244.017 -78.1032 246.728C-73.1156 250.379 -68.4365 252.032 -63.5019 253.311C-60.8597 253.996 -58.4914 254.477 -55.9344 254.584C-49.9366 254.837 -47.1277 255.237 -40.4528 254.097C-38.708 253.798 -33.9603 252.373 -32.5334 252.557Z" fill="#40972E"/>
</svg>
