<svg width="380" height="297" viewBox="0 0 380 297" fill="none" xmlns="http://www.w3.org/2000/svg">
<g filter="url(#filter0_d_2035_6)">
<path fill-rule="evenodd" clip-rule="evenodd" d="M-30.5699 257.195C-30.7574 258.577 -32.4739 259.325 -33.4202 260.244C-34.6649 261.456 -42.5542 268.413 -42.6959 269.202C-42.9167 270.425 -38.0927 273.567 -36.5242 274.819C-35.2783 275.817 -34.6295 276.704 -33.5569 277.676C-32.0168 279.073 -31.7296 278.74 -29.4935 279.359C-25.9182 280.349 -26.4205 283.046 -23.7898 285.651C-22.651 286.78 -18.1577 289.485 -15.6821 288.925C-11.3009 287.933 -5.00287 280.521 -2.32723 278.092C1.46766 274.648 4.43258 274.917 8.46416 270.448C9.45757 269.346 10.1046 267.935 11.2035 267.086C12.7919 267.784 14.4091 271.1 15.7709 273.377C18.0578 277.202 21.9651 282.677 24.9408 285.683C26.2338 286.99 26.4702 287.253 28.7112 286.392C32.0314 285.117 32.9553 281.935 34.2345 281.326C35.9743 280.496 39.3041 283.541 41.4159 278.965C42.0243 277.646 42.048 276.514 42.8085 275.282C45.1746 271.441 54.1386 277.977 52.1859 263.653C51.7892 260.733 51.0122 257.19 51.2234 254.431C52.869 253.912 58.5069 256.403 60.4154 257.072C62.4331 257.778 67.661 260.348 69.8287 259.851C71.9805 259.355 73.1819 254.422 75.3592 252.689C77.2985 251.143 81.9526 252.878 82.771 246.798C83.534 241.134 81.175 245.022 86.4821 238.275C87.4426 237.054 88.3818 235.858 87.8418 233.625C87.2842 231.318 82.7002 229.005 80.8079 227.808C79.517 226.992 78.4869 226.182 77.0222 225.216C75.2478 224.049 70.8267 221.707 69.9929 219.377C70.3967 218.108 70.8788 218.134 72.1093 217.328L85.052 208.024C87.4484 206.035 86.3571 206.326 85.6816 201.238C85.0507 196.499 85.9592 195.738 82.9494 193.118C82.0173 192.307 80.92 191.912 80.49 190.189C80.085 188.566 80.2587 186.644 79.4741 185.206C78.2352 182.939 76.2143 181.032 73.5378 180.865C71.018 180.707 68.2128 183.345 65.7759 184.373C62.8394 185.61 60.7946 186.191 58.0614 187.742C54.0207 190.038 51.9643 191.933 48.652 194.581C47.6611 195.374 46.4564 196.118 45.4888 196.907C44.4517 197.755 40.4651 201.402 39.8284 201.426C38.2882 201.485 38.8811 197.52 37.9881 194.291C37.3997 192.168 36.8434 189.977 36.078 187.903C34.6133 183.933 33.0777 179.965 31.4772 176.06C29.9075 172.229 27.3468 169.734 25.1875 166.713C23.7524 164.704 19.7551 158.962 17.9245 158.405C16.5506 159.348 13.522 164.262 12.8241 166.287C12.0682 168.486 11.9827 175.575 11.1185 176.685C9.9205 174.875 9.01328 171.841 8.16405 169.447C6.8506 165.748 3.39074 158.81 1.6606 155.241C1.0118 153.901 0.848923 152.692 -0.888725 153.07C-3.6477 153.673 -9.88695 157.415 -11.8242 157.101C-14.3402 156.69 -17.4346 156.172 -20.4174 157.118C-21.4179 157.435 -22.4055 158.871 -22.7372 159.686C-23.3043 161.073 -23.1189 162.13 -22.9439 163.833C-22.7797 165.434 -20.9204 176.03 -21.2821 176.527L-24.021 175.492C-29.2044 172.798 -26.9151 177.552 -26.8822 182.36C-28.1131 182.667 -30.3124 181.279 -32.1171 180.525C-37.8059 178.147 -34.9886 178.871 -41.3212 177.244C-43.386 176.713 -47.3617 175.25 -49.5494 176.369C-52.3876 177.822 -50.2286 181.683 -51.9779 183.78C-52.9643 184.961 -53.8052 184.864 -54.0865 186.735C-54.444 189.112 -54.274 188.519 -55.4954 190.386C-57.701 193.761 -56.8962 193.884 -54.2527 196.596C-52.4455 198.45 -50.857 200.111 -48.8477 201.662L-44.9378 205.44C-44.3674 206.024 -43.8864 206.045 -43.6339 207.117C-45.4078 207.367 -51.2692 206.944 -53.1922 207.464C-54.3544 207.779 -54.6711 208.521 -55.2899 209.148C-54.8457 211.78 -52.7597 213.347 -51.4133 214.592C-50.5487 215.393 -49.8069 216.137 -48.9539 216.774C-48.0822 217.423 -46.7759 217.825 -46.4287 218.732C-47.208 219.299 -50.2699 218.495 -51.3741 218.349C-54.0248 217.998 -59.5423 217.326 -62.0913 217.301C-66.8762 217.252 -66.8563 216.494 -65.3078 225.797C-64.7632 229.074 -65.2074 228.919 -66.3225 231.088C-67.0534 232.511 -67.3379 234.47 -66.4333 236.152C-65.2157 238.421 -64.3014 237.584 -64.4806 240.989C-64.6094 243.412 -64.3106 244.499 -62.3746 245.223L-53.2759 248.344C-45.4374 250.598 -46.2787 253.141 -35.512 255.77C-34.1677 256.099 -31.3612 256.321 -30.5699 257.195Z" fill="#40972E"/>
<path fill-rule="evenodd" clip-rule="evenodd" d="M140.147 22.4656C141.056 25.3586 134.402 32.0472 132.329 33.6997C121.25 42.5345 101.653 48.1961 99.8316 60.3722C99.2344 64.3542 100.562 68.073 102.42 70.8362C106.399 76.7586 107.73 78.7348 114.639 78.0293C119.195 77.5627 120.02 83.5488 127.64 84.6076C136.633 85.8565 142.248 81.1212 145.362 76.4207C154.192 63.0942 149.9 39.9943 155.1 33.6844C156.563 33.836 156.593 34.1923 157.059 35.5332C157.384 36.4641 157.719 37.5354 158.049 38.4751C161.907 49.4767 158.498 61.3733 155.667 72.0145C154.539 76.2595 153.245 81.2361 154.194 86.0642C154.938 89.8361 158.24 93.8697 160.904 95.0354C166.665 97.5561 170.856 93.2908 173.581 94.1037C176.01 94.8276 179.024 98.4709 184.5 98.9425C189.313 99.3583 194.109 97.4706 196.197 94.8643L199.719 90.5505C200.952 88.7495 201.597 87.3945 204.434 87.4323C210.816 87.5166 212.318 86.2513 214.769 82.0803C221.281 70.9909 216.06 62.4653 208.243 55.5992C207.468 54.9195 206.824 54.5289 206.059 53.8481L201.846 50.2247C197.86 46.8185 180.305 33.1675 179.847 28.8617C184.951 29.4562 200.853 39.7252 206.234 43.2447C211.235 46.5154 215.623 50.0544 220.364 53.6133C226.297 58.066 232.819 63.93 243.377 59.7208C253.78 55.5743 249.736 49.7287 253.95 45.7933C257.847 42.1516 263.763 39.6362 262.919 30.6391C262.456 25.7049 259.511 23.078 257.554 19.7313C254.854 15.1163 260.153 11.3307 257.071 6.50145C254.989 3.24036 250.154 1.74782 246.203 1.20755C240.131 0.376335 225.146 4.47208 218.956 5.9623C213.483 7.27956 194.518 10.6712 189.772 8.81754C190.205 6.53275 195.833 6.25787 197.918 5.8142C201.177 5.11815 204.011 4.38084 207.13 3.58551C209.841 2.89481 213.036 1.90667 215.581 0.9674C222.992 -1.7664 232.779 -5.42912 235.414 -13.1807C236.456 -16.2467 235.433 -20.3066 234.007 -22.3619C232.706 -24.2343 228.738 -26.7398 228.273 -28.0471C227.183 -31.1165 230.222 -33.1601 226.347 -36.5804C222.261 -40.1866 212.91 -39.9201 208.348 -37.2749C201.187 -33.1223 196.077 -27.0808 189.917 -21.7231C187.675 -19.7728 180.285 -11.65 176.988 -11.8028C178.497 -15.7477 191.734 -24.0827 197.023 -40.1087C199.447 -47.451 199.526 -54.1527 194.86 -59.0002C192.403 -61.5534 189.632 -60.8508 188.485 -64.6965C187.435 -68.2149 186.101 -70.5853 184.124 -72.4382C180.672 -75.6722 170.866 -78.2177 164.814 -76.1593C159.034 -74.1926 154.256 -69.8472 151.67 -65.1447C148.613 -59.5889 146.716 -53.0943 146.233 -46.3839C145.952 -42.452 145.877 -38.7219 146.03 -34.7316C146.126 -32.2876 147.391 -24.8999 146.267 -23.2623C144.68 -23.8468 143.2 -28.4901 142.595 -30.3071C137.186 -46.4877 147.364 -62.9691 143.953 -79.6312C142.713 -85.6902 139.566 -91.0334 134.807 -92.7252C127.624 -95.2773 124.039 -88.7368 117.793 -94.9859C111.54 -101.243 101.605 -102.014 94.4482 -95.1906C93.5148 -94.3009 92.5807 -93.4697 91.837 -92.2468C91.1216 -91.0693 90.5319 -89.7401 89.4047 -89.1143C85.4529 -86.9208 79.8339 -90.5278 74.3254 -81.9789C65.8776 -68.8666 76.529 -56.8074 83.801 -48.6328C84.3677 -47.9955 84.4598 -48.0344 85.1515 -47.3796C86.4 -46.1963 95.504 -36.1993 95.5254 -35.5261C95.5636 -34.3333 94.8665 -34.367 93.8995 -34.8084L87.5219 -39.6269C82.5709 -43.744 73.1083 -50.934 66.4848 -51.4892C60.3042 -52.0084 54.0114 -48.0558 53.5583 -42.7363C53.4272 -41.1801 54.1414 -39.3042 53.9441 -37.9904C53.4661 -34.7805 47.7539 -32.8496 50.9849 -25.9888C52.4471 -22.8869 53.5484 -21.6995 56.0782 -19.9698C68.4789 -11.4931 108.671 -13.487 125.935 -1.59344C127.841 -0.280373 133.137 2.67106 126.322 2.3385C123.431 2.19799 119.25 1.52146 116.46 0.991119C111.683 0.0831604 103.707 -2.3521 99.3862 -4.15427C95.0225 -5.97439 86.9128 -7.52223 81.5832 -8.28739C70.6772 -9.85474 59.8923 -5.4463 61.1694 3.89825C61.6723 7.59538 64.0024 9.37693 61.9625 12.4063C58.7131 17.2324 56.0445 22.3029 59.5153 29.1401C63.1115 36.2258 70.2359 37.1933 71.0611 39.4403C71.5291 40.7175 71.3926 42.3841 72.0625 44.0477C76.0824 54.0471 90.9602 52.545 98.8803 47.3129C113.762 37.4835 118.75 30.0911 135.579 22.9199C136.145 22.6797 136.933 22.3376 137.507 22.2025L139.351 22.1189C139.981 22.2628 139.81 22.2304 140.147 22.4656Z" fill="#40972E"/>
</g>
<defs>
<filter id="filter0_d_2035_6" x="-71" y="-100" width="338" height="397" filterUnits="userSpaceOnUse" color-interpolation-filters="sRGB">
<feFlood flood-opacity="0" result="BackgroundImageFix"/>
<feColorMatrix in="SourceAlpha" type="matrix" values="0 0 0 0 0 0 0 0 0 0 0 0 0 0 0 0 0 0 127 0" result="hardAlpha"/>
<feOffset dy="4"/>
<feGaussianBlur stdDeviation="2"/>
<feComposite in2="hardAlpha" operator="out"/>
<feColorMatrix type="matrix" values="0 0 0 0 0 0 0 0 0 0 0 0 0 0 0 0 0 0 0.25 0"/>
<feBlend mode="normal" in2="BackgroundImageFix" result="effect1_dropShadow_2035_6"/>
<feBlend mode="normal" in="SourceGraphic" in2="effect1_dropShadow_2035_6" result="shape"/>
</filter>
</defs>
</svg>
