<svg width="380" height="695" viewBox="0 0 380 695" fill="none" xmlns="http://www.w3.org/2000/svg">
<path opacity="0.6" fill-rule="evenodd" clip-rule="evenodd" d="M180.762 498.012C185.55 499.67 187.965 515.217 188.138 519.632C189.064 543.231 177.304 575.071 191.874 589.604C196.638 594.359 202.95 596.277 208.501 596.537C220.397 597.097 224.37 597.28 230.25 587.336C234.127 580.777 242.991 585.62 251.947 576.478C262.515 565.688 261.699 553.472 258.457 544.637C249.269 519.585 213.969 502.379 210.626 489.154C212.276 487.347 212.785 487.661 215.048 488.369C216.621 488.859 218.393 489.475 219.982 489.968C238.587 495.735 251.211 512.115 262.721 526.473C267.312 532.199 272.724 538.874 280.154 542.401C285.96 545.153 294.647 544.743 298.847 542.337C307.931 537.134 306.34 527.29 310.126 524.452C313.501 521.922 321.379 521.508 327.426 514.651C332.742 508.626 334.945 500.334 333.505 494.951L331.187 485.955C329.983 482.517 328.799 480.308 331.655 476.549C338.077 468.095 337.861 464.828 334.675 457.406C326.203 437.678 309.58 436.193 292.621 439.83C290.942 440.191 289.78 440.665 288.108 441.012L279.072 443.049C270.553 444.997 234.846 454.922 228.605 451.256C234.449 445.018 263.974 433.947 274.026 430.244C283.367 426.802 292.462 424.448 301.933 421.642C313.785 418.127 328.115 415.228 332.893 396.921C337.601 378.886 325.744 378.489 324.619 368.942C323.575 360.11 326.041 349.697 313.11 341.889C306.019 337.606 299.576 338.936 293.142 338.23C284.268 337.257 284.416 326.408 274.878 325.732C268.435 325.278 261.649 330.264 257.017 335.013C249.897 342.31 240.591 366.426 236.476 376.187C232.837 384.817 218.651 413.558 211.466 418.066C208.822 415.218 214.017 407.414 215.481 404.185C217.767 399.133 219.577 394.609 221.59 389.648C223.341 385.335 225.171 380.078 226.424 375.741C230.075 363.11 234.824 346.379 227.007 335.152C223.916 330.712 217.446 328.048 213.273 327.914C209.47 327.794 202.179 330.613 199.961 329.937C194.757 328.346 195.014 322.25 186.585 324.036C177.697 325.921 168.812 338.694 167.859 347.425C166.363 361.131 169.435 373.968 170.549 387.532C170.954 392.469 174.57 410.425 171.106 414.684C167.293 408.746 169.172 382.757 152.854 359.761C145.379 349.224 136.447 342.461 125.317 343.887C119.455 344.638 117.661 349.042 111.356 346.758C105.589 344.666 101.083 344.096 96.6374 344.9C88.8771 346.306 75.7615 356.895 72.5471 367.036C69.4775 376.723 70.597 387.431 74.3626 395.563C78.8107 405.171 85.6666 414.162 94.2119 421.473C99.2198 425.756 104.161 429.562 109.677 433.321C113.058 435.621 124.241 441.268 125.331 444.398C122.977 445.941 115.272 443.307 112.23 442.312C85.1291 433.474 73.0309 403.485 47.2573 391.496C37.8857 387.135 27.5916 386.037 20.6124 390.723C10.0805 397.797 15.3309 409.09 0.754458 411.239C-13.8387 413.388 -24.6956 425.913 -22.5968 442.266C-22.3233 444.398 -22.1291 446.474 -21.2201 448.683C-20.3441 450.81 -19.1401 452.919 -19.413 455.049C-20.3702 462.515 -30.7741 466.449 -24.7255 482.311C-15.447 506.638 11.2951 504.369 29.4741 502.761C30.891 502.636 30.9298 502.474 32.494 502.199C35.3189 501.705 57.7589 499.457 58.6851 500.097C60.3265 501.231 59.5923 502.13 58.0429 502.985L45.2603 506.73C34.831 509.264 15.8105 514.78 8.51679 523.089C1.70905 530.842 0.802904 543.187 7.50686 549.078C9.46959 550.799 12.6976 551.707 14.269 553.276C18.1122 557.104 15.0616 566.664 27.4797 569.158C33.0954 570.283 35.7805 569.989 40.6066 568.323C64.2614 560.155 101.31 504.405 134.367 493.124C138.015 491.88 147.219 487.727 140.035 496.513C136.989 500.24 131.946 505.163 128.475 508.368C122.532 513.857 111.374 522.108 104.68 526.098C97.9195 530.127 87.822 539.439 81.525 545.808C68.6371 558.841 63.9033 577.649 77.7293 585.223C83.197 588.224 87.8956 586.876 89.9519 592.615C93.2285 601.756 97.4077 610.363 110.031 612.512C123.112 614.74 131.456 606.171 135.292 607.299C137.472 607.942 139.578 609.78 142.477 610.536C159.894 615.092 172.581 593.696 173.376 577.903C174.871 548.23 169.863 534.213 176.857 504.576C177.093 503.58 177.413 502.185 177.798 501.283L179.509 498.732C180.325 498.033 180.112 498.23 180.762 498.012Z" fill="#40972E"/>
<path opacity="0.6" fill-rule="evenodd" clip-rule="evenodd" d="M-59.6647 62.188C-60.3494 62.7085 -63.9054 64.2921 -64.9312 64.75C-69.4191 66.7599 -70.651 66.4034 -76.3927 69.6635C-78.2098 70.698 -79.9215 71.3735 -81.8333 72.4163C-94.1836 79.1633 -108.343 92.6082 -112.587 106.503C-115.61 116.407 -112.709 125.377 -107.187 130.819C-105.771 132.216 -104.912 133.613 -103.312 134.795C-99.9538 137.27 -96.6816 139.435 -92.2967 140.095C-90.0724 140.428 -86.4812 140.396 -84.2045 140.259C-77.437 139.856 -66.8758 130.461 -64.3478 127.36C-61.8818 124.333 -59.0889 122.034 -56.5812 119.094C-50.5948 112.082 -44.3865 102.915 -38.3834 96.3215C-37.5261 95.3801 -33.6036 89.9937 -34.608 94.0159C-35.4159 97.2474 -35.2458 94.0904 -35.7721 100.369C-36.9236 114.117 -38.5519 131.67 -32.8661 144.432C-31.8129 146.799 -31.2865 148.709 -29.9767 151.187C-28.6889 153.615 -27.3393 154.747 -25.4829 156.665C-21.8643 160.399 -16.1261 160.962 -10.4641 161.247C-2.39571 161.654 -1.22955 158.914 0.0123901 152.275C2.64867 138.195 -2.5071 118.151 -1.62774 116.146C-1.09251 116.572 3.18875 124.073 3.80138 125.205C4.69741 126.87 5.74878 127.953 6.8002 129.332C7.98199 130.88 8.68228 132.123 9.81645 133.787C16.0541 142.926 23.0794 149.752 31.3151 156.474C33.8859 158.571 36.9961 160.64 40.142 162.25C48.0926 166.318 55.0065 168.338 61.7317 161.644C63.5577 159.823 66.9853 155.889 67.9748 153.288C71.2922 144.564 66.3071 140.027 61.2524 133.261C57.7356 128.553 44.3661 114.875 39.8395 110.141C37.158 107.339 25.9859 97.0466 25.8186 94.7445C27.2951 94.9454 33.0518 97.7155 35.1951 98.3898C38.4893 99.426 42.0942 100.785 45.5408 101.601C50.6628 102.816 56.9944 104.391 62.439 104.495C72.1191 104.681 82.1915 105.97 92.9265 102.326C95.9456 101.302 99.6803 99.8757 102.148 98.3815C107.717 95.0098 106.117 80.3736 104.317 76.956C100.198 69.1478 85.9394 64.4745 78.377 62.6376C71.213 60.8966 63.6643 59.4197 56.2574 58.0323L36.3394 54.8276C34.77 54.5796 34.4086 54.8157 33.6965 53.9875C35.4231 53.0884 59.0098 50.8645 66.8002 48.7449C75.3782 46.4112 88.0743 43.4599 95.0109 37.7611C99.9506 33.705 102.408 26.8633 99.8984 17.8859C98.1415 11.6088 93.7363 5.69841 87.632 4.1655C69.0566 -0.501175 51.2533 5.72522 34.4693 12.7547C31.9616 13.8041 26.7874 16.9648 25.4169 16.8717C25.3692 15.7294 28.0833 9.53149 28.8901 7.89903C30.6351 4.3616 34.3294 -6.97092 35.1463 -11.1606C35.8333 -14.6909 36.4764 -18.2449 36.9908 -22.068C37.8416 -28.391 37.892 -39.9125 36.4221 -45.7835C34.1216 -54.9762 33.1095 -57.0397 25.8913 -60.9134C19.1303 -64.5403 11.612 -63.1576 6.65376 -58.9327C-1.26164 -52.1876 -5.76268 -32.2546 -6.67895 -21.25C-6.97068 -17.7382 -7.82797 -13.6128 -8.03219 -9.83334C-8.17567 -7.18013 -8.18754 0.183243 -9.45865 1.55756C-9.94804 0.981003 -12.5421 -8.56105 -13.1493 -10.4165L-17.5961 -21.6357C-19.4072 -25.0903 -21.1541 -28.6783 -23.0068 -31.901C-28.7992 -41.9605 -44.7425 -61.8972 -57.1803 -60.9677C-60.1553 -60.7441 -66.2714 -57.3069 -68.2088 -55.8294C-74.0553 -51.3696 -78.8225 -44.4891 -76.934 -33.5627C-74.7859 -21.1385 -63.1493 -1.98463 -55.6328 8.60855L-48.8147 17.4649C-47.5793 19.1433 -42.1567 25.3221 -41.9894 26.3905C-44.0452 26.2468 -48.5361 23.7128 -50.5711 22.797C-53.7069 21.3857 -56.5086 20.4664 -59.8164 19.219C-71.6297 14.7587 -92.0116 11.9922 -104.418 15.2017C-111.126 16.9373 -117.353 20.5833 -119.709 25.5892C-121.62 29.6435 -121.995 30.5802 -121.996 35.8073C-122.001 40.1729 -122.135 43.3806 -120.295 46.9651C-114.535 58.1891 -96.4168 61.3599 -84.2165 61.8905C-77.4103 62.1845 -72.3085 62.4855 -65.3331 62.3067C-63.5292 62.259 -61.0484 61.4583 -59.6647 62.188Z" fill="#40972E"/>
</svg>
