<svg width="1400" height="450" viewBox="0 0 1400 450" fill="none" xmlns="http://www.w3.org/2000/svg">
<path opacity="0.6" fill-rule="evenodd" clip-rule="evenodd" d="M1125.2 -42.9044C1126.33 -42.0475 1132.19 -39.4404 1133.89 -38.6866C1141.29 -35.3777 1143.32 -35.9648 1152.79 -30.5976C1155.78 -28.8946 1158.61 -27.7824 1161.76 -26.0657C1182.13 -14.9583 1205.48 7.17591 1212.48 30.0503C1217.46 46.355 1212.68 61.1236 1203.57 70.0823C1201.24 72.3812 1199.82 74.682 1197.18 76.6275C1191.64 80.703 1186.25 84.267 1179.02 85.3526C1175.35 85.9003 1169.43 85.8483 1165.67 85.6225C1154.51 84.96 1137.09 69.4924 1132.92 64.3873C1128.86 59.4039 1124.25 55.62 1120.12 50.7789C1110.24 39.2348 1100.01 24.1433 1090.11 13.2891C1088.69 11.7392 1082.22 2.87176 1083.88 9.49339C1085.21 14.8135 1084.93 9.61606 1085.8 19.9529C1087.7 42.5848 1090.38 71.4822 1081.01 92.4925C1079.27 96.3903 1078.4 99.5342 1076.24 103.614C1074.12 107.612 1071.89 109.474 1068.83 112.631C1062.86 118.78 1053.4 119.706 1044.06 120.175C1030.76 120.845 1028.83 116.335 1026.79 105.405C1022.44 82.2253 1030.94 49.2261 1029.49 45.9261C1028.61 46.6269 1021.55 58.9761 1020.54 60.84C1019.06 63.5806 1017.33 65.3641 1015.59 67.6344C1013.64 70.1826 1012.49 72.2281 1010.62 74.9686C1000.33 90.013 988.746 101.251 975.165 112.317C970.925 115.769 965.796 119.175 960.608 121.827C947.496 128.524 936.095 131.849 925.004 120.828C921.993 117.832 916.34 111.354 914.708 107.072C909.237 92.7094 917.458 85.2417 925.794 74.1029C931.594 66.3515 953.642 43.8334 961.107 36.0408C965.529 31.4275 983.953 14.4827 984.229 10.6929C981.794 11.0237 972.301 15.584 968.766 16.6941C963.333 18.4001 957.388 20.6371 951.705 21.9809C943.258 23.9813 932.816 26.5746 923.837 26.7444C907.874 27.0507 891.263 29.1737 873.56 23.1744C868.581 21.4881 862.422 19.1403 858.353 16.6805C849.168 11.1297 851.807 -12.9657 854.776 -18.5921C861.568 -31.4466 885.082 -39.1402 897.554 -42.1644C909.368 -45.0305 921.817 -47.4619 934.032 -49.746L966.879 -55.0218C969.467 -55.4301 970.063 -55.0414 971.237 -56.4048C968.39 -57.885 929.493 -61.5463 916.645 -65.0357C902.499 -68.8776 881.562 -73.7364 870.122 -83.1182C861.976 -89.7957 857.924 -101.059 862.062 -115.839C864.96 -126.172 872.224 -135.903 882.291 -138.426C912.924 -146.109 942.284 -135.858 969.963 -124.286C974.098 -122.558 982.631 -117.355 984.891 -117.508C984.97 -119.389 980.494 -129.592 979.164 -132.28C976.286 -138.103 970.194 -156.76 968.847 -163.657C967.714 -169.469 966.653 -175.32 965.805 -181.614C964.402 -192.024 964.318 -210.991 966.743 -220.657C970.536 -235.79 972.205 -239.188 984.109 -245.565C995.259 -251.536 1007.66 -249.259 1015.83 -242.304C1028.89 -231.2 1036.31 -198.384 1037.82 -180.267C1038.3 -174.486 1039.72 -167.694 1040.05 -161.472C1040.29 -157.104 1040.31 -144.982 1042.41 -142.72C1043.21 -143.669 1047.49 -159.378 1048.49 -162.432L1055.83 -180.902C1058.81 -186.59 1061.69 -192.497 1064.75 -197.802C1074.3 -214.363 1100.59 -247.185 1121.1 -245.654C1126.01 -245.286 1136.1 -239.627 1139.29 -237.195C1148.93 -229.853 1156.79 -218.526 1153.68 -200.538C1150.14 -180.084 1130.95 -148.551 1118.55 -131.112L1107.31 -116.532C1105.27 -113.768 1096.33 -103.596 1096.05 -101.837C1099.44 -102.074 1106.85 -106.246 1110.2 -107.753C1115.38 -110.077 1120 -111.59 1125.45 -113.644C1144.93 -120.987 1178.55 -125.541 1199 -120.258C1210.07 -117.4 1220.34 -111.398 1224.22 -103.157C1227.37 -96.482 1227.99 -94.9401 1227.99 -86.3347C1228 -79.1477 1228.22 -73.8669 1225.19 -67.9658C1215.69 -49.4878 1185.81 -44.2678 1165.69 -43.3942C1154.47 -42.9103 1146.05 -42.4146 1134.55 -42.7091C1131.57 -42.7876 1127.48 -44.1058 1125.2 -42.9044Z" fill="#40972E"/>
<path opacity="0.6" fill-rule="evenodd" clip-rule="evenodd" d="M594.013 639.758C585.026 642.868 580.495 672.046 580.17 680.33C578.433 724.618 600.501 784.374 573.158 811.647C564.219 820.57 552.372 824.169 541.954 824.657C519.629 825.709 512.174 826.051 501.138 807.391C493.862 795.08 477.228 804.17 460.421 787.013C440.586 766.763 442.118 743.838 448.202 727.258C465.445 680.242 531.692 647.952 537.967 623.134C534.87 619.742 533.915 620.331 529.667 621.661C526.716 622.58 523.391 623.736 520.409 624.661C485.492 635.484 461.8 666.224 440.201 693.169C431.584 703.916 421.428 716.443 407.484 723.06C396.587 728.226 380.286 727.457 372.403 722.942C355.355 713.177 358.342 694.703 351.236 689.377C344.903 684.628 330.118 683.853 318.77 670.984C308.793 659.676 304.659 644.115 307.36 634.013L311.712 617.129C313.97 610.677 316.192 606.531 310.833 599.478C298.781 583.613 299.187 577.482 305.164 563.553C321.064 526.528 352.261 523.743 384.087 530.567C387.239 531.246 389.42 532.134 392.557 532.786L409.515 536.608C425.503 540.264 492.514 558.89 504.226 552.01C493.258 540.305 437.849 519.526 418.985 512.577C401.455 506.119 384.386 501.7 366.612 496.433C344.37 489.839 317.476 484.397 308.509 450.042C299.675 416.195 321.926 415.45 324.038 397.533C325.996 380.958 321.368 361.415 345.636 346.762C358.944 338.725 371.036 341.221 383.111 339.896C399.764 338.071 399.486 317.709 417.386 316.441C429.478 315.59 442.213 324.946 450.905 333.858C464.267 347.553 481.731 392.81 489.455 411.13C496.283 427.325 522.907 481.263 536.389 489.723C541.352 484.378 531.603 469.733 528.856 463.673C524.566 454.192 521.169 445.702 517.391 436.391C514.104 428.297 510.67 418.432 508.319 410.292C501.467 386.587 492.554 355.188 507.224 334.12C513.026 325.787 525.168 320.787 533 320.536C540.137 320.31 553.82 325.602 557.981 324.332C567.749 321.347 567.266 309.907 583.085 313.259C599.765 316.795 616.438 340.768 618.227 357.153C621.035 382.875 615.269 406.966 613.179 432.42C612.418 441.686 605.632 475.383 612.134 483.376C619.288 472.233 615.762 423.46 646.386 380.302C660.416 360.529 677.178 347.836 698.066 350.513C709.066 351.922 712.432 360.187 724.265 355.899C735.089 351.974 743.545 350.905 751.888 352.414C766.452 355.051 791.065 374.925 797.098 393.956C802.859 412.135 800.758 432.231 793.691 447.492C785.343 465.524 772.477 482.396 756.44 496.118C747.042 504.156 737.769 511.298 727.416 518.351C721.072 522.668 700.085 533.266 698.038 539.141C702.457 542.035 716.917 537.093 722.626 535.226C773.485 518.639 796.19 462.359 844.559 439.859C862.146 431.676 881.465 429.614 894.563 438.409C914.328 451.685 904.475 472.878 931.83 476.91C959.217 480.944 979.592 504.45 975.653 535.139C975.14 539.141 974.776 543.035 973.07 547.183C971.426 551.174 969.166 555.132 969.678 559.129C971.475 573.14 991 580.523 979.648 610.291C962.235 655.946 912.049 651.687 877.932 648.67C875.273 648.435 875.201 648.131 872.265 647.616C866.964 646.687 824.851 642.469 823.113 643.67C820.032 645.798 821.41 647.485 824.318 649.09L848.307 656.118C867.879 660.873 903.575 671.225 917.263 686.819C930.039 701.368 931.739 724.536 919.158 735.591C915.475 738.822 909.417 740.526 906.468 743.471C899.255 750.655 904.98 768.596 881.675 773.275C871.136 775.387 866.097 774.836 857.04 771.71C812.648 756.379 743.118 651.755 681.082 630.584C674.234 628.249 656.962 620.454 670.443 636.944C676.16 643.939 685.625 653.176 692.138 659.192C703.291 669.492 724.232 684.978 736.794 692.465C749.482 700.027 768.432 717.502 780.249 729.456C804.436 753.915 813.319 789.211 787.373 803.426C777.111 809.056 768.293 806.527 764.434 817.297C758.285 834.452 750.442 850.605 726.752 854.638C702.202 858.82 686.545 842.737 679.344 844.855C675.254 846.061 671.302 849.511 665.862 850.93C633.174 859.48 609.365 819.327 607.873 789.688C605.067 734 614.466 707.695 601.341 652.075C600.898 650.206 600.297 647.588 599.574 645.896L596.363 641.109C594.832 639.796 595.232 640.166 594.013 639.758Z" fill="#40972E"/>
</svg>
