<svg width="11" height="10" viewBox="0 0 11 10" fill="none" xmlns="http://www.w3.org/2000/svg">
<path d="M10.8804 0.103531C10.9717 0.152814 10.9611 0.0408473 10.9478 0.000815665C10.8025 -0.00687941 10.8942 0.0428367 10.7476 0.0258902C10.7601 0.0564111 10.8239 0.11728 10.7574 0.128693C10.7523 0.0745676 10.7211 0.0956645 10.7038 0.092206C10.7475 0.120911 10.6903 0.132928 10.6928 0.159039C10.6523 0.140363 10.6346 0.0541612 10.5785 0.0774193L10.655 0.168551C10.6261 0.170626 10.6001 0.100766 10.5857 0.15221C10.5603 0.0914279 10.5117 0.0893528 10.5452 0.0333258C10.4172 0.0124886 10.4981 0.150134 10.4856 0.219909C10.4848 0.210657 10.474 0.199072 10.4728 0.189475C10.4856 0.21991 10.4676 0.233829 10.4597 0.250429C10.4118 0.257519 10.444 0.192067 10.4133 0.175813L10.3691 0.220254C10.3654 0.218352 10.3636 0.217141 10.3619 0.215325C10.3613 0.237805 10.3573 0.255962 10.3319 0.239102C10.3184 0.199762 10.2956 0.166994 10.2829 0.136732L10.293 0.239189C10.2704 0.206852 10.2042 0.228383 10.2186 0.176765L10.1581 0.254234L10.0943 0.203655C10.0871 0.22942 10.0981 0.240919 10.1258 0.228901C10.0877 0.238671 10.1168 0.426726 10.0163 0.304642C10.0068 0.402343 9.96714 0.40243 9.92803 0.49356C9.92657 0.393178 9.80076 0.484999 9.83103 0.409085C9.7735 0.415484 9.82966 0.482059 9.81416 0.515347C9.76566 0.514309 9.71916 0.449808 9.72362 0.404935L9.71998 0.459147L9.70904 0.447648L9.71561 0.503935C9.6568 0.500822 9.65142 0.453961 9.61468 0.473847L9.65999 0.528835L9.61039 0.518719C9.64139 0.534196 9.63474 0.560308 9.61805 0.584085L9.60693 0.572757L9.59143 0.606217C9.58514 0.552611 9.55715 0.617804 9.53171 0.57172C9.50746 0.589964 9.50774 0.591088 9.47802 0.637345L9.52023 0.664148C9.49999 0.741877 9.46552 0.616593 9.42112 0.653253L9.46443 0.689135C9.33625 0.681527 9.40234 0.821939 9.31427 0.822458C9.32995 0.789516 9.27607 0.751215 9.28728 0.762628C9.26422 0.812776 9.19147 0.861625 9.20195 0.94506C9.12801 0.903559 9.10677 0.890245 9.03958 0.904165C9.01387 0.93555 9.01524 0.944887 9.04022 0.985956C8.98862 0.991663 8.96992 1.07432 8.92534 1.03611C8.95342 1.07415 8.89352 1.05469 8.90738 1.09671L8.88632 1.08366L8.93017 1.11911C8.78831 1.08374 8.89945 1.24966 8.76898 1.22571L8.76643 1.20704L8.76178 1.24266C8.74036 1.22952 8.73763 1.21093 8.71492 1.18836L8.60999 1.27846L8.6604 1.28762C8.64417 1.31183 8.6708 1.36198 8.62184 1.36224C8.59841 1.2673 8.58719 1.39233 8.53267 1.35524L8.53714 1.3197C8.51243 1.3516 8.51243 1.3516 8.55674 1.38696C8.5344 1.43694 8.45172 1.3408 8.46256 1.41515L8.48882 1.39267C8.52027 1.40728 8.53714 1.45553 8.51982 1.47066C8.50952 1.46876 8.47934 1.46349 8.48654 1.44654C8.47332 1.48977 8.40813 1.51415 8.41206 1.54191C8.38315 1.54597 8.35863 1.51432 8.35599 1.49582C8.33055 1.59075 8.3197 1.51674 8.2939 1.61159L8.27102 1.58937L8.27813 1.63597L8.1969 1.62171L8.23874 1.63805C8.2226 1.66226 8.22662 1.68993 8.18887 1.70151L8.16325 1.66079C8.12478 1.73541 8.03726 1.67549 8.03325 1.77492C8.02304 1.77301 8.02012 1.75443 8.01884 1.74509C8.02486 1.84582 7.91773 1.72857 7.93569 1.84028C7.92676 1.82662 7.90652 1.81936 7.89822 1.80838L7.89841 1.85221L7.85209 1.80846L7.90433 1.88965L7.8407 1.86095L7.85501 1.89034C7.73822 1.83518 7.77323 1.93159 7.67057 1.90599L7.73731 1.95294C7.77943 2.14947 7.47373 2.09154 7.43034 2.24752L7.38375 2.2042L7.39889 2.29663C7.33789 2.2872 7.37089 2.24708 7.33889 2.23316C7.32066 2.30268 7.39186 2.31383 7.35348 2.3798C7.29394 2.37963 7.32704 2.33969 7.32221 2.31184C7.29668 2.38266 7.25301 2.48165 7.19166 2.49514C7.1974 2.50154 7.20396 2.51105 7.20861 2.51157C7.1984 2.5644 7.13422 2.59111 7.10204 2.63158C7.08043 2.61178 7.08553 2.59933 7.08973 2.58601C7.07405 2.59717 7.04122 2.6027 7.05317 2.63357L7.02427 2.58385C6.98862 2.60581 6.97494 2.69418 6.91924 2.65899C6.94139 2.67135 6.97677 2.7036 6.95115 2.72686C6.86317 2.67801 6.91888 2.82162 6.84111 2.82819C6.82771 2.80856 6.8515 2.7758 6.84275 2.78332C6.80409 2.78704 6.82232 2.83442 6.82907 2.8716L6.80391 2.84099L6.75805 2.96964C6.66989 2.92123 6.68666 3.06752 6.63771 3.01564C6.60379 3.04694 6.69715 3.01495 6.66633 3.06449C6.6243 3.04979 6.646 3.1155 6.59841 3.07314L6.59686 3.0638L6.57307 3.09657L6.54234 3.03821C6.52894 3.07236 6.55967 3.13072 6.5955 3.16245C6.54645 3.1647 6.53705 3.21761 6.4829 3.19263L6.47934 3.17387C6.4364 3.25834 6.24267 3.17862 6.27649 3.30036C6.26601 3.2988 6.25415 3.28834 6.26236 3.2803L6.22069 3.32024L6.19325 3.2803L6.18596 3.39659L6.16207 3.37558C6.10992 3.41388 6.05704 3.49714 6.01055 3.56303L6.00681 3.54452C5.9863 3.64084 5.92594 3.58836 5.91026 3.65831C5.90525 3.65131 5.90406 3.64767 5.90424 3.64482L5.86641 3.68866L5.85073 3.65969C5.87571 3.73465 5.69838 3.69471 5.76156 3.71139C5.76877 3.74823 5.76995 3.80261 5.79593 3.83261C5.75691 3.88216 5.75354 3.81852 5.7065 3.83097C5.67377 3.86322 5.7116 3.9036 5.64824 3.93222L5.62399 3.91129C5.60931 3.93654 5.61533 3.96429 5.59253 3.99758L5.58852 3.97908C5.59782 4.07021 5.46034 3.98211 5.5361 4.10774C5.49754 4.11232 5.47866 4.16411 5.42989 4.12235C5.40846 4.20967 5.38148 4.26933 5.34811 4.34637C5.25666 4.2912 5.34191 4.36366 5.26204 4.36357L5.30872 4.39556C5.23843 4.48618 5.04196 4.50018 4.97769 4.61077L4.93064 4.57878L4.96319 4.6361C4.85333 4.72343 4.72077 4.84413 4.6492 4.92626C4.64947 4.9714 4.66816 5.05371 4.61519 5.08432L4.61282 5.07507C4.57417 5.16939 4.52667 5.26364 4.43176 5.32632C4.41708 5.30687 4.39684 5.30488 4.39247 5.28638C4.42583 5.34361 4.35454 5.33661 4.33831 5.35321L4.38945 5.35814C4.41261 5.414 4.34323 5.41633 4.30029 5.40327L4.31771 5.47685C4.31114 5.47581 4.30102 5.47434 4.29336 5.46942L4.31169 5.49397L4.23574 5.46881C4.24012 5.48714 4.21432 5.54758 4.25835 5.60559C4.23565 5.59435 4.19107 5.61718 4.20274 5.58234L4.07164 5.70425L4.11048 5.69906C4.15788 5.73027 4.15251 5.79226 4.11421 5.7978C4.10081 5.74307 4.05186 5.74748 4.00864 5.73442C4.01767 5.77099 4.06206 5.74834 4.07875 5.77653C4.08951 5.82218 4.06453 5.88279 4.03408 5.88002L4.02733 5.85253C4.01812 5.89654 3.92741 5.85253 3.90553 5.88651C3.91902 5.94158 3.86833 5.93717 3.95093 5.98931C3.9337 6.04162 3.88529 5.96562 3.86678 5.97306C3.88839 6.01966 3.818 6.05839 3.77242 6.03635C3.86879 6.14313 3.64168 6.11485 3.73112 6.19414L3.64934 6.18722C3.67432 6.20737 3.72683 6.25656 3.71535 6.29123C3.66657 6.29599 3.62646 6.25682 3.59354 6.24506L3.6756 6.33265C3.45205 6.40294 3.36534 6.64823 3.14936 6.74758C3.11134 6.83421 3.08335 6.95742 3.00276 7.03247L2.99775 7.01422L2.90448 7.0795L2.99756 7.05019C2.99419 7.07665 3.00167 7.10432 2.98608 7.12109C2.92919 7.15273 2.864 7.19061 2.80784 7.23928L2.78724 7.25805C2.78359 7.26038 2.78368 7.25839 2.78222 7.25917C2.78067 7.25926 2.77857 7.26133 2.77794 7.26375C2.77657 7.26885 2.7793 7.27759 2.78623 7.29323C2.82808 7.35099 2.80419 7.3324 2.78085 7.30534C2.7566 7.27949 2.73244 7.24594 2.75897 7.29306C2.74995 7.27888 2.74174 7.266 2.73299 7.25225C2.75396 7.29955 2.76353 7.32548 2.78596 7.42734C2.72825 7.28061 2.77921 7.44108 2.75031 7.36189L2.77146 7.42474C2.75487 7.3912 2.74521 7.38411 2.73208 7.33655C2.73901 7.365 2.74539 7.39422 2.75104 7.42431L2.73217 7.35644C2.72743 7.3554 2.72278 7.43719 2.69926 7.28052C2.704 7.33915 2.69798 7.37503 2.69078 7.38601C2.68212 7.38047 2.67309 7.34995 2.66862 7.32652C2.65914 7.38584 2.65221 7.38324 2.64683 7.38393C2.65085 7.35428 2.65531 7.32549 2.6606 7.29747C2.65349 7.32064 2.61994 7.4103 2.63015 7.3567C2.63279 7.34926 2.63452 7.34442 2.6368 7.33811C2.62696 7.34762 2.63881 7.30715 2.60745 7.36508C2.60271 7.35428 2.61584 7.3152 2.64838 7.25787C2.5925 7.36266 2.64911 7.23453 2.64829 7.23375C2.64829 7.23375 2.64437 7.22381 2.63735 7.20608C2.63398 7.19804 2.62988 7.18818 2.62513 7.17686C2.62286 7.17158 2.62039 7.16596 2.61775 7.16L2.61383 7.15118C2.61146 7.1472 2.61492 7.1491 2.60161 7.1338C2.44754 6.94851 2.23092 6.7008 1.97145 6.46416C1.71398 6.2263 1.41704 5.99735 1.12411 5.83947C0.831823 5.68107 0.544273 5.59375 0.322457 5.62565C0.272587 5.65721 0.202386 5.65341 0.18324 5.71825C0.134008 5.71073 0.168745 5.619 0.127171 5.65738C0.166921 5.72517 0.0325351 5.76382 0.0455724 5.85244L0.0050929 5.8425C-0.0228051 5.87043 0.0752954 5.83489 0.0261548 5.88702L0.0942568 5.8099C0.111488 5.83913 0.111672 5.86524 0.100002 5.89887C0.146317 5.8821 0.2456 5.7818 0.263834 5.86818L0.24487 5.86256C0.291914 5.89057 0.231926 5.93363 0.230923 5.95334L0.221713 5.9459L0.227183 6.01214C0.220163 5.96553 0.123523 5.99917 0.15133 6.01118C0.185792 6.0698 0.152971 5.98213 0.19965 5.99943C0.227183 6.01214 0.186795 6.05026 0.166282 6.07447L0.211321 6.1018C0.180415 6.13794 0.184971 6.07949 0.17166 6.13041L0.256358 6.12964C0.190534 6.23028 0.351356 6.12661 0.303309 6.23252C0.247787 6.22613 0.280973 6.26624 0.250248 6.29175L0.345978 6.3553C0.34379 6.37458 0.298113 6.36559 0.315891 6.3713C0.311606 6.40951 0.362934 6.37017 0.371687 6.37787C0.358285 6.40873 0.4397 6.4294 0.385089 6.48767C0.410343 6.57535 0.477172 6.43147 0.503884 6.51015C0.479177 6.55235 0.45137 6.48352 0.443347 6.54076L0.513547 6.57353C0.492669 6.58676 0.450186 6.62281 0.435234 6.598C0.549561 6.77196 0.454835 7.02607 0.634349 7.09541C0.613197 7.15334 0.593686 7.11141 0.553662 7.12731C0.705551 7.15593 0.600159 7.33802 0.685768 7.40468L0.721142 7.37243C0.726612 7.5789 0.923723 7.64012 0.998756 7.8037L1.00897 7.76679C1.05975 7.75217 1.09038 7.77578 1.12639 7.78122C1.11153 7.80042 1.03604 7.83543 1.08591 7.85705C1.09129 7.83846 1.08974 7.81174 1.11153 7.80042C1.11837 7.89319 1.17982 7.99046 1.25458 8.09145C1.29962 8.14955 1.34666 8.21042 1.39325 8.2706C1.46327 8.36086 1.53183 8.45234 1.59327 8.54442C1.6405 8.5912 1.68672 8.63953 1.73249 8.68933C1.77799 8.73852 1.82913 8.80467 1.87672 8.86381C1.97354 8.98589 2.07 9.11368 2.16764 9.24406C2.36147 9.50353 2.55867 9.7739 2.75031 10C2.7794 9.96248 2.80702 9.92123 2.83437 9.88198C2.7762 9.96584 2.7938 9.7445 2.83683 9.73283C2.9043 9.81091 2.95964 9.72315 3.00823 9.63124C3.05828 9.53726 3.10168 9.43904 3.18264 9.44552C3.28584 9.25505 3.39899 9.14922 3.51377 9.02506C3.627 8.90505 3.74105 8.7655 3.79576 8.56828L3.83651 8.60857C3.88547 8.58765 3.86833 8.5452 3.89732 8.49834L3.90753 8.5113C4.00335 8.42199 4.05286 8.26307 4.12224 8.22079L4.07309 8.17973C4.09698 8.14082 4.12734 8.19105 4.12351 8.13701L4.14904 8.15655L4.12889 8.08436C4.21751 8.15301 4.20566 8.00213 4.26665 8.00689C4.28206 7.95518 4.30303 7.85083 4.36967 7.80319C4.42565 7.82558 4.485 7.75114 4.54663 7.72096C4.60917 7.62058 4.70016 7.47809 4.81112 7.37304L4.75058 7.33214L4.77137 7.29868C4.78386 7.30854 4.79398 7.3094 4.79653 7.31857C4.88241 7.34381 4.83364 7.23349 4.89499 7.23928C4.82926 7.21568 4.86919 7.2545 4.85351 7.27076C4.8051 7.27517 4.76799 7.20989 4.8247 7.19752L4.83701 7.20764L4.82516 7.16207C4.87302 7.19311 4.9115 7.18792 4.95909 7.21862C5.03047 7.1108 5.00786 6.98466 5.11435 6.89733C5.15638 6.94566 5.16248 6.81355 5.2336 6.89984C5.25119 6.81312 5.15373 6.85695 5.11462 6.78225C5.13039 6.76608 5.121 6.72968 5.15619 6.75086C5.17078 6.77481 5.22147 6.7768 5.21792 6.79686L5.24509 6.75034C5.25511 6.75147 5.25995 6.76971 5.26195 6.77862C5.28055 6.65645 5.44384 6.67313 5.45523 6.55961C5.42815 6.53021 5.42132 6.5827 5.39397 6.5533C5.39296 6.42931 5.5072 6.52952 5.52069 6.42473L5.55224 6.47228C5.54112 6.4268 5.51185 6.38842 5.5784 6.37761C5.63584 6.41029 5.59408 6.44133 5.60302 6.47747C5.62672 6.45343 5.66775 6.3783 5.60439 6.36274C5.61332 6.31916 5.66866 6.34277 5.69665 6.3368C5.68443 6.32668 5.63812 6.33948 5.62927 6.30334C5.69355 6.28345 5.7467 6.21791 5.79411 6.1701C5.80642 6.18022 5.82876 6.19137 5.83122 6.20053C5.79876 6.10837 5.9099 6.2001 5.94345 6.13318C6.0523 5.96873 6.15223 5.72344 6.29865 5.58951C6.25889 5.50487 6.29701 5.45576 6.32281 5.39688L6.41644 5.46155L6.42218 5.40016C6.46312 5.40526 6.41243 5.44322 6.47096 5.44149L6.42847 5.38347C6.46312 5.40535 6.5376 5.29952 6.54417 5.4152L6.67773 5.26372C6.70982 5.23225 6.62084 5.18582 6.67536 5.16594C6.708 5.17891 6.68147 5.19326 6.71593 5.21539C6.87958 5.15617 6.65703 4.95074 6.78868 4.87845L6.79279 4.8967C6.78476 4.86021 6.81749 4.829 6.80519 4.81845C6.70417 4.76078 6.8371 4.8756 6.75659 4.86548C6.68384 4.80297 6.75085 4.79363 6.69195 4.75032C6.74055 4.74755 6.71046 4.69922 6.72468 4.67432C6.80364 4.6757 6.81558 4.59659 6.899 4.61682C6.89116 4.58042 6.83536 4.50183 6.86645 4.46153C6.94942 4.48151 6.91659 4.51281 6.97175 4.49361L6.93355 4.45272C6.96747 4.4279 6.9754 4.44243 6.99482 4.45998C7.02582 4.4292 6.95954 4.38519 7.0239 4.36712L7.0456 4.42367C7.05608 4.38035 7.0745 4.37421 7.11589 4.33556C7.13996 4.35657 7.12319 4.37196 7.10486 4.37836C7.18947 4.40758 7.11206 4.31723 7.13011 4.31058C7.10814 4.29882 7.07341 4.32078 7.0435 4.2721C7.07003 4.25783 7.02472 4.18045 7.08909 4.20708L7.11033 4.26345C7.11571 4.19307 7.07714 4.19653 7.13868 4.16065C7.1395 4.16601 7.15145 4.17336 7.15947 4.18183C7.13249 4.10549 7.21973 4.10532 7.26559 4.06234L7.26924 4.08059C7.27152 4.04998 7.24225 4.00822 7.25447 4.00061C7.20578 4.00675 7.19968 3.98928 7.15601 3.95772C7.25885 3.98098 7.12191 3.83694 7.21572 3.8142C7.23943 3.83521 7.25693 3.8736 7.21664 3.86789C7.27188 3.94709 7.33169 4.00026 7.33443 4.06286C7.33707 4.0275 7.34983 3.99369 7.37573 4.02421L7.314 3.96196C7.32403 3.94744 7.33753 3.94043 7.34646 3.93049C7.30863 3.88976 7.25229 3.89945 7.25165 3.84602C7.26058 3.79371 7.33762 3.88484 7.31191 3.8544C7.3275 3.78515 7.25675 3.77512 7.3202 3.74806C7.32166 3.75722 7.3254 3.77564 7.31546 3.77434C7.37217 3.76431 7.37655 3.68528 7.46681 3.74304C7.48057 3.76284 7.50418 3.78385 7.48595 3.79025L7.47401 3.77953C7.50026 3.86348 7.4854 3.7369 7.5484 3.80841C7.50236 3.77477 7.55433 3.73794 7.58123 3.72428L7.52534 3.68943C7.43954 3.49861 7.62052 3.77468 7.66355 3.69203C7.66947 3.62182 7.63474 3.69652 7.62407 3.64162C7.65936 3.62009 7.7136 3.6462 7.73111 3.58637C7.76165 3.59113 7.81034 3.5894 7.86777 3.63375C7.86896 3.58957 7.9645 3.57738 7.92393 3.51772C7.83686 3.52222 7.94171 3.60954 7.82209 3.60003L7.78134 3.54063C7.81708 3.50786 7.83176 3.43991 7.87406 3.43204C7.85893 3.42806 7.84297 3.41864 7.83422 3.40584C7.86066 3.33857 7.82 3.27857 7.88209 3.24347C7.93752 3.27866 7.90233 3.3001 7.88728 3.32457C7.95621 3.32638 7.92101 3.29413 7.98264 3.25886C8.02823 3.29266 7.94928 3.28955 7.98648 3.33088L8.02321 3.26525C8.02577 3.26741 8.02878 3.26992 8.03197 3.27269C7.96705 3.20387 8.07664 3.23672 8.08594 3.18545C8.15924 3.10738 8.07436 3.01391 8.05804 2.92192C8.08858 2.92693 8.11019 2.93921 8.1235 2.95944C8.07327 2.95123 8.10162 2.96921 8.11402 2.99178C8.1318 2.95935 8.23956 2.99489 8.25452 3.03414C8.27357 2.975 8.20227 3.01676 8.20428 2.97232L8.26372 2.91967C8.22042 2.89485 8.19325 2.90808 8.19352 2.85465C8.20738 2.82127 8.22616 2.81548 8.2598 2.78522C8.2733 2.80536 8.32536 2.82283 8.29965 2.84514C8.32855 2.84133 8.3538 2.81851 8.32727 2.77839C8.2598 2.78513 8.35188 2.69323 8.26956 2.67066L8.33702 2.66391C8.32854 2.67135 8.35197 2.69323 8.33328 2.69902C8.39847 2.7368 8.34541 2.65648 8.35216 2.63945C8.37495 2.63616 8.41105 2.60797 8.43503 2.62388C8.43047 2.59941 8.46904 2.58247 8.50222 2.60184C8.50742 2.57573 8.46739 2.56915 8.45417 2.54875L8.51353 2.49618C8.54708 2.51987 8.63661 2.58904 8.6398 2.60754C8.63214 2.56146 8.55693 2.52134 8.59102 2.49142C8.63214 2.56137 8.67791 2.48849 8.7224 2.57685C8.78375 2.5963 8.83281 2.54209 8.8453 2.49946C8.81585 2.44041 8.7884 2.50768 8.74209 2.46358C8.8039 2.36709 8.67563 2.24475 8.75814 2.20627L8.72932 2.20973C8.73917 2.14895 8.741 2.15837 8.72212 2.10114C8.77108 2.16356 8.92352 2.20031 8.97138 2.12872C8.94668 2.09716 8.88076 2.1122 8.84356 2.06059L8.87502 2.01243C8.88267 2.01372 8.88805 2.02695 8.89051 2.03888C8.90574 1.98415 9.03466 2.04036 8.97585 1.96825L9.09893 2.00888L9.04751 1.99029C9.02335 1.95925 9.05508 1.91092 9.05207 1.89242C9.061 1.82204 9.10139 1.82973 9.16138 1.84089C9.12993 1.82619 9.05681 1.79446 9.08024 1.75373C9.17533 1.84002 9.1839 1.71751 9.23222 1.76299C9.24417 1.74872 9.29713 1.75235 9.25921 1.71517L9.31619 1.77094C9.2366 1.69304 9.28829 1.64868 9.31026 1.59871C9.41392 1.70886 9.3419 1.55064 9.45996 1.62724C9.39086 1.55098 9.49497 1.5349 9.43699 1.46945C9.46224 1.4385 9.5298 1.50594 9.56135 1.52115L9.54658 1.48242C9.59654 1.50109 9.65589 1.4544 9.71232 1.44619L9.67576 1.3561L9.71706 1.37348C9.70494 1.35325 9.71989 1.3203 9.67978 1.31209L9.69983 1.30024C9.62854 1.23142 9.70257 1.25995 9.70421 1.20012C9.72326 1.20375 9.73867 1.22182 9.74131 1.23756C9.75818 1.22277 9.78835 1.26402 9.82145 1.2782C9.79136 1.27188 9.74979 1.1013 9.67348 1.11254C9.64093 1.0879 9.64495 1.04328 9.67385 1.04017L9.74852 1.0917L9.69919 1.0093C9.7146 0.976447 9.76684 1.00524 9.79437 0.992874C9.77778 1.01639 9.87333 1.15395 9.92484 1.10156C9.90533 1.13623 9.92775 1.18326 9.92684 1.20981C9.94043 1.20168 9.95219 1.20237 9.96258 1.24456C9.98392 1.18603 9.9366 1.19398 9.96942 1.14695C10.0251 1.20358 10.0552 1.21015 10.1109 1.19476L10.0416 1.18024C10.0358 1.17237 10.0325 1.1658 10.0311 1.16061C10.0146 1.16433 10.0027 1.15862 9.97826 1.13969C9.98683 1.13251 9.95411 1.02642 9.99604 1.05297C9.86439 1.0074 9.9986 0.917911 9.91773 0.891713C9.9056 0.871309 9.93113 0.840443 9.96304 0.865085C9.97225 0.939528 10.0548 0.902696 10.0895 0.946359C10.0857 0.918345 10.0196 0.931574 10.015 0.894223C10.0316 0.870878 10.0824 0.890418 10.1119 0.896729L10.1142 0.915231L10.1717 0.909611C10.1482 0.877274 10.0922 0.892407 10.1065 0.850214C10.1261 0.854364 10.1405 0.812168 10.1626 0.834994C10.1882 0.886093 10.2509 0.926558 10.2359 0.959673C10.2523 0.936069 10.3112 0.867073 10.2309 0.840789L10.2574 0.819086C10.2178 0.810526 10.1307 0.810094 10.1723 0.755277L10.1834 0.766776L10.1746 0.69242L10.2196 0.706946C10.2045 0.693371 10.1968 0.675474 10.2108 0.664493C10.2314 0.677981 10.2506 0.673311 10.2727 0.696397C10.3076 0.659218 10.2755 0.633885 10.2637 0.613307C10.2809 0.590049 10.3008 0.594546 10.3246 0.636134C10.3613 0.617199 10.4044 0.563938 10.4544 0.575351C10.4675 0.515088 10.4344 0.570941 10.4184 0.512666C10.5516 0.579414 10.5847 0.433729 10.6357 0.363868C10.5322 0.29418 10.6432 0.338447 10.5762 0.250084C10.5897 0.289424 10.7031 0.261582 10.6719 0.336025L10.6968 0.296428C10.7672 0.322453 10.6764 0.382456 10.7763 0.415138C10.8112 0.378046 10.7417 0.261669 10.818 0.252677C10.8639 0.327034 10.8323 0.201405 10.888 0.278269C10.9007 0.308704 10.8817 0.313201 10.8738 0.329455L10.8935 0.33421C10.9938 0.27654 10.8457 0.240658 10.8475 0.159385C10.8903 0.105519 10.9352 0.171144 10.9666 0.197169C10.9863 0.201925 11.0023 0.169328 10.9997 0.141228C11.0057 0.20668 10.9045 0.154975 10.8804 0.103531Z" fill="#E8651C"/>
</svg>
