<svg width="585" height="136" viewBox="0 0 585 136" fill="none" xmlns="http://www.w3.org/2000/svg">
<path opacity="0.4" fill-rule="evenodd" clip-rule="evenodd" d="M283.969 41.2052C285.049 42.736 282.42 47.9253 281.519 49.2881C276.706 56.5741 266.306 63.598 267.545 71.1051C267.95 73.5605 269.431 75.4983 271.042 76.774C274.493 79.5087 275.647 80.4207 279.558 78.7036C282.137 77.5704 283.754 80.937 288.415 80.124C293.917 79.1642 296.307 75.3201 297.24 71.9677C299.886 62.4629 292.998 49.6806 294.847 44.9883C295.733 44.8017 295.818 45.0056 296.345 45.7068C296.711 46.1932 297.11 46.7604 297.481 47.2511C301.824 52.997 302.08 60.639 302.439 67.4333C302.582 70.1435 302.767 73.3154 304.237 75.9771C305.387 78.0562 308.084 79.8073 309.864 79.9911C313.714 80.3886 315.36 77.0893 317.109 77.0541C318.669 77.0223 321.123 78.5978 324.418 77.8434C327.315 77.1811 329.765 75.1667 330.494 73.2397L331.739 70.038C332.119 68.7461 332.24 67.8273 333.909 67.3148C337.661 66.1618 338.301 65.1342 338.946 62.2184C340.658 54.4666 335.987 50.4344 330.11 47.8676C329.527 47.6138 329.077 47.5053 328.5 47.249L325.347 45.911C322.369 44.658 309.505 39.9345 308.422 37.4873C311.523 36.8753 322.777 39.9206 326.594 40.9773C330.142 41.9592 333.381 43.2146 336.83 44.4152C341.147 45.9169 346.075 48.1381 351.46 43.6719C356.764 39.2721 353.29 36.5948 355.012 33.4852C356.604 30.6081 359.591 28.0133 357.392 22.8789C356.187 20.063 353.965 19.0724 352.186 17.4722C349.731 15.2657 352.116 12.0398 349.398 9.77908C347.561 8.25279 344.448 8.28578 342.033 8.71237C338.32 9.36756 330.323 14.6011 326.981 16.6444C324.027 18.4507 313.567 24.02 310.437 23.8238C310.257 22.398 313.501 21.1756 314.637 20.5217C316.413 19.498 317.933 18.5301 319.608 17.4746C321.064 16.5573 322.747 15.3738 324.06 14.3416C327.881 11.3365 332.917 7.33733 332.991 2.27995C333.021 0.279627 331.653 -1.91622 330.429 -2.85672C329.313 -3.71333 326.515 -4.43967 325.995 -5.12124C324.776 -6.72167 326.168 -8.49676 323.252 -9.77893C320.177 -11.1307 314.753 -9.21182 312.583 -6.79578C309.177 -3.00301 307.33 1.51438 304.738 5.82742C303.794 7.39751 301.006 13.5692 299.047 14.1007C299.183 11.4953 305.355 4.09679 305.416 -6.32902C305.445 -11.1056 304.222 -15.0636 300.572 -17.0364C298.65 -18.0756 297.161 -17.1402 295.761 -19.1865C294.48 -21.0589 293.25 -22.2021 291.742 -22.9197C289.108 -24.172 282.885 -23.8218 279.732 -21.4704C276.721 -19.224 274.747 -15.767 274.123 -12.5128C273.386 -8.66799 273.505 -4.48921 274.493 -0.450192C275.073 1.91631 275.735 4.12505 276.581 6.44386C277.1 7.8638 279.24 11.9721 278.891 13.1475C277.852 13.1025 276.106 10.6494 275.408 9.69447C269.177 1.19363 272.014 -10.4213 266.861 -19.5818C264.988 -22.9131 262.134 -25.4639 259.027 -25.5624C254.339 -25.7104 253.479 -21.1867 248.639 -23.6864C243.793 -26.1894 237.831 -24.7708 234.933 -19.4077C234.555 -18.7084 234.165 -18.0433 233.962 -17.1836C233.766 -16.356 233.672 -15.4629 233.131 -14.8823C231.233 -12.847 227.26 -13.9103 225.654 -7.8425C223.192 1.46421 231.711 6.55222 237.517 9.99154C237.969 10.2597 238.016 10.2195 238.545 10.4744C239.5 10.9353 246.723 15.1016 246.863 15.4936C247.111 16.1882 246.697 16.2998 246.047 16.2223L241.401 14.5891C237.722 13.0997 230.821 10.6525 226.838 11.574C223.121 12.4332 220.186 15.9446 220.928 19.1598C221.146 20.1001 221.919 21.0692 222.053 21.8794C222.381 23.8581 219.402 26.0705 222.593 29.4983C224.037 31.0478 224.906 31.5389 226.715 32.0799C235.58 34.7304 258.733 25.9835 271.092 29.7279C272.456 30.1414 276.116 30.8799 272.063 31.9684C270.344 32.4304 267.768 32.8204 266.034 33.0341C263.066 33.4 257.935 33.4703 255.064 33.2241C252.165 32.9755 247.124 33.5931 243.859 34.1472C237.177 35.2802 231.698 39.9062 234.216 45.1636C235.21 47.2441 236.912 47.8532 236.291 50.0199C235.303 53.4718 234.701 56.9579 238.027 60.3266C241.475 63.8179 245.829 63.0446 246.738 64.2112C247.253 64.8744 247.489 65.8807 248.196 66.7333C252.444 71.859 260.869 68.1716 264.515 63.6008C271.366 55.0132 272.886 49.7239 281.38 42.3334C281.666 42.0854 282.063 41.7355 282.373 41.5479L283.437 41.1511C283.833 41.1171 283.727 41.1303 283.969 41.2052Z" fill="#40972E"/>
<path opacity="0.4" fill-rule="evenodd" clip-rule="evenodd" d="M61.1718 145.91C61.0996 146.64 58.9486 150.126 58.0826 153.865L57.5786 156.617C56.9767 160.549 57.6131 163.466 60.062 168.142L65.0429 168.702C66.5815 168.587 68.34 168.437 70.1282 167.802C71.8311 167.198 73.9776 166.002 75.5136 164.835C78.6796 162.43 78.4852 161.985 80.3326 160.31C80.5492 160.735 80.6523 163.142 80.7064 163.822C80.9893 167.355 82.5029 171.463 84.7613 174.506C88.5778 179.648 90.7896 180.325 95.6552 181.836C95.9535 181.929 96.2015 181.981 96.4916 182.078C96.7901 182.177 97.0929 182.324 97.3099 182.388C104.525 178.159 105.861 170.667 105.553 163.659C105.507 162.627 104.938 159.427 105.026 158.979C105.607 158.936 106.965 160.171 108.317 160.933C115.651 165.069 124.231 164.377 130.101 158.156C130.645 157.58 131.016 157.096 131.457 156.495C132.406 155.201 132.238 155.86 133.214 155.128C133.392 154.516 133.379 151.146 133.302 150.225C133.15 148.391 132.814 147.014 132.094 145.106C131.366 143.181 130.22 141.479 128.819 139.799C127.352 138.042 124.589 135.79 124.329 135.394C124.871 135.148 125.432 135.082 126.057 134.842C128.405 133.939 129.13 133.824 131.58 132.314C133.846 130.919 136.854 128.796 138.468 126.737C140.397 124.276 141.137 123.153 142.023 120.362C142.365 119.286 142.598 118.08 142.776 117.096C142.934 116.226 142.974 116.218 142.251 115.417C139.594 112.477 138.651 111.359 134.375 109.729C131.751 108.729 129.981 108.722 127.716 108.415C126.743 108.283 125.416 108.358 124.363 108.428C117.87 108.855 115.53 110.72 113.771 111.101C113.601 110.653 113.489 111.077 114.181 109.873C114.432 109.435 114.698 109.014 114.937 108.558C116.292 105.969 117.153 103.421 117.549 100.656C117.785 98.9962 117.81 97.2311 117.409 95.2281C117.135 93.8548 115.941 90.6706 115.135 89.4342L110.524 89.155C101.717 90.0927 98.0121 96.4944 95.954 97.541C95.6442 97.0841 95.4454 95.1768 95.2228 94.4141C94.9082 93.3382 94.5754 92.1918 94.1046 91.0359C91.8882 85.6014 87.2169 79.2028 81.1839 77.9634L78.0474 77.1442C75.5574 78.5084 73.554 79.8759 72.2374 82.2534C71.6326 83.3452 71.2956 84.15 70.9682 85.2355C69.836 88.9992 69.9018 90.4808 70.1725 94.5526C70.2382 95.5407 70.3855 96.6334 70.6355 97.751C70.7631 98.3204 70.8959 98.7371 71.0067 99.3102C71.2975 100.805 71.4955 100.404 71.148 100.909C70.8029 100.795 69.2791 99.3753 68.8262 99.0383C65.3079 96.414 60.7078 94.2286 56.3878 94.6222C55.2713 94.7234 52.0026 95.4439 50.8801 95.9707C50.7643 97.7006 49.2984 101.1 49.5286 104.11C49.7655 107.211 50.4963 110.048 52.2899 112.876C54.0248 115.61 55.1566 116.409 57.249 118.49C56.3635 118.776 54.7122 118.904 53.675 119.07C50.3435 119.602 45.5479 121.691 42.6427 123.874C38.4893 126.994 36.7743 130.467 35.3692 135.03C34.7149 137.154 34.9751 136.029 36.1982 138.487C37.1586 140.417 39.0473 142.075 40.7104 143.292C42.9499 144.932 45.0509 145.674 47.2666 146.248C48.453 146.556 49.5164 146.772 50.6645 146.82C53.3576 146.934 54.6188 147.113 57.6159 146.601C58.3994 146.467 60.5312 145.827 61.1718 145.91Z" fill="#40972E"/>
<path opacity="0.4" fill-rule="evenodd" clip-rule="evenodd" d="M537.93 122.974C537.701 123.148 536.507 123.679 536.162 123.833C534.655 124.506 534.242 124.387 532.314 125.48C531.704 125.827 531.129 126.053 530.487 126.403C526.34 128.665 521.586 133.173 520.16 137.832C519.146 141.152 520.12 144.16 521.974 145.985C522.449 146.453 522.738 146.921 523.275 147.318C524.402 148.148 525.501 148.874 526.974 149.095C527.72 149.206 528.926 149.196 529.691 149.15C531.963 149.015 535.509 145.864 536.358 144.825C537.186 143.81 538.124 143.039 538.966 142.053C540.976 139.702 543.06 136.629 545.076 134.418C545.364 134.102 546.681 132.296 546.344 133.645C546.073 134.728 546.13 133.67 545.953 135.775C545.566 140.384 545.02 146.27 546.929 150.549C547.282 151.343 547.459 151.983 547.899 152.814C548.331 153.628 548.784 154.007 549.408 154.65C550.623 155.902 552.549 156.091 554.451 156.187C557.16 156.323 557.551 155.404 557.968 153.179C558.854 148.458 557.122 141.737 557.418 141.065C557.597 141.208 559.035 143.723 559.241 144.102C559.541 144.66 559.894 145.024 560.247 145.486C560.644 146.005 560.879 146.422 561.26 146.98C563.355 150.044 565.714 152.333 568.479 154.586C569.342 155.289 570.386 155.983 571.443 156.523C574.112 157.887 576.434 158.564 578.692 156.32C579.305 155.709 580.456 154.39 580.788 153.518C581.902 150.593 580.228 149.072 578.531 146.803C577.35 145.225 572.861 140.639 571.341 139.052C570.441 138.112 566.69 134.661 566.633 133.889C567.129 133.957 569.062 134.885 569.782 135.111C570.888 135.459 572.098 135.915 573.256 136.188C574.975 136.596 577.101 137.124 578.929 137.158C582.18 137.221 585.562 137.653 589.166 136.431C590.18 136.088 591.434 135.61 592.262 135.109C594.133 133.978 593.595 129.071 592.991 127.925C591.608 125.307 586.82 123.74 584.281 123.124C581.875 122.54 579.341 122.045 576.854 121.58L570.166 120.506C569.639 120.422 569.518 120.502 569.279 120.224C569.858 119.923 577.778 119.177 580.394 118.466C583.274 117.684 587.537 116.694 589.866 114.783C591.525 113.424 592.35 111.13 591.507 108.12C590.917 106.015 589.438 104.033 587.389 103.519C581.151 101.955 575.174 104.042 569.538 106.399C568.696 106.751 566.959 107.811 566.498 107.78C566.482 107.397 567.394 105.318 567.665 104.771C568.251 103.585 569.491 99.7854 569.765 98.3807C569.996 97.197 570.212 96.0054 570.385 94.7236C570.67 92.6036 570.687 88.7406 570.194 86.7721C569.421 83.6899 569.081 82.998 566.658 81.6992C564.388 80.4832 561.863 80.9468 560.198 82.3633C557.541 84.6249 556.029 91.3082 555.722 94.9978C555.624 96.1753 555.336 97.5585 555.267 98.8257C555.219 99.7153 555.215 102.184 554.788 102.645C554.624 102.452 553.753 99.2523 553.549 98.6302L552.056 94.8685C551.448 93.7102 550.861 92.5072 550.239 91.4267C548.294 88.0539 542.941 81.3694 538.765 81.681C537.766 81.756 535.712 82.9084 535.062 83.4038C533.098 84.8991 531.498 87.2061 532.132 90.8696C532.853 95.0352 536.76 101.457 539.284 105.009L541.574 107.978C541.988 108.541 543.809 110.613 543.865 110.971C543.175 110.923 541.667 110.073 540.984 109.766C539.931 109.293 538.99 108.985 537.879 108.567C533.913 107.071 527.069 106.143 522.904 107.22C520.651 107.802 518.56 109.024 517.769 110.702C517.128 112.062 517.002 112.376 517.001 114.128C517 115.592 516.955 116.668 517.572 117.869C519.507 121.633 525.59 122.696 529.687 122.874C531.972 122.972 533.685 123.073 536.027 123.013C536.633 122.997 537.466 122.729 537.93 122.974Z" fill="#40972E"/>
</svg>
