<svg width="360" height="212" viewBox="0 0 360 212" fill="none" xmlns="http://www.w3.org/2000/svg">
<g opacity="0.4">
<path fill-rule="evenodd" clip-rule="evenodd" d="M54.79 138.932C53.7378 137.394 56.5964 132.161 57.5123 130.819C62.4087 123.642 72.7233 116.314 71.6004 108.829C71.2342 106.381 69.5361 104.995 67.9523 103.703C64.559 100.933 63.7535 99.3324 59.8369 100.983C57.2539 102.073 55.7107 98.765 51.0608 99.506C45.573 100.381 43.0246 104.142 42.0472 107.462C39.2745 116.878 46.0986 130.251 44.1898 134.892C43.3061 135.064 43.4612 134.936 42.9474 134.231C42.5898 133.742 41.7759 133.113 41.4141 132.62C37.1783 126.842 37.4664 118.825 37.21 112.062C37.1074 109.364 36.0161 106.169 34.5926 103.501C33.4793 101.416 31.1007 100.117 29.3321 99.9082C25.5071 99.4569 23.7509 103.177 22.01 103.187C20.4582 103.196 18.7175 101.376 15.4279 102.079C12.5366 102.695 10.1022 104.112 9.34832 106.018L7.36597 109.744C6.96844 111.024 7.71193 111.743 6.0444 112.229C2.2942 113.321 0.940128 114.228 0.255627 117.119C-1.56232 124.804 2.9061 128.537 8.71523 131.175C9.29102 131.436 10.3391 131.281 10.9093 131.544L13.685 133.816C16.6298 135.106 29.7465 139.66 30.7882 142.109C27.6942 142.673 15.7757 139.601 11.9934 138.494C8.47859 137.466 6.04989 136.358 2.63563 135.114C-1.63729 133.558 -6.42731 131.018 -11.8502 135.382C-17.1927 139.681 -14.4259 141.961 -16.1848 145.029C-17.8113 147.867 -20.1462 150.857 -18.0346 155.996C-16.8769 158.814 -15.182 159.213 -13.4349 160.83C-11.0251 163.061 -13.4888 167.104 -10.8174 169.392C-9.01248 170.936 -5.69301 170.598 -3.28372 170.209C0.419456 169.611 8.6661 164.393 12.0211 162.409C14.9872 160.656 25.4573 155.029 28.5684 155.27C28.726 156.691 25.5321 157.993 24.392 158.627C22.6096 159.62 20.6552 160.298 18.9732 161.324C17.5107 162.215 16.1175 163.673 14.7968 164.681C10.9505 167.615 5.1923 171.995 5.04334 177.024C4.98442 179.014 6.53571 181.488 7.7399 182.441C8.83758 183.309 11.9117 183.445 12.4188 184.131C13.6088 185.74 11.9418 187.279 14.8245 188.596C17.8644 189.985 23.3885 188.719 25.583 186.347C29.0279 182.624 30.5003 177.887 33.1425 173.634C34.1044 172.086 37.0532 166.1 39.0104 165.6C38.8364 168.189 32.75 174.893 32.5351 185.262C32.4365 190.012 33.3743 194.371 36.9766 196.386C38.8736 197.447 40.5832 196.971 41.9463 199.027C43.1928 200.908 44.4744 201.223 45.9644 201.959C48.5661 203.243 55.0845 203.615 58.2562 201.322C61.2857 199.131 63.1649 195.563 63.8333 192.336C64.6236 188.522 64.1223 184.079 63.1982 180.048C62.6564 177.686 61.9697 175.708 61.1624 173.389C60.6672 171.969 58.7631 167.894 59.1267 166.73C60.1605 166.79 62.4637 168.703 63.1448 169.663C69.2188 178.208 66.2172 190.256 71.2087 199.442C73.0234 202.783 75.2037 205.454 78.2934 205.597C82.9562 205.812 84.2727 200.792 89.0519 203.348C93.8362 205.908 99.703 205.519 102.665 200.226C103.052 199.536 103.771 198.594 103.987 197.742C104.194 196.922 103.809 196.118 104.357 195.549C106.275 193.552 110.731 193.895 112.419 187.883C115.006 178.662 106.618 174.109 100.893 170.604C100.446 170.331 100.173 170.205 99.6501 169.944C98.7067 169.471 92.0382 165.422 91.9047 165.03C91.6679 164.336 91.9202 163.702 92.5655 163.788L96.2928 165.769C99.9305 167.304 107.014 170.456 110.99 169.597C114.701 168.796 117.549 164.771 116.858 161.562C116.655 160.624 116.106 159.516 115.986 158.708C115.688 156.735 118.977 154.923 115.853 151.468C114.44 149.906 113.627 149.1 111.835 148.536C103.054 145.771 79.9588 154.486 67.7169 150.582C66.3657 150.151 62.7963 148.752 66.8444 147.728C68.5615 147.294 71.1168 147.121 72.8448 146.934C75.8038 146.613 80.3809 146.592 83.2334 146.878C86.1144 147.168 91.3168 147.036 94.5735 146.532C101.238 145.502 107.045 140.405 104.618 135.14C103.659 133.056 101.563 132.821 102.212 130.674C103.246 127.255 104.467 123.979 101.207 120.58C97.8287 117.058 93.3969 117.131 92.5101 115.958C92.0066 115.291 91.3771 114.253 90.686 113.395C86.5359 108.235 77.6219 111.945 73.927 116.439C66.9843 124.881 66.2049 130.832 57.6449 138.059C57.3568 138.302 57.0046 138.168 56.6932 138.35L55.7416 138.641C55.3472 138.669 55.0297 139.01 54.79 138.932Z" fill="#40972E"/>
</g>
<g opacity="0.4">
<path fill-rule="evenodd" clip-rule="evenodd" d="M329.126 -4.17305C329.209 -4.90051 331.568 -9.23914 332.488 -12.9529L332.878 -15.7455C333.537 -19.6554 333.221 -22.0078 330.851 -26.711L325.267 -27.5004C323.732 -27.4113 322.676 -27.2994 320.884 -26.6962C319.178 -26.1225 317.059 -25.034 315.511 -23.8962C312.319 -21.5512 312.409 -20.5426 310.542 -18.9031C310.333 -19.3302 310.376 -21.8138 310.332 -22.4925C310.104 -26.0201 308.318 -29.9839 306.114 -33.0559C302.388 -38.2461 299.952 -39.4287 295.126 -41.0166C294.83 -41.1148 294.813 -41.7123 294.525 -41.8135C294.229 -41.9174 293.945 -41.1467 293.73 -41.214C286.475 -37.1188 284.614 -30.2445 284.814 -23.2522C284.844 -22.2224 285.72 -19.3119 285.625 -18.8659C285.046 -18.8335 283.568 -19.2751 282.233 -20.0575C274.986 -24.3033 266.457 -23.536 260.513 -17.4325C259.963 -16.8673 259.37 -16.8256 258.922 -16.2336C257.956 -14.9597 258.314 -15.748 257.331 -15.0347C257.143 -14.4273 257.284 -10.9682 257.346 -10.049C257.471 -8.21805 258.068 -6.78041 258.757 -4.86593C259.453 -2.93472 260.194 -1.18332 261.564 0.514453C263 2.29107 265.709 4.29604 265.963 4.6959C265.419 4.93177 264.998 5.66599 264.371 5.89483C262.018 6.75521 260.862 6.43346 258.397 7.89802C256.118 9.2508 252.878 11.2676 251.238 13.2933C249.279 15.7141 249.192 16.5129 248.266 19.2805C247.909 20.3468 247.273 21.6942 247.08 22.6726C246.91 23.5373 246.777 24.0554 247.486 24.8657C250.089 27.8415 251.04 28.542 255.276 30.2387C257.876 31.2804 260.003 30.8814 262.256 31.2254C263.224 31.3731 263.998 31.6717 265.048 31.6201C271.526 31.3029 274.247 29.9597 276.005 29.6095C276.169 30.0585 276.518 29.8168 275.81 31.0058C275.554 31.4383 275.26 31.1545 275.015 31.6052C273.625 34.1642 272.884 37.0354 272.448 39.7856C272.188 41.4362 272.095 42.7677 272.464 44.7713C272.717 46.1452 273.69 49.5049 274.475 50.7512L278.663 51.3432C287.454 50.5559 291.921 44.5516 293.988 43.5427C294.29 44.0033 294.184 44.9717 294.394 45.7358C294.691 46.8138 294.753 48.9617 295.205 50.122C297.331 55.5773 302.406 61.3296 308.399 62.6663L311.792 63.8579C314.294 62.5395 315.412 61.213 316.76 58.8647C317.379 57.7864 318.203 57.3462 318.546 56.2695C319.731 52.5361 320.119 50.5597 319.911 46.4955C319.861 45.5093 319.138 44.624 318.906 43.5056C318.787 42.9358 318.602 41.8856 318.5 41.3125C318.233 39.8175 318.341 40.4136 318.695 39.9162C319.038 40.0354 320.05 41.963 320.497 42.3066C323.963 44.982 328.359 47.1954 332.67 46.8753C333.784 46.7932 337.518 45.3785 338.644 44.8722C338.786 43.1493 340.599 40.2961 340.415 37.2912C340.226 34.1958 339.142 31.1708 337.398 28.3215C335.71 25.567 334.453 25.4529 332.399 23.3432C333.286 23.0728 335.746 22.6869 336.782 22.539C340.11 22.0642 344.406 20.4628 347.334 18.3352C351.521 15.2938 353.204 11.0834 354.674 6.55802C355.358 4.45094 354.85 6.03946 353.668 3.5681C352.74 1.62791 351.104 -0.76818 349.465 -2.00964C347.258 -3.68165 344.879 -3.78314 342.68 -4.39267C341.502 -4.71926 340.431 -5.51703 339.288 -5.58418C336.605 -5.74277 335.107 -5.6351 332.113 -5.17464C331.33 -5.05403 329.763 -4.07983 329.126 -4.17305Z" fill="#40972E"/>
</g>
</svg>
