<svg width="171" height="26" viewBox="0 0 171 26" fill="none" xmlns="http://www.w3.org/2000/svg">
<path d="M6.65576 6.95496H12.2805L18.9363 25.4651H13.597L9.32541 12.3303L5.05522 25.4658H0" fill="#3DA333"/>
<path d="M27.6204 14.2525C28.2613 9.80353 31.2151 6.4216 36.555 6.4216C42.6413 6.4216 45.6317 10.8006 45.6317 16.2099C45.6317 21.6205 42.6406 25.9988 36.5537 25.9988C31.2144 25.9988 28.2606 22.6536 27.6197 18.1679H25.1628V25.4653H20.1803V6.95512H25.1628V14.2525H27.6204ZM36.5537 22.2614C39.7222 22.2614 40.6479 19.5557 40.6479 16.2099C40.6479 12.8647 39.7222 10.159 36.5537 10.159C33.3858 10.159 32.4602 12.8647 32.4602 16.2099C32.4602 19.5557 33.3865 22.2614 36.5537 22.2614Z" fill="#3DA333"/>
<path d="M47.0533 14.2525C47.0533 2.32882 52.7127 0.548828 57.8746 0.548828H84.0874V4.64233H57.4464C53.4249 4.64233 51.9297 6.42233 51.3248 10.3378L51.5022 10.3371C51.5022 10.3371 53.1041 7.48936 57.375 7.48936C62.8924 7.48936 66.0956 11.5836 66.0956 16.7441C66.0956 21.7279 62.8924 25.9988 56.6634 25.9988C51.6803 25.9988 47.0533 23.1525 47.0533 14.2525ZM56.6634 22.2615C59.8313 22.2615 61.1124 19.7345 61.1124 16.7441C61.1124 13.7536 59.8313 11.2267 56.6634 11.2267C53.4949 11.2267 52.2138 13.755 52.2138 16.7441C52.2138 19.7345 53.4949 22.2615 56.6634 22.2615Z" fill="#3DA333"/>
<path d="M67.7126 12.6518C67.9974 7.91734 71.8061 6.42211 76.0777 6.42211C80.5266 6.42211 84.0866 8.02404 84.0866 12.8298V25.3736L79.1035 25.3709V21.9058H78.9254C78.9254 21.9058 77.787 26 73.0519 26C69.6714 26 67.1798 24.4341 67.1798 21.0168C67.1798 17.5635 70.0275 15.9976 73.0886 15.2147C76.1851 14.4311 79.1042 14.1823 79.1042 12.1182C79.1042 10.6583 78.0365 9.80404 76.0784 9.80404C73.9429 9.80404 72.7685 10.6584 72.6972 12.6518H67.7126ZM75.1874 17.6349C73.5854 18.0264 72.2329 18.8454 72.2329 20.4812C72.2329 21.9051 73.23 22.7954 74.8319 22.7954C78.2131 22.7954 79.1035 18.88 79.1035 16.139C78.2845 16.8866 76.6119 17.2781 75.1874 17.6349Z" fill="#3DA333"/>
<path d="M170.809 6.78521V7.63745L165.826 12.0524V6.78521" fill="#3DA333"/>
<path d="M86.7207 6.75838H91.5521V9.8008H91.7309C91.7309 9.8008 93.3418 6.2214 97.4568 6.2214C102.646 6.2214 104.078 9.62204 104.078 13.9158V25.3669H99.0677V14.989C99.0677 11.7686 98.1732 10.3371 95.8473 10.3371C93.1631 10.3371 91.7316 11.948 91.7316 15.7048V25.3669H86.7207" fill="#3DA333"/>
<path d="M115.996 5.72788C121.419 6.18795 123.936 10.3944 123.936 15.5258C123.936 15.9561 123.9 16.5998 123.9 16.5998H110.73C110.945 19.4621 112.162 21.61 115.168 21.61C118.209 21.61 118.747 18.747 118.747 18.747H123.757C123.757 18.747 122.684 25.3674 114.99 25.3674C108.727 25.3674 105.686 20.9663 105.686 15.5258C105.686 10.3944 108.52 6.18795 113.978 5.72788H115.996ZM110.874 13.3793H118.782C118.46 11.0887 117.458 9.44239 114.989 9.44239C112.52 9.44239 111.303 11.0887 110.874 13.3793Z" fill="#3DA333"/>
<path d="M136.459 14.989C136.459 11.7686 135.814 10.3371 133.846 10.3371C131.699 10.3371 130.555 11.948 130.555 15.7048V25.3669H125.544V6.75838H130.375V9.8008H130.555C130.555 9.8008 131.807 6.2214 135.564 6.2214C138.57 6.2214 140.181 7.65288 140.896 9.83683L140.931 9.8008H141.111C141.111 9.8008 142.721 6.2214 146.479 6.2214C151.131 6.2214 152.383 9.62204 152.383 13.9158V25.3669H147.373V14.989C147.373 11.7686 146.729 10.3371 144.761 10.3371C142.613 10.3371 141.469 11.948 141.469 15.7048V25.3669H136.459" fill="#3DA333"/>
<path d="M170.809 25.3667H165.799V18.5676H162.22L159.25 25.3667H153.632L157.426 17.6731C155.279 16.6712 154.169 14.9168 154.169 12.6629C154.169 9.30797 156.685 7.05474 161.275 6.78521H170.809L170.809 25.3667ZM165.799 14.9889V10.3369H162.937C160.253 10.3369 159.179 11.0519 159.179 12.6629C159.179 14.2738 160.253 14.9889 162.937 14.9889" fill="#3DA333"/>
<path d="M101.471 22.1026V25.3675H114.857L113.427 23.7579C112.035 23.7579 112.072 22.1033 110.68 22.1033C107.609 22.1026 104.54 22.1026 101.471 22.1026Z" fill="#3DA333"/>
<path d="M147.887 22.1026V25.3675H159.206L157.997 23.7579C156.819 23.7579 156.851 22.1033 155.674 22.1033C153.078 22.1026 150.482 22.1026 147.887 22.1026Z" fill="#3DA333"/>
<path d="M90.1006 3.54884C90.1819 3.54884 90.2556 3.53106 90.3216 3.49549V4.12048C90.2098 4.20178 90.0498 4.24243 89.8414 4.24243C89.4248 4.24243 89.1631 4.06459 89.0564 3.7089C88.716 4.09508 88.2561 4.28816 87.6768 4.28816C87.2703 4.28816 86.935 4.17638 86.6708 3.9528C86.4065 3.72923 86.2744 3.42181 86.2744 3.03055C86.2744 2.63422 86.4192 2.32934 86.7089 2.11593C86.9985 1.89744 87.3542 1.78819 87.7759 1.78819C88.218 1.78819 88.6169 1.88473 88.9726 2.07782V1.87203C88.9726 1.32834 88.6067 1.05649 87.875 1.05649C87.4482 1.05649 87.0544 1.16828 86.6936 1.39185V0.667775C87.0645 0.454362 87.5193 0.347656 88.0579 0.347656C88.5762 0.347656 88.9929 0.472147 89.3079 0.721128C89.628 0.970109 89.7881 1.32326 89.7881 1.78057V3.17537C89.7881 3.29224 89.816 3.3837 89.8719 3.44976C89.9329 3.51581 90.0091 3.54884 90.1006 3.54884ZM88.9726 3.12964V2.67233C88.6728 2.49448 88.3399 2.40556 87.9741 2.40556C87.6997 2.40556 87.4838 2.45637 87.3262 2.558C87.1738 2.65962 87.0976 2.8019 87.0976 2.98482C87.0976 3.18299 87.1713 3.33289 87.3186 3.43451C87.466 3.53106 87.6616 3.57933 87.9055 3.57933C88.124 3.57933 88.3272 3.53614 88.5152 3.44976C88.7032 3.36338 88.8557 3.25667 88.9726 3.12964Z" fill="#3DA333"/>
<path d="M93.9777 0.347656C94.5011 0.347656 94.933 0.540744 95.2734 0.926918C95.6189 1.30801 95.7917 1.77295 95.7917 2.32172C95.7917 2.87049 95.6189 3.33543 95.2734 3.71652C94.933 4.09762 94.5011 4.28816 93.9777 4.28816C93.3933 4.28816 92.9487 4.08491 92.6439 3.67841V5.71345H91.8207V0.44674H92.6439V0.957406C92.9487 0.550906 93.3933 0.347656 93.9777 0.347656ZM93.7566 1.07173C93.5077 1.07173 93.2841 1.13525 93.0859 1.26228C92.8928 1.38423 92.7455 1.54429 92.6439 1.74246V2.90098C92.7455 3.09407 92.8928 3.25413 93.0859 3.38116C93.2841 3.50311 93.5077 3.56409 93.7566 3.56409C94.1022 3.56409 94.3893 3.44468 94.6179 3.20586C94.8466 2.96196 94.9609 2.66725 94.9609 2.32172C94.9609 1.97111 94.8466 1.6764 94.6179 1.43758C94.3893 1.19368 94.1022 1.07173 93.7566 1.07173Z" fill="#3DA333"/>
<path d="M98.1086 4.18908V1.17082H96.8433V0.44674H100.189V1.17082H98.9317V4.18908H98.1086Z" fill="#3DA333"/>
<path d="M104.147 2.45891V1.71959H106.395V2.45891H104.147Z" fill="#3DA333"/>
<path d="M111.082 4.18908V0.44674H114.573V4.18908H113.75V1.17082H111.905V4.18908H111.082Z" fill="#3DA333"/>
<path d="M118.592 0.347656C119.116 0.347656 119.547 0.540744 119.888 0.926918C120.233 1.30801 120.406 1.77295 120.406 2.32172C120.406 2.87049 120.233 3.33543 119.888 3.71652C119.547 4.09762 119.116 4.28816 118.592 4.28816C118.008 4.28816 117.563 4.08491 117.258 3.67841V5.50049H116.435V0.44674H117.258V0.957406C117.563 0.550906 118.008 0.347656 118.592 0.347656ZM118.371 1.07173C118.122 1.07173 117.899 1.13525 117.7 1.26228C117.507 1.38423 117.36 1.54429 117.258 1.74246V2.90098C117.36 3.09407 117.507 3.25413 117.7 3.38116C117.899 3.50311 118.122 3.56409 118.371 3.56409C118.717 3.56409 119.004 3.44468 119.232 3.20586C119.461 2.96196 119.575 2.66725 119.575 2.32172C119.575 1.97111 119.461 1.6764 119.232 1.43758C119.004 1.19368 118.717 1.07173 118.371 1.07173Z" fill="#3DA333"/>
<path d="M123.788 3.56409C124.138 3.56409 124.43 3.44468 124.664 3.20586C124.898 2.96704 125.015 2.66979 125.015 2.3141C125.015 1.96349 124.898 1.66878 124.664 1.42996C124.43 1.19114 124.138 1.07173 123.788 1.07173C123.437 1.07173 123.142 1.19114 122.903 1.42996C122.67 1.66878 122.553 1.96349 122.553 2.3141C122.553 2.66979 122.67 2.96704 122.903 3.20586C123.137 3.44468 123.432 3.56409 123.788 3.56409ZM125.259 3.71652C124.878 4.09762 124.387 4.28816 123.788 4.28816C123.188 4.28816 122.695 4.09762 122.309 3.71652C121.923 3.33543 121.73 2.86795 121.73 2.3141C121.73 1.76532 121.923 1.30039 122.309 0.919296C122.695 0.538203 123.188 0.347656 123.788 0.347656C124.387 0.347656 124.878 0.538203 125.259 0.919296C125.645 1.30039 125.838 1.76532 125.838 2.3141C125.838 2.86795 125.645 3.33543 125.259 3.71652Z" fill="#3DA333"/>
<path d="M129.184 4.28816C128.625 4.28816 128.148 4.1027 127.751 3.73177C127.36 3.36084 127.164 2.88574 127.164 2.30648C127.164 1.7323 127.36 1.26228 127.751 0.896431C128.148 0.530581 128.628 0.347656 129.192 0.347656C129.614 0.347656 129.99 0.434037 130.32 0.6068V1.31563C129.985 1.15303 129.649 1.07173 129.314 1.07173C128.943 1.07173 128.628 1.1886 128.369 1.42234C128.115 1.65608 127.988 1.95333 127.988 2.3141C127.988 2.67487 128.115 2.97466 128.369 3.21348C128.628 3.44722 128.943 3.56409 129.314 3.56409C129.7 3.56409 130.056 3.47008 130.381 3.28208V3.98329C130.025 4.18654 129.626 4.28816 129.184 4.28816Z" fill="#3DA333"/>
<path d="M132.908 4.18908V1.17082H131.643V0.44674H134.989V1.17082H133.731V4.18908H132.908Z" fill="#3DA333"/>
<path d="M138.582 0.347656C139.105 0.347656 139.537 0.540744 139.878 0.926918C140.223 1.30801 140.396 1.77295 140.396 2.32172C140.396 2.87049 140.223 3.33543 139.878 3.71652C139.537 4.09762 139.105 4.28816 138.582 4.28816C137.998 4.28816 137.553 4.08491 137.248 3.67841V5.50049H136.425V0.44674H137.248V0.957406C137.553 0.550906 137.998 0.347656 138.582 0.347656ZM138.361 1.07173C138.112 1.07173 137.888 1.13525 137.69 1.26228C137.497 1.38423 137.35 1.54429 137.248 1.74246V2.90098C137.35 3.09407 137.497 3.25413 137.69 3.38116C137.888 3.50311 138.112 3.56409 138.361 3.56409C138.706 3.56409 138.994 3.44468 139.222 3.20586C139.451 2.96196 139.565 2.66725 139.565 2.32172C139.565 1.97111 139.451 1.6764 139.222 1.43758C138.994 1.19368 138.706 1.07173 138.361 1.07173Z" fill="#3DA333"/>
<path d="M145.5 3.54884C145.581 3.54884 145.655 3.53106 145.721 3.49549V4.12048C145.609 4.20178 145.449 4.24243 145.241 4.24243C144.824 4.24243 144.562 4.06459 144.456 3.7089C144.115 4.09508 143.655 4.28816 143.076 4.28816C142.67 4.28816 142.334 4.17638 142.07 3.9528C141.806 3.72923 141.674 3.42181 141.674 3.03055C141.674 2.63422 141.819 2.32934 142.108 2.11593C142.398 1.89744 142.754 1.78819 143.175 1.78819C143.617 1.78819 144.016 1.88473 144.372 2.07782V1.87203C144.372 1.32834 144.006 1.05649 143.274 1.05649C142.848 1.05649 142.454 1.16828 142.093 1.39185V0.667775C142.464 0.454362 142.919 0.347656 143.457 0.347656C143.976 0.347656 144.392 0.472147 144.707 0.721128C145.027 0.970109 145.187 1.32326 145.187 1.78057V3.17537C145.187 3.29224 145.215 3.3837 145.271 3.44976C145.332 3.51581 145.409 3.54884 145.5 3.54884ZM144.372 3.12964V2.67233C144.072 2.49448 143.739 2.40556 143.373 2.40556C143.099 2.40556 142.883 2.45637 142.726 2.558C142.573 2.65962 142.497 2.8019 142.497 2.98482C142.497 3.18299 142.571 3.33289 142.718 3.43451C142.865 3.53106 143.061 3.57933 143.305 3.57933C143.523 3.57933 143.727 3.53614 143.915 3.44976C144.103 3.36338 144.255 3.25667 144.372 3.12964Z" fill="#3DA333"/>
<path d="M147.22 4.18908V0.44674H148.043V1.91014H149.941V0.44674H150.764V4.18908H149.941V2.63422H148.043V4.18908H147.22Z" fill="#3DA333"/>
<path d="M154.378 4.28816C153.819 4.28816 153.342 4.1027 152.945 3.73177C152.554 3.36084 152.358 2.88574 152.358 2.30648C152.358 1.7323 152.554 1.26228 152.945 0.896431C153.342 0.530581 153.822 0.347656 154.386 0.347656C154.807 0.347656 155.183 0.434037 155.514 0.6068V1.31563C155.178 1.15303 154.843 1.07173 154.508 1.07173C154.137 1.07173 153.822 1.1886 153.563 1.42234C153.308 1.65608 153.181 1.95333 153.181 2.3141C153.181 2.67487 153.308 2.97466 153.563 3.21348C153.822 3.44722 154.137 3.56409 154.508 3.56409C154.894 3.56409 155.25 3.47008 155.575 3.28208V3.98329C155.219 4.18654 154.82 4.28816 154.378 4.28816Z" fill="#3DA333"/>
<path d="M158.102 4.18908V1.17082H156.836V0.44674H160.182V1.17082H158.925V4.18908H158.102Z" fill="#3DA333"/>
<path d="M161.619 4.18908V0.44674H163.662C164.038 0.44674 164.327 0.538203 164.53 0.721128C164.734 0.898971 164.835 1.12509 164.835 1.39947C164.835 1.58748 164.79 1.75262 164.698 1.8949C164.612 2.03717 164.497 2.14134 164.355 2.20739C164.843 2.35475 165.087 2.67487 165.087 3.16775C165.087 3.48278 164.972 3.73177 164.744 3.91469C164.52 4.09762 164.198 4.18908 163.776 4.18908H161.619ZM162.442 3.52598H163.631C164.043 3.52598 164.248 3.37354 164.248 3.06866C164.248 2.92131 164.193 2.80698 164.081 2.72568C163.974 2.64438 163.824 2.60373 163.631 2.60373H162.442V3.52598ZM162.442 1.94063H163.463C163.641 1.94063 163.778 1.90506 163.875 1.83392C163.977 1.7577 164.027 1.65608 164.027 1.52905C164.027 1.24958 163.839 1.10984 163.463 1.10984H162.442V1.94063Z" fill="#3DA333"/>
<path d="M168.525 3.56409C168.875 3.56409 169.167 3.44468 169.401 3.20586C169.635 2.96704 169.752 2.66979 169.752 2.3141C169.752 1.96349 169.635 1.66878 169.401 1.42996C169.167 1.19114 168.875 1.07173 168.525 1.07173C168.174 1.07173 167.879 1.19114 167.641 1.42996C167.407 1.66878 167.29 1.96349 167.29 2.3141C167.29 2.66979 167.407 2.96704 167.641 3.20586C167.874 3.44468 168.169 3.56409 168.525 3.56409ZM169.996 3.71652C169.615 4.09762 169.124 4.28816 168.525 4.28816C167.925 4.28816 167.432 4.09762 167.046 3.71652C166.66 3.33543 166.467 2.86795 166.467 2.3141C166.467 1.76532 166.66 1.30039 167.046 0.919296C167.432 0.538203 167.925 0.347656 168.525 0.347656C169.124 0.347656 169.615 0.538203 169.996 0.919296C170.382 1.30039 170.575 1.76532 170.575 2.3141C170.575 2.86795 170.382 3.33543 169.996 3.71652Z" fill="#3DA333"/>
</svg>
