<svg width="85" height="60" viewBox="0 0 85 60" fill="none" xmlns="http://www.w3.org/2000/svg">
<path d="M0 29.4721H4.88366V32.5286H5.06423C5.06423 32.5286 6.69233 28.9331 10.8522 28.9331C16.0972 28.9331 17.5448 32.3492 17.5448 36.6635V48.1691L12.4804 48.1688V37.7416C12.4804 34.5056 11.5761 33.0677 9.22511 33.0677C6.51212 33.0677 5.06521 34.6858 5.06521 38.4612V48.1688H0V29.4721Z" fill="#3DA333"/>
<path d="M29.5924 28.4362C35.0737 28.8985 37.6176 33.126 37.6176 38.2816C37.6176 38.7131 37.5818 39.3601 37.5818 39.3601H24.2695C24.4865 42.236 25.716 44.3936 28.7553 44.3936C31.8293 44.3936 32.3726 41.5177 32.3726 41.5177H37.437C37.437 41.5177 36.3522 48.1696 28.575 48.1696C22.2444 48.1696 19.1702 43.7473 19.1702 38.2816C19.1702 33.126 22.0353 28.8985 27.5524 28.4362H29.5924ZM24.4141 36.1242H32.4084C32.0831 33.8225 31.0699 32.1688 28.574 32.1688C26.0781 32.1688 24.8485 33.8225 24.4141 36.1242Z" fill="#3DA333"/>
<path d="M50.2759 37.7416C50.2759 34.5056 49.6245 33.0677 47.6353 33.0677C45.4646 33.0677 44.3074 34.6858 44.3074 38.4612V48.1688H39.2429V29.4721H44.1268V32.5286H44.3074C44.3074 32.5286 45.5735 28.9331 49.3715 28.9331C52.4098 28.9331 54.0382 30.371 54.761 32.5648L54.7968 32.5286H54.9784C54.9784 32.5286 56.6064 28.9331 60.4043 28.9331C65.1067 28.9331 66.3731 32.3492 66.3731 36.6635V48.1691L61.3087 48.1688V37.7416C61.3087 34.5056 60.6574 33.0677 58.668 33.0677C56.4973 33.0677 55.3401 34.6858 55.3401 38.4612V48.1688H50.2759V37.7416Z" fill="#3DA333"/>
<path d="M79.9348 48.1688V41.3371H76.3175L73.3147 48.1691L67.6357 48.1688L71.4703 40.4382C69.2996 39.4321 68.1789 37.6693 68.1789 35.4045C68.1789 32.0338 70.7219 29.7696 75.361 29.4989H85V48.1688H79.9348ZM79.9348 37.7416V33.0677H77.0412C74.3282 33.0677 73.2432 33.7863 73.2432 35.4045C73.2432 37.0231 74.328 37.7413 77.0412 37.7413L79.9348 37.7416Z" fill="#3DA333"/>
<path d="M14.9093 44.8889V48.1696H28.4408L26.9946 46.552C25.5871 46.552 25.6254 44.8895 24.2179 44.8895C21.1142 44.8889 18.0123 44.8889 14.9093 44.8889Z" fill="#3DA333"/>
<path d="M61.8276 44.8889V48.1696H73.2696L72.0469 46.552C70.8564 46.552 70.8886 44.8895 69.6992 44.8895C67.0751 44.8889 64.4509 44.8889 61.8276 44.8889Z" fill="#3DA333"/>
<path d="M5.87434 56.6472V57.5488C5.70855 57.6694 5.47577 57.7247 5.1777 57.7247C4.56894 57.7247 4.18175 57.4719 4.03773 56.955C3.53993 57.5158 2.87626 57.7909 2.03543 57.7909C1.44942 57.7909 0.96272 57.6263 0.575534 57.3073C0.188437 56.9881 0 56.5371 0 55.9766C0 55.4046 0.210202 54.965 0.630616 54.6571C1.05085 54.3381 1.57077 54.1849 2.17936 54.1849C2.83184 54.1849 3.41857 54.3275 3.91664 54.6024V54.3058C3.91664 53.5252 3.38552 53.1296 2.32329 53.1296C1.70404 53.1296 1.1285 53.2944 0.608852 53.6134V52.5689C1.15116 52.261 1.80364 52.1065 2.58939 52.1065C4.09362 52.1065 5.10005 52.8548 5.10005 54.1743V56.1858C5.10005 56.5265 5.2884 56.7252 5.55342 56.7252C5.67451 56.7246 5.77411 56.7029 5.87434 56.6472ZM3.91565 55.4596C3.46219 55.2065 2.9755 55.075 2.46623 55.075C1.6701 55.075 1.1938 55.3828 1.1938 55.9108C1.1938 56.4827 1.66902 56.7678 2.36673 56.7678C2.98589 56.7678 3.57289 56.4819 3.91565 56.1197V55.4596Z" fill="#3DA333"/>
<path d="M12.0793 52.931C12.5774 53.4806 12.8206 54.1516 12.8206 54.9544C12.8206 55.746 12.5774 56.4168 12.0793 56.9661C11.5814 57.5158 10.9507 57.7909 10.1876 57.7909C9.34701 57.7909 8.70519 57.4941 8.25173 56.9109V59.847H7.05694V52.2489H8.25173V52.9857C8.70519 52.4035 9.34701 52.1063 10.1878 52.1063C10.9507 52.106 11.5814 52.3816 12.0793 52.931ZM8.25173 54.1186V55.7901C8.55007 56.3282 9.15883 56.7471 9.86693 56.7471C10.3648 56.7471 10.7852 56.571 11.1165 56.2303C11.4481 55.8787 11.6147 55.4502 11.6147 54.9553C11.6147 54.4491 11.4489 54.0207 11.1165 53.68C10.7844 53.3284 10.364 53.152 9.86693 53.152C9.15856 53.1503 8.55078 53.5578 8.25173 54.1186Z" fill="#3DA333"/>
<path d="M15.1873 57.6485V53.2944H13.3507V52.2489H18.2075V53.2936H16.3823V57.648L15.1873 57.6485Z" fill="#3DA333"/>
<path d="M19.3027 55.1522V54.086H22.5661V55.1522H19.3027Z" fill="#3DA333"/>
<path d="M24.9557 56.9661C24.3915 56.4168 24.1151 55.746 24.1151 54.9432C24.1151 54.1516 24.3915 53.4806 24.9557 52.931C25.5201 52.3816 26.2282 52.106 27.102 52.106C27.9644 52.106 28.6725 52.3808 29.2369 52.931C29.8011 53.4806 30.0775 54.1516 30.0775 54.9432C30.0775 55.7344 29.8011 56.4056 29.2369 56.9661C28.6725 57.5158 27.9644 57.7909 27.102 57.7909C26.2282 57.7909 25.5201 57.5158 24.9557 56.9661ZM28.3735 56.2297C28.7162 55.8889 28.8827 55.4596 28.8827 54.9432C28.8827 54.437 28.717 54.0086 28.3735 53.6673C28.0307 53.3265 27.6103 53.1505 27.101 53.1505C26.5917 53.1505 26.1609 53.3265 25.8181 53.6673C25.4754 54.008 25.3096 54.437 25.3096 54.9432C25.3096 55.4596 25.4754 55.8889 25.8181 56.2297C26.1609 56.5704 26.581 56.7461 27.101 56.7461C27.6103 56.7461 28.0307 56.5702 28.3735 56.2297Z" fill="#3DA333"/>
<path d="M36.4159 52.931C36.9138 53.4806 37.1571 54.1516 37.1571 54.9544C37.1571 55.746 36.9138 56.4168 36.4159 56.9661C35.9178 57.5158 35.2874 57.7909 34.5243 57.7909C33.6834 57.7909 33.0416 57.4941 32.5882 56.9109V59.847H31.3934V52.2489H32.5882V52.9857C33.0416 52.4035 33.6834 52.1063 34.5243 52.1063C35.2874 52.106 35.9178 52.3816 36.4159 52.931ZM32.5882 54.1186V55.7901C32.8864 56.3282 33.4953 56.7471 34.2034 56.7471C34.7012 56.7471 35.1216 56.571 35.453 56.2303C35.7846 55.8787 35.9511 55.4502 35.9511 54.9553C35.9511 54.4491 35.7853 54.0207 35.453 53.68C35.1209 53.3284 34.7005 53.152 34.2034 53.152C33.4953 53.1503 32.8864 53.5578 32.5882 54.1186Z" fill="#3DA333"/>
<path d="M43.8931 56.6472V57.5488C43.7273 57.6694 43.4944 57.7247 43.1964 57.7247C42.5876 57.7247 42.2004 57.4719 42.0565 56.955C41.5586 57.5158 40.8949 57.7909 40.0541 57.7909C39.4682 57.7909 38.9815 57.6263 38.5943 57.3073C38.2071 56.9881 38.0187 56.5371 38.0187 55.9766C38.0187 55.4046 38.229 54.965 38.6494 54.6571C39.0695 54.3381 39.5895 54.1849 40.198 54.1849C40.8505 54.1849 41.4375 54.3275 41.9354 54.6024V54.3058C41.9354 53.5252 41.4043 53.1296 40.342 53.1296C39.7228 53.1296 39.1473 53.2944 38.6275 53.6134V52.5689C39.1698 52.261 39.8223 52.1065 40.608 52.1065C42.1123 52.1065 43.1187 52.8548 43.1187 54.1743V56.1858C43.1187 56.5265 43.3071 56.7252 43.5722 56.7252C43.6942 56.7246 43.7935 56.7029 43.8931 56.6472ZM41.9354 55.4596C41.4819 55.2065 40.9952 55.075 40.486 55.075C39.6897 55.075 39.2134 55.3828 39.2134 55.9108C39.2134 56.4827 39.6888 56.7678 40.3864 56.7678C41.0056 56.7678 41.5926 56.4819 41.9354 56.1197V55.4596Z" fill="#3DA333"/>
<path d="M45.0764 57.6485V52.2489H46.2712V54.3596H49.026V52.2489H50.2211V57.648L49.026 57.6477V55.4043L46.2712 55.4046V57.648L45.0764 57.6485Z" fill="#3DA333"/>
<path d="M51.3704 57.6485L53.9588 54.7565L51.6799 52.2499H53.0849L54.9878 54.3606V52.2489H56.1824V54.3596L58.0853 52.2489H59.4903L57.1899 54.756L59.8008 57.648L58.3184 57.6477L56.1835 55.2398V57.6477H54.9887V55.2398L52.8424 57.6477L51.3704 57.6485Z" fill="#3DA333"/>
<path d="M60.8841 52.9199C61.4039 52.3816 62.0675 52.1063 62.8977 52.1063C63.4507 52.1063 63.9267 52.2489 64.3246 52.5456C65.1319 53.1175 65.4747 54.008 65.4747 54.9864V55.2943H61.3157C61.4597 56.207 62.2559 56.7451 63.3625 56.7451C63.993 56.7451 64.5685 56.5808 65.11 56.2618V57.2619C64.6121 57.6139 63.9485 57.7898 63.1079 57.7898C62.2671 57.7898 61.559 57.5261 60.973 56.9985C60.3974 56.4707 60.1103 55.7892 60.1103 54.9423C60.1096 54.1405 60.3642 53.4589 60.8841 52.9199ZM64.2694 54.3937C64.2583 54.063 64.1369 53.767 63.8823 53.5025C63.6276 53.2379 63.2849 53.1061 62.8429 53.1061C61.969 53.1061 61.4048 53.6888 61.3272 54.3926H64.2694V54.3937Z" fill="#3DA333"/>
<path d="M71.8461 52.931C72.3441 53.4806 72.5874 54.1516 72.5874 54.9544C72.5874 55.746 72.3441 56.4168 71.8461 56.9661C71.3482 57.5158 70.7178 57.7909 69.9547 57.7909C69.1137 57.7909 68.4719 57.4941 68.0185 56.9109V59.847H66.8238V52.2489H68.0185V52.9857C68.4719 52.4035 69.1137 52.1063 69.9547 52.1063C70.7185 52.106 71.3492 52.3816 71.8461 52.931ZM68.0185 54.1186V55.7901C68.3168 56.3282 68.9256 56.7471 69.6337 56.7471C70.1315 56.7471 70.552 56.571 70.8833 56.2303C71.2156 55.8787 71.3814 55.4502 71.3814 54.9553C71.3814 54.4491 71.2156 54.0207 70.8833 53.68C70.5512 53.3284 70.1308 53.152 69.6337 53.152C68.9264 53.1503 68.3176 53.5578 68.0185 54.1186Z" fill="#3DA333"/>
<path d="M74.2907 52.9199C74.8104 52.3816 75.4741 52.1063 76.3042 52.1063C76.8572 52.1063 77.3332 52.2489 77.7311 52.5456C78.5387 53.1175 78.8814 54.008 78.8814 54.9864V55.2943H74.7223C74.8663 56.207 75.6624 56.7451 76.7691 56.7451C77.3995 56.7451 77.9753 56.5808 78.5165 56.2618V57.2619C78.0187 57.6139 77.3551 57.7898 76.5144 57.7898C75.6736 57.7898 74.9655 57.5261 74.3796 56.9985C73.804 56.4707 73.5169 55.7892 73.5169 54.9423C73.5171 54.1405 73.7707 53.4589 74.2907 52.9199ZM77.676 54.3937C77.6648 54.063 77.5434 53.767 77.2888 53.5025C77.0342 53.2379 76.6914 53.1061 76.2494 53.1061C75.3755 53.1061 74.8114 53.6888 74.7337 54.3926H77.676V54.3937Z" fill="#3DA333"/>
<path d="M79.7664 57.6485L81.3039 55.5482C80.541 55.3609 80.0977 54.7787 80.0977 53.9543C80.0977 52.9537 80.7832 52.2501 82.1445 52.2501L84.9989 52.2499V57.6485H83.8041V55.7901H82.4875L81.1374 57.6485H79.7664ZM83.8041 54.8332V53.2058H82.3114C81.6807 53.2058 81.3153 53.5025 81.3153 54.0201C81.3153 54.5365 81.6807 54.8337 82.3114 54.8337L83.8041 54.8332Z" fill="#3DA333"/>
<path d="M6.72995 6.5894H12.4151L19.1433 25.1869H13.7458L9.42824 11.99L5.11143 25.1874H0.00179372L6.72995 6.5894Z" fill="#3DA333"/>
<path d="M27.9207 13.921C28.5686 9.45082 31.5549 6.0531 36.9521 6.0531C43.1047 6.0531 46.1272 10.4522 46.1272 15.8881C46.1272 21.3241 43.104 25.7232 36.9514 25.7232C31.5538 25.7232 28.5679 22.3618 27.92 17.8552L25.437 17.855V25.1869H20.4V6.58939H25.437V13.921H27.9207ZM36.9514 21.9681C40.1536 21.9681 41.0895 19.2497 41.0895 15.8881C41.0895 12.5263 40.1536 9.80791 36.9514 9.80791C33.7489 9.80791 32.8134 12.5263 32.8134 15.8881C32.8134 19.2497 33.7499 21.9681 36.9514 21.9681Z" fill="#3DA333"/>
<path d="M47.5637 13.921C47.5637 1.94076 53.2847 0.152344 58.5023 0.152344H84.9989V4.26547H58.0698C54.0042 4.26547 52.4929 6.05363 51.8815 9.98756H52.0612C52.0612 9.98756 53.6805 7.12611 57.9973 7.12611C63.5743 7.12611 66.8123 11.2393 66.8123 16.4244C66.8123 21.4314 63.5743 25.7232 57.2777 25.7232C52.2407 25.7232 47.5637 22.8627 47.5637 13.921ZM57.278 21.9681C60.4802 21.9681 61.7753 19.4289 61.7753 16.4244C61.7753 13.4204 60.4802 10.8812 57.278 10.8812C54.0755 10.8812 52.7804 13.4209 52.7804 16.4244C52.7804 19.4289 54.0755 21.9681 57.278 21.9681Z" fill="#3DA333"/>
<path d="M68.4475 12.3123C68.7355 7.55594 72.5856 6.05365 76.9034 6.05365C81.4009 6.05365 84.9989 7.66366 84.9989 12.4919V25.0953L79.9619 25.0926L79.9617 21.6114H79.7822C79.7822 21.6114 78.6311 25.7245 73.8451 25.7245C70.4274 25.7245 67.9088 24.1511 67.9088 20.7176C67.9088 17.2484 70.7876 15.675 73.8817 14.8884C77.0115 14.1013 79.9626 13.8507 79.9626 11.7771C79.9626 10.3105 78.8831 9.45244 76.9041 9.45244C74.7459 9.45244 73.558 10.3105 73.4866 12.3126L68.4475 12.3123ZM76.0034 17.3195C74.3839 17.7129 73.0175 18.5356 73.0175 20.1797C73.0175 21.61 74.0246 22.5049 75.6441 22.5049C79.0619 22.5049 79.9619 18.5712 79.9619 15.817C79.1343 16.5678 77.4431 16.9612 76.0034 17.3195Z" fill="#3DA333"/>
</svg>
