<svg width="229" height="263" viewBox="0 0 229 263" fill="none" xmlns="http://www.w3.org/2000/svg">
<g opacity="0.4">
<path fill-rule="evenodd" clip-rule="evenodd" d="M65.2447 251.8C63.0135 245.28 81.187 231.654 86.5478 229.72C94.1437 226.981 100.587 233.515 109.252 238.426C110.43 239.093 111.603 239.87 112.776 240.58C114.249 241.471 115.493 241.717 116.067 243.176C114.966 242.98 95.5641 248.309 93.7931 249.112C86.5192 252.407 85.1583 254.982 81.0608 257.802C78.8624 259.315 78.8181 260.011 76.2682 258.932C76.8759 255.987 81.2637 251.707 83.3135 249.646C86.1035 246.84 89.8613 245.055 92.3563 242.31C92.0805 239.046 90.0779 240.239 88.2254 241.479C84.3562 244.066 78.9328 247.978 76.2606 251.837C75.2193 253.341 74.2817 254.739 73.2592 256.268C71.8921 258.313 69.5132 258.4 69.884 256.163C70.5133 252.368 73.167 249.419 75.5475 246.652C78.1152 243.666 79.5801 241.495 82.9916 239.24C84.2751 238.391 87.1423 236.4 84.8896 234.769C82.8599 233.298 73.7361 242.892 72.4741 244.496C71.0955 246.247 67.9115 253.008 65.2447 251.8ZM80.4283 227.767C78.9033 224.723 80.992 218.251 82.6316 215.343C83.9592 212.987 89.9509 205.578 92.2192 205.054L102.705 203.82C112.629 203.796 130.364 210.51 138.349 215.583C142.791 218.404 154.54 225.501 153.277 231.658C151.259 232.189 147.743 229.368 147.027 228.573C145.128 226.467 140.893 223.337 138.401 221.43C135.387 219.124 130.066 216.079 126.485 214.318C124.22 213.205 122.969 213.372 123.18 216.252C127.068 219.042 130.91 220.529 135.119 223.852C138.931 226.864 142.493 229.307 145.803 232.79C153.356 240.738 149.342 243.611 145.372 240.917C143.983 239.974 141.893 237.254 140.667 235.854C138.069 232.884 139.036 233.787 135.821 230.887C133.672 228.947 119.371 218.908 117.529 220.243C115.153 221.963 120.37 224.225 121.518 224.989C123.496 226.305 125.409 227.478 127.417 228.885C130.932 231.35 141.325 239.549 141.575 244.041C139.795 245.032 139.172 244.604 137.39 243.566C133.518 241.314 129.556 235.792 120.788 230.41C119.511 229.626 118.246 228.99 116.973 228.294C115.438 227.454 114.782 226.308 112.755 226.577L112.231 228.334C113.338 229.891 123.594 236.644 127.064 239.341C129.745 241.425 130.409 242.234 129.559 244.164C127.153 244.682 120.248 239.947 117.722 238.549C114.115 236.554 109.848 234.035 106.185 232.248C99.1755 228.826 93.8015 221.703 83.7169 226.526C82.9187 226.907 81.1902 227.662 80.4283 227.767ZM100.143 200.343C100.8 196.265 117.207 176.872 120.747 172.597C123.907 168.78 128.97 163.925 132.611 160.395C134.724 158.346 136.812 156.488 138.906 154.521C142.961 150.711 155.431 141.963 160.106 139.464C165.738 136.452 170.298 134.012 176.222 131.484C185.264 127.625 183.144 126.329 190.919 134.146C204.09 147.386 213.365 161.278 217.285 180.281C219.813 192.534 220.113 210.906 214.411 222.322C205.038 241.089 185.81 246.246 166.642 246.96C162.854 247.101 147.066 246.699 144.247 245.258C146.844 244.353 149.968 246.293 152.265 243.364C153.209 242.162 153.489 240.845 153.318 239.338C152.998 236.5 152.547 236.643 152.378 235.483C156.965 235.341 157.818 231.607 156.114 227.868C154.826 225.04 152.972 222.563 150.986 220.461C148.654 217.995 139.721 211.335 136.438 210.031C138.386 209.177 143.236 207.956 145.469 207.461C155.396 205.263 165.752 203.265 176.043 205.252C177.974 205.624 183.965 207.872 185.226 207.382C187.095 206.656 186.149 204.876 184.789 204.167C177.892 200.575 167.753 200.523 160.269 200.951C160.94 198.303 161.153 195.083 161.796 192.238C163.449 184.938 165.699 180.281 166.58 172.058C166.805 169.958 166.727 169.268 164.511 169.442C163.631 170.843 158.475 189.127 157.772 192.725C155.756 203.03 160.092 200.704 149.129 202.753C145.511 203.43 138.991 205.352 135.274 206.444C131.564 207.534 132.347 208.112 128.528 206.623C119.81 203.225 109.739 199.886 100.143 200.343ZM60.808 196.358C53.5838 195.081 49.454 194.728 42.0408 194.948C40.4787 194.994 38.572 194.782 38.6826 196.797C38.8273 199.46 46.3543 197.988 52.1014 198.73C62.8843 200.121 75.6374 204.862 85.8845 205.092C80.5747 210.54 75.47 217.806 76.2876 225.871C76.5948 228.906 77.6911 228.913 74.7982 230.71C72.9673 231.846 72.1141 233.021 69.8693 233.482C52.0604 237.133 21.7902 234.962 16.3875 213.578C11.7211 195.103 26.4211 174.753 37.9998 160.917L45.2464 153.025C46.4726 151.45 59.3472 137.782 59.8713 137.601C60.9754 139.547 61.3839 140.296 62.6219 142.093C61.7425 143.33 57.7455 152.44 56.9792 154.363C52.7276 165.018 51.674 173.041 54.7644 184.337C55.3783 186.583 56.2268 188.654 57.2897 190.728C58.7002 193.479 60.5122 195.734 60.808 196.358ZM152.351 139.804C152.479 134.993 153.174 130.41 154.171 125.721L156.971 113.058C161.635 113.704 177.978 123 180.277 125.436C180.168 125.542 173.684 128.272 172.848 128.645C170.435 129.722 168.224 130.956 165.848 132.072C162.432 133.675 153.964 139.101 152.351 139.804ZM101.977 99.1316C106.377 99.4288 109.857 99.3174 114.071 97.8836C116.051 97.2101 121.284 94.5007 122.447 92.872C125.078 89.1855 116.348 93.3674 115.559 93.64C94.7669 100.824 83.8532 86.469 80.6815 66.9271C78.6813 54.6044 78.4543 31.906 85.598 21.1927C87.0659 18.9927 90.0492 15.9875 92.2121 14.4618C96.1526 11.6803 98.5275 12.8376 102.472 11.6895C104.084 11.2198 105.259 10.0114 106.889 10.7668C109.297 11.8848 109.252 11.9946 112.055 12.1068C122.859 12.5381 130.145 19.9783 133.476 30.1023C139.24 47.6195 135.801 62.1126 135.662 78.4438C135.584 87.6048 136.589 93.2481 138.186 102.09C142.922 128.29 134.089 131.074 136.108 149.221C136.863 155.999 122.602 156.758 118.064 157.02C103.695 157.849 101.891 155.637 93.4517 155.7C93.564 153.108 95.8763 151.248 96.2788 148.849C95.4172 147.583 95.2877 147.351 93.7341 147.43C92.021 149.157 90.6183 152.499 89.6226 154.802C82.4735 154.699 71.8462 148.944 67.1225 143.912C68.2599 139.65 77.9371 129.168 81.5038 126.221C86.8925 121.771 94.8754 115.381 101.784 114.319L101.8 119.191C103.108 120.452 103.471 120.558 105.356 120.06C105.889 116.042 103.34 103.096 101.977 99.1316ZM158.583 47.7789C162.489 46.0866 167.06 42.0341 169.782 38.7927C171.345 36.9294 172.973 35.3184 174.62 33.5293C176.609 31.368 178.041 30.1673 180.578 32.6926C183.617 35.7196 185.113 42.5519 186.682 46.7608C190.682 57.4902 195.618 51.3993 198.122 50.5943C202.247 54.0749 199.199 63.8181 206.311 66.1706C209.679 67.2846 224.872 68.7074 227.869 67.7343C228.352 66.3757 228.397 67.0756 228.284 65.4996C226.817 64.6697 217.931 63.87 215.643 63.6548C213.418 63.4448 211.39 63.1144 209.145 62.9202C203.545 62.4355 206.047 56.9361 201.665 49.0942C198.856 44.0684 194.523 49.2845 191.902 49.2744C188.611 45.7553 186.908 25.6 177.414 27.6152C171.176 28.9397 165.41 40.8481 158.008 44.3246C156.56 36.8295 156.622 31.1993 153.524 23.8079C148.283 11.3034 140.354 3.66898 126.997 0.895142C120.487 -0.457245 111.157 -0.252899 104.718 1.34335C92.0357 4.48807 83.2524 12.3114 77.6091 23.9565C74.0425 31.3153 73.8491 35.7303 72.3984 43.4592L69.6672 65.4204C64.4527 64.6604 62.2122 63.2955 57.1881 66.5344C53.9052 68.6517 48.8748 67.1423 47.5953 63.427C46.359 59.835 46.4557 54.8265 41.4564 54.8281C36.8935 54.8298 35.5537 59.3809 32.587 60.446C30.3282 58.8801 28.6375 50.25 25.8375 47.6938C21.9931 44.1853 19.7799 51.5652 19.0824 54.0547C18.7681 55.1766 18.5188 57.3463 18.2642 57.9564C17.4196 57.3176 15.6043 51.1107 11.2055 46.8668C8.95604 44.6962 0.780359 39.3539 0.179548 45.489C-0.38303 51.2407 0.557501 64.3051 0.542754 71.6197C0.537292 74.5948 -0.346702 78.3135 3.404 77.8345C4.87626 75.8636 4.19132 72.9057 4.0657 70.5652C3.78413 65.2836 3.27235 50.5091 3.86224 46.582C5.97627 46.4752 9.76195 50.8242 10.9193 52.4855C18.7007 63.6562 13.7191 72.431 23.5817 79.413C29.9582 83.9276 32.0685 80.0152 29.6144 78.3987C28.303 77.5349 27.059 77.2742 25.4805 75.9873C20.2551 71.7265 20.1855 67.7901 20.9791 61.2109C21.215 59.2561 22.7548 52.0002 23.9138 51.0938C24.561 51.4606 24.6159 51.8098 24.9627 52.7086C25.1856 53.2867 25.4139 53.866 25.6244 54.4162C26.1215 55.7175 26.4498 56.8408 26.9823 58.0973C29.8351 64.8275 32.6529 66.4369 37.304 60.6308C38.9521 58.5733 41.2374 56.8239 42.7391 60.2075C45.0421 65.395 45.2265 70.0677 52.1595 70.707C54.8968 70.9594 58.6057 71.0191 60.77 69.2402C63.1151 67.3132 66.1101 68.6124 69.065 68.9969C68.763 74.1784 68.8132 81.8802 69.3373 87.0335C70.614 99.6 76.3371 105.313 72.6918 118.351C70.8656 124.88 68.9566 124.251 64.2004 128.251C57.4306 133.947 51.8182 140.313 45.7249 146.651C40.0567 152.547 33.3271 159.802 28.6443 166.453C18.3546 181.069 5.23156 201.569 14.5064 219.843C19.098 228.89 25.5797 233.127 35.0829 236.205C44.2007 239.156 58.7944 239.902 68.1622 238.117C65.1224 241.69 59.4821 249.133 62.1937 254.209C62.9679 255.659 64.8752 256.371 65.9777 257.885C67.3571 259.781 67.2883 261.22 70.1735 261.44C80.0522 262.193 76.6825 265.833 85.8558 258.445C94.1391 251.775 97.6945 252.053 107.44 249.436C111.434 248.364 115.175 247.089 119.083 245.797C123.569 244.313 124.968 248.496 130.762 247.221C133.837 246.545 133.25 246.169 136.38 247.199L156.111 250.499C179.419 253.379 207.904 246.016 218.442 222.703C225.082 208.012 223.809 185.408 218.693 170.337C213.604 155.345 206.266 144.017 195.27 132.769C189.534 126.903 184.746 123.838 178.136 119.258C173.579 116.1 172.425 117.278 170.844 111.456C169.82 107.688 168.192 103.876 167.064 100.063C162.118 83.3393 162.204 65.8462 158.583 47.7789Z" fill="#3FA535"/>
<path fill-rule="evenodd" clip-rule="evenodd" d="M12.3978 107.001C14.4122 103.286 38.6099 103.337 43.5294 102.951C46.3666 102.729 49.6148 102.665 52.463 102.73C53.587 102.754 55.5478 103.167 56.0085 101.84C56.6061 100.121 55.2614 99.8897 53.9647 99.8129C48.2097 99.4724 42.4534 99.3005 36.6731 99.4985C31.1961 99.6859 9.84929 99.758 8.00235 106.017C5.82686 113.389 29.3366 111.065 29.3008 119.488C27.7611 121.531 18.6597 123.039 15.7034 124.029C11.3412 125.488 6.63905 130.265 11.0902 134.399C16.7106 139.617 35.1101 139.623 38.1399 142.978C35.4491 144.846 14.046 148.544 6.63441 150.645C5.51198 150.964 2.52296 151.731 1.84322 152.42C0.401002 153.88 1.14435 155.959 3.91163 155.139C10.1852 153.279 18.8883 151.317 25.356 150.377C28.7615 149.882 44.9623 147.37 41.9829 141.604C38.4605 134.788 15.087 136.093 13.3662 130.925C12.0912 127.099 26.8198 126.251 31.2713 123C34.3174 120.775 33.7739 116.462 31.3362 114.147C25.8598 108.948 15.4106 108.759 12.3978 107.001Z" fill="#3FA535"/>
<path fill-rule="evenodd" clip-rule="evenodd" d="M194.136 89.8992C195.698 88.2604 211.765 88.6097 214.792 88.7396C216.135 88.797 225.594 89.9566 222.679 86.3646C221.53 84.9488 214.404 85.3134 212.419 85.3598C206.643 85.4953 196.534 84.797 191.5 86.9569C187.434 88.6995 190.186 91.4988 193.022 92.8216C194.345 93.4386 195.734 93.8883 197.107 94.3955C198.961 95.0807 199.624 94.8622 201.283 95.2516C197.745 97.5331 176.554 95.055 172.818 96.5251C171.719 97.461 171.744 98.8923 173.182 99.5712C174.28 100.088 176.676 99.785 177.929 99.7386C181.299 99.6124 184.67 99.7664 188.038 99.8151C191.185 99.8601 194.575 99.8893 197.68 99.4529C200.135 99.1075 205.126 98.7437 202.268 95.182C206.237 91.3554 197.221 91.9816 194.136 89.8992Z" fill="#3FA535"/>
<path fill-rule="evenodd" clip-rule="evenodd" d="M94.0484 45.7746C90.0013 45.0345 84.8835 44.186 81.0214 46.0485C80.5405 50.4271 83.6401 48.0697 86.3304 48.4769C87.3119 49.4718 86.6215 49.8558 88.017 50.6445C89.1482 51.284 92.6627 51.969 92.0813 48.8578L93.9539 48.8306C94.1049 51.4138 91.5534 59.4128 91.1579 62.7686C90.4618 68.6716 94.7497 71.435 100.255 69.5146C111.53 65.5834 106.77 61.4255 104.781 62.6495C103.645 63.3478 103.885 64.828 99.6616 66.1594C90.4711 69.0547 97.0767 59.5662 97.6705 48.7352C97.9184 44.2229 96.456 38.8743 91.6648 37.4405C89.1124 36.6775 86.4874 36.932 84.0094 37.7147C79.9561 38.9958 81.3565 42.3153 83.4945 41.7759C84.4493 41.535 92.4273 37.3163 94.0484 45.7746Z" fill="#3FA535"/>
<path fill-rule="evenodd" clip-rule="evenodd" d="M64.701 87.6739C67.1086 84.3071 60.3929 84.9241 58.9988 84.9435C48.9622 85.0773 26.887 86.4878 17.1282 87.6389C14.1518 87.9904 3.13422 87.8899 1.63574 90.1418C0.894834 91.255 1.81762 92.3891 2.90974 92.6289L23 90.6465C25.7452 90.2322 28.566 90.3043 31.3453 90.0675C36.683 89.6123 42.9325 89.2748 48.2956 89.1246C50.9214 89.0511 63.5685 89.257 64.701 87.6739Z" fill="#3FA535"/>
<path fill-rule="evenodd" clip-rule="evenodd" d="M195.651 76.704C190.649 76.5552 185.604 76.6048 180.604 76.3825C178.04 76.2695 167.905 75.1424 166.49 76.8555C163.293 80.7269 175.983 79.6632 177.959 79.9033C183.818 80.6139 220.106 81.6033 222.422 80.4227C223.521 76.8728 220.064 77.7622 217.563 77.7395C211.728 77.6893 202.394 76.9053 195.651 76.704Z" fill="#3FA535"/>
<path fill-rule="evenodd" clip-rule="evenodd" d="M47.2012 127.149C46.0561 122.107 57.2648 120.609 60.6362 119.385C68.2512 116.617 65.7363 110.263 58.6197 109.148C55.3914 108.643 47.0764 108.606 43.7121 109.545C42.2669 109.949 40.9894 111.51 42.7793 112.557C45.2936 114.028 59.1872 110.178 61.9839 114.161C58.1838 117.829 50.2017 117.06 45.7899 121.143C43.8383 122.95 42.146 127.575 44.2455 129.777C45.8814 131.492 52.0001 131.386 53.4879 129.44C52.9065 126.382 50.252 128.213 47.2012 127.149Z" fill="#3FA535"/>
<path fill-rule="evenodd" clip-rule="evenodd" d="M107.108 46.8484C108.157 47.545 107.883 48.2294 109.451 48.08C110.498 47.9809 111.765 47.4197 112.839 47.2353C112.422 51.1586 118.139 55.4869 120.248 46.9956C123.165 47.329 124.176 49.4602 125.699 46.3499C124.192 43.4212 119.27 43.3347 116.383 43.3167C113.442 43.3003 107.802 43.4196 107.108 46.8484Z" fill="#3FA535"/>
<path fill-rule="evenodd" clip-rule="evenodd" d="M125.625 41.0187C126.502 38.5515 126.652 38.3891 123.941 36.9941C118.844 34.3721 110.479 34.2746 107.123 37.0785C105.362 38.5516 106.318 41.0234 108.671 40.1866C110.461 39.5503 112.064 38.9503 114.039 38.7018C119.719 37.9857 122.376 41.1907 125.625 41.0187Z" fill="#3FA535"/>
<path fill-rule="evenodd" clip-rule="evenodd" d="M112.473 76.3295C113.045 75.7202 113.382 74.4143 112.37 73.8678C111.742 73.5295 110.771 73.9823 110.062 74.1303C106.479 74.8788 102.482 75.0815 98.8302 75.0072C97.4368 74.9794 94.4191 74.2805 93.6722 75.4106C91.4317 78.7997 100.92 78.7432 102.408 78.6263C104.47 78.4646 111.466 77.4009 112.473 76.3295Z" fill="#3FA535"/>
<path fill-rule="evenodd" clip-rule="evenodd" d="M99.6265 80.3995C98.3623 83.0152 100.18 83.0059 102.26 82.7945C104.524 82.564 106.291 82.9633 105.962 80.1534L99.6265 80.3995Z" fill="#3FA535"/>
</g>
</svg>
