<svg width="139" height="26" viewBox="0 0 139 26" fill="none" xmlns="http://www.w3.org/2000/svg">
<path fill-rule="evenodd" clip-rule="evenodd" d="M32.828 9.86713L40.4183 9.9231L40.4985 14.0796L32.6983 14.1695L32.828 9.86713ZM31.7152 8.23327C32.5019 7.16403 34.8589 5.60942 36.2725 5.55298C37.8194 5.49152 40.6709 7.02009 40.9103 8.2598L31.7152 8.23327ZM31.8399 6.18844C29.2217 8.37949 30.3528 8.28227 31.1105 10.5458C31.3316 11.205 31.3229 16.4201 31.1463 17.1917C29.7631 17.4639 28.9144 15.956 27.3268 17.3777C26.0729 18.5002 26.21 19.0884 25.3939 20.1075C24.6558 21.0299 19.7396 22.7171 21.6437 24.8792C22.1993 24.8776 23.6701 22.9266 25.5581 22.2036C26.823 21.719 27.5153 19.4872 28.5041 18.414C31.3539 18.2851 30.5595 20.0758 32.0031 20.7195C33.2254 19.7045 32.7083 17.21 32.8335 15.6769L40.3738 15.8525L40.577 20.9217C43.6349 20.7993 39.23 15.5979 44.6587 14.5651C48.6693 13.8017 48.5126 17.4479 50.0022 19.1634C51.8654 19.2579 54.6409 15.354 57.1032 20.4114C57.8204 21.884 57.481 23.1467 59.1398 23.6271C62.0941 24.4831 63.409 24.4501 67.4418 25.8283C69.5754 26.5572 70.1861 24.765 68.0505 24.1897C65.2117 23.4246 62.4609 22.8331 59.6611 22.1229C58.509 20.4142 58.6777 18.6849 56.6724 17.16C54.2329 15.305 52.7808 16.7309 50.8461 17.1995C49.6326 15.3523 49.9692 14.2859 47.4443 13.2089C44.6125 12.0009 43.4695 13.9076 41.7542 14.0511L41.7305 10.0355L42.9165 8.91029C42.8642 6.6167 41.9509 6.93387 40.4628 5.66036C38.5506 4.02407 37.9555 4.63608 36.6988 3.82093C36.6521 2.97682 37.1009 1.12704 36.315 0.646999C34.9856 -0.164597 35.306 2.31257 35.3302 2.89482C35.4074 4.75657 33.5835 4.72909 31.8399 6.18844Z" fill="#0C6225"/>
<path fill-rule="evenodd" clip-rule="evenodd" d="M65.1665 16.4506C60.8189 15.4205 57.6784 4.01147 51.9481 3.27104C46.0536 2.50958 43.2748 9.10552 46.9283 6.38171C53.7568 1.29105 56.976 10.1861 61.0987 15.4558C64.9126 20.331 66.0116 17.302 68.671 14.9248C73.8004 10.341 80.1112 22.5463 84.7491 22.667C84.7412 20.0899 81.5275 19.3549 80.1841 17.8026C81.7022 15.598 85.8999 12.9906 88.9881 12.9374C91.1877 12.8994 100.19 14.3613 101.292 13.4262C101.473 11.8486 96.7333 11.8834 95.3989 11.7546C93.2119 11.5427 90.6317 11.0127 88.4471 11.2503C82.642 11.8806 82.5604 14.3935 78.9174 16.801C75.8699 15.105 72.3677 7.31478 65.1665 16.4506Z" fill="#0C6225"/>
<path fill-rule="evenodd" clip-rule="evenodd" d="M19.2912 5.77657C23.1241 4.63859 24.9244 7.10525 26.2495 7.1405C29.8795 7.23722 21.1857 0.399133 15.8142 6.06121C13.4834 8.51816 13.2408 8.51444 9.73033 8.62685C7.22907 8.70707 3.21185 8.37794 0.981014 8.66066C-0.74779 8.87981 -0.0490826 10.1393 1.96486 10.2352C4.79186 10.3699 12.1235 10.4524 14.2569 9.5612C16.5784 8.5911 16.1581 6.70623 19.2912 5.77657Z" fill="#0C6225"/>
<path fill-rule="evenodd" clip-rule="evenodd" d="M138.508 17.1878C138.686 15.7412 134.325 16.036 133.381 16.0338C128.952 16.0208 125.202 15.6669 120.977 15.6537C119.269 15.6488 116.64 15.0957 115.318 16.3144C115.755 17.803 117.3 17.1565 120.856 17.3582L133.18 17.7783C134.129 17.82 138.36 18.4022 138.508 17.1878Z" fill="#0C6225"/>
<path fill-rule="evenodd" clip-rule="evenodd" d="M37.8101 18.7647C37.0329 18.2494 36.3595 17.6877 35.4146 18.4845C34.7251 19.0668 34.8626 20.1488 35.1197 20.9098C37.3213 22.1454 38.032 20.9534 37.8101 18.7647Z" fill="#0C6225"/>
</svg>
