<svg width="151" height="89" viewBox="0 0 151 89" fill="none" xmlns="http://www.w3.org/2000/svg">
<path fill-rule="evenodd" clip-rule="evenodd" d="M111.883 77.9698C111.934 77.1139 113.734 73.8523 114.137 73.4389C115.905 73.4405 119.086 73.2903 120.678 73.8423C120.832 75.2425 120.854 85.2554 120.593 86.2685C119.367 86.1076 118.187 83.6539 117.659 82.6843C117.203 81.8484 116.981 81.4281 116.668 80.3873C115.776 77.4206 116.151 78.0822 111.883 77.9698ZM36.5935 66.8118C36.9714 66.0901 38.5939 65.5399 39.2316 65.3657C39.8344 66.0484 42.2713 68.0752 42.4335 68.3719C40.9239 68.3466 37.5289 67.8465 36.5935 66.8118ZM101.884 79.4259C94.9857 78.5049 87.9922 78.5948 80.5481 76.5449C75.5582 75.1705 74.0021 73.873 70.3707 70.4575C67.9605 68.1904 64.2982 61.8172 65.1781 60.0494C65.3453 59.7128 66.9014 58.596 67.3444 58.2142C68.4855 57.2306 68.8853 57.6819 70.1483 58.1032C72.8446 59.0018 77.9904 59.8755 80.8292 59.7403C84.1733 59.5813 82.1748 61.2309 88.1311 64.3416C92.1584 66.4449 95.9265 67.2674 100.311 68.2417C102.247 68.6722 112.121 70.7623 112.968 71.6737C112.961 71.6967 110.054 77.0442 109.06 80.3998C106.69 80.1848 104.253 79.7418 101.884 79.4259ZM32.9388 60.5687C33.1257 58.6332 37.0149 59.5491 37.323 58.2449C37.6316 56.9395 36.2589 58.0376 35.3043 56.8882C34.8895 56.3885 34.2875 55.5096 34.1743 54.8944C35.8665 54.578 36.2209 56.1721 37.5999 57.1032C39.576 58.4373 40.4291 57.7212 42.5362 57.9316C42.4175 59.3677 42.9401 62.1395 42.4303 63.1816C36.6954 63.8183 36.5381 65.8467 34.3742 65.1585C34.0848 63.4355 36.9076 63.6928 37.7765 62.7923C37.4491 60.2506 34.2755 63.1858 33.2019 63.227C32.6159 60.9503 36.8687 61.9079 37.0259 60.0352C36.1759 58.7582 34.3105 60.495 32.9388 60.5687ZM2.28836 41.8157C2.75319 41.3714 2.32734 41.5448 3.24795 41.5011C5.01622 41.4181 9.26536 42.1155 10.6151 41.9954C10.9736 38.9626 9.26488 40.1207 9.52301 37.8133C10.5014 37.7197 10.4556 38.2099 10.9194 39.0039C11.3345 39.7131 11.6883 39.8397 12.2436 40.3953C13.3402 41.4928 14.0576 42.4186 15.8421 42.21L15.8713 47.2238C14.7545 47.8244 7.89173 47.9706 5.50644 47.5135C2.92431 47.0187 3.09155 47.1462 3.0013 46.2545C4.5289 45.3747 8.08436 47.6832 8.61065 45.2945C7.57861 44.7952 4.43622 44.698 2.85314 44.5105C1.97427 44.4065 1.60017 44.604 1.34528 43.9475C2.4328 42.5699 7.73905 44.7334 8.83482 43.6734C9.16266 41.6914 3.49233 42.3242 2.28836 41.8157ZM44.6104 27.7687C44.7668 23.6526 45.5887 24.5215 48.1836 22.1988C49.6387 20.8968 52.2856 19.5696 54.1855 19.095C56.4673 18.5246 59.4738 19.2303 61.6561 20.0605C63.2837 20.6799 65.5177 22.8278 66.6122 24.2051C70.9012 29.6026 72.1494 26.6262 76.6797 28.113C83.686 30.4136 81.8777 35.3586 80.2149 33.5087C79.1709 32.3469 79.1512 32.0453 77.5873 31.4423C76.627 31.072 74.7858 30.4865 74.2208 31.5781C75.5762 33.1081 78.7431 32.3607 79.9636 35.8565C80.8494 38.3946 79.4248 42.0343 76.7769 42.127C75.8204 40.9382 75.991 39.6233 74.2502 37.8936C73.1567 36.8078 71.1793 35.5366 69.5817 36.414C69.583 37.5698 70.549 37.0677 72.4425 38.3538C76.0065 40.7754 75.1713 46.2468 71.0786 46.8285C68.5666 47.1857 67.3842 44.4175 66.1734 42.1078C64.9965 39.863 63.4469 38.1287 60.615 38.1122C60.5993 39.6054 60.3962 38.9571 61.4222 39.6866C65.0849 42.2902 61.2683 46.7598 59.0048 48.9077C58.5881 49.3029 58.8191 49.1071 58.5165 49.3195C58.2588 48.8761 56.8831 44.7526 55.5787 43.7449C56.8294 42.5436 59.053 40.7663 59.102 38.8892C57.8729 38.8747 57.7858 39.5284 56.9641 40.4673C53.2207 44.7494 50.7492 43.5909 47.3249 41.1587C45.8793 40.1322 44.5948 35.0643 44.6369 32.705C44.6671 30.9945 45.1664 28.2927 46.629 27.2374C51.5034 23.7191 51.4617 26.1118 53.2317 27.9021L56.9321 31.563C58.1424 32.6266 61.0024 30.7909 59.2973 34.676C58.8018 35.8052 58.5917 35.4934 57.7303 35.9669C57.8115 36.7441 57.8137 36.7601 58.3817 37.2896C60.9029 36.9747 61.1738 33.6239 61.0583 31.6038C60.5833 31.3067 60.4517 30.9688 59.9938 30.8216C59.4395 30.6442 58.981 30.8087 58.3882 30.6649C56.1297 30.1179 53.169 24.2421 51.0027 24.2711C50.0615 24.284 49.1244 24.1335 48.2735 24.587C44.311 26.6986 45.6694 27.3496 44.6104 27.7687ZM17.6855 11.098C18.8675 11.3703 19.2429 12.08 20.8502 11.1492C21.5266 10.7578 22.9578 9.24899 23.1403 9.17054C23.608 8.96935 26.1677 9.24026 27.272 9.03986C28.4022 8.83446 29.3878 8.12122 30.0935 7.98357C31.1923 10.7087 31.2158 11.4358 33.3734 13.4402C34.3385 14.3371 33.7107 14.6804 35.0312 14.4865C35.1746 12.9507 34.7648 11.2355 36.2062 10.2613C36.7545 10.0857 40.0161 11.4096 36.5945 16.1975C35.5487 16.1746 35.6184 15.7987 34.6823 16.4309C34.7748 16.9805 35.2164 17.423 35.8463 17.5073C37.0956 17.6752 35.7037 16.8503 38.4068 18.8896C38.879 19.2458 39.2494 19.3335 39.6887 19.7181C39.9753 21.7454 39.542 24.6379 38.0409 26.0077C36.5698 27.3511 33.5691 27.1264 31.8498 26.0251C32.7801 25.0065 34.1426 24.023 34.8982 22.8535C37.031 19.5499 35.3328 18.4416 34.7235 18.8052C33.8649 19.9294 35.1774 20.6314 33.4091 22.5312C32.6219 23.3775 31.8173 24.3471 30.8233 24.9661C28.994 26.1054 24.7538 27.0022 22.9753 25.5938C21.7544 24.6268 19.8032 20.7904 19.2544 19.255C18.6212 17.4825 17.4237 12.8347 17.6855 11.098ZM32.2341 5.28596C31.1341 4.89359 30.8422 5.86545 29.8142 6.51369C25.1416 9.46037 24.0526 6.00391 21.6389 8.62955C21.0846 9.23251 20.3886 10.1094 19.5103 10.1929C18.6424 10.2755 17.7116 9.5461 18.0362 8.53508C18.6569 6.60217 19.7904 5.63403 21.0699 4.18939C22.576 2.48792 24.1458 2.22801 26.2616 1.81445C28.4173 1.39313 30.3649 2.03359 32.3151 2.88594C34.1458 3.68589 35.0384 5.02654 35.6057 6.93504C36.009 8.29492 36.042 8.70798 35.0279 9.62212C33.8726 10.6629 34.293 11.0562 33.6617 11.8407C33.0525 11.5376 32.0347 9.61305 31.7046 8.92017C30.6583 6.72459 33.0295 7.20561 32.2341 5.28596ZM139.567 33.6132C139.503 28.9057 142.5 26.9779 135.302 19.8712C131.75 16.3652 128.424 13.8828 123.738 12.0356C113.333 7.93505 101.358 9.50243 91.335 13.9633C86.598 16.0719 83.4076 18.3165 79.4635 21.5983C78.4919 22.406 77.4906 23.0534 76.7204 24.0904C76.3499 24.5892 75.6669 25.966 76.9089 25.751C78.2288 25.5223 80.8057 22.4918 82.2531 21.3988C90.639 15.0683 100.392 11.2117 111.018 11.3781C121.358 11.54 130.907 15.8037 136.935 24.4045C140.273 29.167 137.554 34.3468 135.215 38.8737C130.928 47.1706 124.068 53.8536 116.46 59.1875C113.808 61.0465 112.839 59.2525 110.663 57.8431C103.04 52.9077 94.827 56.2221 86.6495 57.5328C83.7075 58.0046 80.6335 58.1412 77.6626 57.9061C75.909 57.7671 70.9144 57.1249 69.6957 56.1101C70.3129 55.1785 74.2832 52.1023 72.7501 50.8011C71.9469 50.2573 70.7053 52.6218 70.2222 53.1466C67.717 55.8662 64.9255 58.5163 61.6166 60.2313C58.8251 61.6778 56.9536 62.3862 53.8704 63.1161C51.7725 63.6126 46.0082 64.1691 44.1693 63.6406L44.0913 58.4149C48.6961 57.503 52.9563 55.4803 56.74 52.8547C58.4987 51.6342 60.1945 50.2391 61.6071 48.5973C64.2473 45.5288 63.7605 45.4234 64.2965 42.2237C66.5736 43.9512 66.2381 49.5633 71.929 48.2719C73.6075 47.8908 75.1804 46.8318 75.8998 45.2349C77.2642 42.204 77.4517 44.4918 79.8958 42.4672C81.2693 41.3297 81.759 39.0695 81.8483 37.3745C81.9927 34.6357 83.5736 34.3276 83.2174 32.038C82.498 27.4115 76.6612 27.2181 75.2913 26.1893C74.6004 25.6703 70.9121 17.5325 59.9296 13.8121C55.6309 12.356 52.7577 12.0411 48.406 13.4802C46.578 14.0849 39.3214 16.9105 38.0099 16.7715C38.5315 14.2701 41.1283 12.201 38.0726 9.52266C36.6225 8.25141 37.4179 5.02428 34.6694 2.65904C29.563 -1.73405 21.262 -0.0290451 17.6176 6.16628C17.1597 6.94521 16.3491 9.14677 16.3551 10.0104C16.3913 15.2704 18.7968 26.6781 24.2687 27.5857C26.1067 27.8906 27.5898 27.2956 28.7356 27.4391C28.9125 27.9751 26.2749 37.6454 26.1067 40.4343C24.1206 40.4181 22.2949 40.4407 20.3066 40.3018C16.0782 40.0066 17.6076 39.5518 15.8256 41.3651C13.8087 40.4178 12.9706 38.6733 11.6224 37.3368C9.02195 34.7594 8.24658 36.1618 8.12884 39.2533C6.3706 39.378 2.8808 38.8637 1.47046 39.2813C1.08083 40.0927 1.29724 41.2434 1.24257 42.1448C0.52559 42.9664 0.0470105 42.9729 0.114778 44.3286C0.190956 45.8607 0.810735 45.5316 1.67134 46.1064C1.84925 48.0055 1.52691 48.1192 3.71246 48.7518C7.95821 49.981 14.5876 48.584 16.0813 48.9879C16.7585 49.3799 16.5545 49.7283 17.3757 49.9947C18.7144 50.4302 22.1986 50.1331 23.7662 50.2546C28.8158 50.6452 34.228 50.2627 35.6629 44.5472C36.2594 42.172 35.8738 37.9109 36.3401 36.315C37.235 36.1266 39.5805 39.4377 41.0821 40.4425C44.4032 42.6653 45.8643 40.9551 47.6275 42.8087C50.6171 45.9519 52.4163 44.1836 54.1983 44.511C55.1866 44.6925 57.0921 49.2285 57.155 50.3441C54.3005 53.0559 49.2119 55.2827 45.4475 56.4647C43.084 57.2069 43.644 56.6286 42.0067 56.3789C40.1775 56.0996 40.0233 56.9785 38.2573 55.666C36.4593 54.3291 35.2626 51.9386 32.7892 54.0802C32.5202 55.3556 33.5805 56.7543 34.3742 57.6859C33.2854 58.4044 32.8603 57.951 31.8948 59.2098C31.3387 59.9337 31.434 61.8062 31.5629 62.7387C31.7238 63.905 32.5435 64.3951 33.035 65.3309C33.8969 66.9722 34.1968 66.1364 35.3883 66.8475C35.6437 70.1631 35.2091 73.5067 37.3717 76.3195C38.7356 78.0937 43.1864 79.9399 45.2939 79.5681C46.3722 77.6062 46.9123 72.3991 45.9733 70.2576C44.7731 67.5187 41.6959 66.5421 40.8467 64.9101C42.8594 64.7999 42.3171 65.1768 43.9552 65.3414C48.9598 65.843 54.344 65.1095 58.996 63.2623C59.8007 62.9427 63.1608 61.1502 63.4199 61.1589C63.776 61.9919 63.8082 63.0688 64.2845 64.1224C65.3871 66.5614 66.8294 68.9973 68.5729 71.0962C73.9086 77.5182 82.2661 78.8287 89.9921 79.889C96.7654 80.5364 103.184 81.2314 109.886 82.1213C111.108 81.0897 110.589 80.6124 111.235 79.4085C112.566 79.5681 113.329 79.6368 114.721 79.6241C115.185 80.3975 115.373 81.5863 115.724 82.4638C116.021 83.2043 116.542 84.1124 117.095 84.9753C118.109 86.5601 119.465 88.5046 121.638 88.074C122.747 86.5469 122.367 82.6458 122.365 80.5804C122.364 79.294 122.618 73.2811 122.073 72.5738C121.257 71.6825 116.605 72.0291 115.2 71.7357C114.722 71.024 115.014 70.6944 114.099 70.1338C112.545 69.1815 109.741 68.747 107.974 68.3022C99.7831 66.2405 90.9929 65.6862 84.717 59.6473C85.9645 59.1985 94.1178 57.7616 96.2574 57.305C100.646 56.367 103.775 56.6004 107.88 58.3452C116.968 62.2073 110.882 64.6125 120.771 57.961C121.807 57.2641 123.627 55.3674 124.47 54.9036C125.752 55.1975 130.193 58.6855 130.944 59.8902C132.606 62.5571 132.374 68.0555 133.219 69.0449C135.287 69.6629 136.806 66.2162 137.434 64.7119C137.88 63.6461 138.347 62.5686 138.64 61.4591C138.998 60.1081 139.369 59.1475 138.314 58.137C135.762 55.692 129.385 51.2642 128.798 50.6412L133.366 44.9498C135.139 42.4469 135.914 40.4862 137.196 38.5583C137.829 38.656 141.312 39.99 142.023 40.3118C143.346 40.9093 144.59 42.26 145.23 43.4597C146.358 45.5738 146.666 50.6957 149.053 49.2227C150.324 48.4386 150.843 42.751 150.941 41.4048C151.144 38.621 150.92 38.5628 148.668 37.3043C145.964 35.7928 142.168 35.1518 139.567 33.6132Z" fill="#0C6225"/>
<path fill-rule="evenodd" clip-rule="evenodd" d="M26.2383 19.2747C25.3127 18.8859 24.0565 20.0944 23.1231 20.5964C22.7278 18.3151 23.1189 16.4197 21.7917 15.9897C21.2511 17.0557 21.4478 20.6574 22.3469 21.5748C23.3527 22.6003 26.3332 20.6042 26.2383 19.2747Z" fill="#0C6225"/>
<path fill-rule="evenodd" clip-rule="evenodd" d="M23.0161 23.7983C23.1348 24.0807 23.0973 24.2234 24.0514 24.537C27.4995 25.6712 32.8612 22.5636 31.5133 19.9724C30.8843 20.2645 31.0362 21.9461 28.101 23.0319C27.2496 23.3472 26.5074 23.7741 25.5648 23.7319C24.4415 23.6809 23.8212 22.947 23.0161 23.7983Z" fill="#0C6225"/>
<path fill-rule="evenodd" clip-rule="evenodd" d="M47.4711 38.1182C48.4531 38.1994 49.8528 38.4048 50.4617 37.6511C50.1124 36.631 49.5502 36.9982 48.5646 37.0014C48.6113 35.6723 49.8818 33.8563 49.2298 32.664C48.5237 32.8055 48.631 32.8142 48.222 33.6771C47.2344 35.7622 46.7449 36.7145 47.4711 38.1182Z" fill="#0C6225"/>
<path fill-rule="evenodd" clip-rule="evenodd" d="M47.5247 39.178C47.0579 41.3919 51.6994 40.3035 51.7352 40.2903C53.1725 39.7515 54.4575 38.6503 54.5405 36.9173C53.2848 37.2923 53.7695 38.2272 51.8536 39.0185C50.3713 39.6301 48.7762 39.0121 47.5247 39.178Z" fill="#0C6225"/>
<path fill-rule="evenodd" clip-rule="evenodd" d="M30.1491 16.4607C28.7425 16.1961 29.2455 16.7734 28.2666 16.7779C27.3625 16.7828 27.6072 16.2319 26.1631 16.452C26.0728 18.4527 30.1541 18.5248 30.1491 16.4607Z" fill="#0C6225"/>
<path fill-rule="evenodd" clip-rule="evenodd" d="M53.2726 33.6758C52.5125 33.4039 50.6163 33.3952 51.4479 34.6926C51.7923 35.2299 53.6027 35.6705 53.2726 33.6758Z" fill="#0C6225"/>
<path fill-rule="evenodd" clip-rule="evenodd" d="M45.9622 35.3327C46.8081 35.6641 46.9865 35.6353 47.5183 34.8594C47.3336 34.1219 47.2116 34.0109 46.4652 33.8275C45.762 34.4106 45.7885 34.2859 45.9622 35.3327Z" fill="#0C6225"/>
<path fill-rule="evenodd" clip-rule="evenodd" d="M26.1665 13.111C26.9574 13.1403 28.1737 12.9836 28.4226 12.1862C27.4424 11.5902 26.4819 12.1661 26.1665 13.111Z" fill="#0C6225"/>
<path fill-rule="evenodd" clip-rule="evenodd" d="M18.4468 15.2139C19.14 15.6335 19.6325 15.4656 20.2967 15.0475C20.0873 13.8125 18.6407 14.2566 18.4468 15.2139Z" fill="#0C6225"/>
<path fill-rule="evenodd" clip-rule="evenodd" d="M50.7944 29.9827C51.2704 30.7498 51.9174 30.7113 52.4642 30.1551C52.1034 29.3281 51.264 28.976 50.7944 29.9827Z" fill="#0C6225"/>
<path fill-rule="evenodd" clip-rule="evenodd" d="M46.187 29.7699C46.3792 30.5393 46.5891 30.8304 47.3965 30.7039C47.6276 29.3468 46.6717 29.1299 46.187 29.7699Z" fill="#0C6225"/>
</svg>
