<svg width="354" height="449" viewBox="0 0 354 449" fill="none" xmlns="http://www.w3.org/2000/svg">
<path fill-rule="evenodd" clip-rule="evenodd" d="M175.047 107.366C175.145 109.085 169.219 120.884 163.217 121.772C155.576 122.903 158.875 106.173 159.203 101.596C161.703 101.477 163.199 106.706 175.047 107.366ZM242.921 87.7607C242.486 91.3583 238.943 99.9599 237.414 103.41C235.657 107.372 228.506 119.396 223.569 113.112C218.499 106.656 222.008 92.1294 224.801 84.7671L225.605 83.3506C225.627 83.2424 225.707 83.2305 225.756 83.1689C228.048 84.7946 230.505 85.8853 233.286 86.6969C237.206 87.8407 239.156 87.3753 242.921 87.7607ZM178.977 97.7199C172.777 98.5509 164.679 93.644 163.905 87.2833C162.431 75.1686 182.724 51.7813 182.437 75.9307C182.39 79.8735 180.464 94.5135 178.977 97.7199ZM244.934 76.8789C235.659 77.1075 228.03 71.4269 236.141 63.2981C238.993 60.4396 243.462 58.399 245.119 63.4617C246.219 66.8206 245.235 73.3632 244.934 76.8789ZM198.404 91.4473C199.692 87.9874 199.792 79.1795 199.075 75.4854C198.216 71.0507 196.764 66.704 194.223 62.9247C191.92 59.5014 188.752 56.4887 184.914 54.851C163.45 45.6904 153.11 66.558 148.165 83.6171C147.078 87.3698 147.663 86.5142 144.113 88.3631C142.019 89.4534 140.165 90.7313 137.693 90.8139C138.415 83.6783 140.834 74.2829 142.471 67.1483C143.401 63.0954 144.275 59.6575 139.655 57.503C137.251 56.3821 130.222 54.1875 128.458 56.946C127.195 58.9224 123.779 76.3089 123.014 79.9276C119.861 94.8448 115.661 112.408 113.051 127.08C112.347 131.036 111.298 135.198 114.806 138.244C118.139 141.139 129.047 145.015 129.53 138.752C130.457 126.754 132.776 118.889 134.461 108.077C134.995 104.655 135.163 105.668 138.069 104.441C139.633 103.781 141.634 102.773 143.404 102.647C141.58 110.761 142.003 123.753 147.424 130.564C153.455 138.141 163.659 139.17 172.143 135.364C183.856 130.108 189.376 116.93 193.933 106.595C195.671 102.652 194.097 103.702 197.92 102.101C199.79 101.317 202.087 100.25 203.949 99.6063C203.64 110.244 204.526 121.76 214.407 127.983C223.402 133.647 235.836 130.173 243.154 123.342C250.237 116.732 253.984 107.686 257.566 98.8987C258.39 96.8808 261.838 83.7794 261.909 83.6978C261.973 83.6252 273.336 76.6081 274.094 76.2383C273.913 77.6104 272.951 80.1892 272.532 81.7294C272.022 83.6097 271.619 85.4381 271.199 87.3303C269.216 96.2759 267.425 115.781 276.394 120.9C284.223 125.367 290.366 120.198 295.7 114.961C297.991 112.713 300.137 109.926 301.913 107.271L307.164 98.4939C307.71 100.133 306.064 103.645 308.092 110.961C310.229 118.671 317.547 122.961 325.157 122.91C334.533 122.848 348.271 109.545 347.806 102.141C347.629 99.32 345.283 93.9856 342.54 92.9043C339.886 91.8586 339.562 94.1278 338.638 95.7389C334.969 102.141 322.165 115.651 325.583 94.0167C326.858 85.9469 328.548 77.9456 330.693 70.05C331.726 66.2422 332.649 62.3914 333.733 58.6011C334.701 55.2182 336.416 50.7025 337.047 47.4116C337.941 42.7463 334.645 40.4195 330.493 39.6355C326.364 38.8579 321.722 37.6111 319.869 42.2664C317.209 48.9492 314.956 56.6917 312.468 63.5903C308.858 73.6026 300.22 94.6207 292.27 101.414C290.743 102.717 288.477 102.921 287.906 100.551C286.177 93.3577 295.323 67.1218 297.557 60.3029C300.407 51.6061 304.677 44.3234 292.703 42.0352C282.222 40.0312 284.004 42.7693 279.782 57.0855C278.875 60.1588 265.29 68.8951 263.2 69.6426C263.707 65.0479 264.05 64.2843 263.258 59.5464C261.939 51.6563 255.449 43.9747 247.184 43.4332C241.925 43.0899 235.588 46.2157 231.709 49.3916C223.402 56.194 225.932 55.3724 221.306 60.3975C219.732 53.9174 227.027 41.6025 231.464 36.8439C236.388 31.5627 244.667 25.4572 251.017 21.9992C255.065 19.7942 257.839 17.9994 262.229 16.1662C264.953 15.0288 266.164 14.5735 265.868 11.2441C265.685 9.18311 264.444 6.60075 263.38 4.82997C260.258 -0.361252 258.067 -0.834686 252.375 0.905655C247.77 2.31308 244.622 4.08742 240.482 6.37764C220.958 17.1779 199.666 44.2658 211.135 65.2581C212.668 68.0616 214.115 67.5962 212.436 70.857C210.702 74.225 208.837 79.6374 207.838 83.3205C206.936 86.6499 206.818 86.1865 204.14 88.1104C202.208 89.4984 200.615 90.5156 198.404 91.4473Z" fill="#40972E"/>
<path fill-rule="evenodd" clip-rule="evenodd" d="M232.376 246.587C232.988 244.037 244.666 235.028 246.834 233.881C245.82 238.214 238.908 247.013 232.376 246.587ZM224.374 237.805C223.7 235.567 224.157 226.405 224.636 223.776C225.297 220.15 226.202 216.335 228.283 213.259C231.681 208.237 241.63 202.3 246.282 208.758C247.634 210.638 250.401 217.637 248.629 219.387C247.446 220.554 242.085 223.858 240.234 225.204C237.488 227.202 234.497 229.256 231.93 231.429C230.903 232.297 224.865 237.628 224.374 237.805ZM230.066 192.333C229.853 190.9 233.25 181.521 234.059 179.565C235.662 175.686 237.385 171.889 239.448 168.236C249.96 149.638 265.656 149.377 255.66 168.065C253.577 171.958 251.067 174.283 248.434 177.53C246.339 180.114 232.566 192.494 230.066 192.333ZM252.082 194.604C252.654 192.654 265.602 185.533 271.645 169.801C275.947 158.598 275.575 143.51 261.127 140.918C249.399 138.814 237.463 144.683 229.998 153.436C216.503 169.261 210.725 199.824 207.819 219.971C206.629 228.214 208.588 230.727 203.695 237.936C202.217 240.113 194.993 250.935 192.944 244.171C191.071 237.986 197.759 214.653 199.654 207.341C205.104 186.325 210.331 180.922 194.113 179.72C187.423 179.224 187.421 182.956 184.585 192.633C182.955 198.194 181.231 203.955 179.259 209.396C176.012 218.356 170.105 231.093 164.286 238.598C163.239 239.95 160.078 243.679 158.177 242.254C156.482 240.982 158.01 235.174 158.403 233.307C160.984 221.037 163.994 209.955 167.173 197.9C168.974 191.067 172.619 186.355 163.857 183.851C161.66 183.224 155.674 182.34 153.707 183.181C151.679 184.051 150.829 188.736 150.258 190.816C146.842 203.256 138.314 234.745 137.72 244.569C137.324 251.11 137.65 257.013 141.86 262.364C145.885 267.479 152.788 267.209 157.983 264.19C162.234 261.719 165.875 256.64 168.446 252.521C169.205 251.306 176.323 238.277 176.519 238.329C176.841 238.965 174.738 247.821 178 254.926C179.858 258.971 183.571 262.991 188.456 263.173C201.831 263.669 208.343 248.221 209.628 247.248C211.416 248.456 213.837 259.265 228.424 261.701C248.535 265.061 262.893 243.08 265.676 225.116C266.513 219.703 264.531 222.566 273.214 216.211C274.436 215.317 276.597 212.821 277.76 212.696C275.491 218.528 274.422 231.961 275.67 238.059C277.088 244.99 282.243 252.713 290.313 251.581C300.104 250.206 309.359 234.151 313.311 225.037C313.857 223.777 314.893 221.182 315.472 220.224C315.798 221.097 315.427 229.978 315.627 232.499C316.486 243.339 325.224 251.091 335.159 249.756C341.439 248.913 346.489 244.56 350.224 239.876C356.74 231.705 352.01 222.774 349.142 222.875C347.126 223.534 347.104 224.576 345.921 226.117C344.2 228.356 338.861 233.718 335.845 234.01C324.518 235.105 341.163 180.048 342.399 175.837C343.265 172.887 345.161 169.065 342.885 166.467C340.811 164.099 337.013 163.354 334.01 163.301C325.281 163.151 325.602 164.947 322.326 176.03C317.679 191.748 309.412 212.672 299.898 226.484C292.619 237.052 291.447 229.483 293.402 220.913C296.193 208.675 300.46 195.184 304.253 183.154C306.736 175.282 308.722 170.45 298.384 168.644C287.057 166.666 288.486 170.756 285.768 179.868C284.804 183.099 283.927 186.251 283.107 189.515C281.919 194.251 281.826 193.678 278.601 196.977C276.149 199.485 268.282 206.545 265.496 208.163C265.181 207.602 265.051 206.513 264.611 205.602C262.212 200.629 257.32 196.27 252.082 194.604Z" fill="#40972E"/>
<path fill-rule="evenodd" clip-rule="evenodd" d="M155.129 320.25C161.675 317.192 160.552 329.653 159.903 332.706C158.906 337.391 156.944 342.25 154.774 346.525C153.262 349.501 137.765 381.284 135.434 366.628C134.147 358.534 145.015 324.973 155.129 320.25ZM224.796 315.421C235.022 311.264 224.35 366.947 208.152 363.96C205.584 363.487 203.467 361.683 204.111 358.883C205.702 351.969 207.577 343.918 210.082 337.402C212.198 331.895 219.295 317.659 224.796 315.421ZM182.264 356.014C180.856 358.327 172.273 371.241 170.588 362.795C169.055 355.104 174.901 330.054 177.356 321.703C178.498 317.813 178.173 315.535 174.041 314.134C169.635 312.639 168.305 315.652 165.125 311.702C160.712 306.217 153.705 305.471 147.531 308.308C141.627 311.02 138.417 314.634 134.558 319.669C127.083 329.424 122.394 341.544 119.709 353.452C117.478 363.339 113.927 387.113 128.027 389.889C139.236 392.095 150.787 376.435 153.641 367.128C154.392 367.945 154.356 369.044 154.491 370.322C156.339 387.775 172.547 392.049 181.779 373.034C181.862 375.252 177.064 397.292 176.083 400.36C166.383 402.217 156.487 403.544 146.811 405.729C127.659 410.055 98.7901 416.997 81.6338 426.76C77.0375 429.376 75.3981 431.694 74.8233 437.07C74.3725 441.286 75.5934 448.579 81.1548 448.243C83.2044 448.119 90.5026 443.958 92.9159 442.792C101.038 438.871 109.043 435.903 117.604 433.089C126.483 430.171 135.408 427.869 144.446 425.537C153.669 423.157 163.363 421.552 172.461 419.11C172.481 423.325 171.604 428.021 173.978 431.628C175.797 434.393 180.336 435.911 183.729 436.078C192.367 436.505 190.718 436.263 192.714 416.533C197.577 414.421 214.316 412.799 220.418 412.176C236.01 410.586 250.823 409.811 266.441 410.117C271.716 410.22 276.726 410.656 281.902 410.829C296.668 411.321 302.814 417.952 304.365 406.403C305.092 400.992 303.926 397.794 298.895 395.693C280.854 388.157 231.287 393.191 210.362 395.774C205.8 396.337 200.918 397.222 196.375 397.548L199.768 374.697C200.702 374.966 201.637 376.705 202.457 377.596C205.71 381.13 210.623 382.148 215.369 381.238C230.889 378.265 240.542 353.227 243.514 340.208C246.013 329.261 248.756 311.105 240.264 302.225C235.54 297.283 228.521 298.468 223.437 302.148C216.455 307.202 216.704 308.938 212.294 313.855C212.191 310.632 213.903 305.226 210.947 303.419C208.824 302.122 203.493 301.233 201.088 301.862C197.487 302.801 197.284 306.668 196.554 309.712L189.678 339.133C187.907 346.439 186.105 349.709 182.264 356.014Z" fill="#40972E"/>
<path fill-rule="evenodd" clip-rule="evenodd" d="M89.0473 231.54C96.0783 242.121 97.7975 253.541 106.289 263.855C118.113 278.216 132.493 273.208 133.366 258.701C133.801 251.463 132.564 252.838 127.295 252.536C120.494 252.146 113.701 236.519 111.77 231.25C107.567 219.775 106.115 223.469 111.307 214.001C114.017 209.057 117.37 203.217 120.461 198.534C125.219 191.33 137.104 177.536 143.962 172.512C146.555 170.612 149.699 169.66 150.292 166.043C150.813 162.87 148.344 160.01 146.096 158.077C139.77 152.635 135.293 153.872 129.54 159.022C116.4 170.781 107.41 187.786 99.1965 203.193C97.0741 207.174 93.1527 216.189 90.3673 218.97C90.8502 214.509 95.2592 194.816 96.5922 189.504C97.3237 186.585 100.43 177.348 99.4939 175.027C98.0674 171.491 92.8605 167.858 89.0674 167.719C82.1743 167.469 81.7796 171.961 80.7158 177.456C79.7847 182.261 78.3631 187.212 77.6726 192.08C77.3248 194.537 72.0141 221.565 71.8224 221.623L71.5412 221.682C68.9628 217.757 67.5949 200.69 65.9782 194.669C60.899 175.742 46.5372 164.081 29.4169 176.003C22.8516 180.576 17.7675 185.625 13.9646 192.766C9.58009 200.999 10.2605 210.259 19.2595 214.839C25.9614 218.252 25.3409 212.471 26.6383 207.934C30.5727 194.165 43.4364 178.031 47.4268 192.978C49.685 201.436 50.0422 212.041 51.6734 220.891C52.8843 227.457 52.3473 227.377 48.7918 232.94C42.7249 242.433 29.8301 264.967 19.3401 267.85C15.749 268.837 9.79318 267.183 7.45502 264.201C1.76734 256.951 -2.21595 275.432 3.6913 283.122C9.57199 290.78 18.3002 292.137 26.853 288.052C40.6905 281.444 49.7841 267.085 57.3144 254.091C59.0172 251.151 67.8226 234.618 69.4887 234.245C69.4356 237.995 65.794 255.272 64.8529 260.74C64.3114 263.883 62.996 272.047 64.1359 274.742C65.6939 278.427 71.256 279.536 74.8425 279.591C82.8719 279.716 83.0429 277.264 83.2576 272.33C83.6028 264.401 86.5631 247.403 87.7134 238.105C87.9449 236.234 87.7824 232.743 89.0473 231.54Z" fill="#40972E"/>
<path fill-rule="evenodd" clip-rule="evenodd" d="M80.8425 304.603C89.824 304.574 95.5072 307.973 98.2272 317.349C101.258 327.8 99.0552 341.666 95.7368 351.876C92.9287 360.516 87.2271 370.559 80.8306 377.032C77.208 380.697 74.2274 383.424 69.8292 386.221C66.8431 388.12 59.5598 392.1 56.2404 392.522C56.2663 380.375 56.8363 380.19 59.8416 368.646L71.5339 326.039C72.3354 323.163 75.7689 312.061 74.9343 309.46C74.5726 308.332 73.159 306.32 72.0647 306.027C73.5978 304.767 78.7191 304.61 80.8425 304.603ZM44.5801 395.26C42.5415 396.49 33.6691 396.358 30.7169 395.55C27.3146 394.62 22.365 389.928 19.9718 394.438C16.3577 401.248 21.034 410.324 30.9122 413.449C45.8515 418.176 67.3305 409.619 79.9895 401.45C92.8873 393.127 102.699 380.87 108.896 366.887C115.733 351.462 120.36 330.69 114.54 314.346C97.5047 266.501 30.9996 295.137 17.473 325.072C13.8903 333.004 15.5902 343.678 25.5743 345.361C31.3329 346.331 30.6985 340.495 32.3838 336.452C36.5002 326.575 46.8862 317.565 56.1329 312.975C53.8903 318.867 52.7584 327.657 51.1237 334.092C47.7648 347.316 43.0032 363.023 40.3574 375.746C39.3798 380.448 37.508 388.44 41.1269 392.448C42.2027 393.641 44.0801 394.609 44.5801 395.26Z" fill="#40972E"/>
<path fill-rule="evenodd" clip-rule="evenodd" d="M105.046 18.253C99.5027 18.936 90.5147 21.7479 87.6471 26.8776C85.0728 31.4821 82.3493 40.2479 80.3755 45.4971C71.2443 69.7711 61.3677 94.4248 48.2462 116.891C26.5551 154.028 18.4383 141.921 23.2568 129.07C24.2704 126.369 26.8333 122.837 25.0019 119.993C21.2878 114.224 10.8622 118.794 6.91847 122.565C-10.8263 139.529 12.0601 185.022 44.9368 151.755C53.7652 142.823 59.923 131.478 65.7208 120.446C77.0214 98.9401 80.6096 86.8303 88.4842 65.4695C89.1892 63.5556 95.4773 45.1713 92.2443 58.2838C87.4414 77.7669 75.0126 130.753 86.6655 147.115C94.2664 157.787 112.734 152.672 110.15 145.432C109.31 143.075 105.907 141.09 104.429 138.18C92.3875 114.479 111.84 56.6781 117.834 30.1025C120.14 19.8771 114.339 17.1066 105.046 18.253Z" fill="#40972E"/>
<path fill-rule="evenodd" clip-rule="evenodd" d="M283.255 347.131C284.878 349.377 281.606 361.009 290.55 369.046C297.482 375.276 308.174 369.507 302.542 359.877C292.775 343.178 309.074 301.547 306.502 296.04C305.141 293.125 298.324 292.117 295.432 292.128C290.771 292.148 290.232 297.087 289.081 300.911C287.931 304.725 286.881 308.575 285.72 312.392C283.97 318.146 272.149 352.257 265.718 351.869C261.336 351.603 267.533 331.226 268.245 328.322C269.244 324.256 270.256 320.212 271.199 316.131C273.799 304.88 277.804 298.155 267.581 295.442C261.692 293.879 259.757 294.375 258.314 300.131C256.313 308.112 254.239 315.941 252.074 323.877C248.84 335.73 241.765 363.42 253.389 372.118C260.459 377.408 268.419 371.469 272.692 365.609C274.783 362.739 276.695 359.592 278.389 356.47C279.09 355.18 282.613 347.283 283.255 347.131Z" fill="#40972E"/>
<path fill-rule="evenodd" clip-rule="evenodd" d="M353.196 276.673C354.139 270.127 343.523 263.824 338.531 265.097C335.947 265.756 335.039 271.881 334.364 274.231C331.387 284.608 320.956 319.435 320.709 326.844C320.346 337.722 331.331 340.903 334.538 337.824C335.479 336.921 345.797 301.475 347.015 297.25C347.997 293.85 349.074 290.474 350.11 287.097C351.007 284.175 352.791 279.489 353.196 276.673Z" fill="#40972E"/>
<path fill-rule="evenodd" clip-rule="evenodd" d="M332.869 358.742C334.842 343.427 313.955 341.073 313.14 355.89C312.19 373.204 331.148 372.102 332.869 358.742Z" fill="#40972E"/>
</svg>
