<svg width="1440" height="298" viewBox="0 0 1440 298" fill="none" xmlns="http://www.w3.org/2000/svg">
<path fill-rule="evenodd" clip-rule="evenodd" d="M1162.07 164.753L1166.76 164.464C1168.78 168.041 1170.91 182.465 1165.34 183.079C1158.26 183.859 1160.63 168.787 1162.07 164.753ZM1170.62 162.601C1172.29 160.531 1175.65 155.552 1177.54 154.329C1185.06 149.457 1187.82 149.492 1194.41 140.922C1196.44 138.279 1198.92 133.494 1200.53 131.601C1201 132.984 1201.24 153.548 1201.25 156.867C1201.28 171.408 1202.17 193.771 1202.96 208.506C1203.4 216.816 1204.23 225.65 1204.05 233.9C1202.87 232.67 1199.94 225.129 1198.68 222.845C1191.91 210.619 1195.76 190.797 1177.44 194.584C1176.01 193.014 1175.34 189.992 1174.36 187.965C1169.56 178.048 1174.56 182.529 1172.58 171.137C1172.22 169.066 1170.67 163.835 1170.62 162.601ZM1061.37 103.568C1061.88 97.4093 1065.42 92.1026 1068.11 86.7274C1070.32 82.328 1080.26 80.6154 1084.87 79.8338C1113.52 74.9749 1141.12 103.015 1158.46 122.832C1160.91 125.642 1167.95 132.867 1169.4 135.501C1167.88 137.749 1160.56 151.046 1167.76 149.483C1169.64 147.017 1168.14 139.765 1173 138.115L1178.54 145.077C1177.7 148.34 1175.87 151.4 1173.57 153.476C1171.41 155.417 1170.09 158.247 1167.62 160.386C1164.45 161.698 1155.04 154.767 1156.75 177.36C1157.01 180.919 1158.21 181.456 1158 184.784C1161.79 187.503 1164.86 188.033 1168.87 185.712C1170.21 187 1173.54 194.167 1172.88 195.972C1171.11 196.996 1161.27 199.518 1158.09 200.786C1150.07 203.988 1139.43 209.291 1132.14 213.961C1129.97 215.346 1121.16 221.586 1119.87 222.017C1118.47 214.817 1116.24 205.281 1112.63 198.872C1114.2 197.837 1125.31 194.753 1132.41 191.112C1133.55 190.531 1146.87 183.705 1141.18 181.992C1138.5 181.184 1118.53 198.716 1093.94 195.889C1070.85 193.234 1059.04 170.328 1056.82 149.749C1056.28 144.71 1057.37 135.455 1058.48 130.47C1059.05 127.878 1057.89 125.766 1059.47 124.42C1060.34 126.389 1059.97 130.325 1061.11 132.495C1062.24 134.65 1065.98 135.696 1067.84 134.612C1066.35 133.459 1063.18 133.563 1062.39 131.272C1061.72 129.355 1061.44 124.986 1061.71 122.986C1065.22 119.867 1068.51 118.097 1073.43 117.996C1071.77 120.011 1069.51 119.155 1068.2 123.333C1064.9 133.89 1082.16 137.465 1082.49 126.609C1082.57 123.722 1082.63 120.543 1080.46 118.482C1078.83 116.945 1076.04 114.929 1073.66 114.686C1065.32 113.834 1061.24 119.504 1058.39 120.856C1058.47 118.3 1059.27 110.384 1060.33 108.379C1066.64 105.667 1072.03 104.929 1077.75 109.185C1079.57 110.542 1081.7 113.01 1083 115.056C1087.74 122.541 1082.06 134.141 1078.48 141.198C1076.32 145.456 1072.14 155.145 1076.06 158.938C1079.71 159.474 1093.35 160.077 1094.88 155.978C1093.38 154.656 1081.23 154.84 1078.35 154.812C1079.76 139.949 1099.52 119.745 1079.21 104.606C1072.02 99.2484 1068.76 101.6 1061.37 103.568ZM1199.97 88.6077C1198.64 87.1892 1196.29 82.6111 1194.94 80.5816C1189.26 72.0426 1183.09 65.8398 1174.98 59.5783C1170.02 55.7499 1162.81 52.647 1157.14 50.2537C1151.2 47.748 1141.77 46.3863 1136.62 43.6577C1147.37 37.5349 1171.69 43.5612 1181.1 50.79C1188.14 56.1913 1189.58 58.1862 1194.45 65.9039C1197.54 70.7973 1200.43 82.6983 1199.97 88.6077ZM1147.23 35.7633C1152.88 29.3639 1169.38 27.8278 1177.16 29.4061C1187.31 31.4648 1194.06 34.8916 1202.04 41.4253C1220.19 56.2914 1221.03 70.6787 1225.27 92.1038C1227.33 102.519 1228.18 113.278 1230.35 123.849L1242.48 185.752C1242.94 188.02 1245.66 199.508 1245.4 200.848C1244.87 203.599 1236.71 208.178 1234.18 207.755C1232.42 206.195 1233.02 201.939 1232.62 199.608C1232.21 197.168 1231.74 193.103 1231.54 190.616C1231.07 184.912 1230.45 178.033 1229.54 172.423L1225.04 136.389C1223.8 121.276 1218.99 92.8627 1213.29 77.8353C1212.66 76.1894 1211.6 71.4747 1210.14 71.2466C1210.04 73.2641 1212.98 86.1754 1213.52 89.5127C1214.56 96.0016 1215.23 103.115 1216.44 109.436C1218.9 122.27 1219.81 136.221 1222.01 149.218C1224.21 162.219 1225.04 175.939 1227.05 189.079C1227.66 193.054 1231.97 228.918 1231.22 230.362C1227.2 233.864 1215.33 240.675 1209.9 240.715C1208.6 238.21 1207.47 189.457 1207.43 182.686C1207.32 162.896 1206.03 142.866 1205.87 123.038C1205.75 109.551 1205.88 78.8675 1201.32 67.052C1197.09 56.0663 1189.42 48.9602 1179.85 43.1234C1177.6 41.7513 1169.5 38.8548 1169.08 38.4645C1169.96 38.0038 1170.69 37.9408 1171.72 37.6685C1174.2 37.0123 1173.7 37.3973 1174.01 35.5204C1165.55 34.5025 1167.53 37.3447 1161.28 36.3888C1159.3 36.085 1156.8 35.964 1154.72 35.7273C1151.68 35.3846 1149.63 35.987 1147.23 35.7633ZM1109.25 199.611C1111.71 205.648 1116.41 219.719 1116.52 225.841C1113.58 229.41 1109.39 233.156 1106.14 236.944C1088.75 257.157 1081.29 289.21 1076.36 314.395C1075.38 319.44 1070.15 348.715 1070.76 351.562C1074.93 353.891 1075.35 346.292 1075.97 343.403C1078.52 331.499 1080.01 319.107 1082.88 306.231C1093.63 257.986 1108.79 225.343 1158.58 204.831C1162.27 203.309 1178.03 198.348 1181.42 198.258C1189.92 198.031 1190.55 210.937 1191.86 217.095C1193.23 223.486 1198.05 231.369 1200.72 237.705C1209.75 259.096 1215.91 283.209 1221.24 305.732L1229.35 341.689C1229.98 344.547 1230.84 352.287 1234.98 349.795C1235.46 346.682 1224.51 295.842 1222.07 287.183C1220.74 282.492 1217.18 271.104 1216.76 266.917C1220.03 265.208 1228.56 263.642 1233.74 259.503C1237.46 256.524 1237.04 256.071 1236.41 251.536C1236.05 248.936 1235.08 242.62 1235.57 240.389C1241.31 239.895 1247.64 239.645 1252.76 236.688C1260.11 232.437 1258.08 229.26 1256.43 222.017C1253.82 210.495 1250.88 199.358 1248.5 187.719C1243.68 164.062 1238.86 140.564 1234.49 116.808C1232.24 104.603 1231.46 92.4591 1228.52 80.4195C1223.16 58.4299 1215.81 40.1404 1194.58 29.287C1183.84 23.7964 1171.01 21.6639 1159.17 23.8406C1151.02 25.3388 1138.89 34.0085 1132.68 39.5822C1129.96 42.0144 1130.65 43.2581 1126.25 43.4432C1122.45 43.6042 1120.4 43.8101 1116.65 44.4455C1101.92 46.9427 1084.56 55.2105 1074.36 65.8502C1070.24 70.1479 1067.95 72.4032 1064.79 77.6456C1060.5 84.7666 1060.55 85.8727 1059.61 93.9333C1058.76 101.304 1054.92 110.466 1054.93 120.767C1054.93 124.533 1055.36 127.147 1054.44 130.933C1048.72 154.67 1059.91 193.521 1089.67 199.64C1097.71 201.292 1101.52 200.094 1109.25 199.611Z" fill="#0E6125"/>
<path fill-rule="evenodd" clip-rule="evenodd" d="M1071.94 166.278C1074.09 165.871 1077.94 167.426 1080.36 167.962C1092.71 170.693 1105.4 165.755 1107.45 165.873C1107.46 170.766 1093.73 173.331 1089.71 173.356C1085.6 173.382 1071.45 171.763 1071.94 166.278ZM1097.84 131.436C1097.99 126.828 1104.74 121.078 1108.78 119.388C1127.42 111.585 1139.88 130.265 1140.03 131.135C1140.95 136.449 1134.8 131.008 1133.9 130.044C1131.84 127.837 1130.55 126.374 1127.96 124.644C1129.3 128.146 1130.1 131.254 1128.11 134.757C1129.88 135.793 1129.06 134.299 1129.61 135.886C1125.18 140.81 1116.57 140.771 1110.23 138.148C1109.31 137.772 1108.38 137.324 1107.48 136.874C1105.76 136.024 1105.71 136.042 1105.29 135.068C1109.27 135.135 1112.91 138.113 1117.12 137.913C1117.12 135.429 1114.38 134.742 1115.15 129.32C1115.69 125.496 1117.91 124.84 1119.57 122.578C1105.58 121.228 1102.04 129.886 1097.84 131.436ZM1099.2 110.865C1094.19 104.76 1111.94 100.807 1125.68 104.909C1131.49 106.642 1147.36 113.731 1146.12 121.078C1143.91 121.063 1138.28 116.841 1136.08 115.399C1115.67 101.974 1101.42 110.948 1099.2 110.865ZM1061.37 103.568C1068.76 101.6 1072.03 99.2486 1079.21 104.606C1099.52 119.745 1079.76 139.95 1078.35 154.812C1081.23 154.842 1093.38 154.657 1094.88 155.978C1093.35 160.077 1079.71 159.474 1076.06 158.938C1072.14 155.145 1076.32 145.456 1078.48 141.198C1082.06 134.141 1087.74 122.541 1083 115.057C1081.7 113.01 1079.57 110.543 1077.75 109.185C1072.03 104.929 1066.64 105.667 1060.34 108.38C1059.27 110.384 1058.48 118.3 1058.39 120.857C1061.24 119.504 1065.32 113.835 1073.66 114.687C1076.04 114.929 1078.84 116.945 1080.46 118.483C1082.64 120.543 1082.58 123.722 1082.49 126.609C1082.16 137.466 1064.9 133.89 1068.2 123.333C1069.51 119.155 1071.78 120.011 1073.43 117.997C1068.52 118.098 1065.22 119.867 1061.71 122.986C1061.44 124.986 1061.72 129.355 1062.39 131.273C1063.18 133.563 1066.35 133.46 1067.84 134.612C1065.98 135.696 1062.24 134.65 1061.11 132.496C1059.97 130.325 1060.34 126.39 1059.47 124.42C1057.89 125.766 1059.05 127.878 1058.48 130.47C1057.37 135.455 1056.28 144.711 1056.82 149.749C1059.05 170.329 1070.85 193.234 1093.94 195.889C1118.53 198.717 1138.5 181.184 1141.18 181.992C1146.87 183.705 1133.55 190.531 1132.41 191.112C1125.31 194.754 1114.2 197.838 1112.63 198.872C1116.24 205.281 1118.47 214.817 1119.87 222.018C1121.16 221.587 1129.97 215.346 1132.14 213.961C1139.43 209.291 1150.07 203.988 1158.09 200.786C1161.27 199.518 1171.11 196.997 1172.88 195.972C1173.54 194.167 1170.21 187 1168.87 185.712C1164.86 188.034 1161.79 187.503 1158 184.785C1158.21 181.456 1157.01 180.919 1156.75 177.36C1155.04 154.767 1164.45 161.698 1167.62 160.386C1170.09 158.247 1171.41 155.418 1173.57 153.476C1175.87 151.4 1177.71 148.34 1178.54 145.077L1173 138.116C1168.14 139.766 1169.64 147.017 1167.76 149.483C1160.56 151.046 1167.88 137.749 1169.4 135.502C1167.95 132.867 1160.92 125.642 1158.46 122.833C1141.12 103.015 1113.52 74.9751 1084.87 79.834C1080.26 80.6156 1070.32 82.3282 1068.11 86.7276C1065.42 92.1028 1061.89 97.4095 1061.37 103.568Z" fill="white"/>
<path fill-rule="evenodd" clip-rule="evenodd" d="M1147.23 35.7628C1149.63 35.9875 1151.68 35.384 1154.72 35.7256C1156.8 35.9623 1159.3 36.0833 1161.28 36.3871C1167.53 37.343 1165.55 34.5008 1174.01 35.5187C1173.7 37.3956 1174.2 37.0106 1171.72 37.6668C1170.69 37.9391 1169.96 38.0021 1169.08 38.4628C1169.5 38.8531 1177.6 41.7498 1179.85 43.1219C1189.42 48.9586 1197.09 56.0646 1201.32 67.0503C1205.88 78.8658 1205.75 109.549 1205.87 123.037C1206.03 142.864 1207.32 162.894 1207.43 182.684C1207.47 189.455 1208.6 238.208 1209.9 240.713C1215.33 240.673 1227.2 233.863 1231.22 230.36C1231.97 228.917 1227.66 193.053 1227.05 189.077C1225.04 175.938 1224.21 162.217 1222.01 149.216C1219.82 136.219 1218.9 122.268 1216.44 109.435C1215.23 103.113 1214.56 95.9999 1213.52 89.5111C1212.98 86.1738 1210.04 73.2624 1210.14 71.2449C1211.6 71.473 1212.66 76.1877 1213.29 77.8336C1218.99 92.861 1223.8 121.274 1225.04 136.387L1229.54 172.422C1230.46 178.031 1231.07 184.91 1231.54 190.614C1231.74 193.101 1232.21 197.166 1232.62 199.607C1233.02 201.937 1232.42 206.193 1234.18 207.753C1236.71 208.176 1244.87 203.598 1245.4 200.846C1245.66 199.507 1242.94 188.018 1242.48 185.75L1230.35 123.847C1228.18 113.277 1227.33 102.517 1225.27 92.1021C1221.03 70.677 1220.19 56.2897 1202.04 41.4236C1194.06 34.8899 1187.31 31.4632 1177.16 29.4044C1169.38 27.8261 1152.88 29.3633 1147.23 35.7628Z" fill="white"/>
<path fill-rule="evenodd" clip-rule="evenodd" d="M1170.62 162.6C1170.67 163.834 1172.23 169.065 1172.59 171.137C1174.56 182.528 1169.56 178.048 1174.36 187.965C1175.34 189.992 1176.01 193.014 1177.44 194.584C1195.76 190.796 1191.91 210.619 1198.68 222.844C1199.94 225.128 1202.87 232.669 1204.05 233.899C1204.23 225.65 1203.4 216.815 1202.96 208.505C1202.17 193.771 1201.28 171.407 1201.25 156.867C1201.24 153.547 1201 132.984 1200.53 131.6C1198.92 133.494 1196.44 138.279 1194.41 140.921C1187.82 149.492 1185.06 149.456 1177.54 154.329C1175.65 155.552 1172.29 160.53 1170.62 162.6Z" fill="white"/>
<path fill-rule="evenodd" clip-rule="evenodd" d="M1199.97 88.6069C1200.43 82.6975 1197.54 70.7966 1194.45 65.9032C1189.58 58.1854 1188.14 56.1905 1181.1 50.7893C1171.69 43.5604 1147.37 37.5342 1136.62 43.6569C1141.77 46.3855 1151.2 47.7472 1157.13 50.2529C1162.81 52.6462 1170.02 55.7491 1174.98 59.5776C1183.09 65.839 1189.26 72.0419 1194.94 80.5809C1196.29 82.6103 1198.64 87.1885 1199.97 88.6069Z" fill="white"/>
<path fill-rule="evenodd" clip-rule="evenodd" d="M1097.84 131.435C1102.04 129.885 1105.58 121.228 1119.57 122.578C1117.91 124.839 1115.69 125.495 1115.14 129.319C1114.38 134.741 1117.12 135.429 1117.12 137.912C1112.91 138.113 1109.27 135.134 1105.29 135.068C1105.71 136.042 1105.76 136.024 1107.47 136.873C1108.38 137.324 1109.31 137.771 1110.22 138.148C1116.57 140.77 1125.18 140.81 1129.61 135.885C1129.06 134.298 1129.88 135.792 1128.11 134.757C1130.1 131.253 1129.3 128.145 1127.96 124.644C1130.55 126.374 1131.84 127.836 1133.9 130.044C1134.8 131.007 1140.95 136.449 1140.03 131.135C1139.88 130.265 1127.42 111.584 1108.78 119.387C1104.74 121.078 1097.99 126.828 1097.84 131.435Z" fill="#0E6125"/>
<path fill-rule="evenodd" clip-rule="evenodd" d="M1099.19 110.864C1101.42 110.947 1115.67 101.974 1136.08 115.398C1138.28 116.841 1143.91 121.063 1146.12 121.077C1147.36 113.73 1131.49 106.641 1125.68 104.908C1111.94 100.806 1094.19 104.759 1099.19 110.864Z" fill="#0E6125"/>
<path fill-rule="evenodd" clip-rule="evenodd" d="M1071.94 166.278C1071.45 171.762 1085.6 173.38 1089.71 173.355C1093.73 173.329 1107.46 170.766 1107.45 165.872C1105.4 165.754 1092.7 170.692 1080.36 167.961C1077.93 167.425 1074.09 165.871 1071.94 166.278Z" fill="#0E6125"/>
<path fill-rule="evenodd" clip-rule="evenodd" d="M1162.07 164.752C1160.63 168.787 1158.26 183.859 1165.34 183.078C1170.91 182.464 1168.78 168.04 1166.76 164.464L1162.07 164.752Z" fill="white"/>
<path fill-rule="evenodd" clip-rule="evenodd" d="M408.424 262.654C409.275 262.366 415.838 262.018 417.578 261.73C425.622 260.4 427.707 260.901 434.103 257.217C437.455 255.287 438.995 255.299 441.806 257.595C447.918 262.586 445.522 269.821 453.936 276.664C454.754 277.33 455.75 278.1 457.086 278.672C458.603 279.321 459.724 279.595 460.73 280.381C459.598 287.822 443.03 281.862 438.52 277.021C434.748 272.973 436.597 273.095 428.296 276.704C425.896 277.746 418.025 280.929 415.787 280.292C415.304 279.164 414.073 274.136 412.745 270.91C412.151 269.469 411.536 267.948 410.809 266.595C410.032 265.151 408.909 263.778 408.424 262.654ZM290.735 279.802C290.708 277.571 291.159 275.502 291.337 273.426C291.535 271.109 291.435 268.554 291.457 266.209C291.503 261.509 293.616 226.338 294.11 225.625C295.321 226.307 294.988 229.633 294.987 232.078C294.985 239.724 294.416 246.403 294.272 253.73C294.226 256.063 294.275 258.411 294.14 260.708L292.845 277.95C292.711 279.736 292.551 279.688 290.735 279.802ZM384.53 269.388C386.818 270.174 389.299 268.062 391.232 266.44L396.174 261.103C397.081 259.983 398.316 258.053 399.436 257.259C402.019 259.229 401.642 259.16 403.422 261.126C405.811 263.764 407.003 265.856 408.656 269.465C411.005 274.594 413.15 280.063 413.08 286.421C410.239 286.385 397.335 288.875 393.306 289.473C386.632 290.464 379.587 291.482 372.646 291.522C365.894 291.562 359.077 290.407 353.427 287.977C347.821 285.566 344.343 282.335 340.779 277.889C332.933 268.101 337.11 252.739 340.557 241.037C342.215 235.411 344.057 229.287 346.202 223.966C347.369 221.07 352.046 209.963 353.563 208.271C355.166 207.992 356.537 208.16 357.973 207.877C361.811 207.121 365.562 205.635 368.83 203.674C370.492 202.676 373.354 200.571 374.53 199.465C383.024 191.476 387.811 183.867 392.431 172.916C393.242 170.995 394.025 168.654 392.371 168.572C392.296 168.569 391.621 167.815 390.653 169.724L381.412 186.537C373.52 198.411 358.266 210.558 343.534 201.734C337.006 197.823 332.406 187.635 334.298 181.583C338.637 180.528 343.542 181.728 351.882 177.561C356.32 175.345 358.183 173.858 361.6 171.123C367.59 166.328 373.739 156.509 377.554 149.251C379.764 145.042 379.554 145.161 379.256 139.851C381.335 138.093 383.508 136.289 385.806 134.412C387.636 132.917 390.407 129.497 392.097 128.699C395.506 129.67 396.793 131.009 398.623 133.436C405.531 142.602 406.61 149.083 406.483 160.523C406.443 164.106 403.797 175.587 403.029 180.276C399.788 200.058 411.63 212.789 403.236 241.768C400.43 251.46 394.289 260.008 386.748 266.007C384.471 267.818 384.214 267.389 384.53 269.388ZM362.003 129.528C364.442 129.614 367.595 131.6 369.195 132.772C380.642 141.164 375.721 146.211 372.032 152.562C360.731 172.022 341.689 185.034 317.736 174.336C310.142 170.945 305.11 167.09 299.933 160.926C298.336 159.024 296.867 155.719 294.232 156.267C293.311 160.51 304.89 170.798 309.483 173.77C311.452 175.045 314.608 176.789 316.971 177.646C316.938 179.117 316.461 180.129 316.224 181.546C316.12 182.172 316.069 182.892 315.959 183.412L315.25 185.053C314.317 185.517 301.619 185.992 299.612 185.901C294.578 185.675 289.338 184.919 284.502 184.556C279.661 184.193 260.407 180.29 257.721 178.131C256.848 170.193 259.25 158.213 260.792 151.01C262.492 143.066 265.637 135.628 269.043 128.818C273.694 119.523 288.94 97.9108 297.046 96.2688C298.998 99.6252 297.267 103.831 306.37 109.011C315.934 114.454 325.157 111.403 332.746 126.646C334.135 129.436 338.559 140.095 338.975 142.9C338.893 142.958 338.758 142.927 338.712 143.051L336.85 143.81C334.864 144.769 333.846 147.759 339.573 145.855C343.384 144.588 345.475 143.808 348.393 141.777C355.676 136.711 359.726 131.079 362.003 129.528ZM389.614 109.347C391.045 110.54 390.483 111.235 389.551 112.456C388.74 113.518 388.07 114.208 387.203 115.249C386.407 116.205 385.581 117.015 384.869 118.059C382.522 121.499 383.951 121.27 384.388 121.67C385.572 121.41 386.498 118.976 388.879 116.755C388.816 120.223 387.704 119.674 385.474 122.293L385.14 122.691C384.944 122.95 383.651 124.089 385.125 124.99C387.265 125.71 388.267 122.26 389.896 121.163C391.833 124.913 387.006 129.178 385.529 130.463C383.471 132.254 379.941 136.58 377.785 137.38C375.49 134.213 374.714 133.184 371.871 130.834C368.511 128.057 365.028 127.118 363.998 126.018C365.646 124.142 367.291 121.837 368.539 118.959C371.864 111.29 374.62 110.826 380.056 107.012C381.899 105.719 385.149 102.762 388.248 103.79C388.655 105.36 387.656 105.411 386.537 106.516C383.412 109.603 378.971 111.729 378.537 112.953C376.788 117.881 385.013 111.464 386.171 110.556C387.405 109.588 387.785 108.667 389.614 109.347ZM369.435 87.5433C371.366 86.3176 372.837 84.5923 373.56 84.3523C374.815 87.0986 374.084 107.144 372.638 108.771C368.844 113.04 370.476 110.145 366.966 116.274C364.838 119.991 363.288 122.257 359.531 121.174C357.4 120.56 355.096 119.27 353.663 118.214C352.321 117.224 349.768 114.804 349.199 113.541C350.101 112.844 352.008 112.484 353.247 111.752C355.366 110.503 354.91 110.13 357.967 110.395L359.018 108.88C363.413 108.728 361.672 107.683 362.103 104.118C363.672 103.947 366.827 104.223 367.728 103.463C369.447 102.015 367.809 100.242 367.55 98.4646C367.263 96.4951 368.183 95.0654 368.674 93.3793C369.279 91.2997 369.227 89.7982 369.435 87.5433ZM323.038 110.216C319.499 111.123 298.651 105.933 300.313 94.084C300.792 90.6643 304.272 88.3295 308.095 88.6452C307.03 93.7607 299.688 90.8221 317.841 105.216C319.325 106.393 322.21 108.523 323.038 110.216ZM365.094 101.549C359.216 101.879 359.584 101.085 359.557 105.899C357.556 104.661 357.608 103.415 355.284 103.91C354.895 105.386 355.452 105.797 355.901 107.096C352.112 108.615 349.808 112.006 343.966 109.955C342.386 109.401 339.407 108.224 338.49 107.321C336.837 105.696 337.287 102.679 336.683 100.761C333.901 101.036 335.17 103.158 334.266 104.51L326.772 108.427L313.419 97.1661C312.088 96.0911 309.676 94.2271 309.188 92.9891C310.483 90.4554 317.44 86.2395 321.92 86.9546C324.783 87.4115 329.485 89.4055 331.381 91.6915C332.39 92.9078 332.974 93.5726 334.141 92.2594C334.785 91.1322 334.587 91.694 334.005 90.5645C333.103 88.8149 332.57 86.1701 332.509 84.1813C332.407 80.8145 334.564 78.2804 336.681 77.507C338.143 77.9147 340.562 79.93 341.241 80.72C343.318 83.1308 342.264 84.2196 342.536 87.4843C345.074 88.777 349.894 85.826 352.233 81.3797C353.006 79.9102 353.435 78.4755 354.296 77.4385C355.678 77.3694 357.216 77.4446 358.527 77.7593C360.341 78.193 360.382 78.6646 361.269 79.8001C362.426 79.5407 363.155 79.0893 363.978 78.9637C365.422 78.7435 365.55 78.9667 366.915 78.5172C365.337 81.5895 366.707 79.8573 366.853 83.7975C367.223 93.8112 365.264 92.2047 364.665 95.6177C364.222 98.1457 365.311 100.277 365.094 101.549ZM342.294 56.2515C334.449 56.183 338.448 56.9093 334.846 58.5003C333.556 57.8681 333.464 56.9182 331.55 56.9527C330.172 56.9772 329.086 57.6956 328.251 58.5018C327.415 59.3097 326.829 60.1948 326.398 61.4294C324.524 66.7982 322.591 60.593 320.721 70.8155C320.244 73.4214 321.121 72.5719 321.402 74.6316C322.347 81.5583 320.295 79.5288 318.849 82.5057C317.729 84.8107 318.417 83.9725 315.815 84.978C314.883 85.3389 312.768 86.4919 311.948 86.6799C310.148 87.0916 309.741 85.8319 307.696 85.5493C300.699 84.5801 298.621 90.9511 297.868 91.9921C296.434 93.9748 288.877 92.4934 272.909 116.194C258.669 137.329 253.999 158.136 253.932 184.737L253.63 219.969C253.741 238.616 254.549 257.284 254.702 276.117C254.76 283.262 255.511 280.382 259.919 284.109C260.755 291.502 257.438 292.242 265.94 294.435C269.978 295.477 275.453 296.109 279.774 296.795C282.363 297.206 306.619 300.207 307.295 294.834C306.875 293.302 305.514 291.818 304.582 290.97C303.924 290.372 303.433 290.072 302.757 289.485C302.456 289.223 302.368 289.14 301.993 288.79L300.952 287.755C310.105 288.547 318.729 288.45 327.92 286.885C331.104 286.344 333.834 286.267 334.687 283.824C334.708 280.695 322.908 275.656 320.127 275.241C320.154 272.882 320.73 270.308 320.765 267.691C320.8 264.998 320.744 262.296 320.796 259.603C320.894 254.296 321.363 249.257 321.354 243.822L321.31 225.106C321.301 220.96 320.787 217.394 320.777 213.362C320.75 201.717 318.704 197.605 319.277 184.351C319.382 181.922 319.825 181.166 320.072 179.037C321.795 179.328 323.74 180.08 325.528 180.54C327.292 180.993 329.117 181.069 330.888 181.659C331.118 187.735 330.879 193.112 335.754 199.246C336.443 200.114 337.777 201.295 338.512 201.995C342.084 205.398 344.456 206.753 349.82 207.953C349.531 209.219 347.918 212.343 347.201 213.975C346.282 216.065 345.361 218.028 344.469 220.048C340.556 228.91 333.111 252.875 333.094 261.437C333.082 268.002 333.163 272.003 336.867 277.764C339.091 281.223 341.804 284.513 344.773 286.744C352.324 292.414 360.422 294.655 371.912 294.63C379.016 294.615 387.769 293.876 394.589 292.607C420.884 287.713 415.406 291.384 416.252 283.824L425.648 281.068C427.939 280.227 432.991 277.738 434.735 277.621L439.493 281.569C440.861 282.483 443.459 284.044 445.142 284.745C449.583 286.595 454.416 288.004 459.352 286.145C464.875 284.065 465.24 278.58 460.002 276.457C450.077 272.436 451.512 266.389 447.026 258.632C446.323 257.416 443.876 255.046 442.594 254.239C441.801 253.739 440.577 253.073 439.725 252.745C431.449 249.562 429.215 253.769 425.185 253.34C421.519 252.949 423.389 252.486 417.039 252.661C411.783 252.806 403.114 254.798 401.312 254.799C401.718 252.934 403.416 250.216 404.181 248.187C410.184 232.252 410.549 222.618 408.133 205.887C407.258 199.838 405.796 194.597 405.678 188.406C405.394 173.425 415.384 156.775 405.332 138.114C404.178 135.971 402.763 133.841 401.435 132.092L396.521 127.119C397.56 125.052 399.851 123.761 399.978 118.3C400.073 114.271 400.734 115.284 404.44 110.827C409.926 104.231 406.422 95.5837 401.607 94.8418C399.027 94.4439 398.493 95.433 396.828 93.7641C395.842 92.7759 394.93 91.6358 394.015 90.3382C392.853 88.6886 392.401 88.692 391.137 87.343C386.66 82.5709 385.194 82.5776 378.703 81.4109C371.834 80.1747 372.308 82.5577 369.225 84.0107C369.215 82.7085 369.349 81.2522 368.984 80.0496C368.673 79.0251 367.866 78.3003 368.82 77.0623C370.064 75.4473 373.086 75.6883 374.677 74.4705C376.295 73.2297 377.301 70.6776 375.693 68.2919C374.736 66.8701 374.351 67.5558 373.391 66.5624C372.583 65.7275 372.972 64.5051 372.589 62.9274C369.391 60.8184 370.213 63.1362 367.271 59.2275L364.058 59.3125C361.77 55.8448 363.321 57.3237 358.824 56.8625C356.593 56.6338 357.609 57.0213 355.746 57.3724C354.946 55.582 354.285 54.1752 352.094 54L349.188 56.605C346.848 56.2435 346.337 54.9475 344.755 54.1389C342.985 54.7352 343.27 55.1478 342.294 56.2515Z" fill="#0C6225"/>
<path fill-rule="evenodd" clip-rule="evenodd" d="M460.815 248.503C460.854 246.002 461.979 244.294 463.314 243.113C465.079 241.553 466.974 241.9 469.155 242.684C468.491 245.616 463.319 247.095 460.815 248.503ZM450.134 242.31C448.274 239.435 448.212 238.195 450.449 235.751C453.718 237.561 455.641 244.018 454.118 248.646L450.134 242.31ZM458.889 240.218C458.005 238.119 460.959 235.833 462.415 235.424L458.889 240.218ZM455.953 238.009C455.892 237.943 455.812 237.738 455.789 237.794L453.644 234.402C449.956 229.139 444.431 236.492 446.313 241.345C447.458 244.301 450.397 246.557 453.021 253.348C453.777 255.307 453.787 256.728 455.945 256.605C456.683 255.358 457.147 244.96 457.255 242.521C457.832 244.229 458.777 243.756 458.204 246.441C457.731 248.659 457.857 249.977 457.698 252.23C457.566 254.102 457.168 255.834 457.078 257.758C456.96 260.259 456.647 261.727 458.522 262.473C461.433 261.173 458.936 256.66 460.422 252.658C461.156 250.686 465.263 249.259 467.611 248.151C470.609 246.735 473.228 243.75 472.146 241.614C470.825 239.007 466.605 239.145 463.294 239.456C464.766 236.615 465.966 236.837 464.888 232.283C460.872 230.91 457.712 234.581 455.953 238.009Z" fill="#0C6225"/>
<path fill-rule="evenodd" clip-rule="evenodd" d="M242.11 269.073C239.378 268.533 239.303 270.952 238.693 273.446C238.081 275.949 237.804 278.322 237.632 280.931L236.599 278.249C233.657 263.424 238.678 258.381 237.292 255.116C234.531 254.366 234.422 256.698 233.752 259.41C231.878 266.989 232.236 275.437 234.641 282.401C235.063 283.621 236.499 287.879 237.068 288.419C239.917 291.123 240.013 285.742 240.167 283.829C240.452 280.257 242.821 271.608 242.11 269.073Z" fill="#0C6225"/>
<path fill-rule="evenodd" clip-rule="evenodd" d="M471.069 270.32C471.191 267.87 470.896 266.947 470.32 264.741C469.784 262.694 469.618 261.017 467.599 261.685C466.386 262.714 468.919 270.682 469.284 275.87C469.434 277.987 468.962 279.194 470.466 280.359C473.337 281.506 473.018 270.207 479.056 260.675C480.57 258.284 482.837 257.216 482.058 254.411C480.049 254.017 479.087 255.143 478.146 256.491C476.183 259.305 474.627 262.394 473.239 265.536C472.611 266.957 472.34 269.555 471.069 270.32Z" fill="#0C6225"/>
<path fill-rule="evenodd" clip-rule="evenodd" d="M218.291 272.079C219.308 273.34 219.162 273.047 220.701 273.927C224.846 276.296 227.801 282.727 229.436 287.233C230.183 289.291 231.073 292.284 231.911 293.824C236.433 294.755 233.904 290.403 232.963 287.699C232.011 284.962 230.862 282.121 229.547 279.764C227.601 276.276 220.236 266.135 218.291 272.079Z" fill="#0C6225"/>
<path fill-rule="evenodd" clip-rule="evenodd" d="M479.203 280.935C480.511 279.064 481.327 276.025 482.545 273.694C483.649 271.578 486.459 268.899 486.115 266.848L484.964 266.077C483.403 266.464 483.301 266.842 482.294 268.313L481.691 269.237C479.779 272.384 478.943 274.091 477.648 277.659C476.857 279.837 476.293 280.806 479.203 280.935Z" fill="#0C6225"/>
<path fill-rule="evenodd" clip-rule="evenodd" d="M227.346 292.938C228.765 291.677 228.673 291.23 227.47 289.55C225.983 287.475 221.069 281.605 218.558 282.062C214.292 282.837 221.549 287.169 221.859 287.447C224.551 289.855 224.753 292.746 227.346 292.938Z" fill="#0C6225"/>
<path fill-rule="evenodd" clip-rule="evenodd" d="M249.506 278.567C246.734 278.104 246.115 280.681 245.185 283.352C244.707 284.725 242.774 289.956 244.181 291.176C245.919 292.685 247.205 287.042 247.603 285.748C248.354 283.301 250.14 280.904 249.506 278.567Z" fill="#0C6225"/>
<path fill-rule="evenodd" clip-rule="evenodd" d="M216 290.033C216.231 291.7 216.478 291.367 217.819 292.224C220.694 294.062 224.875 298.891 225.513 295.52C225.805 293.979 224.714 293.709 223.905 293.109C221.116 291.037 218.323 287.482 216 290.033Z" fill="#0C6225"/>
<path fill-rule="evenodd" clip-rule="evenodd" d="M359.8 90.8476C356.5 91.5904 356.605 95.7414 358.728 95.9148C360.308 96.0439 362.46 92.7278 359.8 90.8476Z" fill="#0C6225"/>
</svg>
