<svg width="1440" height="500" viewBox="0 0 1440 500" fill="none" xmlns="http://www.w3.org/2000/svg">
<path fill-rule="evenodd" clip-rule="evenodd" d="M1233.54 274.353C1232.71 274.96 1232.76 274.839 1232.11 274.295C1232.2 273.317 1233.3 272.833 1233.54 274.353ZM1218.28 223.535C1218.21 224.583 1217.88 224.791 1216.69 224.968C1214.34 225.319 1214.79 224.439 1214.68 224.07L1218.28 223.535ZM1212.62 220.968C1214.1 220.104 1216.5 220.615 1218.17 219.841C1219.63 219.167 1219.5 218.969 1220.2 218.515C1220.73 218.168 1221.79 217.995 1221.37 219.19C1220.44 221.826 1213.18 223.817 1212.62 220.968ZM1216.83 208.451C1216.63 206.769 1217.83 205.629 1219.14 205.289C1220.72 204.883 1220.44 205.318 1221.49 205.553C1222.47 205.771 1222.59 205.133 1223.33 204.872C1224.3 204.527 1224.64 205.096 1224.18 205.967C1223.53 207.187 1222.06 206.693 1221.13 208.567C1220.58 209.695 1220.96 209.683 1219.85 209.714C1219.16 208.715 1219.58 207.876 1219.13 206.753C1217.74 207.2 1218.1 207.955 1216.83 208.451ZM1214.39 204.531C1214.3 203.327 1216.19 202.436 1217.6 201.982C1219.05 201.516 1221.77 200.757 1222.3 202.156C1221.36 202.884 1219.26 202.846 1218.05 203.183C1216.97 203.481 1214.96 204.55 1214.39 204.531ZM1203.56 205.232C1203.95 205.149 1209.93 201.675 1211.68 206.478C1212.29 208.142 1213.14 215.56 1213.83 216.243C1214.17 216.595 1213.31 216.474 1214.67 216.551L1216.82 216.188C1216.94 216.182 1217.26 216.041 1217.77 216.392C1217.19 217.529 1214.99 218.637 1213.15 218.03C1211.64 216.846 1212.44 211.902 1210.66 210.786C1209.56 211.476 1210.07 212.522 1208.51 212.439C1207.82 211.521 1208.31 211.499 1207.86 210.516C1206.6 211.105 1207.26 211.461 1206.33 212.298C1205.47 212.052 1204.53 210.954 1204.5 209.783C1205 209.406 1205.37 209.648 1205.86 209.495C1206.12 209.415 1206.75 208.997 1207.15 208.823C1208.98 208.023 1209.01 208.677 1210.66 208.76C1210.3 204.934 1206.57 204.694 1203.79 206.478C1204.15 213.389 1207.31 220.84 1212.23 225.505C1215 228.142 1217.75 230.091 1221.71 227.958C1225.94 225.68 1226.04 223.116 1228.7 220.938C1229.75 222.895 1225.25 228.485 1221.97 230C1217.97 231.855 1213.39 229.749 1210.77 226.672C1210.66 228.099 1211.08 229.526 1211.06 231.137C1211.03 232.59 1210.64 234.902 1210.91 236.186C1211.16 237.346 1212.12 238.511 1212.7 239.265C1213.33 240.075 1214 240.744 1213.99 241.817L1213.71 242.867C1212.47 242.678 1212.21 241.371 1211.51 240.451C1210.79 239.51 1210 238.806 1209.46 237.675C1208.62 235.941 1209.72 231.482 1209.64 229.04L1205.69 229.012C1204.17 231.763 1202.4 236.426 1203.33 240.007C1205.05 246.624 1210.17 244.158 1211.36 246.135C1210.19 248.243 1205.48 246.496 1204.18 245.242C1202.27 243.395 1201.77 241.886 1201.14 238.615C1200.45 238.63 1192.7 240.428 1192.24 240.683C1185.03 244.656 1181.75 253.906 1178.86 261.365C1175.59 269.806 1167.86 286.887 1168.93 296.984C1169.74 304.544 1180.1 300.258 1183.83 297.861L1188.66 294.299C1189.4 293.604 1189.57 293.453 1190.3 292.88C1191.52 291.91 1192.07 291.258 1193.03 290.029C1194.74 287.849 1196.57 285.995 1198.07 283.631C1200.78 279.37 1202.43 277.647 1208.26 276.769C1211.43 276.293 1214.98 275.877 1217.94 275.024C1220.15 274.384 1224.62 272.545 1225.13 270.841C1223.28 270.891 1220.73 271.896 1218.78 272.346C1217.75 272.583 1217.23 272.826 1216.48 272.319C1216.79 271.796 1216.41 272.248 1216.84 271.889C1219.17 269.976 1226.87 270.186 1226.69 266.727C1224.17 265.782 1217.72 270.009 1215.79 269.047C1216.91 266.008 1228.5 265.408 1227.19 262.935L1226.82 262.728C1226.77 262.711 1226.68 262.665 1226.62 262.649L1225.41 262.61C1222.94 262.912 1215.85 266.247 1214.54 265.676C1215.19 262.698 1224.33 262.201 1225.49 260.117C1224.36 258.356 1221.82 259.408 1219.86 259.923C1217.75 260.477 1216.36 261.058 1214.59 262.016C1212.87 262.942 1211.58 263.668 1209.87 264.663C1208.88 265.237 1206.11 267.151 1205.11 266.727C1205.84 264.151 1211.26 263.252 1211.22 258.497C1209.52 258.727 1202.3 264.227 1201.28 265.233C1199.84 266.657 1198.61 267.862 1197.2 269.283L1193.03 273.502C1191.64 274.912 1190.43 275.756 1188.5 277.109C1184.78 279.714 1180.21 280.813 1175.59 284.789C1174.91 285.371 1174.01 286.357 1172.97 286.631C1173.4 283.002 1181.37 278.949 1185.18 277.098C1187.99 275.738 1188.03 273.354 1189.11 270.092C1189.74 268.197 1191.11 263.61 1193.16 263.171C1193.37 264.831 1190.05 270.844 1189.71 273.897C1191.46 273.009 1197.29 266.446 1199.99 263.931C1201.82 262.218 1203.59 261.087 1205.75 259.527C1207.37 258.35 1210.24 256.104 1212.55 256.941C1213.01 258.527 1212.67 259.181 1212.87 260.839C1214.46 260.38 1220.76 256.408 1225.1 257.356C1226.74 257.716 1226.88 258.88 1227.32 260.457C1228.47 261.126 1230.39 261.637 1229.36 263.807C1228.9 264.78 1228.38 264.835 1228.49 265.897C1228.63 267.273 1229.12 267.358 1228.13 268.437C1227.58 269.031 1226.98 269.249 1226.7 270.024C1226.27 271.206 1226.89 271.396 1225.95 272.614C1224.95 273.889 1223.71 274.254 1222.36 275.37C1222.57 277.106 1225.02 279.773 1226.64 280.219C1229.16 280.913 1232.57 280.276 1234.56 279.191C1236.41 278.185 1237.42 275.64 1237.77 272.974C1237.97 271.466 1237.85 270.227 1237.64 268.765C1237.47 267.525 1236.58 265.635 1237.35 264.716C1238.71 265.139 1239.23 268.28 1239.5 269.671C1239.91 271.75 1239.49 273.982 1238.89 275.905C1237.25 281.178 1235.32 279.757 1236.27 287.412C1236.79 291.628 1238.36 295.016 1239 298.911C1239.7 303.247 1239.13 307.848 1238.57 312.175C1238.05 316.23 1237.16 320.257 1236.28 324.083C1233.66 335.432 1229.04 332.708 1224.07 333.499C1218.6 334.371 1211.54 339.817 1211.45 342.416C1214.55 342.576 1215.42 341.824 1217.23 340.414C1218.33 339.564 1220.09 337.96 1221.62 338.021C1223.25 338.084 1222.41 339.345 1221.22 339.835C1219.58 340.516 1219.24 342.702 1216.79 345.315C1215.17 347.035 1211.09 349.446 1211.41 353.197C1213.9 352.587 1219.72 345.452 1222 345.136C1222.19 345.373 1222.29 345.525 1222.5 345.786C1222.17 346.801 1220.77 347.706 1219.87 348.391L1213.9 353.356C1213.09 353.983 1211.52 355.182 1211.49 356.39C1212.74 356.467 1213.97 355.279 1214.93 354.629C1216.05 353.861 1217.04 353.138 1217.99 352.363L1222.47 348.696C1223.33 347.976 1223.97 347.042 1224.11 348.605C1224.19 349.526 1223.5 350.106 1222.89 350.65L1215.84 356.083C1215.55 356.372 1215.66 356.239 1215.42 356.546C1218.36 355.898 1221.06 353.729 1223.27 352.048C1224.21 351.334 1224.72 350.533 1225.2 350.494C1225.94 350.436 1225.21 350.297 1225.73 350.653C1225.96 352.068 1223.18 354.119 1222.1 354.939C1221.17 355.642 1221.01 355.28 1220.75 356.488C1226.33 357.828 1223.81 353.111 1229.06 349.44C1230.1 348.711 1230.51 347.33 1231.29 346.341C1234.35 342.441 1238.28 339.046 1240.86 334.816C1242.2 332.632 1243.38 330.412 1244.72 328.243C1249.79 320.064 1251.57 312.831 1250.63 302.514C1250.08 296.51 1248.21 290.694 1247.4 284.583C1246.79 280.02 1245.9 267.712 1245.42 265.505C1244.88 262.971 1243.92 259.835 1242.86 257.655C1240.37 252.542 1236.52 250.286 1232.6 246.558C1230.01 244.091 1229.11 240.7 1228.45 240.131C1227.87 240.965 1227.53 241.719 1227.08 242.717C1226.56 243.865 1226.43 244.824 1225.23 244.781C1224.74 242.452 1230.6 226.684 1230.8 221.472C1230.85 219.997 1229.77 218.555 1229.27 217.09C1227.02 210.44 1230.03 206.38 1223.73 199.24C1222.04 197.313 1219.55 195.624 1216.08 195.206C1214.3 194.991 1212.22 195.154 1210.4 195.125C1205.6 195.048 1202.21 200.124 1203.56 205.232Z" fill="white"/>
<path fill-rule="evenodd" clip-rule="evenodd" d="M1191.84 389.559C1192.15 390.005 1193.44 394.236 1193.42 394.366C1193.4 394.372 1193.02 395.114 1191.95 393.996C1191.4 393.425 1189.13 389.931 1191.84 389.559ZM1216.9 304.801C1217.86 311.735 1212.69 304.604 1216.9 304.801ZM1161.03 439.956C1162.11 439.574 1161.73 439.65 1162.48 438.949C1163.14 438.343 1163.34 438.226 1164.36 438.299C1164.01 440.355 1159.51 441.403 1161.08 444.167C1162.16 443.995 1161.7 444.054 1162.36 443.152C1163.77 441.221 1163.59 441.772 1164.77 440.472C1166.26 438.839 1166.85 440.054 1165.82 441.262C1165.09 442.122 1164.3 442.549 1163.91 443.974C1163.56 445.249 1163.59 445.541 1164.14 446.303C1164.19 446.26 1164.26 446.12 1164.28 446.163C1164.3 446.205 1164.39 446.054 1164.42 446.02C1165.52 444.671 1167.06 441.036 1168.85 441.227C1169.54 443.039 1165.81 445.127 1165.68 447.687C1168.82 447.638 1169.1 446.014 1170.3 443.974C1171.33 442.215 1172.35 440.579 1173.49 438.781C1174.06 437.876 1174.5 437.181 1175.13 436.351C1175.72 435.577 1176.36 434.814 1176.92 433.817C1177.94 431.963 1178.76 429.808 1179.58 427.842C1182.86 419.946 1188.18 413.362 1192.09 406.281C1195.08 400.854 1194.95 400.691 1198.5 395.917C1199.59 394.447 1200.69 393.881 1202.21 391.237C1205.83 384.982 1207.07 379.427 1208.84 372.177C1209.72 368.561 1212.09 362.016 1212.22 358.497C1210.42 357.533 1208.94 358.385 1210.28 354.938C1209.29 353.388 1209.17 353.29 1209.95 351.179C1211.69 346.472 1214.77 346.337 1216.43 343.335C1213.47 344.508 1212.21 345.058 1209.39 343.106C1209.31 340.664 1210.66 340.659 1211.38 339.178L1209.78 337.509C1208.43 335.935 1205.07 333.453 1205.2 332.244C1205.61 332.03 1204.7 332.06 1205.83 332.079C1206.76 332.094 1210.9 336.186 1212.44 337.426C1214.87 336.081 1218.52 330.707 1228.2 331.244C1230.45 331.369 1230.81 331.027 1231.86 329.624C1234.56 325.987 1234.84 321.85 1235.7 316.907C1236.24 313.808 1236.78 310.364 1236.96 307.144C1237.09 304.685 1236.45 304.751 1235.47 303.176C1232.14 297.83 1231.27 291.838 1233.8 285.811C1234.49 284.168 1234.35 282.846 1234.62 280.945C1231.62 281.613 1229.37 283.208 1225.61 281.779C1221.88 280.359 1221.98 278.763 1220.32 276.123C1219.29 276.17 1216.31 277.37 1214.81 277.729C1211.54 278.507 1205.45 279.155 1203.14 280.31C1201.47 281.147 1201.01 282.567 1199.96 284.248C1198.98 285.82 1198.12 287.188 1197.09 288.498C1196.58 289.151 1196 289.8 1195.49 290.455C1194.86 291.256 1194.38 291.541 1193.76 292.277C1192.69 293.534 1191.08 300.818 1190.5 303.248C1188.41 312.072 1186.3 318.037 1186.66 327.992C1187.09 339.917 1190.99 372.457 1189.17 381.982C1187.5 390.696 1182.28 393.503 1179.9 401.45C1175.95 414.589 1179.95 423.153 1168.57 432.841C1165.74 435.25 1161.5 437.603 1161.03 439.956Z" fill="white"/>
<path fill-rule="evenodd" clip-rule="evenodd" d="M1205.22 453.573C1204.85 453.731 1204.55 453.664 1203.94 453.435C1203.07 453.11 1203.14 453.087 1202.84 452.511C1203.65 452.611 1204.69 453.104 1205.22 453.573ZM1174.61 451.844C1175.21 451.675 1175.75 451.494 1176.38 451.333C1180.04 450.396 1183.18 449.288 1187.27 449.343C1190.72 449.391 1199.07 451.182 1200.4 453.216C1196.4 453.15 1191.44 451.974 1187.02 451.774C1181.91 451.543 1177.81 452.266 1172.91 452.588L1174.61 451.844ZM1211.16 446.501C1217.38 447.669 1222.81 450.839 1229.93 449.972C1235.53 449.291 1240.92 446.707 1245.31 445.755C1245.6 445.691 1246.34 445.552 1246.58 445.543L1247.56 445.69C1243.47 447.624 1239.28 450.493 1234.61 452.095C1226.45 454.89 1221.29 451.907 1217.49 452.297C1217.65 453.101 1218.15 453.256 1218.42 453.563C1214.97 454.097 1210.87 454.682 1207.38 454.026C1207.9 452.333 1210.4 453.502 1211.16 446.501ZM1202.08 451.822C1198.52 451.057 1193.04 447.088 1185.44 447.946C1177.18 448.877 1174.26 451.096 1168.98 452.297C1163.26 453.595 1156.01 452.367 1150.93 450.489C1146.62 448.892 1139.8 445.757 1137.79 442.808C1141.03 443.192 1143.26 444.755 1145.82 445.961C1156.4 450.939 1161.24 451.559 1172.12 448.102C1178.34 446.126 1189.96 439.255 1197 446.127L1202.08 451.822ZM1171.36 446.044C1173.04 441.415 1175.8 438.418 1177.85 435.253C1179.93 432.035 1181.52 427.492 1183.46 424.086C1186.57 418.628 1190.27 413.329 1192.99 408.447C1193.71 407.148 1194.95 403.873 1195.91 403.037C1196.12 403.661 1192.84 421.787 1192.25 423.742C1190.48 429.655 1187.37 433.184 1186.31 436.601C1185.41 439.52 1186.67 439.286 1186.94 441.283C1183.52 441.91 1181.82 442.198 1178.65 443.163C1176.05 443.953 1173.69 445.454 1171.36 446.044ZM1163.38 448.227C1154.62 448.988 1150.06 445.164 1143.3 442.63C1137.08 440.298 1128.79 440.683 1122.17 438.341C1117.04 436.526 1109.24 432.285 1108.8 426.37C1108.55 422.912 1109.01 418.07 1110.69 415.627C1112.51 412.978 1113.54 410.339 1114.91 407.15C1116.53 403.4 1118.11 402.395 1120.98 400.252C1128.13 394.908 1126.9 391.966 1134.88 388.724C1138.1 387.418 1140.43 385.865 1143.47 384.61C1154.71 379.977 1153.26 382.239 1159.43 381.5C1161.19 381.288 1162.82 380.624 1164.42 380.173C1165.79 379.79 1168.49 379.36 1169.98 379.371C1171.9 379.388 1173.72 380.018 1175.6 380.078C1177.54 380.14 1179.07 379.449 1181.43 379.537C1183.35 379.608 1185.46 379.815 1187.47 379.946C1188.25 383.439 1185.67 387.067 1184.22 389.259C1175.78 402.038 1178 404.624 1175 418.22C1173.51 425.014 1172.69 426.409 1168.34 430.579C1165.06 433.727 1158.73 437.125 1158.97 440.33C1159.11 442.092 1159.51 439.926 1159.13 443.222C1159.01 444.274 1159.51 444.711 1160.05 445.205C1161.61 446.631 1162.74 445.858 1163.38 448.227ZM1208.08 451.297C1204.91 452.657 1203.59 450.338 1202.17 449.088C1198.9 446.195 1197.18 442.284 1191.73 441.25C1183.32 439.654 1191.62 433.046 1194.05 423.502C1195.32 418.546 1195.95 413.069 1196.76 407.907C1199.13 392.769 1201.43 399.817 1208.16 382.692C1209.7 378.794 1212.7 366.035 1213.78 360.876C1214.21 358.819 1213.93 358.799 1215.73 358.242C1216.91 357.878 1217.88 357.274 1219.13 357.218C1221.59 359.749 1220.81 358.18 1223.97 358.388C1224.14 363.405 1226.19 366.296 1228.44 368.92C1228.03 370.201 1226.7 372.664 1225.99 374.094C1225.16 375.777 1224.32 377.269 1223.48 378.949C1221.88 382.176 1220.02 385.444 1218.18 388.398C1213.15 396.46 1212.4 401.789 1209.17 408.872C1203.81 420.622 1193.1 431.495 1201.7 439.387C1202.43 440.051 1202.88 440.361 1203.8 441.105C1204.47 441.642 1205.09 442.183 1205.79 442.685C1207.09 443.637 1209.28 444.909 1209.47 446.636C1207.96 446.141 1207.5 445.052 1206.12 445.211C1206.32 446.698 1208.68 447.445 1209.34 449.293C1207.31 449.056 1206.51 446.866 1204.24 446.679C1204.26 448.635 1207.66 449.388 1208.08 451.297ZM1237.68 302.435C1234.99 301.112 1232.81 292.328 1234.55 288.885C1235.21 290.267 1237.54 300.471 1237.68 302.435ZM1161.03 439.956C1161.5 437.603 1165.74 435.25 1168.57 432.841C1179.95 423.153 1175.95 414.589 1179.9 401.45C1182.28 393.502 1187.5 390.696 1189.17 381.982C1190.99 372.457 1187.09 339.917 1186.66 327.992C1186.3 318.037 1188.41 312.072 1190.5 303.248C1191.08 300.818 1192.69 293.534 1193.76 292.277C1194.38 291.541 1194.86 291.256 1195.49 290.455C1196 289.8 1196.58 289.151 1197.09 288.498C1198.12 287.188 1198.98 285.82 1199.96 284.248C1201.01 282.567 1201.47 281.147 1203.14 280.31C1205.45 279.155 1211.54 278.507 1214.81 277.729C1216.31 277.37 1219.29 276.17 1220.32 276.123C1221.98 278.763 1221.88 280.359 1225.61 281.779C1229.37 283.208 1231.62 281.613 1234.62 280.945C1234.35 282.846 1234.49 284.168 1233.8 285.811C1231.27 291.838 1232.14 297.83 1235.47 303.176C1236.45 304.751 1237.09 304.685 1236.95 307.144C1236.78 310.364 1236.24 313.808 1235.7 316.907C1234.84 321.85 1234.56 325.987 1231.86 329.624C1230.81 331.027 1230.45 331.369 1228.2 331.244C1218.52 330.707 1214.87 336.081 1212.44 337.426C1210.9 336.186 1206.76 332.094 1205.83 332.079C1204.7 332.06 1205.61 332.03 1205.2 332.244C1205.07 333.453 1208.43 335.935 1209.78 337.509L1211.38 339.177C1210.66 340.659 1209.31 340.664 1209.39 343.106C1212.21 345.058 1213.47 344.508 1216.43 343.335C1214.77 346.337 1211.69 346.472 1209.95 351.179C1209.17 353.29 1209.29 353.388 1210.28 354.938C1208.94 358.385 1210.42 357.532 1212.22 358.497C1212.09 362.016 1209.72 368.561 1208.84 372.177C1207.07 379.427 1205.83 384.982 1202.21 391.237C1200.69 393.881 1199.59 394.447 1198.5 395.917C1194.95 400.691 1195.08 400.854 1192.09 406.281C1188.18 413.362 1182.86 419.946 1179.58 427.842C1178.76 429.808 1177.94 431.963 1176.92 433.817C1176.36 434.814 1175.72 435.577 1175.13 436.351C1174.5 437.181 1174.06 437.876 1173.49 438.781C1172.35 440.578 1171.33 442.215 1170.3 443.974C1169.1 446.014 1168.82 447.638 1165.68 447.686C1165.81 445.127 1169.54 443.039 1168.85 441.227C1167.06 441.036 1165.52 444.671 1164.42 446.019C1164.39 446.054 1164.3 446.205 1164.28 446.162C1164.26 446.12 1164.19 446.26 1164.13 446.303C1163.59 445.541 1163.56 445.249 1163.91 443.974C1164.3 442.549 1165.09 442.122 1165.82 441.262C1166.85 440.054 1166.26 438.839 1164.77 440.471C1163.59 441.772 1163.77 441.221 1162.36 443.151C1161.7 444.054 1162.16 443.995 1161.08 444.167C1159.51 441.403 1164.01 440.355 1164.36 438.299C1163.34 438.225 1163.14 438.343 1162.48 438.949C1161.73 439.65 1162.11 439.574 1161.03 439.956ZM1232.26 223.71C1234.08 224.648 1234.85 225.604 1234.24 228.287C1233.88 229.891 1232.48 231.021 1230.73 231.388L1232.26 223.71ZM1209.46 237.675C1210 238.806 1210.79 239.51 1211.51 240.451C1212.21 241.371 1212.47 242.678 1213.71 242.868L1213.99 241.817C1214 240.744 1213.33 240.075 1212.7 239.265C1212.12 238.511 1211.16 237.346 1210.91 236.187C1210.64 234.902 1211.03 232.59 1211.06 231.137C1211.08 229.526 1210.66 228.099 1210.77 226.672C1213.39 229.749 1217.97 231.855 1221.97 230C1225.25 228.485 1229.75 222.896 1228.7 220.938C1226.04 223.117 1225.94 225.68 1221.71 227.958C1217.75 230.091 1215 228.142 1212.23 225.505C1207.31 220.84 1204.15 213.39 1203.79 206.478C1206.57 204.694 1210.3 204.934 1210.66 208.76C1209.01 208.678 1208.98 208.023 1207.15 208.823C1206.75 208.998 1206.12 209.415 1205.86 209.495C1205.37 209.648 1205 209.406 1204.5 209.783C1204.53 210.954 1205.47 212.052 1206.33 212.298C1207.26 211.461 1206.6 211.105 1207.86 210.516C1208.31 211.499 1207.82 211.522 1208.51 212.44C1210.07 212.522 1209.56 211.476 1210.66 210.786C1212.44 211.902 1211.64 216.847 1213.15 218.03C1214.99 218.637 1217.19 217.529 1217.77 216.393C1217.26 216.041 1216.94 216.182 1216.82 216.189L1214.67 216.551C1213.31 216.474 1214.17 216.596 1213.83 216.243C1213.14 215.56 1212.29 208.142 1211.68 206.478C1209.93 201.675 1203.95 205.149 1203.56 205.232C1202.21 200.124 1205.6 195.049 1210.39 195.125C1212.22 195.155 1214.3 194.991 1216.08 195.206C1219.55 195.624 1222.04 197.314 1223.73 199.24C1230.03 206.38 1227.02 210.44 1229.27 217.09C1229.77 218.555 1230.85 219.997 1230.8 221.472C1230.6 226.685 1224.74 242.452 1225.23 244.781C1226.43 244.824 1226.56 243.865 1227.08 242.717C1227.53 241.719 1227.87 240.965 1228.45 240.131C1229.11 240.7 1230.01 244.091 1232.6 246.558C1236.52 250.286 1240.37 252.542 1242.86 257.655C1243.92 259.836 1244.88 262.971 1245.42 265.505C1245.9 267.712 1246.79 280.02 1247.4 284.583C1248.21 290.695 1250.08 296.51 1250.63 302.514C1251.57 312.831 1249.79 320.064 1244.72 328.244C1243.38 330.412 1242.2 332.632 1240.86 334.817C1238.28 339.046 1234.35 342.441 1231.29 346.342C1230.51 347.33 1230.1 348.711 1229.06 349.44C1223.81 353.111 1226.33 357.829 1220.75 356.488C1221.01 355.28 1221.17 355.643 1222.1 354.939C1223.18 354.119 1225.96 352.069 1225.73 350.654C1225.21 350.297 1225.94 350.436 1225.2 350.495C1224.72 350.533 1224.2 351.334 1223.27 352.049C1221.06 353.729 1218.36 355.898 1215.42 356.546C1215.66 356.239 1215.55 356.372 1215.84 356.083L1222.89 350.651C1223.5 350.106 1224.19 349.527 1224.11 348.605C1223.97 347.042 1223.33 347.977 1222.47 348.696L1217.99 352.363C1217.03 353.138 1216.05 353.861 1214.92 354.629C1213.97 355.279 1212.74 356.467 1211.49 356.39C1211.52 355.182 1213.08 353.983 1213.9 353.357L1219.87 348.392C1220.77 347.706 1222.17 346.801 1222.5 345.787C1222.29 345.525 1222.19 345.373 1222 345.136C1219.72 345.452 1213.9 352.587 1211.41 353.197C1211.09 349.446 1215.17 347.036 1216.79 345.315C1219.24 342.702 1219.58 340.516 1221.22 339.835C1222.41 339.345 1223.25 338.085 1221.62 338.021C1220.09 337.96 1218.33 339.564 1217.23 340.415C1215.42 341.824 1214.55 342.576 1211.45 342.417C1211.54 339.818 1218.6 334.371 1224.07 333.499C1229.04 332.708 1233.66 335.433 1236.28 324.083C1237.16 320.257 1238.05 316.23 1238.57 312.175C1239.13 307.849 1239.7 303.247 1238.99 298.911C1238.36 295.016 1236.79 291.628 1236.27 287.412C1235.32 279.757 1237.25 281.178 1238.89 275.905C1239.49 273.982 1239.91 271.75 1239.5 269.671C1239.23 268.28 1238.71 265.139 1237.35 264.716C1236.57 265.635 1237.47 267.525 1237.64 268.765C1237.85 270.227 1237.96 271.467 1237.77 272.974C1237.42 275.64 1236.41 278.185 1234.56 279.191C1232.57 280.276 1229.16 280.913 1226.64 280.219C1225.02 279.773 1222.57 277.106 1222.36 275.37C1223.71 274.254 1224.95 273.889 1225.95 272.614C1226.89 271.396 1226.27 271.207 1226.7 270.024C1226.98 269.25 1227.58 269.032 1228.13 268.437C1229.12 267.359 1228.63 267.273 1228.49 265.897C1228.38 264.835 1228.9 264.78 1229.36 263.807C1230.39 261.637 1228.47 261.126 1227.32 260.457C1226.88 258.88 1226.74 257.716 1225.1 257.357C1220.76 256.408 1214.46 260.38 1212.87 260.839C1212.67 259.182 1213.01 258.527 1212.55 256.941C1210.24 256.104 1207.37 258.35 1205.75 259.527C1203.59 261.087 1201.82 262.218 1199.99 263.931C1197.29 266.447 1191.46 273.009 1189.71 273.897C1190.05 270.844 1193.37 264.831 1193.16 263.171C1191.11 263.61 1189.74 268.197 1189.11 270.093C1188.03 273.355 1187.99 275.738 1185.18 277.099C1181.37 278.95 1173.4 283.002 1172.97 286.631C1174.01 286.357 1174.91 285.371 1175.59 284.789C1180.21 280.813 1184.78 279.714 1188.5 277.109C1190.43 275.757 1191.64 274.912 1193.03 273.502L1197.2 269.283C1198.61 267.862 1199.83 266.657 1201.28 265.233C1202.3 264.227 1209.52 258.727 1211.22 258.498C1211.26 263.252 1205.83 264.151 1205.11 266.727C1206.11 267.151 1208.88 265.238 1209.87 264.663C1211.58 263.668 1212.87 262.942 1214.59 262.016C1216.36 261.058 1217.75 260.477 1219.86 259.923C1221.82 259.408 1224.36 258.356 1225.49 260.117C1224.33 262.201 1215.19 262.698 1214.54 265.676C1215.85 266.248 1222.94 262.913 1225.41 262.61L1226.62 262.649C1226.68 262.666 1226.77 262.712 1226.82 262.728L1227.18 262.935C1228.5 265.408 1216.91 266.009 1215.79 269.047C1217.72 270.009 1224.16 265.782 1226.69 266.727C1226.87 270.186 1219.17 269.976 1216.84 271.889C1216.41 272.249 1216.79 271.796 1216.48 272.319C1217.23 272.826 1217.75 272.583 1218.78 272.346C1220.73 271.897 1223.28 270.891 1225.13 270.841C1224.62 272.545 1220.15 274.385 1217.94 275.025C1214.98 275.877 1211.43 276.293 1208.26 276.769C1202.43 277.647 1200.78 279.37 1198.07 283.632C1196.57 285.995 1194.74 287.85 1193.03 290.029C1192.07 291.258 1191.52 291.91 1190.3 292.881C1189.57 293.453 1189.4 293.604 1188.66 294.299L1183.83 297.861C1180.1 300.258 1169.74 304.544 1168.93 296.984C1167.86 286.888 1175.59 269.806 1178.86 261.365C1181.75 253.906 1185.03 244.657 1192.24 240.683C1192.7 240.428 1200.45 238.629 1201.14 238.615C1201.77 241.886 1202.27 243.396 1204.18 245.242C1205.48 246.496 1210.19 248.243 1211.36 246.136C1210.17 244.158 1205.05 246.624 1203.33 240.007C1202.39 236.426 1204.17 231.763 1205.69 229.012L1209.64 229.041C1209.72 231.482 1208.62 235.941 1209.46 237.675ZM1203.04 218.172C1201.84 217.079 1201.6 217.477 1199.97 215.896C1199.16 215.114 1198.45 214.199 1198.04 212.72C1197.46 210.647 1198.24 210.126 1199.24 209.044C1201.42 206.683 1196.44 198.943 1206.84 191.641C1207.22 192.19 1207.29 193.364 1207.39 194.094C1197.5 198.348 1202.08 212.031 1205.52 219.241C1206.71 221.739 1209.81 225.547 1209.94 226.561C1208.91 227.215 1207.23 227.211 1205.95 226.912C1204.83 226.648 1204.01 225.887 1203.44 225.135C1201.1 222.014 1203.05 220.767 1203.04 218.172ZM1200.91 218.765C1201.13 220.854 1200.08 221.859 1201.09 224.674C1201.78 226.595 1202.87 227.24 1204.13 228.341C1203.72 229.675 1202.91 230.661 1202.44 232.083C1202.06 233.231 1201.67 235.106 1201.12 236.104C1195.6 237.92 1193.38 236.496 1188.78 240.275C1180.31 247.221 1176 263.084 1172.03 273.35C1169.88 278.91 1164.5 294.662 1168.02 300.463C1170.39 304.37 1175.87 303.733 1180.25 301.905C1183.16 300.689 1187.01 298.66 1189.17 296.337C1189.72 295.744 1189.62 295.666 1190.52 295.427C1189.71 300.677 1187.15 308.095 1185.97 313.752C1183.78 324.164 1184.94 334.803 1186.11 345.372C1186.5 348.826 1186.49 352.95 1186.58 356.466C1186.77 363.632 1187.66 371.011 1187.88 378.161C1185.55 378.278 1183.53 377.789 1181.16 377.811C1178.98 377.831 1177.09 378.429 1174.97 378.155C1170.3 377.554 1167.45 377.333 1163.04 378.745C1158.11 380.323 1155.34 379.184 1150.81 380.269C1147.12 381.151 1143.56 382.235 1140.43 383.852C1138.95 384.619 1137.47 385.561 1135.96 386.24C1133.05 387.55 1129.15 388.69 1127.04 391.059C1124.76 393.619 1123.23 396.269 1120.36 398.352C1114.12 402.872 1114.85 403.256 1111.58 410.421C1109.95 413.989 1107.87 415.311 1107.38 420.01C1106.89 424.626 1106.45 427.779 1108.91 431.26C1114.24 438.822 1122.43 441.11 1132.6 442.212C1136.41 442.624 1144.75 455.686 1168.46 454.856C1172.7 454.708 1177.03 453.959 1181.16 453.888C1185.67 453.81 1189.97 453.834 1194.39 454.295C1203.36 455.231 1209.65 458.012 1219.2 455.508C1227.84 453.242 1226.18 458.25 1241.67 450.78C1244.82 449.264 1247.44 447.636 1250.92 446.304C1255.96 444.375 1257.81 445.693 1263.01 445.968C1271.59 446.42 1277.91 441.606 1278.45 433.749C1278.78 429.034 1277.17 426.293 1275.12 423.432C1272.41 419.66 1275.45 416.422 1267.88 409.833C1266.65 408.762 1265.76 407.756 1264.77 406.075C1261.13 399.902 1258.31 400.287 1253.25 396.742C1251.82 395.745 1251.01 394.746 1249.54 393.582C1248.31 392.596 1241.71 388.926 1239.93 390.274C1240.15 391.905 1245.33 392.724 1249.85 396.333C1253.75 399.457 1258.46 400.586 1261.51 404.747C1262.15 405.62 1262.61 406.3 1263.15 407.173C1265.33 410.69 1269.83 414.106 1270.68 415.917C1271.46 417.577 1271.76 420.389 1272.42 422.303C1274 426.847 1277.45 427.02 1276.67 433.958C1276.14 438.631 1273.38 441.865 1269.83 443.341C1265.56 445.111 1260.1 443.709 1255.59 442.925C1245.46 441.163 1238.73 447.874 1228.7 447.808C1223.12 447.772 1219.64 446.42 1214.53 445.61C1210.05 444.901 1211.83 445.366 1209.17 443.107C1207.75 441.901 1205.94 440.796 1204.52 439.618C1203.8 439.027 1201.09 436.097 1200.64 435.362C1199.5 433.544 1200.12 430.595 1200.77 428.688C1201.85 425.558 1204.63 421.109 1206.32 418.219C1213.82 405.402 1212.05 404.31 1216.42 395.783C1218.18 392.338 1220.79 388.883 1222.25 385.384C1224.31 385.737 1227.21 386.388 1229.31 386.869C1230.87 387.229 1234.93 389.001 1235.74 388.916C1235.6 386.287 1224.74 384.619 1223.39 383.958C1223.55 382.792 1225.91 378.452 1226.58 376.96C1227.67 374.54 1228.49 372.143 1229.48 369.755C1230.52 370.081 1232.76 371.209 1233.68 371.82C1236.29 373.55 1237.7 376.772 1238.15 380.027C1238.52 382.746 1237.38 383.928 1237.51 385.027C1240.71 385.757 1241.18 374.292 1234.43 370.303C1229.49 367.384 1224.22 363.635 1226.12 356.908C1228.01 350.22 1231.48 350.25 1233.26 349.135C1233.09 347.796 1232.96 348.829 1232.79 347.533C1233.19 347.112 1233.45 346.821 1233.84 346.345L1239.38 339.935C1242.7 336.383 1246.41 329.7 1248.67 325.326C1253.76 315.492 1253.56 304.073 1250.73 292.722C1249.58 288.122 1248.55 281.139 1248.1 276.359C1247.35 268.312 1248.43 268.108 1245.87 259.478C1244.9 256.208 1243.77 254.026 1241.81 251.837L1238 248.282C1235.33 246.127 1230.64 242.028 1230.16 238.065C1230.05 237.185 1230.13 238.017 1230.14 237.699C1230.2 236.672 1232.18 236.988 1233.04 236.735C1234.04 236.44 1234.57 235.998 1235.57 235.962C1236.57 237.636 1236.97 239.208 1238.44 240.718C1241.74 244.089 1248.28 245.79 1252.26 250.028C1258.86 257.037 1259 264.632 1258.48 274.09C1257.71 287.83 1263.32 284.643 1264.71 290.729C1265.27 293.193 1264.51 295.599 1264.31 297.994C1263.74 304.723 1264.97 304.69 1268.17 309.624C1271.56 314.856 1267.71 319.928 1268.36 321.923C1271.23 321.609 1271.95 313.31 1270.45 310.146C1268.41 305.833 1265.39 305.8 1266.22 298.887C1267.97 284.317 1262.92 287.438 1260.83 281.384C1258.47 274.56 1265.22 260.243 1254.01 248.796C1248.7 243.386 1235.74 239.423 1238.26 233.679C1237.72 232.958 1237.77 233.486 1237.3 232.714C1236.77 231.825 1237.47 231.835 1236.33 231.419C1234.84 233.104 1236.95 233.237 1234.07 234.466C1232.8 235.007 1231.35 235.573 1229.76 235.378L1229.78 233.285C1231.53 232.636 1232.85 232.788 1234.04 231.642C1235.25 230.481 1235.33 228.818 1236.08 227.659C1239.82 230.195 1242.79 232.904 1249.3 232.81C1251.61 232.778 1256.13 231.793 1257.84 232.767C1261.96 235.122 1259.14 237.698 1259.17 238.509C1261.04 243.109 1267.37 240.866 1267.57 238.535C1264.71 238.173 1265.57 240.579 1261.22 238.778C1261.14 237.141 1262.18 236.431 1261.58 234.357C1261.26 233.262 1260.06 232.092 1259.3 231.545C1255.79 229.01 1249.9 232.919 1241.97 228.798C1240 227.773 1237.08 226.528 1235.94 224.627C1239.32 224.989 1241.2 225.246 1244.84 224.593C1246.23 224.342 1247.26 223.629 1248.69 224.375C1249.66 224.883 1250.62 226.371 1251.84 225.783C1252.23 224.734 1250.38 223.342 1249.63 222.921C1244.09 219.835 1235.23 229.371 1230.58 216.039C1229.88 214.041 1229.59 208.486 1229.22 205.902C1232.75 207.694 1234.23 205.933 1235.42 207.639C1235.98 208.46 1236.15 209.348 1236.81 210.313C1237.4 211.179 1237.89 211.61 1238.93 212.272C1243.93 215.452 1247.63 211.482 1252.09 211.27C1256.54 211.058 1258.29 215.444 1264.03 215.391C1268.13 215.354 1270.86 214.865 1273.17 218.452C1273.79 219.413 1273.97 220.366 1275.23 220.391C1275.8 219.054 1274.33 217.074 1273.72 216.382C1268.82 210.852 1265.15 215.346 1259.89 212.41C1257.24 210.934 1254.69 208.704 1250.65 209.601C1247.45 210.312 1244.01 212.67 1240.54 211.164C1236.49 209.406 1237.93 205.781 1234.61 204.899C1231.22 204 1230.2 205.542 1226.59 200.461C1224.62 197.691 1223.76 196.28 1220.1 194.742C1215.36 192.754 1212.78 194.235 1209.12 193.26L1208.88 190.821C1212.08 188.543 1216.73 190.954 1220.45 190.092C1227.26 188.517 1230.34 182.296 1239.16 188.398C1241.22 189.822 1244.57 191.987 1247.43 191.113C1248.37 190.828 1248.14 190.879 1248.3 190.209C1247.52 189.843 1244.87 189.554 1243.39 188.991C1241.74 188.36 1240.7 187.612 1239.54 186.738C1232.48 181.427 1227.7 184.959 1221.12 187.973C1218.68 189.09 1213.86 186.916 1209.99 188.276C1204.65 190.153 1199.87 195.283 1198.54 201.508C1198.13 203.417 1198.59 205.86 1198.38 206.959C1198.21 207.892 1196.28 208.878 1196.12 211.064C1196.01 212.667 1196.84 214.537 1197.57 215.738C1198.64 217.488 1199.06 217.524 1200.91 218.765Z" fill="#0E622A"/>
<path fill-rule="evenodd" clip-rule="evenodd" d="M1139.08 434.904C1141.52 436.465 1142.08 436.159 1142.27 437.59C1139.68 437.361 1122.4 427.644 1118.41 425.321C1117.26 424.65 1110.95 421.37 1111.76 420.436C1112.15 419.988 1112.18 420.083 1112.97 420.23L1135.22 432.649C1136.54 433.438 1137.78 434.072 1139.08 434.904ZM1137.97 424.057C1138.71 424.678 1139.36 425.161 1140.03 425.828L1143.88 429.343C1145.28 430.46 1148.9 433.366 1148.81 435.203C1147.67 435.434 1147 434.568 1146.36 433.986C1145.58 433.288 1144.97 432.939 1144.24 432.276C1143.38 431.49 1143.35 431.152 1142.32 430.39C1141.67 429.909 1140.96 429.312 1140.34 428.809L1130.62 419.721C1129.15 418.578 1126.66 415.535 1125.16 413.995C1123.91 412.709 1117.26 407.679 1118.63 406.305C1119.33 405.6 1120.31 407.045 1120.74 407.488L1137.97 424.057ZM1151.29 425.748C1152.45 427.389 1154.23 429.118 1153.86 430.316C1152.25 430.297 1150.84 427.899 1150.01 426.767C1144.53 419.261 1139.84 412.124 1134.7 404.452C1133.69 402.945 1128.99 396.763 1129.62 395.18C1131.56 394.738 1132.45 397.722 1133.24 399.053C1136.35 404.273 1141.68 411.764 1145.21 417.086L1151.29 425.748ZM1174.56 409.388C1173.11 406.636 1174.49 399.324 1174.63 395.868C1174.8 391.755 1174.53 386.087 1175.48 382.359C1176.56 382.652 1176.32 382.761 1176.51 384.257C1177.06 388.566 1176.3 394.821 1175.93 399.016C1175.76 400.868 1175.64 402.643 1175.46 404.472C1175.46 404.567 1174.95 410.002 1174.67 409.236C1174.66 409.2 1174.6 409.341 1174.56 409.388ZM1163.19 415.99C1162.26 415.554 1162.23 414.494 1162.04 412.391C1161.92 410.988 1161.77 409.667 1161.64 408.295C1161.39 405.592 1161.11 402.924 1160.8 400.229C1160.42 396.858 1159.03 386.29 1159.8 383.714C1160.56 383.973 1160.47 383.956 1160.77 384.982C1162.26 390.042 1163.73 413.071 1163.19 415.99ZM1147 391.636C1149.98 400.564 1153.2 408.829 1156.39 417.852C1157.08 419.792 1160.11 426.775 1159.3 428.651C1158.57 428.333 1158.33 427.34 1157.91 426.243L1144.02 388.42C1143.86 387.525 1143.66 387.425 1144.38 387.101C1145.65 386.52 1146.66 390.628 1147 391.636ZM1163.38 448.227C1162.74 445.858 1161.61 446.631 1160.05 445.205C1159.51 444.711 1159.01 444.274 1159.13 443.222C1159.51 439.926 1159.11 442.092 1158.97 440.33C1158.73 437.125 1165.06 433.727 1168.34 430.579C1172.69 426.409 1173.51 425.014 1175.01 418.22C1178 404.624 1175.78 402.038 1184.22 389.259C1185.67 387.067 1188.25 383.439 1187.47 379.945C1185.46 379.815 1183.35 379.608 1181.43 379.537C1179.08 379.449 1177.54 380.14 1175.6 380.078C1173.72 380.018 1171.9 379.388 1169.98 379.371C1168.49 379.36 1165.79 379.79 1164.42 380.173C1162.82 380.624 1161.19 381.288 1159.43 381.5C1153.26 382.239 1154.71 379.977 1143.47 384.61C1140.43 385.865 1138.1 387.418 1134.88 388.724C1126.9 391.966 1128.13 394.908 1120.98 400.252C1118.11 402.395 1116.53 403.4 1114.92 407.15C1113.54 410.339 1112.51 412.978 1110.69 415.627C1109.01 418.07 1108.55 422.912 1108.8 426.37C1109.24 432.285 1117.04 436.526 1122.17 438.341C1128.79 440.683 1137.08 440.298 1143.3 442.63C1150.06 445.164 1154.62 448.988 1163.38 448.227Z" fill="white"/>
<path fill-rule="evenodd" clip-rule="evenodd" d="M1211.39 391.812C1210.05 392.249 1208.79 391.786 1209.01 390.442C1209.74 389.906 1209.86 389.86 1210.62 390.29C1211.54 390.804 1211.42 390.995 1211.39 391.812ZM1208.08 451.297C1207.66 449.389 1204.26 448.636 1204.24 446.679C1206.51 446.866 1207.31 449.056 1209.34 449.294C1208.68 447.445 1206.32 446.698 1206.12 445.212C1207.5 445.052 1207.96 446.141 1209.47 446.636C1209.28 444.909 1207.1 443.638 1205.79 442.685C1205.09 442.183 1204.47 441.642 1203.8 441.106C1202.88 440.361 1202.43 440.051 1201.7 439.388C1193.1 431.495 1203.81 420.622 1209.17 408.873C1212.4 401.79 1213.15 396.46 1218.18 388.398C1220.02 385.444 1221.88 382.177 1223.48 378.95C1224.32 377.269 1225.16 375.777 1225.99 374.095C1226.7 372.664 1228.03 370.201 1228.44 368.921C1226.19 366.296 1224.14 363.406 1223.97 358.388C1220.81 358.181 1221.59 359.749 1219.13 357.218C1217.88 357.274 1216.91 357.878 1215.73 358.242C1213.93 358.799 1214.21 358.819 1213.78 360.876C1212.7 366.035 1209.7 378.794 1208.16 382.693C1201.43 399.817 1199.13 392.77 1196.76 407.907C1195.95 413.069 1195.32 418.546 1194.05 423.502C1191.62 433.046 1183.32 439.654 1191.73 441.25C1197.18 442.285 1198.9 446.196 1202.17 449.088C1203.59 450.338 1204.91 452.658 1208.08 451.297Z" fill="white"/>
<path fill-rule="evenodd" clip-rule="evenodd" d="M1171.36 446.043C1173.68 445.454 1176.05 443.953 1178.65 443.163C1181.82 442.198 1183.52 441.91 1186.94 441.283C1186.66 439.286 1185.41 439.52 1186.31 436.601C1187.37 433.184 1190.48 429.655 1192.25 423.742C1192.84 421.787 1196.12 403.661 1195.91 403.037C1194.95 403.873 1193.71 407.148 1192.99 408.446C1190.27 413.329 1186.57 418.627 1183.46 424.085C1181.51 427.491 1179.93 432.035 1177.85 435.253C1175.8 438.417 1173.04 441.415 1171.36 446.043Z" fill="white"/>
<path fill-rule="evenodd" clip-rule="evenodd" d="M1202.08 451.822L1197 446.127C1189.96 439.255 1178.34 446.126 1172.12 448.102C1161.24 451.559 1156.4 450.939 1145.82 445.96C1143.26 444.755 1141.03 443.192 1137.79 442.808C1139.8 445.756 1146.62 448.892 1150.93 450.489C1156.01 452.367 1163.26 453.595 1168.98 452.297C1174.27 451.096 1177.18 448.877 1185.44 447.946C1193.04 447.088 1198.52 451.057 1202.08 451.822Z" fill="white"/>
<path fill-rule="evenodd" clip-rule="evenodd" d="M1211.16 446.501C1210.4 453.502 1207.9 452.333 1207.38 454.026C1210.87 454.682 1214.97 454.097 1218.42 453.563C1218.15 453.256 1217.65 453.101 1217.49 452.297C1221.29 451.907 1226.45 454.89 1234.61 452.095C1239.28 450.493 1243.47 447.624 1247.56 445.69L1246.58 445.543C1246.34 445.552 1245.6 445.691 1245.31 445.755C1240.92 446.707 1235.53 449.291 1229.93 449.972C1222.81 450.839 1217.38 447.669 1211.16 446.501Z" fill="white"/>
<path fill-rule="evenodd" clip-rule="evenodd" d="M1203.04 218.172C1203.05 220.767 1201.1 222.014 1203.44 225.135C1204.01 225.887 1204.83 226.648 1205.95 226.912C1207.23 227.211 1208.91 227.215 1209.94 226.561C1209.81 225.547 1206.71 221.739 1205.52 219.241C1202.08 212.031 1197.5 198.347 1207.39 194.094C1207.29 193.364 1207.22 192.189 1206.84 191.64C1196.44 198.943 1201.42 206.682 1199.24 209.044C1198.24 210.126 1197.46 210.647 1198.04 212.719C1198.45 214.199 1199.16 215.113 1199.97 215.896C1201.6 217.477 1201.84 217.079 1203.04 218.172Z" fill="white"/>
<path fill-rule="evenodd" clip-rule="evenodd" d="M1244.1 336.031L1250.86 332.35C1252.82 331.037 1254.96 329.198 1256.37 327.696C1263.42 320.181 1265.13 303.336 1260.69 296.008C1259.36 293.812 1257.69 292.37 1256.61 289.926C1255.51 287.446 1256.48 282.507 1255.4 280.899C1254.67 281.29 1254.72 281.329 1254.5 282.38C1254.36 283.023 1254.24 283.871 1254.2 284.572C1253.87 290.092 1255.89 292.125 1258.35 295.553C1261.45 299.868 1261.69 307.071 1260.92 312.455C1260.24 317.205 1258.36 323.178 1255.02 326.603C1254.46 327.178 1254.43 327.035 1253.86 327.722C1252.77 329.035 1251.18 330.217 1249.69 331.182C1247.19 332.801 1244.62 333.029 1244.1 336.031Z" fill="#0E622A"/>
<path fill-rule="evenodd" clip-rule="evenodd" d="M1235.22 351.253C1236.62 351.04 1236.63 350.47 1237.92 350.036C1237.02 356.66 1237.91 358.747 1243.53 361.215C1246.54 362.537 1248.24 366.161 1248.34 369.423C1248.38 370.718 1247.64 372.507 1248.28 373.489C1250.09 372.893 1250.03 368.952 1249.73 366.958C1249.39 364.618 1248.3 362.579 1247.15 361.404C1244.06 358.251 1239.05 359.491 1239.27 352.646C1239.37 349.284 1239.93 348.472 1241.97 347.097C1246.01 344.373 1256.54 340.6 1255.25 336.005C1254.29 336.196 1253.91 337.854 1250.9 340.017C1246.96 342.846 1235.54 347.202 1235.22 351.253Z" fill="#0E622A"/>
<path fill-rule="evenodd" clip-rule="evenodd" d="M1217.02 437.311C1219.2 437.354 1230.4 428.948 1233.65 426.745C1235.38 425.569 1237.23 424.247 1239.05 422.988C1244.06 419.537 1252.8 413.517 1257.64 409.799C1258.95 408.793 1259.94 408.97 1259.68 407.325C1258.24 406.755 1256.12 408.859 1254.05 410.277C1252.23 411.521 1250.48 412.801 1248.7 414.085L1237.93 421.613C1234.2 424.059 1230.79 426.735 1227.14 429.129C1225.35 430.305 1223.52 431.745 1221.82 432.963L1218 436.003C1217.53 436.477 1217.21 436.697 1217.02 437.311Z" fill="#0E622A"/>
<path fill-rule="evenodd" clip-rule="evenodd" d="M1223.1 440.608C1224.35 441.207 1232.74 436.848 1234.34 436.072L1261.98 423.045C1263.51 422.347 1266.78 421.411 1266.9 419.381C1265.3 419.179 1257.66 423.194 1255.64 424.068C1249.97 426.512 1233.7 434.245 1228.17 437.276L1223.67 439.886C1223.02 440.412 1223.39 439.856 1223.1 440.608Z" fill="#0E622A"/>
<path fill-rule="evenodd" clip-rule="evenodd" d="M1213.04 432.867C1215.37 432.476 1220.05 426.026 1221.33 424.588L1225.37 420.24C1226.62 418.617 1227.98 417.413 1229.31 415.798L1237.1 406.799C1238.33 405.526 1244.47 399.354 1244.94 397.602C1243.61 396.715 1243.02 397.974 1240.54 400.583L1232.39 409.469C1231.81 410.107 1230.98 411.069 1230.42 411.824C1229.97 412.437 1230.02 412.297 1229.47 412.899C1229.01 413.408 1228.92 413.67 1228.44 414.168L1223.5 419.632C1223.07 420.107 1222.91 420.439 1222.47 420.906C1222.04 421.362 1221.86 421.441 1221.47 421.928L1214.46 430.182C1213.78 431.022 1212.86 431.75 1213.04 432.867Z" fill="#0E622A"/>
<path fill-rule="evenodd" clip-rule="evenodd" d="M1225.53 195.802C1226.16 197.569 1229.27 197.421 1230.76 196.846C1232.69 196.102 1233.79 195.051 1236.33 195.06C1241.33 195.077 1242.18 198.835 1246.3 199.851C1251.17 201.051 1254.24 195.674 1255.73 194.606C1258.5 192.609 1261.16 193.219 1263.41 195.666C1264.31 196.648 1264.19 197.185 1265.6 197.382C1265.86 194.381 1261.94 190.822 1257.04 192.35C1253.13 193.571 1251.59 197.779 1248.01 197.763C1243.93 197.744 1240.08 190.956 1231.75 194.526C1227.97 196.148 1227.78 195.002 1226.18 195.477L1225.53 195.802Z" fill="#0E622A"/>
<path fill-rule="evenodd" clip-rule="evenodd" d="M1148.81 435.203C1148.9 433.366 1145.28 430.46 1143.88 429.343L1140.03 425.828C1139.36 425.161 1138.71 424.678 1137.97 424.057L1120.74 407.488C1120.31 407.045 1119.33 405.6 1118.63 406.305C1117.26 407.679 1123.91 412.709 1125.16 413.995C1126.66 415.536 1129.15 418.578 1130.62 419.721L1140.34 428.809C1140.96 429.312 1141.67 429.909 1142.32 430.39C1143.35 431.152 1143.38 431.49 1144.24 432.276C1144.97 432.939 1145.58 433.288 1146.36 433.986C1147 434.568 1147.67 435.435 1148.81 435.203Z" fill="#0E622A"/>
<path fill-rule="evenodd" clip-rule="evenodd" d="M1285.8 246.036C1285.5 243.81 1284.87 245.646 1282.18 242.23C1281.58 241.47 1281.13 241.119 1280.48 240.383C1280 239.848 1279.33 239.117 1278.64 238.648C1271.07 233.521 1265.38 247.509 1258.59 244.464C1256.4 243.483 1254.58 240.715 1253.96 238.414C1253.73 237.581 1253.69 236.354 1253.11 235.765C1249.77 237.599 1256.08 253.213 1267.46 243.703C1270.86 240.859 1273.42 237.486 1277.13 239.657C1279.99 241.333 1281.35 246.723 1285.8 246.036Z" fill="#0E622A"/>
<path fill-rule="evenodd" clip-rule="evenodd" d="M1234.87 392.239C1237.98 392.261 1241.11 387.001 1242.45 384.438C1244.61 380.301 1244.78 376.297 1242.73 371.929C1238.78 363.49 1231.13 367.702 1230.27 356.946C1230.19 355.844 1230.64 354.214 1230.23 353.431C1228.51 354.039 1228.64 357.464 1228.99 359.215C1229.45 361.536 1230.18 363.144 1231.42 364.424C1234.42 367.52 1237.49 366.836 1240.36 370.992C1242.79 374.505 1243.33 378.903 1241.27 383.268C1238.54 389.061 1234.62 390.575 1234.87 392.239Z" fill="#0E622A"/>
<path fill-rule="evenodd" clip-rule="evenodd" d="M1153.86 430.315C1154.23 429.118 1152.45 427.389 1151.29 425.747L1145.21 417.086C1141.68 411.764 1136.35 404.272 1133.24 399.053C1132.45 397.722 1131.56 394.738 1129.62 395.18C1128.99 396.763 1133.69 402.945 1134.7 404.452C1139.84 412.124 1144.53 419.261 1150.01 426.767C1150.84 427.899 1152.25 430.297 1153.86 430.315Z" fill="#0E622A"/>
<path fill-rule="evenodd" clip-rule="evenodd" d="M1261.79 185.968C1261.41 185.013 1261 184.808 1259.81 184.542C1258.84 184.325 1257.66 184.291 1256.67 184.371C1254.51 184.543 1253.28 185.766 1252.3 186.861C1250.36 189.033 1248.83 193.721 1245.49 193.559C1243.73 193.474 1242.49 191.863 1241.27 191.121C1234.18 186.826 1226.38 192.056 1226.05 193.187C1225.27 195.876 1230.2 190.905 1235.57 191.095C1240.64 191.275 1240.95 194.822 1244.85 195.392C1250.78 196.257 1251.53 188.023 1255.66 186.14C1258.43 184.883 1259.47 186.125 1261.79 185.968Z" fill="#0E622A"/>
<path fill-rule="evenodd" clip-rule="evenodd" d="M1159.3 428.651C1160.11 426.775 1157.08 419.793 1156.39 417.853C1153.2 408.829 1149.98 400.565 1147 391.636C1146.66 390.628 1145.65 386.521 1144.38 387.101C1143.66 387.425 1143.86 387.525 1144.02 388.42L1157.91 426.243C1158.33 427.34 1158.57 428.333 1159.3 428.651Z" fill="#0E622A"/>
<path fill-rule="evenodd" clip-rule="evenodd" d="M1235.47 442.733C1238.06 442.609 1250.86 438.424 1254.9 437.309L1269.45 433.552C1270.39 433.279 1274.28 432.683 1273.18 431.45C1272.36 430.528 1264.99 433.047 1263.43 433.416C1260.07 434.21 1256.83 435.019 1253.5 435.918C1250.27 436.79 1247.28 437.718 1244.22 438.834C1242.74 439.374 1236.41 441.256 1235.47 442.733Z" fill="#0E622A"/>
<path fill-rule="evenodd" clip-rule="evenodd" d="M1211.79 421.464C1213.08 421.304 1213.15 421.123 1213.68 420.241C1214.05 419.626 1214.32 419.162 1214.69 418.459L1224.86 399.894C1225.46 398.815 1229.19 392.996 1228.48 392.272C1227.11 390.874 1220.26 404.44 1219.53 405.761C1217.87 408.764 1212.34 418.577 1211.79 421.464Z" fill="#0E622A"/>
<path fill-rule="evenodd" clip-rule="evenodd" d="M1142.26 437.589C1142.08 436.158 1141.52 436.465 1139.08 434.903C1137.78 434.071 1136.54 433.437 1135.22 432.649L1112.97 420.229C1112.18 420.082 1112.15 419.988 1111.76 420.435C1110.95 421.37 1117.26 424.65 1118.41 425.32C1122.4 427.644 1139.68 437.361 1142.26 437.589Z" fill="#0E622A"/>
<path fill-rule="evenodd" clip-rule="evenodd" d="M1230.98 200.585C1232.08 203.383 1236.45 200.28 1238.8 200.711C1240.99 201.113 1243.49 203.728 1244.93 204.75C1249.82 208.225 1252.85 204.106 1258.06 209.16C1258.6 209.683 1258.68 210.058 1259.66 209.986C1260.05 207.307 1256.88 205.496 1254.31 204.996C1250.56 204.266 1249.06 205.083 1245.94 202.975C1242.55 200.688 1240.27 197.285 1235.24 199.54C1232.93 200.575 1233.69 200.374 1230.98 200.585Z" fill="#0E622A"/>
<path fill-rule="evenodd" clip-rule="evenodd" d="M1163.19 415.99C1163.73 413.071 1162.26 390.042 1160.77 384.982C1160.47 383.956 1160.56 383.973 1159.8 383.715C1159.02 386.291 1160.41 396.858 1160.8 400.229C1161.11 402.925 1161.39 405.593 1161.64 408.295C1161.77 409.668 1161.92 410.989 1162.04 412.391C1162.23 414.494 1162.26 415.554 1163.19 415.99Z" fill="#0E622A"/>
<path fill-rule="evenodd" clip-rule="evenodd" d="M1234.48 349.177C1235.34 349.29 1235.29 348.863 1235.84 348.09C1238.82 343.852 1243.16 341.492 1247.72 338.872C1250.76 337.121 1256.02 334.228 1258.04 331.393C1258.7 330.455 1259.62 328.025 1259.22 327.019C1256.97 327.677 1258.4 329.626 1253.65 333.11C1249.84 335.906 1243.56 339.211 1239.29 342.392C1238.24 343.175 1233.94 347.236 1234.48 349.177Z" fill="#0E622A"/>
<path fill-rule="evenodd" clip-rule="evenodd" d="M1255.8 198.216C1264.23 198.043 1261.15 201.614 1265.68 205.852C1266.54 206.655 1266.74 207.137 1268.16 207.699C1270.54 208.639 1273.06 207.916 1275.89 208.866C1277.02 209.243 1278.1 209.933 1279.2 209.935C1279.52 208.667 1278.29 207.884 1277.3 207.445C1272.18 205.162 1269.05 209.395 1264.62 200.818C1263.92 199.459 1263.47 198.97 1262.53 198.067C1260.83 196.432 1256.17 195.321 1255.8 198.216Z" fill="#0E622A"/>
<path fill-rule="evenodd" clip-rule="evenodd" d="M1172.91 452.588C1177.81 452.266 1181.91 451.543 1187.02 451.775C1191.44 451.974 1196.4 453.15 1200.4 453.216C1199.07 451.182 1190.72 449.391 1187.27 449.344C1183.18 449.288 1180.04 450.396 1176.38 451.334C1175.75 451.495 1175.21 451.675 1174.61 451.845L1172.91 452.588Z" fill="white"/>
<path fill-rule="evenodd" clip-rule="evenodd" d="M1174.56 409.388C1174.6 409.342 1174.65 409.2 1174.67 409.236C1174.95 410.002 1175.45 404.567 1175.46 404.472C1175.64 402.643 1175.76 400.868 1175.93 399.016C1176.3 394.821 1177.06 388.567 1176.51 384.257C1176.32 382.761 1176.56 382.652 1175.48 382.359C1174.53 386.088 1174.8 391.755 1174.63 395.868C1174.49 399.324 1173.1 406.636 1174.56 409.388Z" fill="#0E622A"/>
<path fill-rule="evenodd" clip-rule="evenodd" d="M1259.95 217.932C1259.51 219.253 1261.26 220.624 1262.55 220.99C1265.76 221.9 1269.05 218.785 1271.14 224.794C1271.41 225.58 1271.62 226.487 1271.7 227.326C1271.82 228.721 1271.49 229.404 1272.18 230.257C1273.05 230.026 1273.02 230.088 1273.19 228.862C1273.31 228.035 1273.32 227.129 1273.26 226.296C1272.51 216.852 1265.57 220.624 1262.13 218.801C1261.7 218.571 1261.4 218.333 1261 218.117C1260.77 217.994 1260.34 217.734 1259.95 217.932Z" fill="#0E622A"/>
<path fill-rule="evenodd" clip-rule="evenodd" d="M1256.67 310.944C1257.6 308.552 1257.43 301.835 1256.93 299.245C1256.54 297.254 1254.16 290.695 1252.82 290.79C1250.83 290.929 1254.27 295.293 1255.17 299.729C1256.08 304.193 1254.94 310.281 1256.67 310.944Z" fill="#0E622A"/>
<path fill-rule="evenodd" clip-rule="evenodd" d="M1254.13 225.034C1256.48 224.516 1254.64 218.637 1249.75 217.739C1246.94 217.222 1243.85 217.446 1241.29 216.01C1240.46 215.547 1239.93 214.873 1239.22 214.724C1236.13 219.349 1249.23 218.146 1251.94 220.613C1253.23 221.788 1253.22 224.147 1254.13 225.034Z" fill="#0E622A"/>
<path fill-rule="evenodd" clip-rule="evenodd" d="M1246.25 370.447C1247.4 368.208 1242.68 364.107 1240.53 362.681C1238.83 361.555 1237.65 360.944 1236.79 359.309C1235.9 357.599 1236.25 354.769 1235.5 353.502C1234.44 353.667 1234.29 354.364 1234.25 355.687C1234.21 356.747 1234.41 358.117 1234.72 359.088C1235.63 361.961 1238.42 362.865 1240.84 364.421C1244.16 366.561 1244.83 368.834 1245.7 369.97C1246.07 370.451 1245.7 370.166 1246.25 370.447Z" fill="#0E622A"/>
<path fill-rule="evenodd" clip-rule="evenodd" d="M1268.73 235.011C1269.76 231.573 1268.03 229.567 1265.33 228.575C1263.91 228.052 1258.18 226.518 1256.82 226.714C1256.2 230.072 1266.01 227.829 1267.68 233.331C1268.06 234.574 1267.71 234.576 1268.73 235.011Z" fill="#0E622A"/>
<path fill-rule="evenodd" clip-rule="evenodd" d="M1237.68 302.435C1237.54 300.471 1235.21 290.267 1234.55 288.885C1232.81 292.328 1234.99 301.111 1237.68 302.435Z" fill="white"/>
<path fill-rule="evenodd" clip-rule="evenodd" d="M1270.12 236.55C1272.34 237.198 1274.39 235.209 1277.23 235.477C1280.43 235.778 1280.86 238.518 1282.64 238.821C1282.95 236.049 1278.46 232.556 1273.31 234.55C1270.8 235.522 1270.33 235.496 1270.12 236.55Z" fill="#0E622A"/>
<path fill-rule="evenodd" clip-rule="evenodd" d="M1216.83 208.451C1218.1 207.955 1217.74 207.2 1219.13 206.753C1219.58 207.876 1219.16 208.715 1219.85 209.714C1220.96 209.683 1220.58 209.695 1221.13 208.567C1222.06 206.693 1223.53 207.187 1224.18 205.967C1224.64 205.096 1224.3 204.527 1223.33 204.872C1222.59 205.133 1222.47 205.772 1221.49 205.553C1220.44 205.318 1220.72 204.883 1219.14 205.289C1217.82 205.629 1216.63 206.77 1216.83 208.451Z" fill="#0E622A"/>
<path fill-rule="evenodd" clip-rule="evenodd" d="M1230.73 231.388C1232.48 231.021 1233.88 229.89 1234.24 228.287C1234.85 225.604 1234.09 224.647 1232.26 223.709L1230.73 231.388Z" fill="white"/>
<path fill-rule="evenodd" clip-rule="evenodd" d="M1212.62 220.969C1213.18 223.818 1220.44 221.826 1221.37 219.191C1221.79 217.996 1220.73 218.168 1220.2 218.516C1219.5 218.969 1219.63 219.168 1218.17 219.842C1216.5 220.615 1214.1 220.104 1212.62 220.969Z" fill="#0E622A"/>
<path fill-rule="evenodd" clip-rule="evenodd" d="M1239.14 220.133C1237.23 219.382 1236.5 219.652 1235.39 217.835C1234.17 215.814 1235.5 214.768 1235.15 213.027C1231.47 213.153 1233.76 221.482 1237.83 221.138C1238.88 221.051 1238.86 220.954 1239.14 220.133Z" fill="#0E622A"/>
<path fill-rule="evenodd" clip-rule="evenodd" d="M1214.39 204.531C1214.96 204.551 1216.97 203.481 1218.05 203.184C1219.26 202.846 1221.36 202.884 1222.3 202.157C1221.77 200.757 1219.05 201.517 1217.6 201.982C1216.19 202.436 1214.3 203.327 1214.39 204.531Z" fill="#0E622A"/>
<path fill-rule="evenodd" clip-rule="evenodd" d="M1191.84 389.559C1189.13 389.931 1191.4 393.425 1191.95 393.995C1193.02 395.114 1193.4 394.372 1193.42 394.365C1193.44 394.236 1192.15 390.005 1191.84 389.559Z" fill="#0E622A"/>
<path fill-rule="evenodd" clip-rule="evenodd" d="M1216.9 304.801C1217.86 311.734 1212.69 304.604 1216.9 304.801Z" fill="#0E622A"/>
<path fill-rule="evenodd" clip-rule="evenodd" d="M1214.68 224.07C1214.79 224.439 1214.34 225.319 1216.69 224.968C1217.88 224.791 1218.21 224.583 1218.28 223.535L1214.68 224.07Z" fill="#0E622A"/>
<path fill-rule="evenodd" clip-rule="evenodd" d="M1209.01 390.442C1208.79 391.786 1210.05 392.249 1211.39 391.811C1211.42 390.995 1211.54 390.804 1210.62 390.29C1209.86 389.86 1209.74 389.906 1209.01 390.442Z" fill="#0E622A"/>
<path fill-rule="evenodd" clip-rule="evenodd" d="M1232.11 274.295C1232.76 274.839 1232.71 274.96 1233.54 274.353C1233.3 272.833 1232.2 273.317 1232.11 274.295Z" fill="#0E622A"/>
<path fill-rule="evenodd" clip-rule="evenodd" d="M1205.22 453.572C1204.69 453.104 1203.65 452.61 1202.84 452.511C1203.15 453.087 1203.07 453.11 1203.94 453.435C1204.55 453.664 1204.86 453.731 1205.22 453.572Z" fill="#0E622A"/>
<path d="M81.2607 251.041L239.52 223.586L273.848 419.189L115.814 446.898L81.2607 251.041ZM145.881 213.642C134.929 209.269 137.768 206.876 118.377 213.493C109.739 216.44 99.7683 220.817 91.2255 223.124C80.385 226.051 71.6161 218.541 62.9028 222.356C58.638 224.224 57.4342 228.475 55.3661 231.873C53.5309 234.892 49.7702 237.63 48.5114 240.979C45.0728 250.13 56.223 258.273 57.9579 266.804C59.3001 273.402 59.4316 288.927 60.1087 297.078C60.9636 307.361 62.1037 318.26 62.9846 328.562C64.9157 351.14 68.5579 344.603 74.206 353.033C66.5952 361.236 68.8346 366.994 72.2029 379.986C74.8594 390.229 77.3936 400.187 80.0253 410.252C82.16 418.411 87.5923 433.644 88.5174 440.487C89.6911 449.177 82.204 459.195 88.0286 467.345C90.9175 471.387 94.3318 470.959 98.1415 474.048C101.782 476.999 103.421 480.166 108.916 480.219C119.074 480.316 122.606 470.542 135.72 469.822C154.187 468.806 180.388 474.334 189.219 459.95C191.489 461.83 189.688 460.491 191.325 462.848C193.422 465.87 194.362 466.776 200.474 465.724C209.833 464.111 206.908 461.708 209.067 456.44C226.188 466.48 236.364 455.009 263.699 447.212C275.049 443.974 283.401 451.557 291.939 448.041C296.39 446.208 297.478 442.496 299.696 438.756C301.675 435.415 305.813 432.276 306.863 428.972C309.914 419.36 298.506 411.562 297.093 402.791C295.248 391.329 293.72 332.993 288.792 323.775C286.409 319.317 283.224 317.975 280.928 315.582C286.193 303.375 287.972 309.087 282.544 287.627C280.089 277.928 277.495 267.91 274.849 258.266C273.122 251.972 266.775 233.072 266.56 228.361C266.204 220.56 273.503 209.122 266.189 201.936C263.163 198.965 259.414 198.342 256.037 195.334C239.89 180.96 236.634 199.7 219.475 200.422C210.17 200.816 200.016 200.413 190.486 200.59C168.131 201.005 172.436 205.429 165.741 210.201C162.083 205.483 162.594 203.113 154.495 204.486C145.415 206.022 147.587 210.21 145.881 213.642Z" stroke="#40972E" stroke-width="1.99908" stroke-miterlimit="10"/>
<path fill-rule="evenodd" clip-rule="evenodd" d="M158.422 424.166C156.087 419.931 166.99 408.305 170.459 406.317C175.375 403.5 180.623 407.232 187.208 409.571C188.104 409.89 189.009 410.285 189.906 410.633C191.032 411.069 191.922 411.087 192.495 412.026C191.711 412.024 178.951 418.067 177.824 418.837C173.198 421.999 172.571 423.944 170.082 426.391C168.747 427.704 168.801 428.19 166.907 427.755C166.97 425.645 169.481 422.154 170.647 420.48C172.235 418.202 174.614 416.511 176.004 414.311C175.417 412.088 174.179 413.157 173.049 414.239C170.689 416.498 167.417 419.86 166.04 422.852C165.503 424.018 165.024 425.098 164.504 426.28C163.808 427.858 162.175 428.208 162.159 426.617C162.132 423.917 163.608 421.558 164.916 419.356C166.328 416.98 167.076 415.301 169.16 413.328C169.943 412.585 171.682 410.861 169.927 410.007C168.346 409.237 163.208 416.978 162.53 418.239C161.79 419.617 160.412 424.677 158.422 424.166ZM165.993 405.711C164.569 403.792 165.226 399.066 166.005 396.857C166.636 395.068 169.875 389.219 171.38 388.58L178.476 386.453C185.331 385.227 198.404 387.713 204.539 390.248C207.952 391.657 216.935 395.133 216.811 399.542C215.48 400.154 212.708 398.632 212.116 398.17C210.548 396.945 207.241 395.297 205.286 394.282C202.923 393.055 198.875 391.598 196.186 390.817C194.486 390.322 193.642 390.59 194.138 392.555C197.163 394.01 200 394.57 203.312 396.356C206.313 397.973 209.073 399.228 211.782 401.233C217.97 405.807 215.545 408.281 212.474 406.902C211.399 406.419 209.623 404.793 208.606 403.975C206.449 402.237 207.227 402.744 204.653 401.132C202.932 400.053 191.828 394.853 190.717 396C189.285 397.478 193.165 398.406 194.051 398.795C195.578 399.464 197.043 400.042 198.602 400.77C201.331 402.046 209.51 406.448 210.229 409.522C209.12 410.423 208.637 410.204 207.279 409.704C204.329 408.617 200.92 405.283 194.207 402.63C193.228 402.243 192.277 401.957 191.312 401.631C190.15 401.238 189.557 400.526 188.189 400.958L188.04 402.235C188.995 403.177 196.903 406.598 199.629 408.039C201.736 409.153 202.293 409.631 201.939 411.069C200.34 411.719 194.992 409.287 193.077 408.627C190.341 407.688 187.087 406.466 184.338 405.676C179.078 404.163 174.498 399.894 168.115 404.453C167.61 404.813 166.507 405.545 165.993 405.711ZM176.283 384.362C176.241 381.463 185.221 366.066 187.148 362.681C188.868 359.659 191.777 355.689 193.863 352.806C195.074 351.133 196.291 349.595 197.499 347.981C199.839 344.855 207.392 337.293 210.319 334.998C213.845 332.232 216.7 329.99 220.487 327.523C226.266 323.757 224.644 323.119 230.967 327.576C241.68 335.125 249.778 343.597 254.799 356.253C258.035 364.414 260.476 377.074 257.923 385.657C253.728 399.765 241.068 405.668 227.907 408.492C225.306 409.05 214.346 410.692 212.224 410.038C213.908 409.097 216.303 410.058 217.535 407.755C218.041 406.808 218.075 405.864 217.773 404.844C217.206 402.922 216.912 403.075 216.654 402.295C219.807 401.639 219.943 398.955 218.311 396.578C217.076 394.78 215.494 393.293 213.866 392.083C211.954 390.661 204.97 387.146 202.543 386.643C203.786 385.815 206.989 384.383 208.472 383.769C215.065 381.043 221.98 378.404 229.333 378.525C230.712 378.548 235.126 379.372 235.938 378.88C237.141 378.151 236.271 377.036 235.244 376.712C230.042 375.069 223.029 376.265 217.908 377.471C218.051 375.559 217.806 373.308 217.905 371.263C218.16 366.018 219.148 362.525 218.756 356.735C218.657 355.257 218.519 354.789 217.008 355.179C216.571 356.255 215.232 369.517 215.182 372.089C215.043 379.456 217.757 377.321 210.429 380.07C208.011 380.978 203.739 383.1 201.303 384.306C198.871 385.511 199.483 385.815 196.663 385.25C190.224 383.961 182.859 382.879 176.283 384.362ZM148.614 386.39C143.467 386.386 140.569 386.645 135.474 387.698C134.4 387.92 133.056 388.005 133.377 389.383C133.801 391.207 138.824 389.274 142.886 389.088C150.507 388.739 159.897 390.464 167.006 389.377C164 393.787 161.355 399.429 162.9 404.904C163.483 406.964 164.241 406.835 162.46 408.429C161.333 409.437 160.886 410.353 159.39 410.944C147.528 415.633 126.344 417.814 120.011 403.692C114.539 391.492 122.223 375.641 128.543 364.671L132.592 358.336C133.248 357.098 140.482 346.088 140.823 345.898C141.822 347.109 142.196 347.577 143.27 348.668C142.813 349.63 141.158 356.412 140.862 357.833C139.219 365.714 139.467 371.387 142.976 378.818C143.673 380.295 144.512 381.624 145.498 382.927C146.807 384.657 148.335 385.995 148.614 386.39ZM205.001 336.176C204.505 332.835 204.428 329.583 204.547 326.223L204.941 317.131C208.244 317.009 220.669 321.447 222.553 322.851C222.491 322.937 218.342 325.612 217.809 325.972C216.273 327.009 214.896 328.131 213.389 329.191C211.223 330.714 206.031 335.494 205.001 336.176ZM165.244 314.193C168.32 313.864 170.711 313.364 173.449 311.861C174.736 311.154 178.023 308.645 178.628 307.378C179.999 304.51 174.474 308.462 173.962 308.747C160.467 316.239 151.179 307.647 146.61 294.527C143.729 286.254 140.813 270.595 144.448 262.323C145.194 260.624 146.891 258.184 148.2 256.867C150.585 254.465 152.366 254.977 154.952 253.703C156.009 253.183 156.675 252.205 157.893 252.529C159.694 253.008 159.675 253.09 161.626 252.826C169.145 251.811 175.085 256.067 178.618 262.658C184.731 274.063 184.117 284.497 186.007 295.8C187.066 302.14 188.447 305.919 190.627 311.836C197.085 329.365 191.319 332.363 194.922 344.658C196.267 349.251 186.504 351.51 183.4 352.243C173.571 354.562 172.055 353.253 166.23 354.323C165.993 352.518 167.364 350.952 167.351 349.245C166.602 348.475 166.484 348.33 165.42 348.574C164.446 349.975 163.883 352.456 163.474 354.168C158.522 354.965 150.477 352.282 146.601 349.378C146.869 346.294 152.282 337.873 154.388 335.404C157.571 331.673 162.311 326.287 166.956 324.712L167.562 328.077C168.618 328.79 168.882 328.818 170.124 328.245C170.005 325.403 166.667 316.767 165.244 314.193ZM198.119 271.822C200.613 270.177 203.278 266.82 204.765 264.249C205.619 262.772 206.548 261.46 207.468 260.024C208.581 258.288 209.425 257.284 211.484 258.721C213.953 260.443 215.818 264.983 217.414 267.701C221.482 274.629 224.153 269.821 225.785 268.959C229.06 270.863 228.138 277.966 233.339 278.727C235.802 279.088 246.475 278.223 248.428 277.188C248.597 276.19 248.712 276.668 248.442 275.592C247.328 275.197 241.089 275.724 239.481 275.855C237.919 275.98 236.476 275.998 234.902 276.137C230.973 276.482 232.033 272.378 228.051 267.492C225.499 264.36 223.139 268.491 221.327 268.804C218.624 266.771 214.996 253.049 208.68 255.597C204.531 257.271 201.994 266.202 197.301 269.503C195.389 264.5 194.748 260.602 191.708 255.871C186.565 247.866 180.157 243.553 170.588 243.261C165.925 243.118 159.502 244.394 155.248 246.28C146.865 249.995 141.746 256.471 139.262 265.204C137.693 270.723 138.096 273.798 138.032 279.316L138.815 294.825C135.119 294.933 133.405 294.263 130.327 297.112C128.315 298.974 124.655 298.543 123.32 296.131C122.028 293.798 121.486 290.327 118.031 290.935C114.879 291.491 114.506 294.799 112.585 295.895C110.834 295.088 108.616 289.33 106.37 287.904C103.287 285.946 102.655 291.316 102.475 293.121C102.394 293.934 102.486 295.464 102.384 295.917C101.723 295.578 99.7133 291.509 96.1578 289.111C94.339 287.885 88.0392 285.187 88.3705 289.499C88.6809 293.543 90.9194 302.457 91.7981 307.514C92.1567 309.571 91.9977 312.248 94.5314 311.461C95.3091 309.92 94.4759 307.959 94.1056 306.357C93.2676 302.741 91.1186 292.593 91.0481 289.807C92.4965 289.476 95.6413 292.022 96.6427 293.029C103.379 299.803 101.004 306.473 108.668 310.099C113.624 312.443 114.606 309.483 112.713 308.664C111.703 308.227 110.811 308.198 109.564 307.5C105.435 305.19 104.908 302.479 104.656 297.836C104.582 296.456 104.763 291.255 105.453 290.487C105.946 290.662 106.026 290.896 106.375 291.476C106.6 291.848 106.828 292.22 107.04 292.576C107.542 293.414 107.905 294.151 108.426 294.954C111.216 299.258 113.36 300.028 115.867 295.45C116.756 293.827 118.123 292.341 119.572 294.497C121.795 297.802 122.49 301.008 127.359 300.607C129.282 300.449 131.851 300.039 133.131 298.547C134.517 296.93 136.746 297.463 138.834 297.37C139.256 300.987 140.226 306.304 141.216 309.801C143.626 318.33 148.276 321.583 147.342 331.037C146.874 335.77 145.478 335.567 142.677 338.911C138.691 343.67 135.587 348.752 132.147 353.873C128.947 358.637 125.178 364.468 122.751 369.635C117.417 380.986 110.84 396.75 119.472 408.251C123.746 413.945 128.74 416.085 135.682 417.055C142.341 417.987 152.517 416.728 158.775 414.355C157.108 417.194 154.115 423.024 156.607 426.202C157.318 427.11 158.722 427.37 159.668 428.282C160.853 429.424 160.98 430.427 163.001 430.229C169.919 429.548 168.033 432.473 173.474 426.252C178.388 420.635 180.878 420.395 187.296 417.401C189.925 416.175 192.356 414.839 194.899 413.471C197.819 411.9 199.294 414.62 203.143 413.035C205.186 412.194 204.734 412.006 207.024 412.339L221.06 412.22C237.518 411.376 256.309 402.824 260.757 385.431C263.559 374.471 259.93 359.006 254.562 349.212C249.222 339.47 242.774 332.533 233.807 326.098C229.131 322.741 225.448 321.205 220.323 318.844C216.79 317.215 216.135 318.17 214.335 314.339C213.17 311.859 211.581 309.423 210.337 306.925C204.886 295.968 202.818 283.867 198.119 271.822Z" fill="#3FA535"/>
<path fill-rule="evenodd" clip-rule="evenodd" d="M104.292 330.525C105.232 327.713 121.961 324.805 125.315 323.941C127.248 323.442 129.485 323.003 131.461 322.702C132.241 322.584 133.646 322.629 133.803 321.656C134.007 320.395 133.05 320.399 132.145 320.503C128.126 320.967 124.127 321.549 120.156 322.388C116.394 323.184 101.65 325.83 101.135 330.38C100.528 335.739 116.493 331.274 117.493 337.1C116.677 338.699 110.57 340.848 108.647 341.89C105.81 343.429 103.141 347.303 106.72 349.618C111.238 352.541 123.955 350.308 126.456 352.258C124.824 353.876 110.483 359.035 105.616 361.388C104.879 361.744 102.907 362.638 102.521 363.197C101.702 364.381 102.468 365.727 104.281 364.824C108.391 362.776 114.167 360.362 118.522 358.926C120.815 358.17 131.705 354.463 128.946 350.842C125.682 346.56 109.689 350.303 107.87 346.94C106.525 344.451 116.6 342.075 119.281 339.287C121.116 337.379 120.215 334.464 118.249 333.161C113.833 330.234 106.588 331.373 104.292 330.525Z" fill="#3FA535"/>
<path fill-rule="evenodd" clip-rule="evenodd" d="M227.81 296.608C228.69 295.286 239.836 293.573 241.944 293.295C242.879 293.171 249.557 292.822 247.105 290.695C246.14 289.856 241.258 290.975 239.893 291.248C235.918 292.044 228.847 292.791 225.629 294.895C223.032 296.594 225.274 298.194 227.395 298.763C228.385 299.029 229.399 299.171 230.41 299.354C231.774 299.602 232.206 299.371 233.399 299.439C231.231 301.445 216.286 302.309 213.883 303.779C213.237 304.56 213.429 305.546 214.505 305.84C215.327 306.064 216.946 305.563 217.805 305.379C220.12 304.882 222.468 304.578 224.801 304.202C226.981 303.851 229.328 303.459 231.421 302.78C233.075 302.243 236.48 301.385 234.073 299.27C236.349 296.143 230.195 297.672 227.81 296.608Z" fill="#3FA535"/>
<path fill-rule="evenodd" clip-rule="evenodd" d="M153.275 278.284C150.388 278.264 146.747 278.3 144.305 280.057C144.505 283.142 146.36 281.136 148.269 281.09C149.068 281.658 148.638 282.007 149.698 282.382C150.558 282.687 153.07 282.733 152.29 280.654L153.581 280.407C153.999 282.174 153.208 288.013 153.343 290.379C153.58 294.543 156.879 295.931 160.451 293.935C167.764 289.848 163.969 287.553 162.743 288.641C162.044 289.261 162.389 290.255 159.632 291.688C153.633 294.807 157.044 287.446 156.138 279.889C155.76 276.741 154.1 273.222 150.614 272.814C148.757 272.597 146.974 273.092 145.357 273.934C142.711 275.312 144.082 277.436 145.495 276.804C146.125 276.521 151.126 272.636 153.275 278.284Z" fill="#3FA535"/>
<path fill-rule="evenodd" clip-rule="evenodd" d="M138.09 310.808C139.345 308.189 134.779 309.431 133.817 309.615C126.897 310.928 111.813 314.586 105.209 316.569C103.195 317.174 95.5685 318.444 94.8068 320.182C94.4304 321.041 95.2052 321.713 95.99 321.746L109.632 317.933C111.479 317.313 113.438 317.02 115.329 316.518C118.962 315.554 123.241 314.561 126.929 313.805C128.734 313.435 137.5 312.04 138.09 310.808Z" fill="#3FA535"/>
<path fill-rule="evenodd" clip-rule="evenodd" d="M227.254 287.306C223.779 287.811 220.298 288.458 216.817 288.913C215.031 289.146 207.889 289.6 207.12 290.956C205.381 294.02 214.021 291.742 215.416 291.668C219.552 291.446 244.75 287.718 246.207 286.62C246.535 284.033 244.254 285.068 242.523 285.357C238.484 286.032 231.939 286.624 227.254 287.306Z" fill="#3FA535"/>
<path fill-rule="evenodd" clip-rule="evenodd" d="M130.794 340.214C129.39 336.869 136.954 334.47 139.135 333.214C144.062 330.376 141.551 326.29 136.497 326.385C134.205 326.428 128.453 327.414 126.243 328.472C125.293 328.927 124.6 330.161 125.964 330.667C127.881 331.378 137.014 327.028 139.431 329.44C137.251 332.437 131.642 332.876 129.089 336.234C127.96 337.72 127.353 341.123 129.071 342.388C130.411 343.376 134.626 342.558 135.417 341.032C134.644 338.99 133.033 340.578 130.794 340.214Z" fill="#3FA535"/>
<path fill-rule="evenodd" clip-rule="evenodd" d="M162.431 277.435C163.24 277.789 163.135 278.295 164.2 278.002C164.911 277.805 165.718 277.264 166.438 277.006C166.627 279.768 171.105 282.064 171.53 275.939C173.585 275.815 174.543 277.165 175.218 274.83C173.82 272.99 170.408 273.528 168.411 273.867C166.376 274.212 162.493 274.981 162.431 277.435Z" fill="#3FA535"/>
<path fill-rule="evenodd" clip-rule="evenodd" d="M174.519 271.155C174.824 269.344 174.909 269.213 172.865 268.579C169.024 267.386 163.231 268.336 161.254 270.682C160.215 271.913 161.177 273.506 162.702 272.642C163.86 271.984 164.896 271.374 166.23 270.963C170.068 269.777 172.295 271.668 174.519 271.155Z" fill="#3FA535"/>
<path fill-rule="evenodd" clip-rule="evenodd" d="M169.722 297.16C170.044 296.67 170.117 295.726 169.352 295.472C168.877 295.314 168.26 295.745 167.789 295.934C165.404 296.887 162.666 297.513 160.133 297.906C159.167 298.057 156.996 297.94 156.617 298.811C155.482 301.426 162.032 300.233 163.046 299.971C164.451 299.609 169.156 298.023 169.722 297.16Z" fill="#3FA535"/>
<path fill-rule="evenodd" clip-rule="evenodd" d="M161.342 301.533C160.786 303.495 162.042 303.267 163.453 302.868C164.99 302.433 166.259 302.495 165.69 300.592L161.342 301.533Z" fill="#3FA535"/>
</svg>
