<svg width="227" height="268" viewBox="0 0 227 268" fill="none" xmlns="http://www.w3.org/2000/svg">
<path d="M32.9985 34.1604L193.621 34.5458L193.534 233.138L33.0893 233.042L32.9985 34.1604ZM103.122 8.5253C93.0933 2.32034 96.304 0.456237 76.0594 3.61227C67.0416 5.01816 56.4635 7.60128 47.6502 8.39247C36.4665 9.39661 29.1317 0.481064 19.889 2.72862C15.3651 3.82949 13.4429 7.80681 10.8172 10.7957C8.48668 13.4503 4.30845 15.4953 2.48831 18.5754C-2.48406 26.9921 7.0863 36.9449 7.31666 45.647C7.49526 52.3776 4.93439 67.6911 4.18881 75.8359C3.24894 86.1111 2.48303 97.0432 1.56542 107.342C-0.445202 129.913 4.27473 124.106 8.37658 133.387C-0.540674 140.147 0.66706 146.206 1.73314 159.585C2.57439 170.134 3.34462 180.381 4.19244 190.749C4.88096 199.154 7.59135 215.098 7.31666 221.998C6.96667 230.76 -2.14321 239.329 2.18115 248.365C4.32583 252.847 7.76268 253.017 10.9794 256.719C14.0538 260.257 15.1186 263.66 20.5216 264.664C30.5092 266.519 35.6813 257.505 48.7222 259.069C67.0855 261.269 91.9317 271.253 103.122 258.617C105.031 260.862 103.49 259.231 104.694 261.836C106.235 265.176 107.005 266.231 113.206 266.254C122.703 266.287 120.239 263.413 123.278 258.6C138.4 271.454 150.41 261.921 178.682 258.978C190.422 257.756 197.334 266.671 206.351 264.688C211.053 263.654 212.768 260.187 215.601 256.888C218.128 253.941 222.748 251.566 224.354 248.494C229.025 239.556 219.14 229.899 219.269 221.016C219.439 209.407 228.042 151.689 224.786 141.757C223.212 136.953 220.307 135.079 218.461 132.326C225.762 121.215 226.523 127.149 224.896 105.073C224.16 95.0958 223.341 84.7799 222.406 74.8228C221.796 68.3249 218.82 48.6107 219.424 43.9334C220.425 36.1891 229.596 26.1895 223.638 17.8445C221.173 14.3938 217.589 13.1311 214.784 9.58347C201.372 -7.37161 194.918 10.5204 177.893 8.25841C168.661 7.03366 158.73 4.87758 149.314 3.40021C127.225 -0.0648739 130.698 5.03792 123.278 8.57767C120.493 3.29795 121.407 1.05229 113.193 1.00054C103.983 0.93966 105.397 5.44095 103.122 8.5253Z" stroke="#40972E" stroke-width="1.99908" stroke-miterlimit="10"/>
<path fill-rule="evenodd" clip-rule="evenodd" d="M78.9917 218.038C77.4263 213.462 90.179 203.901 93.9398 202.544C99.2698 200.622 103.791 205.207 109.871 208.652C110.698 209.121 111.521 209.667 112.344 210.165C113.378 210.79 114.251 210.962 114.653 211.986C113.881 211.848 100.267 215.588 99.0238 216.151C93.92 218.464 92.965 220.27 90.0901 222.249C88.5477 223.311 88.5167 223.799 86.7267 223.043C87.1538 220.976 90.2324 217.972 91.6708 216.526C93.6288 214.557 96.265 213.305 98.0154 211.378C97.8224 209.088 96.4177 209.925 95.1181 210.795C92.4019 212.611 88.5967 215.356 86.7222 218.064C85.9912 219.119 85.3327 220.1 84.6155 221.174C83.6566 222.607 81.9872 222.669 82.2473 221.099C82.6891 218.436 84.5508 216.367 86.2214 214.426C88.0233 212.331 89.051 210.807 91.445 209.225C92.3456 208.629 94.357 207.232 92.7766 206.087C91.3525 205.055 84.9508 211.787 84.0649 212.912C83.0971 214.142 80.8626 218.885 78.9917 218.038ZM89.6457 201.174C88.5759 199.037 90.0421 194.497 91.1919 192.455C92.1236 190.803 96.3277 185.604 97.9203 185.236L105.278 184.37C112.241 184.351 124.686 189.064 130.289 192.624C133.406 194.604 141.65 199.583 140.764 203.905C139.348 204.276 136.881 202.297 136.378 201.739C135.046 200.262 132.074 198.065 130.325 196.727C128.21 195.109 124.477 192.972 121.964 191.737C120.375 190.955 119.497 191.073 119.645 193.094C122.373 195.052 125.07 196.095 128.022 198.427C130.697 200.54 133.197 202.254 135.519 204.698C140.82 210.275 138.003 212.292 135.218 210.402C134.242 209.74 132.775 207.831 131.916 206.848C130.092 204.763 130.77 205.398 128.515 203.363C127.007 202.002 116.972 194.957 115.679 195.894C114.012 197.101 117.673 198.688 118.478 199.224C119.866 200.148 121.209 200.971 122.618 201.959C125.084 203.688 132.378 209.441 132.553 212.593C131.304 213.288 130.867 212.988 129.616 212.261C126.899 210.679 124.118 206.805 117.967 203.029C117.07 202.478 116.183 202.031 115.289 201.543C114.212 200.955 113.752 200.15 112.33 200.339L111.962 201.571C112.739 202.664 119.935 207.403 122.37 209.295C124.252 210.757 124.718 211.325 124.12 212.68C122.432 213.043 117.587 209.721 115.815 208.739C113.284 207.34 110.29 205.572 107.72 204.318C102.801 201.917 99.0302 196.919 91.954 200.303C91.3944 200.57 90.1809 201.1 89.6457 201.174ZM103.48 181.931C103.941 179.069 115.453 165.461 117.938 162.461C120.155 159.783 123.709 156.377 126.262 153.899C127.745 152.461 129.21 151.157 130.68 149.777C133.526 147.104 142.275 140.965 145.555 139.212C149.508 137.099 152.707 135.386 156.864 133.612C163.209 130.905 161.722 129.995 167.178 135.48C176.42 144.771 182.927 154.518 185.679 167.853C187.452 176.452 187.662 189.343 183.661 197.353C177.084 210.521 163.593 214.141 150.142 214.641C147.484 214.74 136.405 214.458 134.428 213.447C136.25 212.812 138.442 214.173 140.054 212.118C140.716 211.274 140.913 210.35 140.794 209.293C140.568 207.302 140.252 207.402 140.133 206.588C143.352 206.488 143.95 203.869 142.755 201.245C141.851 199.261 140.55 197.522 139.156 196.048C137.52 194.316 131.251 189.644 128.948 188.728C130.315 188.128 133.718 187.272 135.285 186.925C142.251 185.382 149.518 183.981 156.739 185.375C158.093 185.636 162.298 187.213 163.183 186.87C164.494 186.36 163.83 185.111 162.875 184.614C158.036 182.094 150.922 182.057 145.67 182.357C146.141 180.499 146.29 178.24 146.743 176.243C147.902 171.121 149.481 167.852 150.098 162.082C150.257 160.609 150.201 160.125 148.646 160.247C148.029 161.23 144.412 174.06 143.918 176.585C142.504 183.816 145.546 182.183 137.853 183.621C135.315 184.097 130.74 185.446 128.131 186.211C125.528 186.977 126.077 187.382 123.398 186.337C117.28 183.952 110.213 181.61 103.48 181.931ZM75.8785 179.134C70.8098 178.238 67.9113 177.99 62.7105 178.145C61.6141 178.177 60.2761 178.028 60.3532 179.441C60.4549 181.311 65.7367 180.278 69.7694 180.798C77.3357 181.775 86.2849 185.101 93.4746 185.263C89.7494 189.085 86.1671 194.184 86.7401 199.844C86.957 201.973 87.7258 201.977 85.6955 203.239C84.4113 204.036 83.8118 204.861 82.2365 205.183C69.7407 207.746 48.4995 206.223 44.7096 191.217C41.4348 178.253 51.7496 163.974 59.8746 154.265L64.9596 148.728C65.8202 147.622 74.8534 138.032 75.2216 137.904C75.9962 139.27 76.2828 139.796 77.1515 141.056C76.535 141.924 73.7298 148.317 73.192 149.665C70.2083 157.143 69.4693 162.773 71.6378 170.699C72.0684 172.274 72.6645 173.729 73.4099 175.183C74.3991 177.113 75.6715 178.696 75.8785 179.134ZM140.114 139.45C140.204 136.074 140.692 132.858 141.392 129.569L143.355 120.683C146.628 121.136 158.097 127.659 159.709 129.368C159.633 129.443 155.083 131.358 154.496 131.62C152.803 132.376 151.253 133.242 149.585 134.024C147.188 135.149 141.246 138.957 140.114 139.45ZM104.767 110.911C107.854 111.119 110.296 111.041 113.253 110.035C114.642 109.563 118.314 107.661 119.13 106.518C120.977 103.931 114.851 106.866 114.297 107.057C99.7078 112.098 92.05 102.026 89.8236 88.3128C88.4197 79.6664 88.261 63.739 93.2743 56.2216C94.3035 54.6773 96.3975 52.5686 97.9149 51.4978C100.68 49.5459 102.346 50.3585 105.114 49.5523C106.245 49.2231 107.07 48.3753 108.214 48.9057C109.904 49.6892 109.871 49.7673 111.838 49.8454C119.42 50.1483 124.532 55.3693 126.87 62.4727C130.914 74.7647 128.501 84.9346 128.404 96.3942C128.348 102.822 129.054 106.782 130.175 112.987C133.498 131.371 127.3 133.324 128.717 146.058C129.246 150.815 119.24 151.347 116.055 151.531C105.973 152.112 104.706 150.56 98.7845 150.604C98.8635 148.786 100.486 147.481 100.769 145.798C100.164 144.909 100.073 144.746 98.9832 144.802C97.7806 146.013 96.7968 148.359 96.0974 149.974C91.0815 149.901 83.6239 145.864 80.3095 142.333C81.1074 139.342 87.8982 131.987 90.4004 129.92C94.182 126.796 99.783 122.313 104.631 121.568L104.644 124.986C105.561 125.872 105.817 125.945 107.139 125.596C107.513 122.776 105.723 113.692 104.767 110.911ZM144.487 74.8773C147.229 73.6891 150.436 70.8452 152.345 68.5709C153.443 67.2639 154.584 66.133 155.74 64.8779C157.137 63.3608 158.141 62.519 159.921 64.2911C162.054 66.4142 163.104 71.209 164.205 74.1626C167.011 81.6906 170.474 77.4176 172.231 76.8516C175.126 79.2946 172.988 86.1308 177.978 87.7813C180.341 88.5639 191.002 89.5615 193.105 88.8797C193.445 87.9263 193.475 88.4171 193.396 87.3107C192.367 86.7285 186.131 86.167 184.525 86.0166C182.964 85.8695 181.541 85.6375 179.966 85.5015C176.037 85.1605 177.792 81.3024 174.717 75.7996C172.747 72.2727 169.706 75.9328 167.868 75.9264C165.558 73.4562 164.362 59.3134 157.701 60.7281C153.324 61.6575 149.277 70.0137 144.084 72.4522C143.068 67.1932 143.111 63.2428 140.937 58.0564C137.259 49.2813 131.696 43.9241 122.323 41.978C117.755 41.0294 111.208 41.1727 106.691 42.2928C97.7914 44.4993 91.6274 49.9896 87.6679 58.1606C85.1657 63.3243 85.0297 66.4222 84.0114 71.8456L82.095 87.2554C78.4356 86.7221 76.8642 85.7645 73.3382 88.037C71.0347 89.5224 67.5049 88.4641 66.6072 85.857C65.7392 83.3356 65.8074 79.8225 62.2993 79.8234C59.0981 79.8244 58.1578 83.0176 56.0754 83.7646C54.4911 82.6663 53.3048 76.6104 51.3398 74.8175C48.6428 72.3543 47.0893 77.5334 46.5995 79.2802C46.379 80.0672 46.204 81.5901 46.0255 82.0182C45.4333 81.5699 44.159 77.2144 41.0729 74.2362C39.4941 72.7133 33.7572 68.9644 33.3362 73.2693C32.941 77.3059 33.601 86.4728 33.5901 91.6058C33.5869 93.6933 32.9663 96.3024 35.5981 95.9668C36.6311 94.5831 36.1502 92.508 36.0632 90.8658C35.8645 87.1591 35.5065 76.7924 35.9199 74.0365C37.4037 73.9613 40.0598 77.0138 40.8714 78.1793C46.332 86.0176 42.8368 92.1753 49.7572 97.0744C54.2317 100.242 55.712 97.4967 53.9898 96.3622C53.07 95.7565 52.1969 95.5732 51.0893 94.6701C47.4229 91.68 47.374 88.9187 47.9307 84.3015C48.0968 82.9303 49.1768 77.8392 49.9894 77.2026C50.4447 77.4601 50.4828 77.7048 50.7259 78.336C50.8827 78.7414 51.0433 79.1478 51.1902 79.5342C51.5392 80.4473 51.7695 81.2353 52.1432 82.117C54.1446 86.8392 56.1228 87.9692 59.3857 83.8945C60.5419 82.4507 62.1461 81.2237 63.1999 83.5979C64.8162 87.2381 64.9449 90.5164 69.8104 90.9653C71.7312 91.1422 74.3329 91.1838 75.8519 89.9361C77.497 88.5841 79.5993 89.4952 81.6724 89.7656C81.4613 93.4013 81.4955 98.8055 81.8637 102.421C82.7598 111.239 86.7756 115.248 84.2171 124.397C82.9367 128.978 81.5962 128.536 78.259 131.344C73.5087 135.34 69.5701 139.808 65.2949 144.255C61.3175 148.392 56.5953 153.482 53.3096 158.15C46.0898 168.406 36.8803 182.791 43.3889 195.614C46.6113 201.962 51.1594 204.936 57.8277 207.094C64.2247 209.166 74.4653 209.689 81.0396 208.436C78.9056 210.944 74.9478 216.167 76.8514 219.728C77.3947 220.745 78.7322 221.245 79.5058 222.307C80.4746 223.638 80.4263 224.647 82.4505 224.802C89.3821 225.331 87.0178 227.885 93.4548 222.701C99.267 218.02 101.762 218.216 108.601 216.379C111.403 215.626 114.029 214.732 116.77 213.825C119.918 212.784 120.9 215.719 124.965 214.825C127.123 214.35 126.71 214.086 128.908 214.812L142.752 217.127C159.108 219.147 179.096 213.981 186.491 197.623C191.149 187.314 190.256 171.453 186.666 160.877C183.095 150.357 177.946 142.408 170.23 134.517C166.206 130.4 162.845 128.249 158.207 125.035C155.01 122.819 154.2 123.646 153.091 119.561C152.372 116.917 151.23 114.242 150.438 111.567C146.968 99.8309 147.028 87.5545 144.487 74.8773Z" fill="#3FA535"/>
<path fill-rule="evenodd" clip-rule="evenodd" d="M41.9082 116.433C43.3213 113.827 60.301 113.862 63.7533 113.592C65.7439 113.436 68.0231 113.39 70.0217 113.437C70.81 113.456 72.1858 113.743 72.5095 112.813C72.9283 111.606 71.9851 111.443 71.0756 111.39C67.0374 111.15 62.9979 111.03 58.9422 111.169C55.0989 111.3 40.1197 111.351 38.824 115.743C37.2976 120.916 53.7939 119.285 53.7696 125.196C52.6885 126.629 46.3021 127.687 44.2273 128.381C41.1666 129.405 37.8672 132.758 40.9906 135.658C44.9338 139.32 57.8451 139.325 59.9708 141.678C58.0825 142.988 43.0644 145.585 37.8636 147.059C37.0762 147.282 34.9788 147.82 34.5018 148.304C33.4905 149.328 34.011 150.787 35.9537 150.212C40.3556 148.907 46.4627 147.53 51.0006 146.87C53.3904 146.523 64.7583 144.76 62.6678 140.715C60.1957 135.932 43.7954 136.847 42.5874 133.22C41.6935 130.536 52.0282 129.941 55.1517 127.66C57.2892 126.099 56.9075 123.072 55.1968 121.448C51.3545 117.8 44.0223 117.666 41.9082 116.433Z" fill="#3FA535"/>
<path fill-rule="evenodd" clip-rule="evenodd" d="M169.434 104.434C170.529 103.285 181.804 103.529 183.928 103.62C184.87 103.66 191.508 104.473 189.462 101.953C188.656 100.96 183.655 101.216 182.263 101.249C178.21 101.344 171.116 100.854 167.583 102.369C164.731 103.592 166.662 105.556 168.651 106.484C169.58 106.918 170.555 107.233 171.519 107.589C172.819 108.069 173.284 107.917 174.448 108.19C171.965 109.791 157.097 108.051 154.475 109.083C153.703 109.74 153.721 110.745 154.73 111.221C155.5 111.584 157.182 111.371 158.061 111.338C160.426 111.25 162.791 111.357 165.154 111.391C167.362 111.424 169.741 111.444 171.92 111.138C173.643 110.895 177.145 110.64 175.14 108.141C177.924 105.456 171.599 105.895 169.434 104.434Z" fill="#3FA535"/>
<path fill-rule="evenodd" clip-rule="evenodd" d="M99.2017 73.4702C96.362 72.9506 92.7698 72.3556 90.0603 73.6625C89.7228 76.7351 91.8973 75.081 93.7856 75.3664C94.4741 76.0648 93.9897 76.3342 94.969 76.8874C95.7627 77.3362 98.2294 77.8171 97.8212 75.6342L99.1355 75.615C99.2407 77.4271 97.4504 83.0406 97.173 85.395C96.6851 89.5368 99.6931 91.4755 103.558 90.129C111.468 87.3702 108.128 84.4528 106.733 85.3115C105.936 85.8013 106.104 86.8404 103.14 87.7737C96.6912 89.8059 101.326 83.1478 101.744 75.5478C101.917 72.3818 100.891 68.6284 97.5295 67.6225C95.7382 67.0866 93.8963 67.2652 92.1578 67.8148C89.313 68.7135 90.2952 71.0426 91.796 70.6644C92.4662 70.4955 98.0643 67.5355 99.2017 73.4702Z" fill="#3FA535"/>
<path fill-rule="evenodd" clip-rule="evenodd" d="M78.611 102.872C80.3005 100.509 75.5883 100.942 74.6096 100.956C67.5667 101.05 52.0772 102.039 45.2291 102.847C43.1406 103.094 35.4095 103.023 34.3583 104.603C33.8387 105.384 34.4853 106.18 35.2525 106.349L49.3492 104.958C51.2755 104.666 53.2552 104.717 55.2049 104.551C58.9503 104.231 63.3362 103.995 67.0989 103.889C68.9417 103.837 77.8163 103.983 78.611 102.872Z" fill="#3FA535"/>
<path fill-rule="evenodd" clip-rule="evenodd" d="M170.499 95.1762C166.989 95.0709 163.448 95.1051 159.941 94.9503C158.141 94.8703 151.029 94.0797 150.036 95.282C147.793 97.9983 156.697 97.2519 158.084 97.4205C162.195 97.9193 187.659 98.6141 189.284 97.7852C190.055 95.2939 187.629 95.9178 185.874 95.9024C181.779 95.8672 175.231 95.3166 170.499 95.1762Z" fill="#3FA535"/>
<path fill-rule="evenodd" clip-rule="evenodd" d="M66.3298 130.568C65.5264 127.031 73.3919 125.979 75.7571 125.12C81.1012 123.178 79.3365 118.719 74.3424 117.937C72.0776 117.582 66.2421 117.557 63.8823 118.215C62.8675 118.499 61.9714 119.594 63.2274 120.329C64.9915 121.361 74.7404 118.659 76.7029 121.454C74.0366 124.028 68.4358 123.488 65.3396 126.353C63.9703 127.621 62.7831 130.867 64.256 132.411C65.4039 133.616 69.6973 133.541 70.7409 132.175C70.3337 130.03 68.4711 131.315 66.3298 130.568Z" fill="#3FA535"/>
<path fill-rule="evenodd" clip-rule="evenodd" d="M108.366 74.2216C109.102 74.7104 108.91 75.1903 110.01 75.086C110.745 75.016 111.634 74.6225 112.387 74.4929C112.094 77.2462 116.107 80.2833 117.587 74.3249C119.633 74.5591 120.342 76.0545 121.411 73.8716C120.353 71.8167 116.9 71.7559 114.874 71.7431C112.81 71.7303 108.853 71.8157 108.366 74.2216Z" fill="#3FA535"/>
<path fill-rule="evenodd" clip-rule="evenodd" d="M121.359 70.1311C121.974 68.4 122.08 68.2858 120.177 67.3071C116.601 65.4669 110.731 65.3981 108.377 67.366C107.141 68.399 107.812 70.134 109.464 69.5473C110.719 69.1 111.844 68.6793 113.23 68.5053C117.215 68.0026 119.08 70.2508 121.359 70.1311Z" fill="#3FA535"/>
<path fill-rule="evenodd" clip-rule="evenodd" d="M112.13 94.9116C112.531 94.4845 112.767 93.5676 112.057 93.1849C111.617 92.9472 110.935 93.2646 110.438 93.3689C107.924 93.8939 105.119 94.0363 102.557 93.9848C101.579 93.9656 99.4612 93.4742 98.9371 94.2666C97.3656 96.6456 104.023 96.6056 105.068 96.5231C106.514 96.4098 111.423 95.6634 112.13 94.9116Z" fill="#3FA535"/>
<path fill-rule="evenodd" clip-rule="evenodd" d="M103.119 97.7658C102.231 99.6016 103.507 99.5952 104.966 99.4464C106.555 99.2849 107.794 99.5651 107.563 97.5927L103.119 97.7658Z" fill="#3FA535"/>
</svg>
