<svg width="380" height="166" viewBox="0 0 380 166" fill="none" xmlns="http://www.w3.org/2000/svg">
<path opacity="0.6" fill-rule="evenodd" clip-rule="evenodd" d="M-59.6647 62.188C-60.3494 62.7085 -63.9054 64.2921 -64.9312 64.75C-69.4191 66.7599 -70.651 66.4034 -76.3927 69.6635C-78.2098 70.698 -79.9215 71.3735 -81.8333 72.4163C-94.1836 79.1633 -108.343 92.6082 -112.587 106.503C-115.61 116.407 -112.709 125.377 -107.187 130.819C-105.771 132.216 -104.912 133.613 -103.312 134.795C-99.9538 137.27 -96.6816 139.435 -92.2967 140.095C-90.0724 140.428 -86.4812 140.396 -84.2045 140.259C-77.437 139.856 -66.8758 130.461 -64.3478 127.36C-61.8818 124.333 -59.0889 122.034 -56.5812 119.094C-50.5948 112.082 -44.3865 102.915 -38.3834 96.3215C-37.5261 95.3801 -33.6036 89.9937 -34.608 94.0159C-35.4159 97.2474 -35.2458 94.0904 -35.7721 100.369C-36.9236 114.117 -38.5519 131.67 -32.8661 144.432C-31.8129 146.799 -31.2865 148.709 -29.9767 151.187C-28.6889 153.615 -27.3393 154.747 -25.4829 156.665C-21.8643 160.399 -16.1261 160.962 -10.4641 161.247C-2.39571 161.654 -1.22955 158.914 0.0123901 152.275C2.64867 138.195 -2.5071 118.151 -1.62774 116.146C-1.09251 116.572 3.18875 124.073 3.80138 125.205C4.69741 126.87 5.74878 127.953 6.8002 129.332C7.98199 130.88 8.68228 132.123 9.81645 133.787C16.0541 142.926 23.0794 149.752 31.3151 156.474C33.8859 158.571 36.9961 160.64 40.142 162.25C48.0926 166.318 55.0065 168.338 61.7317 161.644C63.5577 159.823 66.9853 155.889 67.9748 153.288C71.2922 144.564 66.3071 140.027 61.2524 133.261C57.7356 128.553 44.3661 114.875 39.8395 110.141C37.158 107.339 25.9859 97.0466 25.8186 94.7445C27.2951 94.9454 33.0518 97.7155 35.1951 98.3898C38.4893 99.426 42.0942 100.785 45.5408 101.601C50.6628 102.816 56.9944 104.391 62.439 104.495C72.1191 104.681 82.1915 105.97 92.9265 102.326C95.9456 101.302 99.6803 99.8757 102.148 98.3815C107.717 95.0098 106.117 80.3736 104.317 76.956C100.198 69.1478 85.9394 64.4745 78.377 62.6376C71.213 60.8966 63.6643 59.4197 56.2574 58.0323L36.3394 54.8276C34.77 54.5796 34.4086 54.8157 33.6965 53.9875C35.4231 53.0884 59.0098 50.8645 66.8002 48.7449C75.3782 46.4112 88.0743 43.4599 95.0109 37.7611C99.9506 33.705 102.408 26.8633 99.8984 17.8859C98.1415 11.6088 93.7363 5.69841 87.632 4.1655C69.0566 -0.501175 51.2533 5.72522 34.4693 12.7547C31.9616 13.8041 26.7874 16.9648 25.4169 16.8717C25.3692 15.7294 28.0833 9.53149 28.8901 7.89903C30.6351 4.3616 34.3294 -6.97092 35.1463 -11.1606C35.8333 -14.6909 36.4764 -18.2449 36.9908 -22.068C37.8416 -28.391 37.892 -39.9125 36.4221 -45.7835C34.1216 -54.9762 33.1095 -57.0397 25.8913 -60.9134C19.1303 -64.5403 11.612 -63.1576 6.65376 -58.9327C-1.26164 -52.1876 -5.76268 -32.2546 -6.67895 -21.25C-6.97068 -17.7382 -7.82797 -13.6128 -8.03219 -9.83334C-8.17567 -7.18013 -8.18754 0.183243 -9.45865 1.55756C-9.94804 0.981003 -12.5421 -8.56105 -13.1493 -10.4165L-17.5961 -21.6357C-19.4072 -25.0903 -21.1541 -28.6783 -23.0068 -31.901C-28.7992 -41.9605 -44.7425 -61.8972 -57.1803 -60.9677C-60.1553 -60.7441 -66.2714 -57.3069 -68.2088 -55.8294C-74.0553 -51.3696 -78.8225 -44.4891 -76.934 -33.5627C-74.7859 -21.1385 -63.1493 -1.98463 -55.6328 8.60855L-48.8147 17.4649C-47.5793 19.1433 -42.1567 25.3221 -41.9894 26.3905C-44.0452 26.2468 -48.5361 23.7128 -50.5711 22.797C-53.7069 21.3857 -56.5086 20.4664 -59.8164 19.219C-71.6297 14.7587 -92.0116 11.9922 -104.418 15.2017C-111.126 16.9373 -117.353 20.5833 -119.709 25.5892C-121.62 29.6435 -121.995 30.5802 -121.996 35.8073C-122.001 40.1729 -122.135 43.3806 -120.295 46.9651C-114.535 58.1891 -96.4168 61.3599 -84.2165 61.8905C-77.4103 62.1845 -72.3085 62.4855 -65.3331 62.3067C-63.5292 62.259 -61.0484 61.4583 -59.6647 62.188Z" fill="#40972E"/>
</svg>
