<svg width="380" height="339" viewBox="0 0 380 339" fill="none" xmlns="http://www.w3.org/2000/svg">
<path opacity="0.6" fill-rule="evenodd" clip-rule="evenodd" d="M180.762 286.012C185.55 287.67 187.965 303.217 188.138 307.632C189.064 331.231 177.304 363.071 191.874 377.604C196.638 382.359 202.95 384.277 208.501 384.537C220.397 385.097 224.37 385.28 230.25 375.336C234.127 368.777 242.991 373.62 251.947 364.478C262.515 353.688 261.699 341.472 258.457 332.637C249.269 307.585 213.969 290.379 210.626 277.154C212.276 275.347 212.785 275.661 215.048 276.369C216.621 276.859 218.393 277.475 219.982 277.968C238.587 283.735 251.211 300.115 262.721 314.473C267.312 320.199 272.724 326.874 280.154 330.401C285.96 333.153 294.647 332.743 298.847 330.337C307.931 325.134 306.34 315.29 310.126 312.452C313.501 309.922 321.379 309.508 327.426 302.651C332.742 296.626 334.945 288.334 333.505 282.951L331.187 273.955C329.983 270.517 328.799 268.308 331.655 264.549C338.077 256.095 337.861 252.828 334.675 245.406C326.203 225.678 309.58 224.193 292.621 227.83C290.942 228.191 289.78 228.665 288.108 229.012L279.072 231.049C270.553 232.997 234.846 242.922 228.605 239.256C234.449 233.018 263.974 221.947 274.026 218.244C283.367 214.802 292.462 212.448 301.933 209.642C313.785 206.127 328.115 203.228 332.893 184.921C337.601 166.886 325.744 166.489 324.619 156.942C323.575 148.11 326.041 137.697 313.11 129.889C306.019 125.606 299.576 126.936 293.142 126.23C284.268 125.257 284.416 114.408 274.878 113.732C268.435 113.278 261.649 118.264 257.017 123.013C249.897 130.31 240.591 154.426 236.476 164.187C232.837 172.817 218.651 201.558 211.466 206.066C208.822 203.218 214.017 195.414 215.481 192.185C217.767 187.133 219.577 182.609 221.59 177.648C223.341 173.335 225.171 168.078 226.424 163.741C230.075 151.11 234.824 134.379 227.007 123.152C223.916 118.712 217.446 116.048 213.273 115.914C209.47 115.794 202.179 118.613 199.961 117.937C194.757 116.346 195.014 110.25 186.585 112.036C177.697 113.921 168.812 126.694 167.859 135.425C166.363 149.131 169.435 161.968 170.549 175.532C170.954 180.469 174.57 198.425 171.106 202.684C167.293 196.746 169.172 170.757 152.854 147.761C145.379 137.224 136.447 130.461 125.317 131.887C119.455 132.638 117.661 137.042 111.356 134.758C105.589 132.666 101.083 132.096 96.6374 132.9C88.8771 134.306 75.7615 144.895 72.5471 155.036C69.4775 164.723 70.597 175.431 74.3626 183.563C78.8107 193.171 85.6666 202.162 94.2119 209.473C99.2198 213.756 104.161 217.562 109.677 221.321C113.058 223.621 124.241 229.268 125.331 232.398C122.977 233.941 115.272 231.307 112.23 230.312C85.1291 221.474 73.0309 191.485 47.2573 179.496C37.8857 175.135 27.5916 174.037 20.6124 178.723C10.0805 185.797 15.3309 197.09 0.754458 199.239C-13.8387 201.388 -24.6956 213.913 -22.5968 230.266C-22.3233 232.398 -22.1291 234.474 -21.2201 236.683C-20.3441 238.81 -19.1401 240.919 -19.413 243.049C-20.3702 250.515 -30.7741 254.449 -24.7255 270.311C-15.447 294.638 11.2951 292.369 29.4741 290.761C30.891 290.636 30.9298 290.474 32.494 290.199C35.3189 289.705 57.7589 287.457 58.6851 288.097C60.3265 289.231 59.5923 290.13 58.0429 290.985L45.2603 294.73C34.831 297.264 15.8105 302.78 8.51679 311.089C1.70905 318.842 0.802904 331.187 7.50686 337.078C9.46959 338.799 12.6976 339.707 14.269 341.276C18.1122 345.104 15.0616 354.664 27.4797 357.158C33.0954 358.283 35.7805 357.989 40.6066 356.323C64.2614 348.155 101.31 292.405 134.367 281.124C138.015 279.88 147.219 275.727 140.035 284.513C136.989 288.24 131.946 293.163 128.475 296.368C122.532 301.857 111.374 310.108 104.68 314.098C97.9195 318.127 87.822 327.439 81.525 333.808C68.6371 346.841 63.9033 365.649 77.7293 373.223C83.197 376.224 87.8956 374.876 89.9519 380.615C93.2285 389.756 97.4077 398.363 110.031 400.512C123.112 402.74 131.456 394.171 135.292 395.299C137.472 395.942 139.578 397.78 142.477 398.536C159.894 403.092 172.581 381.696 173.376 365.903C174.871 336.23 169.863 322.213 176.857 292.576C177.093 291.58 177.413 290.185 177.798 289.283L179.509 286.732C180.325 286.033 180.112 286.23 180.762 286.012Z" fill="#40972E"/>
</svg>
