<svg width="1141" height="613" viewBox="0 0 1141 613" fill="none" xmlns="http://www.w3.org/2000/svg">
<path opacity="0.6" fill-rule="evenodd" clip-rule="evenodd" d="M102.799 -15.9044C101.669 -15.0475 95.8051 -12.4404 94.1134 -11.6866C86.7123 -8.37775 84.6808 -8.96475 75.212 -3.59756C72.2155 -1.89456 69.3925 -0.782425 66.2399 0.934326C45.8727 12.0417 22.5219 34.1759 15.5224 57.0503C10.5377 73.355 15.3222 88.1236 24.4287 97.0823C26.7635 99.3812 28.1801 101.682 30.8183 103.628C36.3568 107.703 41.7532 111.267 48.9844 112.353C52.6525 112.9 58.5749 112.848 62.3294 112.623C73.4899 111.96 90.9067 96.4924 95.0755 91.3873C99.1423 86.4039 103.748 82.62 107.884 77.7789C117.756 66.2348 127.994 51.1433 137.894 40.2891C139.308 38.7392 145.776 29.8718 144.12 36.4934C142.788 41.8135 143.068 36.6161 142.2 46.9529C140.302 69.5848 137.616 98.4822 146.993 119.493C148.73 123.39 149.598 126.534 151.758 130.614C153.881 134.612 156.107 136.474 159.169 139.631C165.136 145.78 174.599 146.706 183.936 147.175C197.242 147.845 199.165 143.335 201.213 132.405C205.561 109.225 197.058 76.2261 198.509 72.9261C199.391 73.6269 206.452 85.9761 207.462 87.84C208.94 90.5806 210.673 92.3641 212.407 94.6344C214.356 97.1826 215.511 99.2281 217.382 101.969C227.668 117.013 239.254 128.251 252.835 139.317C257.075 142.769 262.204 146.175 267.392 148.827C280.504 155.524 291.905 158.849 302.996 147.828C306.007 144.832 311.66 138.354 313.292 134.072C318.763 119.709 310.542 112.242 302.206 101.103C296.406 93.3515 274.358 70.8334 266.893 63.0408C262.471 58.4275 244.047 41.4827 243.771 37.6929C246.206 38.0237 255.699 42.584 259.234 43.6941C264.667 45.4001 270.612 47.6371 276.295 48.9809C284.742 50.9813 295.184 53.5746 304.163 53.7444C320.126 54.0507 336.737 56.1737 354.44 50.1744C359.419 48.4881 365.578 46.1403 369.647 43.6805C378.832 38.1297 376.193 14.0343 373.224 8.40793C366.432 -4.44662 342.918 -12.1402 330.446 -15.1644C318.632 -18.0305 306.183 -20.4619 293.968 -22.746L261.121 -28.0218C258.533 -28.4301 257.937 -28.0414 256.763 -29.4048C259.61 -30.885 298.507 -34.5463 311.355 -38.0357C325.501 -41.8776 346.438 -46.7364 357.878 -56.1182C366.024 -62.7957 370.076 -74.0591 365.938 -88.8385C363.04 -99.1725 355.776 -108.903 345.709 -111.426C315.076 -119.109 285.716 -108.858 258.037 -97.2858C253.902 -95.5583 245.369 -90.355 243.109 -90.5081C243.03 -92.3888 247.506 -102.592 248.836 -105.28C251.714 -111.103 257.806 -129.76 259.153 -136.657C260.286 -142.469 261.347 -148.32 262.195 -154.614C263.598 -165.024 263.682 -183.991 261.257 -193.657C257.464 -208.79 255.795 -212.188 243.891 -218.565C232.741 -224.536 220.343 -222.259 212.166 -215.304C199.112 -204.2 191.69 -171.384 190.179 -153.267C189.697 -147.486 188.284 -140.694 187.947 -134.472C187.71 -130.104 187.691 -117.982 185.595 -115.72C184.787 -116.669 180.51 -132.378 179.508 -135.432L172.175 -153.902C169.188 -159.59 166.307 -165.497 163.252 -170.802C153.7 -187.363 127.407 -220.185 106.896 -218.654C101.989 -218.286 91.9032 -212.627 88.7084 -210.195C79.0667 -202.853 71.2051 -191.526 74.3194 -173.538C77.8619 -153.084 97.052 -121.551 109.448 -104.112L120.692 -89.5316C122.729 -86.7685 131.671 -76.5964 131.947 -74.8375C128.557 -75.074 121.151 -79.2457 117.795 -80.7534C112.624 -83.0768 108.003 -84.5903 102.548 -86.6438C83.0668 -93.9868 49.4545 -98.5413 28.9951 -93.2575C17.9328 -90.4002 7.66289 -84.3979 3.77778 -76.1567C0.627075 -69.482 0.00857675 -67.9401 0.00661309 -59.3347C-0.00222341 -52.1477 -0.222099 -46.8669 2.81176 -40.9658C12.311 -22.4878 42.1899 -17.2678 62.3096 -16.3942C73.5339 -15.9103 81.9475 -15.4146 93.4506 -15.7091C96.4256 -15.7876 100.517 -17.1058 102.799 -15.9044Z" fill="#40972E"/>
<path opacity="0.6" fill-rule="evenodd" clip-rule="evenodd" d="M830.232 696.758C839.218 699.868 843.749 729.046 844.074 737.33C845.812 781.618 823.743 841.374 851.086 868.647C860.025 877.57 871.872 881.169 882.29 881.657C904.615 882.709 912.07 883.051 923.106 864.391C930.382 852.08 947.016 861.17 963.823 844.013C983.658 823.763 982.126 800.838 976.042 784.258C958.799 737.242 892.552 704.952 886.277 680.134C889.374 676.742 890.329 677.331 894.577 678.661C897.528 679.58 900.853 680.736 903.835 681.661C938.752 692.484 962.444 723.224 984.043 750.169C992.66 760.916 1002.82 773.443 1016.76 780.06C1027.66 785.226 1043.96 784.457 1051.84 779.942C1068.89 770.177 1065.9 751.703 1073.01 746.377C1079.34 741.628 1094.13 740.853 1105.47 727.984C1115.45 716.676 1119.59 701.115 1116.88 691.013L1112.53 674.129C1110.27 667.677 1108.05 663.531 1113.41 656.478C1125.46 640.613 1125.06 634.482 1119.08 620.553C1103.18 583.528 1071.98 580.743 1040.16 587.567C1037 588.246 1034.82 589.134 1031.69 589.786L1014.73 593.608C998.742 597.264 931.73 615.89 920.018 609.01C930.986 597.305 986.395 576.526 1005.26 569.577C1022.79 563.119 1039.86 558.7 1057.63 553.433C1079.87 546.839 1106.77 541.397 1115.73 507.042C1124.57 473.195 1102.32 472.45 1100.21 454.533C1098.25 437.958 1102.88 418.415 1078.61 403.762C1065.3 395.725 1053.21 398.221 1041.13 396.896C1024.48 395.071 1024.76 374.709 1006.86 373.441C994.767 372.59 982.031 381.946 973.339 390.858C959.977 404.553 942.513 449.81 934.79 468.13C927.961 484.325 901.337 538.263 887.855 546.723C882.892 541.378 892.641 526.733 895.388 520.673C899.678 511.192 903.075 502.702 906.853 493.391C910.14 485.297 913.574 475.432 915.925 467.292C922.777 443.587 931.69 412.188 917.02 391.12C911.218 382.787 899.076 377.787 891.244 377.536C884.108 377.31 870.424 382.602 866.263 381.332C856.496 378.347 856.978 366.907 841.16 370.259C824.48 373.795 807.806 397.768 806.017 414.153C803.209 439.875 808.975 463.966 811.065 489.42C811.826 498.686 818.612 532.383 812.11 540.376C804.956 529.233 808.482 480.46 777.858 437.302C763.828 417.529 747.066 404.836 726.179 407.513C715.178 408.922 711.812 417.187 699.979 412.899C689.155 408.974 680.699 407.905 672.356 409.414C657.793 412.051 633.179 431.925 627.146 450.956C621.386 469.135 623.487 489.231 630.554 504.492C638.901 522.524 651.768 539.396 667.804 553.118C677.203 561.156 686.475 568.298 696.828 575.351C703.172 579.668 724.159 590.266 726.206 596.141C721.787 599.035 707.327 594.093 701.619 592.226C650.759 575.639 628.054 519.359 579.685 496.859C562.098 488.676 542.779 486.614 529.681 495.409C509.916 508.685 519.769 529.878 492.414 533.91C465.027 537.944 444.652 561.45 448.591 592.139C449.104 596.141 449.468 600.035 451.174 604.183C452.818 608.174 455.078 612.132 454.566 616.129C452.769 630.14 433.245 637.523 444.596 667.291C462.009 712.946 512.195 708.687 546.312 705.67C548.971 705.435 549.044 705.131 551.979 704.616C557.281 703.687 599.393 699.469 601.132 700.67C604.212 702.798 602.834 704.485 599.926 706.09L575.938 713.118C556.365 717.873 520.669 728.225 506.981 743.819C494.205 758.368 492.505 781.536 505.086 792.591C508.769 795.822 514.827 797.526 517.776 800.471C524.989 807.655 519.264 825.596 542.569 830.275C553.108 832.387 558.147 831.836 567.204 828.71C611.597 813.379 681.126 708.755 743.162 687.584C750.01 685.249 767.282 677.454 753.801 693.944C748.084 700.939 738.619 710.176 732.106 716.192C720.953 726.492 700.012 741.978 687.45 749.465C674.762 757.027 655.812 774.502 643.995 786.456C619.808 810.915 610.925 846.211 636.872 860.426C647.133 866.056 655.951 863.527 659.81 874.297C665.959 891.452 673.802 907.605 697.492 911.638C722.042 915.82 737.699 899.737 744.9 901.855C748.99 903.061 752.942 906.511 758.383 907.93C791.07 916.48 814.88 876.327 816.371 846.688C819.177 791 809.778 764.695 822.903 709.075C823.347 707.206 823.947 704.588 824.67 702.896L827.881 698.109C829.412 696.796 829.013 697.166 830.232 696.758Z" fill="#40972E"/>
</svg>
