<svg width="21" height="20" viewBox="0 0 21 20" fill="none" xmlns="http://www.w3.org/2000/svg">
<path d="M4.73163 3.05249H3.80176V0.464938C3.80176 0.20818 4.00994 0 4.2667 0C4.52345 0 4.73163 0.208136 4.73163 0.464938V3.05249Z" fill="currentColor"/>
<path d="M7.46503 3.05249H6.53516V0.464938C6.53516 0.20818 6.74334 0 7.00009 0C7.25685 0 7.46503 0.208136 7.46503 0.464938V3.05249Z" fill="currentColor"/>
<path d="M10.1975 3.05249H9.26758V0.464938C9.26758 0.20818 9.47571 0 9.73252 0C9.98927 0 10.1975 0.208136 10.1975 0.464938V3.05249Z" fill="currentColor"/>
<path d="M12.9309 3.05249H12.001V0.464938C12.001 0.20818 12.2091 0 12.4659 0C12.7227 0 12.9309 0.208136 12.9309 0.464938V3.05249Z" fill="currentColor"/>
<path d="M15.6633 3.05249H14.7334V0.464938C14.7334 0.20818 14.9415 0 15.1983 0C15.4551 0 15.6633 0.208136 15.6633 0.464938V3.05249Z" fill="currentColor"/>
<path d="M19.4642 2.6127V4.17795H0V2.6127C0 2.01274 0.486371 1.52637 1.08633 1.52637H18.378C18.9779 1.52641 19.4642 2.01274 19.4642 2.6127Z" fill="currentColor"/>
<path d="M0 5.1084V17.1039C0 17.7039 0.486371 18.1902 1.08633 18.1902H11.296C11.1734 17.9816 11.0642 17.7643 10.9691 17.5393C10.6794 16.8546 10.5325 16.1273 10.5325 15.378C10.5325 14.6286 10.6794 13.9015 10.9691 13.2167C11.2487 12.5555 11.649 11.9617 12.1588 11.452C12.6685 10.9422 13.2623 10.5419 13.9235 10.2623C14.6083 9.97264 15.3354 9.8257 16.0848 9.8257C16.8342 9.8257 17.5614 9.97264 18.2461 10.2623C18.6833 10.4473 19.0908 10.6848 19.4642 10.9718V5.10844L0 5.1084ZM3.70076 15.736C3.70076 15.8745 3.58846 15.9868 3.44994 15.9868H2.40617C2.26765 15.9868 2.15534 15.8745 2.15534 15.736V14.6922C2.15534 14.5537 2.26765 14.4414 2.40617 14.4414H3.44994C3.58846 14.4414 3.70076 14.5537 3.70076 14.6922V15.736ZM3.70076 12.1946C3.70076 12.3331 3.58846 12.4454 3.44994 12.4454H2.40617C2.26765 12.4454 2.15534 12.3331 2.15534 12.1946V11.1509C2.15534 11.0123 2.26765 10.9 2.40617 10.9H3.44994C3.58846 10.9 3.70076 11.0123 3.70076 11.1509V12.1946ZM3.70076 8.65328C3.70076 8.7918 3.58846 8.9041 3.44994 8.9041H2.40617C2.26765 8.9041 2.15534 8.7918 2.15534 8.65328V7.60951C2.15534 7.47099 2.26765 7.35868 2.40617 7.35868H3.44994C3.58846 7.35868 3.70076 7.47099 3.70076 7.60951V8.65328ZM8.23681 15.736C8.23681 15.8745 8.12451 15.9868 7.98598 15.9868H6.94221C6.80369 15.9868 6.69139 15.8745 6.69139 15.736V14.6922C6.69139 14.5537 6.80369 14.4414 6.94221 14.4414H7.98598C8.12451 14.4414 8.23681 14.5537 8.23681 14.6922V15.736ZM8.23681 12.1946C8.23681 12.3331 8.12451 12.4454 7.98598 12.4454H6.94221C6.80369 12.4454 6.69139 12.3331 6.69139 12.1946V11.1509C6.69139 11.0123 6.80369 10.9 6.94221 10.9H7.98598C8.12451 10.9 8.23681 11.0123 8.23681 11.1509V12.1946ZM8.23681 8.65328C8.23681 8.7918 8.12451 8.9041 7.98598 8.9041H6.94221C6.80369 8.9041 6.69139 8.7918 6.69139 8.65328V7.60951C6.69139 7.47099 6.80369 7.35868 6.94221 7.35868H7.98598C8.12451 7.35868 8.23681 7.47099 8.23681 7.60951V8.65328ZM12.7729 8.65328C12.7729 8.7918 12.6606 8.9041 12.522 8.9041H11.4783C11.3397 8.9041 11.2274 8.7918 11.2274 8.65328V7.60951C11.2274 7.47099 11.3397 7.35868 11.4783 7.35868H12.522C12.6606 7.35868 12.7729 7.47099 12.7729 7.60951V8.65328ZM17.3089 8.65328C17.3089 8.7918 17.1966 8.9041 17.0581 8.9041H16.0143C15.8758 8.9041 15.7635 8.7918 15.7635 8.65328V7.60951C15.7635 7.47099 15.8758 7.35868 16.0143 7.35868H17.0581C17.1966 7.35868 17.3089 7.47099 17.3089 7.60951V8.65328Z" fill="currentColor"/>
<path d="M20.3947 13.7049C20.1799 13.1531 19.862 12.6524 19.4648 12.2267C18.6204 11.3215 17.4178 10.7549 16.0853 10.7549C13.5366 10.7549 11.4629 12.8286 11.4629 15.3773C11.4629 16.4346 11.8197 17.41 12.4191 18.1896C12.6911 18.5435 13.0132 18.857 13.3747 19.1195C14.1366 19.673 15.0737 19.9998 16.0853 19.9998C17.0971 19.9998 18.034 19.673 18.7961 19.1195C19.5097 18.6012 20.07 17.8838 20.3947 17.0498C20.5968 16.5309 20.7078 15.9669 20.7078 15.3773C20.7078 14.7878 20.5968 14.2238 20.3947 13.7049ZM17.9499 17.8493L15.6784 15.5777V13.4073H16.4844V15.2439L18.5198 17.2793L17.9499 17.8493Z" fill="currentColor"/>
</svg>
