<svg width="20" height="20" viewBox="0 0 20 20" fill="none" xmlns="http://www.w3.org/2000/svg">
<path d="M0 20L1.439 14.6524C0.622276 13.1843 0.204202 11.5411 0.204202 9.87846C0.204202 4.43364 4.63782 0 10.0826 0C15.5275 0 19.9611 4.43364 19.9611 9.87846C19.9611 15.3233 15.5275 19.7569 10.0826 19.7569C8.44919 19.7569 6.8352 19.3486 5.38649 18.561L0.00973239 20H0ZM5.649 16.5581L5.98931 16.7623C7.23384 17.5012 8.64365 17.8901 10.0826 17.8901C14.4968 17.8901 18.0943 14.2927 18.0943 9.87846C18.0943 5.46427 14.4968 1.86681 10.0826 1.86681C5.66844 1.86681 2.07098 5.46427 2.07098 9.87846C2.07098 11.3369 2.47933 12.7759 3.24744 14.0301L3.45165 14.3704L2.65436 17.3554L5.65873 16.5484L5.649 16.5581Z" fill="#40972E"/>
<path fill-rule="evenodd" clip-rule="evenodd" d="M13.7927 11.8954C13.3843 11.6523 12.8593 11.38 12.3731 11.5745C12.0037 11.7203 11.7703 12.3037 11.5369 12.5954C11.4105 12.751 11.2647 12.7704 11.08 12.6926C9.69931 12.1384 8.63951 11.2245 7.88112 9.95077C7.75473 9.75632 7.77419 9.60073 7.92976 9.416C8.16311 9.14376 8.44508 8.84234 8.51314 8.47287C8.57147 8.1034 8.40617 7.68533 8.2506 7.35475C8.05614 6.93666 7.84223 6.34357 7.42415 6.11022C7.04495 5.89631 6.53938 6.01299 6.19908 6.29496C5.61571 6.77138 5.32401 7.52004 5.33373 8.2687C5.33373 8.48261 5.36292 8.6868 5.41153 8.89098C5.52821 9.37713 5.76155 9.84381 6.01435 10.2716C6.2088 10.6022 6.41297 10.9231 6.6366 11.2245C7.37554 12.2259 8.28951 13.101 9.35902 13.7524C9.89378 14.0733 10.4577 14.365 11.0508 14.5594C11.712 14.783 12.305 15.0067 13.0245 14.8706C13.7732 14.7247 14.5121 14.2677 14.8136 13.5385C14.9011 13.3246 14.9497 13.0815 14.9011 12.8579C14.8038 12.3912 14.1621 12.1092 13.7829 11.8856L13.7927 11.8954Z" fill="#40972E"/>
</svg>
