<svg width="18" height="18" viewBox="0 0 18 18" fill="none" xmlns="http://www.w3.org/2000/svg">
<path d="M0.056569 3.65336C0.998063 6.36066 2.98005 9.43566 5.7722 12.2278C8.56436 15.02 11.6394 17.002 14.3467 17.9434C14.7144 18.0707 15.1205 17.9798 15.3973 17.705L17.7065 15.3957C18.1005 15.0018 18.1005 14.3613 17.7065 13.9673L14.8073 11.0701C14.4133 10.6762 13.7729 10.6762 13.3789 11.0701L12.593 11.856C12.1849 12.2642 11.5343 12.3046 11.0777 11.949C10.1746 11.2459 9.27959 10.456 8.41285 9.58919C7.54611 8.72245 6.75615 7.82743 6.05306 6.92432C5.69745 6.46772 5.73786 5.81918 6.14599 5.40904L6.93192 4.62312C7.32589 4.22914 7.32589 3.58869 6.93192 3.19471L4.03268 0.295479C3.63871 -0.0984932 2.99825 -0.0984932 2.60428 0.295479L0.294993 2.60476C0.0202022 2.87956 -0.0707145 3.28565 0.056569 3.65336Z" fill="#40972E"/>
</svg>
