<svg width="23" height="16" viewBox="0 0 23 16" fill="none" xmlns="http://www.w3.org/2000/svg">
<path d="M11.3457 0.500005C14.7258 0.500005 18.1059 0.499964 21.486 0.500123C21.5765 0.500123 21.667 0.500559 21.7574 0.50326C21.8674 0.506596 21.9555 0.557674 22.0265 0.63842C22.137 0.764087 22.1402 0.857899 22.0186 0.975146C21.8233 1.16345 21.6213 1.34484 21.419 1.52579C19.7962 2.97796 18.1761 4.43318 16.5483 5.8797C15.2394 7.04287 13.9463 8.22392 12.6215 9.36926C12.3537 9.60077 12.0702 9.80044 11.7195 9.87547C11.1393 9.99958 10.6166 9.86546 10.1594 9.4904C9.52464 8.96978 8.91676 8.41826 8.30646 7.86952C7.07152 6.75917 5.83411 5.6516 4.59845 4.54208C3.77144 3.79952 2.94635 3.05485 2.11907 2.3126C1.69583 1.9329 1.26962 1.5565 0.84476 1.17862C0.791658 1.1314 0.735974 1.08675 0.685731 1.03663C0.615232 0.966291 0.504935 0.908937 0.54926 0.783905C0.5943 0.656808 0.685214 0.56224 0.819619 0.528838C0.893693 0.510448 0.973288 0.509575 1.05046 0.50886C1.50932 0.504729 1.96818 0.500878 2.427 0.500758C5.39991 0.500083 8.37283 0.5004 11.3458 0.5004C11.3457 0.500241 11.3457 0.500124 11.3457 0.500005Z" fill="#40972E"/>
<path d="M11.3182 15.4964C8.087 15.4964 4.85584 15.4967 1.62468 15.4957C1.38566 15.4957 1.14663 15.4864 0.907613 15.4812C0.821545 15.4793 0.74187 15.4595 0.67439 15.4015C0.528467 15.2761 0.519769 15.1626 0.662475 15.0333C1.03602 14.695 1.4154 14.3632 1.78974 14.0258C2.96078 12.9702 4.13008 11.9126 5.30108 10.8569C6.12653 10.1128 6.95468 9.3717 7.77831 8.62556C7.85302 8.55788 7.89818 8.55816 7.97059 8.62286C8.36562 8.97591 8.76435 9.32483 9.16164 9.67534C9.30697 9.80359 9.44809 9.93696 9.5977 10.06C10.1949 10.5511 10.8784 10.7744 11.6505 10.6915C12.056 10.648 12.4218 10.4871 12.7592 10.2609C13.061 10.0586 13.3228 9.80752 13.5954 9.57005C13.9607 9.25179 14.3233 8.93032 14.68 8.60253C14.7599 8.52909 14.7997 8.56714 14.855 8.61682C15.1964 8.92325 15.5391 9.22824 15.8798 9.53542C17.1803 10.708 18.4835 11.8777 19.7792 13.0557C20.4963 13.7078 21.2208 14.3515 21.9435 14.9973C21.9532 15.0059 21.9628 15.0144 21.9723 15.0233C22.1519 15.1913 22.1032 15.3934 21.8624 15.4696C21.7499 15.5052 21.632 15.4974 21.5158 15.4975C20.1781 15.4986 18.8404 15.4998 17.5027 15.5001C15.4412 15.5005 13.3797 15.5002 11.3182 15.5002C11.3182 15.4989 11.3182 15.4977 11.3182 15.4964Z" fill="#40972E"/>
<path d="M22.6579 8.02C22.6579 10.0754 22.658 12.1308 22.6578 14.1862C22.6578 14.2443 22.6595 14.3028 22.6548 14.3606C22.6456 14.4737 22.6032 14.4949 22.5063 14.4295C22.4479 14.3901 22.3966 14.3395 22.3439 14.292C21.1777 13.2403 20.0121 12.1879 18.8455 11.1365C18.4729 10.8008 18.0919 10.4742 17.7263 10.1311C17.515 9.93289 17.3059 9.72973 17.0891 9.54C16.6043 9.11569 16.1375 8.67145 15.6509 8.24929C15.561 8.17125 15.4119 8.10416 15.4156 7.98719C15.4189 7.8827 15.5681 7.8257 15.6536 7.74917C17.8398 5.79239 20.0272 3.83688 22.2148 1.88162C22.3159 1.79122 22.4173 1.70051 22.5252 1.61861C22.6092 1.55486 22.6523 1.5777 22.6607 1.6793C22.6644 1.72426 22.6622 1.76973 22.6622 1.81497C22.6623 3.88332 22.6623 5.95162 22.6623 8.01996C22.6609 8.02 22.6594 8.02 22.6579 8.02Z" fill="#40972E"/>
<path d="M0.0082266 8.02594C0.00818688 5.95113 0.00782957 3.87627 0.00961687 1.80145C0.00965658 1.72901 -0.0290685 1.62435 0.0486195 1.59146C0.125076 1.55909 0.179411 1.65557 0.234976 1.70501C1.48525 2.81795 2.73604 3.9304 3.98322 5.04679C5.0282 5.98214 6.08453 6.90487 7.10925 7.86274C7.12816 7.88038 7.14809 7.89698 7.16632 7.91525C7.26367 8.01287 7.26621 8.01593 7.16509 8.10927C6.90875 8.34591 6.65071 8.5808 6.39159 8.81442C5.0477 10.0262 3.70436 11.2386 2.35853 12.4483C1.6616 13.0747 0.960064 13.6959 0.259998 14.3187C0.207134 14.3658 0.152085 14.4118 0.0923093 14.449C0.0553718 14.4721 0.0153366 14.4615 0.0132713 14.4054C0.0104116 14.3279 0.00846538 14.2504 0.00846538 14.1728C0.00822707 12.1239 0.00826632 10.0749 0.0082266 8.02594Z" fill="#40972E"/>
</svg>
