<svg width="20" height="20" viewBox="0 0 20 20" fill="none" xmlns="http://www.w3.org/2000/svg">
<path fill-rule="evenodd" clip-rule="evenodd" d="M16.4811 3.69153C17.3877 3.30981 18.3596 4.07642 18.1995 5.04699L16.3088 16.5109C16.1264 17.6162 14.9124 18.2505 13.8983 17.6997C13.0498 17.2387 11.7908 16.5293 10.6561 15.7879C10.0895 15.4177 8.35458 14.2305 8.56783 13.3854C8.75017 12.6628 11.6667 9.94792 13.3334 8.33333C13.9881 7.69911 13.6899 7.33272 12.9168 7.91667C10.9988 9.36525 7.91943 11.5677 6.90113 12.1875C6.00269 12.7343 5.53359 12.8277 4.97405 12.7343C3.95228 12.5641 3.00497 12.3004 2.23157 11.9798C1.18626 11.5465 1.23718 10.11 2.23086 9.69167L16.4811 3.69153Z" fill="#40972E"/>
</svg>
