<svg width="55" height="55" viewBox="0 0 55 55" fill="none" xmlns="http://www.w3.org/2000/svg">
<rect y="5" width="50" height="50" rx="10" fill="#40972E"/>
<path d="M10 45L12.1585 36.9786C10.9334 34.7764 10.3063 32.3116 10.3063 29.8177C10.3063 21.6505 16.9567 15 25.124 15C33.2912 15 39.9417 21.6505 39.9417 29.8177C39.9417 37.9849 33.2912 44.6354 25.124 44.6354C22.6738 44.6354 20.2528 44.0228 18.0797 42.8415L10.0146 45H10ZM18.4735 39.8371L18.984 40.1434C20.8508 41.2518 22.9655 41.8352 25.124 41.8352C31.7452 41.8352 37.1415 36.439 37.1415 29.8177C37.1415 23.1964 31.7452 17.8002 25.124 17.8002C18.5027 17.8002 13.1065 23.1964 13.1065 29.8177C13.1065 32.0053 13.719 34.1638 14.8712 36.0452L15.1775 36.5557L13.9815 41.0331L18.4881 39.8225L18.4735 39.8371Z" fill="white"/>
<path fill-rule="evenodd" clip-rule="evenodd" d="M30.6887 32.843C30.0762 32.4784 29.2887 32.07 28.5594 32.3617C28.0052 32.5805 27.6552 33.4556 27.3052 33.8931C27.1156 34.1265 26.8968 34.1556 26.6197 34.0389C24.5487 33.2076 22.959 31.8367 21.8214 29.9262C21.6318 29.6345 21.661 29.4011 21.8944 29.124C22.2444 28.7156 22.6674 28.2635 22.7695 27.7093C22.857 27.1551 22.609 26.528 22.3757 26.0321C22.084 25.405 21.7631 24.5154 21.136 24.1653C20.5672 23.8445 19.8088 24.0195 19.2984 24.4424C18.4233 25.1571 17.9858 26.2801 18.0004 27.4031C18.0004 27.7239 18.0441 28.0302 18.1171 28.3365C18.2921 29.0657 18.6421 29.7657 19.0213 30.4074C19.313 30.9033 19.6192 31.3846 19.9546 31.8367C21.0631 33.3389 22.434 34.6515 24.0383 35.6286C24.8404 36.1099 25.6863 36.5474 26.576 36.8391C27.5677 37.1746 28.4573 37.51 29.5366 37.3058C30.6596 37.0871 31.768 36.4016 32.2201 35.3078C32.3513 34.9869 32.4243 34.6223 32.3513 34.2869C32.2055 33.5868 31.2429 33.1639 30.6741 32.8284L30.6887 32.843Z" fill="white"/>
<circle cx="45" cy="10" r="10" fill="#FF0000"/>
<path d="M44.884 14.4V7.056L43 8.112V7.176L44.98 6H45.844V14.4H44.884Z" fill="white"/>
</svg>
