<svg width="28" height="30" viewBox="0 0 28 30" fill="none" xmlns="http://www.w3.org/2000/svg">
<path d="M14.1107 1.95482L10.5441 1.94589C10.5174 1.80806 10.5363 1.63152 10.5361 1.48931L10.536 0.870152C10.5366 0.502913 10.5891 0.181809 10.9905 0.0400429L11.0154 0.0316065C11.1358 -0.00989155 11.271 0.00148327 11.3966 0.00127338L13.7199 0.000454097L16.4145 0.00109072C17.1457 0.00196415 17.2521 0.26748 17.2534 0.993116L17.2579 1.95427L14.1107 1.95482Z" fill="#0E6024"/>
<path d="M25.6451 23.3378L0.992643 23.3399C0.8554 23.3401 0.662541 23.3629 0.529983 23.3292C0.216781 23.2495 0.00900657 22.8538 0.00453109 22.5508L0.00175505 4.02255C-0.00213137 3.54545 -0.0415102 2.98506 0.599621 2.85825L2.17097 2.82336L26.1568 2.82426C26.4612 2.82487 26.7765 2.80982 27.0797 2.83479C27.8501 2.89829 27.7711 3.61686 27.7708 4.14141L27.7721 22.5276C27.7703 23.2963 27.2327 23.3434 26.6305 23.3408L25.6451 23.3378ZM1.44022 4.27183L1.45107 18.6196C1.45186 18.746 1.4392 18.9013 1.47223 19.0224L3.78596 19.0216C3.86313 19.0216 3.95044 19.0305 4.02592 19.0143C4.23449 18.727 4.46681 18.4645 4.69657 18.1936L11.9441 9.43253C12.4146 8.86434 12.9381 8.2044 13.5728 8.99042L17.585 14.2229C17.7665 14.4541 18.0012 14.7048 18.1249 14.971C18.4006 14.5666 18.7424 14.2041 19.0469 13.8207L19.4283 13.3222C19.6033 13.089 19.7475 12.8763 20.0406 12.7893C20.7215 12.7283 20.8279 13.0541 21.1616 13.5617L24.4991 18.7527C24.7573 19.1312 24.6651 19.0287 25.1114 19.0246L26.325 19.0294L26.3368 4.60259C26.3363 4.50476 26.3516 4.36971 26.326 4.27722L1.44022 4.27183Z" fill="#0E6024"/>
<path d="M25.7126 29.7913C25.4392 30.0495 25.1033 29.9781 24.7555 29.9774C23.8769 29.976 23.6283 30.1001 23.2359 29.1691L21.5559 24.9352C21.4615 24.7022 21.3711 24.4644 21.2437 24.2471L23.9363 24.2833C24.0544 24.6408 24.2257 24.9913 24.366 25.3422L25.746 28.7415C25.9045 29.1503 26.0242 29.4103 25.7126 29.7913Z" fill="#0E6024"/>
<path d="M4.28537 29.6429C3.97716 30.1292 3.50186 29.9756 2.98567 29.9809C2.78909 29.9829 2.52616 30.0164 2.33915 29.9693C2.0731 29.9022 1.83197 29.5103 1.87767 29.2412C1.90436 29.084 1.97167 28.9282 2.03041 28.781L3.55947 24.9496C3.64204 24.7377 3.73175 24.5162 3.78383 24.2947L3.78838 24.2743L6.54686 24.2686C6.53988 24.2907 6.54371 24.2823 6.53295 24.3023C6.302 24.7316 6.1398 25.2077 5.95548 25.6592L4.89815 28.2694C4.71111 28.7299 4.53568 29.2131 4.28537 29.6429Z" fill="#0E6024"/>
</svg>
