<svg width="26" height="26" viewBox="0 0 26 26" fill="none" xmlns="http://www.w3.org/2000/svg">
<path d="M14.3687 24.4458H15.932C16.2026 24.4458 16.4219 24.6674 16.4219 24.9407C16.4219 25.2139 16.2026 25.4354 15.932 25.4354H14.3687C13.2984 25.4354 12.4306 24.5589 12.4306 23.4777C12.4306 22.3967 13.2984 21.52 14.3687 21.52H20.2996C20.8988 21.52 21.4007 21.216 21.4007 20.5676C21.4007 20.2093 21.2087 19.8818 20.8881 19.7237C20.694 19.6281 20.5122 19.6112 20.2996 19.6151H19.4914C19.0656 19.6151 18.8496 19.107 19.1239 18.793C19.8972 17.7126 20.4625 16.5485 20.8199 15.2892C21.3072 13.5726 21.034 10.7086 21.3902 9.93706C21.7743 9.10478 22.4514 8.84791 23.2979 8.8239C23.5773 8.81591 23.8593 8.80786 23.9847 8.67838C24.15 8.4899 24.2866 8.27838 24.3938 8.04374C24.4644 7.88987 24.522 7.72617 24.5668 7.55275C24.1563 7.22838 23.8307 6.85271 23.59 6.42578C23.0312 5.43478 23.402 4.60623 22.4309 4.08644C22.0459 3.88045 21.5294 3.75328 20.8819 3.70532C20.709 3.69302 20.5633 3.59128 20.4863 3.448C20.1931 2.96327 20.1026 2.41724 20.1541 1.85846C19.9605 2.00688 19.7876 2.17544 19.6355 2.36414C19.2729 2.81418 19.0215 3.3861 18.8815 4.07972C18.8482 4.24404 18.7356 4.38 18.5811 4.44116C18.0849 4.63829 17.5973 5.06177 17.2854 5.65681C17.0164 6.17017 16.8804 6.811 16.9835 7.54595C17.0204 7.81602 16.8338 8.0652 16.5663 8.10266C16.299 8.13995 16.0523 7.95132 16.0152 7.68125C15.8811 6.72336 16.0629 5.87929 16.4206 5.19685C16.797 4.47837 17.3712 3.93875 17.9806 3.63132C18.1617 2.88913 18.4607 2.25927 18.8778 1.74172C19.3463 1.16019 19.9573 0.727676 20.7104 0.444328C21.0966 0.298889 21.4853 0.679262 21.3382 1.07822C21.1487 1.59069 21.0106 2.21779 21.2251 2.74488C21.887 2.81842 22.4407 2.97438 22.8863 3.21274C24.4847 4.06823 23.7372 4.69309 24.4395 5.93872C24.6516 6.31485 24.9592 6.64152 25.3624 6.91861C25.5295 7.01989 25.6272 7.2174 25.5932 7.42347C25.5304 7.79617 25.4266 8.1409 25.2817 8.45737C25.1355 8.77695 24.9467 9.06836 24.7156 9.33149C24.2795 9.77198 23.9095 9.79301 23.3247 9.80965C22.8632 9.82269 22.4998 9.87416 22.278 10.3546C22.1185 10.7001 22.1791 14.0887 21.7613 15.5599C21.4543 16.6422 21.0037 17.6619 20.4098 18.6254C20.733 18.6291 21.042 18.6992 21.3168 18.8346C21.9717 19.1573 22.3805 19.8332 22.3805 20.5675C22.3805 21.7569 21.4497 22.5096 20.2996 22.5096H14.3687C13.8393 22.5096 13.4103 22.943 13.4103 23.4777C13.4103 24.0126 13.8393 24.4458 14.3687 24.4458ZM6.28773 3.57248C5.90215 3.57248 5.58966 3.88812 5.58966 4.27752C5.58966 4.667 5.90215 4.98265 6.28773 4.98265C6.67317 4.98265 6.98565 4.66701 6.98565 4.27752C6.98565 3.88812 6.67317 3.57248 6.28773 3.57248ZM21.2128 5.47147C21.4734 5.47147 21.6849 5.685 21.6849 5.94851C21.6849 6.21194 21.4735 6.42555 21.2128 6.42555C20.9519 6.42555 20.7404 6.21194 20.7404 5.94851C20.7404 5.685 20.9519 5.47147 21.2128 5.47147ZM8.0383 2.65844C8.0383 2.38517 8.2576 2.16365 8.52814 2.16365C8.79868 2.16365 9.01813 2.38517 9.01813 2.65844V6.8647C9.14808 7.81684 9.94819 8.52011 10.8997 8.52011C11.864 8.52011 12.4735 7.96989 12.7718 7.07974C13.2461 5.66427 12.8285 3.68182 11.8297 2.6463C11.3083 2.10541 10.66 1.73011 9.96178 1.54111C9.26356 1.35212 8.51602 1.34995 7.79536 1.55528C7.07499 1.76054 6.43895 2.1568 5.94172 2.68612C5.44464 3.21529 5.08638 3.87738 4.92127 4.61435C4.87136 4.839 4.67333 5.00114 4.44487 5.00092H2.30592C2.10448 5.5022 2.06669 6.04204 2.17728 6.54921C2.30739 7.14648 2.64202 7.69714 3.15564 8.08542C3.66956 8.47372 4.28729 8.6425 4.89159 8.60006C5.49366 8.55777 6.08112 8.3041 6.53685 7.8475C6.72823 7.65538 7.03748 7.65619 7.22768 7.84936C7.38702 8.01129 7.41228 8.25689 7.30373 8.44529C6.34693 10.3365 5.66039 12.2744 5.26151 14.0947C4.8554 15.9474 4.74893 17.6735 4.96069 19.0963C5.00529 19.3957 4.77447 19.6643 4.47661 19.6645L2.58753 19.6643C2.10846 19.7039 1.74253 20.1071 1.74253 20.5922C1.74253 21.0791 2.1101 21.4821 2.59064 21.52H10.5723C11.4311 21.52 12.0941 21.3392 12.5349 21.0155C12.9623 20.7017 13.1602 20.2634 13.1602 19.734C13.1602 17.6805 11.0781 16.9891 11.4619 14.5249C11.5618 13.8826 11.8371 13.2978 12.2298 12.8232C12.622 12.3491 13.1347 11.9816 13.7099 11.7732C14.4759 11.4959 15.3466 11.5013 16.1874 11.9118C16.4304 12.0303 16.5325 12.3254 16.4151 12.5708C16.2978 12.8164 16.0056 12.9194 15.7625 12.8009C15.1749 12.514 14.5694 12.509 14.0391 12.7011C13.6312 12.8487 13.2643 13.1134 12.9798 13.4573C12.6958 13.8005 12.4974 14.2194 12.4263 14.6757C12.1418 16.5025 14.14 17.5712 14.14 19.734C14.14 20.5817 13.791 21.3147 13.109 21.8156C12.5025 22.2608 11.644 22.5096 10.5723 22.5096H2.59064C1.57728 22.483 0.762695 21.6087 0.762695 20.5922C0.762695 19.6053 1.58747 18.6748 2.59064 18.6748H3.92475C3.79553 17.2594 3.92785 15.619 4.30857 13.8823C4.6237 12.4437 5.11045 10.9364 5.76052 9.43487C5.49839 9.51624 5.22858 9.56674 4.95672 9.58583C4.12898 9.64393 3.27999 9.41047 2.57025 8.87399C1.86038 8.33751 1.39889 7.58048 1.2205 6.76176C1.04432 5.9532 1.14312 5.08287 1.54981 4.30377C1.62645 4.13132 1.79791 4.01124 1.99712 4.01124H4.07079C4.30383 3.25152 4.70565 2.56795 5.23375 2.00574C5.84985 1.34976 6.63815 0.858701 7.5313 0.604293C8.4243 0.349884 9.35009 0.352353 10.2143 0.586243C11.0785 0.820143 11.882 1.286 12.5301 1.95815C13.783 3.25741 14.2879 5.63576 13.698 7.39668C13.2651 8.68827 12.2856 9.50974 10.8997 9.50974C9.45568 9.50974 8.22982 8.42081 8.04463 6.97454C8.0405 6.94865 8.03828 6.92211 8.03828 6.89504V2.65844H8.0383Z" fill="currentColor"/>
</svg>
