<svg width="16" height="19" viewBox="0 0 16 19" fill="none" xmlns="http://www.w3.org/2000/svg">
<path d="M7.59961 0C11.797 0 15.2 3.40231 15.2002 7.59961C15.2002 9.69742 14.3502 11.5975 12.9756 12.9727C11.6004 14.3486 8.36021 16.3398 8.16992 18.4297C8.14143 18.7431 7.91425 19 7.59961 19C7.28517 18.9998 7.05875 18.7429 7.03027 18.4297C6.84 16.3398 3.59977 14.3486 2.22461 12.9727C0.849903 11.5975 0 9.69747 0 7.59961C0.000211034 3.40244 3.40244 0.00021103 7.59961 0ZM7.59961 4.56055C5.92087 4.56079 4.56055 5.92179 4.56055 7.60059C4.56057 9.27936 5.92088 10.6404 7.59961 10.6406C9.27854 10.6406 10.6396 9.27951 10.6396 7.60059C10.6396 5.92164 9.27855 4.56055 7.59961 4.56055Z" fill="#E8651C"/>
</svg>
