<svg width="17" height="31" viewBox="0 0 17 31" fill="none" xmlns="http://www.w3.org/2000/svg">
<path fill-rule="evenodd" clip-rule="evenodd" d="M14.3563 15.5049H1.6602C1.20408 15.5049 0.789102 15.6918 0.487996 15.9929C0.186908 16.294 0 16.709 0 17.165V18.8252H0.9972C1.00016 18.8252 1.00313 18.8252 1.0061 18.8252H15.0152H16.0164V17.165C16.0164 16.7089 15.8295 16.294 15.5284 15.9929C15.2274 15.6918 14.8124 15.5049 14.3563 15.5049Z" fill="#0E6024"/>
<path fill-rule="evenodd" clip-rule="evenodd" d="M14.5133 19.6738H1.49316L1.94982 22.7453L13.9938 22.731L14.5133 19.6738Z" fill="#0E6024"/>
<path fill-rule="evenodd" clip-rule="evenodd" d="M13.8497 23.5771L2.07617 23.5911L2.498 26.4283L13.3681 26.4142L13.5781 25.178L13.5828 25.1506L13.8497 23.5771Z" fill="#0E6024"/>
<path fill-rule="evenodd" clip-rule="evenodd" d="M13.2241 27.2607L2.62305 27.2745L2.92302 29.2922C2.96729 29.59 3.11448 29.8468 3.3254 30.0286C3.53523 30.2096 3.81074 30.3169 4.11286 30.3169H11.6886C11.9861 30.3169 12.2579 30.2129 12.4667 30.0366C12.6766 29.8593 12.8251 29.609 12.8747 29.3172L13.2241 27.2607Z" fill="#0E6024"/>
<path d="M7.3999 16.417C7.3999 16.759 7.67716 17.0363 8.01918 17.0363C8.36116 17.0363 8.63842 16.759 8.63842 16.417V11.0363C8.63842 10.6943 8.36116 10.417 8.01918 10.417C7.67717 10.417 7.3999 10.6943 7.3999 11.0363V16.417Z" fill="#0E6024"/>
<path fill-rule="evenodd" clip-rule="evenodd" d="M7.99994 10.3472C7.84288 9.40739 7.18225 8.53614 6.4987 7.86528C6.09259 7.46672 5.57383 7.13721 5.00248 6.86528C4.99349 6.8614 4.9847 6.85723 4.97608 6.85276C3.32795 6.07567 1.25196 5.77343 0.17627 5.67285C0.317374 6.93493 0.837023 10.3125 2.46895 11.9355L2.47717 11.9429L2.48793 11.953L2.48708 11.9539L2.48741 11.9542C3.48729 12.9355 4.40941 13.3807 5.21687 13.4298C5.97992 13.4761 6.65612 13.1618 7.2043 12.6128L7.22464 12.5907L7.22742 12.5878L7.22825 12.5887C7.48933 12.3221 7.6958 12.0285 7.834 11.7127C7.93312 11.4863 7.99282 11.2601 8.01912 11.036C7.99642 10.8691 7.98668 10.6982 7.99089 10.5236C7.99236 10.4645 7.9954 10.4057 7.99994 10.3472Z" fill="#0E6024"/>
<path fill-rule="evenodd" clip-rule="evenodd" d="M10.8747 5.96801C10.7499 3.73219 8.84373 1.23642 8.07605 0.316406C7.29798 1.26989 5.32743 3.88955 5.16455 6.14972C5.70501 6.42842 6.22764 6.77476 6.65346 7.19266C7.15714 7.68699 7.62455 8.25284 7.95606 8.87982C8.29214 8.18653 8.80053 7.56339 9.33897 7.0349C9.77695 6.60499 10.3177 6.25075 10.8747 5.96801Z" fill="#0E6024"/>
<path fill-rule="evenodd" clip-rule="evenodd" d="M13.5297 11.8091C15.1759 10.1932 15.6987 6.79511 15.8403 5.52832C14.3849 5.66441 11.0983 6.16968 9.51783 7.72078C9.36779 7.86804 9.23124 8.0121 9.10767 8.15287C8.98972 8.28726 8.88027 8.42263 8.77909 8.55867C8.76911 8.57429 8.75801 8.58942 8.74578 8.60388C8.51915 8.9146 8.32151 9.25125 8.1846 9.60361C7.9342 10.2481 7.90177 10.906 8.17007 11.5404C8.30574 11.8612 8.51146 12.1575 8.77017 12.4255L8.78911 12.4433L8.792 12.4462L8.79115 12.447C9.34302 13.0092 10.0268 13.3322 10.7997 13.2852C11.6013 13.2365 12.5161 12.7972 13.5077 11.8305L13.5288 11.8083L13.5297 11.8091Z" fill="#0E6024"/>
</svg>
