<svg width="50" height="87" viewBox="0 0 50 87" fill="none" xmlns="http://www.w3.org/2000/svg">
<path d="M21.4957 42.9314C23.3007 41.6744 24.6437 40.9804 26.8367 39.5134C27.2067 39.2624 27.8077 38.8534 29.0577 38.0044C31.7687 36.1504 36.2607 32.9254 40.0187 30.0924C41.8907 28.6664 43.5997 27.3644 44.8407 26.4194C45.4567 25.9404 45.9567 25.5524 46.3027 25.2834C46.3457 25.2494 46.3867 25.2184 46.4247 25.1874L46.4807 25.1444L46.5067 25.1234L46.5137 25.1184C44.3917 22.4294 45.9247 24.3734 45.4507 23.7734L45.4487 23.7744L45.4457 23.7774L45.4327 23.7874C45.3667 23.8394 45.3117 23.8844 45.2667 23.9194C45.1767 23.9914 45.1297 24.0284 45.1297 24.0284C45.1297 24.0284 44.5027 24.5464 43.4547 25.3464C42.4037 26.1644 40.9437 27.3014 39.3067 28.5764C36.0377 31.1354 32.0947 34.2954 29.3037 36.5794C27.7487 37.8594 26.7857 38.6524 26.2837 39.0664C25.2697 39.9084 24.4947 40.5934 23.7527 41.2334C23.0027 41.8584 22.3237 42.5064 21.3867 43.0714C23.2317 41.8854 24.5287 41.1124 26.7177 39.6434C27.2537 39.2724 28.2787 38.5614 29.9357 37.4134C32.8897 35.3414 36.9777 32.3674 40.2997 29.8744C41.9557 28.6214 43.4327 27.5054 44.4947 26.7014C45.5677 25.8904 46.1937 25.3714 46.1937 25.3714C46.1937 25.3714 46.2417 25.3334 46.3317 25.2614C46.3767 25.2254 46.4337 25.1814 46.4997 25.1284L46.5117 25.1184L46.5147 25.1164L46.5167 25.1154C46.0437 24.5154 47.5777 26.4574 45.4557 23.7694L45.4497 23.7744L45.4237 23.7954L45.3687 23.8384C45.3307 23.8684 45.2897 23.9004 45.2467 23.9334C44.9017 24.2024 44.4037 24.5914 43.7907 25.0704C42.5657 26.0334 40.8787 27.3584 39.0297 28.8104C35.3397 31.7234 31.0337 35.1784 28.4897 37.2464C27.3187 38.1974 26.7547 38.6544 26.4077 38.9354C24.3627 40.5914 23.2867 41.6524 21.4957 42.9314Z" fill="black"/>
<path d="M32.1959 34.7691C31.1199 34.5571 30.1929 34.3871 29.1669 34.3731C28.1489 34.3691 27.0219 34.5231 25.7339 35.1461C25.5199 35.2571 25.2369 35.4041 24.8499 35.6581C24.4709 35.9211 23.9639 36.2701 23.3969 36.8691C23.1329 37.1291 22.7259 37.6091 22.4329 38.0541C22.2749 38.2691 22.1579 38.4821 22.0709 38.6351C21.9839 38.7881 21.9289 38.8831 21.9289 38.8831C21.9289 38.8831 21.734 39.1731 21.547 39.7231C21.459 39.9971 21.3869 40.3581 21.4249 40.7391C21.4609 41.1121 21.6059 41.4681 21.7689 41.7141C22.2239 42.3871 22.804 42.6521 23.271 42.8281C23.751 42.9991 24.1789 43.0611 24.5619 43.0841C25.2859 43.1111 25.7909 43.0461 26.1429 42.9931C27.5579 42.7591 28.5599 42.2161 29.3849 41.6201C30.2099 41.0091 30.8639 40.3271 31.5929 39.5081C30.8439 40.3201 29.9909 40.7601 29.0929 41.0661C28.1889 41.3671 27.2139 41.5571 26.0069 41.6001C25.7119 41.6041 25.2659 41.6051 24.7039 41.5351C24.4459 41.4981 24.1489 41.4261 23.8629 41.3021C23.5779 41.1831 23.3069 40.9891 23.2089 40.8061C23.1349 40.6681 23.0979 40.5251 23.1879 40.2451C23.2719 39.9761 23.4379 39.6901 23.4379 39.6901C23.4379 39.6901 23.483 39.6111 23.556 39.4831C23.629 39.3561 23.7219 39.1761 23.8509 38.9961C24.0859 38.6211 24.4059 38.2101 24.6079 37.9781C25.0489 37.4521 25.4419 37.1241 25.7379 36.8721C26.0399 36.6261 26.2629 36.4731 26.4299 36.3541C27.4439 35.6931 28.3399 35.2711 29.2529 34.9901C30.1629 34.7161 31.1099 34.5751 32.1959 34.7691Z" fill="black"/>
<path d="M8.08496 24.1016C9.11096 25.3756 9.69395 26.3296 10.7939 27.9446C10.9419 28.1646 11.163 28.4946 11.437 28.9026C11.891 29.5966 12.433 30.4256 13.029 31.3366C14.662 33.8666 16.493 36.8836 18.313 39.7826C19.263 41.2136 20.206 42.5296 20.253 43.8776C20.313 44.5556 20.1579 45.1636 19.9959 45.8686C19.8419 46.5446 19.6979 47.1786 19.5649 47.7616C19.0249 50.0906 18.676 51.5926 18.676 51.5926C18.676 51.5926 17.268 57.5986 15.602 64.1786C14.299 69.2326 12.878 74.7466 12.405 76.5816C11.907 78.4746 11.701 79.5736 11.219 81.1356C11.714 79.5766 12.166 78.5546 12.805 76.7016C12.974 76.1986 13.313 75.1916 13.726 73.9646C14.653 71.1576 15.7139 67.7176 16.6429 64.4576C18.5229 57.9156 19.916 51.8836 19.916 51.8836C19.916 51.8836 20.262 50.3756 20.799 48.0386C20.927 47.4526 21.066 46.8156 21.214 46.1366C21.355 45.4946 21.562 44.6446 21.468 43.7836C21.404 42.9126 21.0809 42.0516 20.6519 41.2936C20.2199 40.5366 19.7109 39.8506 19.2339 39.1626C17.3619 36.3566 15.3789 33.3786 13.5949 30.9476C13.1529 30.3526 12.731 29.7846 12.336 29.2516C12.159 29.0216 11.994 28.8056 11.844 28.6096C11.539 28.2196 11.293 27.9066 11.129 27.6966C9.90597 26.1636 9.12096 25.3666 8.08496 24.1016Z" fill="black"/>
<path d="M13.4238 80.6007C13.9328 79.0467 14.3908 78.0277 15.0588 76.1867C15.3208 75.4557 15.8468 73.9927 16.4868 72.2097C17.5688 69.1607 18.8168 65.5537 19.9858 62.0957C22.3278 55.1807 24.3528 48.8607 24.3528 48.8607C24.3528 48.8607 24.3828 48.7487 24.4478 48.5937C24.5178 48.4347 24.5848 48.1847 24.7518 47.9007C25.0508 47.3197 25.6218 46.5357 26.5778 45.7997C28.4678 44.2817 31.8118 43.1867 35.2128 41.8577C38.6068 40.5527 42.2038 39.1387 45.1428 37.9537C46.3418 37.4667 47.3248 37.0687 47.8158 36.8687C48.2638 36.6807 48.6628 36.5127 49.0428 36.3537C49.1968 36.2907 49.3478 36.2297 49.4978 36.1677L49.7138 36.0737C49.7838 36.0567 49.6828 36.0477 49.6628 36.0347L49.5518 35.9987C49.4188 35.9497 49.2248 35.9107 49.0618 35.8697L48.7928 35.8127C48.0808 35.6617 47.4088 35.5157 46.6198 35.3027C47.4088 35.5177 48.0618 35.7307 48.7528 35.9597L49.0138 36.0467C49.0358 36.0517 49.0618 36.0527 49.0618 36.0607C49.0758 36.0677 49.0498 36.0707 49.0268 36.0707L49.0118 36.0727L48.9408 36.0937C48.5478 36.2187 48.1338 36.3497 47.6698 36.4967C47.1658 36.6627 46.1578 36.9957 44.9278 37.4017C41.9198 38.4017 38.2638 39.6537 34.8348 40.8567C31.4278 42.0797 28.0128 43.1007 25.8118 44.8037C24.7158 45.6297 23.9958 46.5857 23.6258 47.3077C23.4208 47.6617 23.3298 47.9707 23.2458 48.1707C23.1628 48.3787 23.1408 48.4677 23.1408 48.4677C23.1408 48.4677 21.0828 54.7777 18.9348 61.7547C17.8588 65.2427 16.7598 68.8967 15.8518 72.0027C15.3268 73.8237 14.8968 75.3167 14.6818 76.0627C14.1458 77.9487 13.9208 79.0427 13.4238 80.6007Z" fill="black"/>
<path d="M9.16895 24.4102C11.2769 25.0392 12.617 25.7872 15.107 26.6572C15.53 26.8022 16.217 27.0382 17.646 27.5292C18.952 27.9682 21.16 28.6782 23.051 29.2472C24.945 29.8042 26.5089 30.2642 26.5089 30.2642C26.5089 30.2642 27.822 30.6342 29.5 31.1072C31.18 31.5712 33.2329 32.1052 34.7039 32.4652C36.6599 32.9482 37.879 33.2172 38.516 33.3592C41.09 33.9382 42.623 34.0102 44.744 34.5922C42.636 33.9632 41.2969 33.2132 38.8069 32.3422C38.1919 32.1262 37.015 31.7092 35.099 31.0842C33.661 30.6112 31.636 29.9782 29.965 29.4832C28.291 28.9972 26.981 28.6162 26.981 28.6162C26.981 28.6162 25.41 28.1792 23.508 27.6492C21.603 27.1312 19.353 26.5652 18.013 26.2472C16.541 25.9072 15.8329 25.7442 15.3979 25.6432C12.8239 25.0672 11.2909 24.9922 9.16895 24.4102Z" fill="black"/>
<path d="M11.6436 29.3698C13.8606 29.2208 15.2966 29.8608 17.7006 30.7448C18.1116 30.9008 18.7736 31.1618 20.1546 31.7458C21.1386 32.1668 22.7965 32.8768 24.2076 33.4818C25.6295 34.0608 26.8036 34.5378 26.8036 34.5378C26.8036 34.5378 30.7446 36.1098 32.9666 36.8878C34.8596 37.5818 36.1056 37.9258 36.7566 38.0728C39.4106 38.6558 41.0675 38.4128 43.1425 37.7758C42.0865 38.1038 41.1346 38.0588 40.1936 37.9058C39.2456 37.7278 38.2876 37.4268 37.0846 36.9788C36.4846 36.7638 35.3686 36.3018 33.5316 35.4788C31.3776 34.5138 27.4236 32.9418 27.4236 32.9418C27.4236 32.9418 22.6986 31.0738 20.6496 30.4178C19.2036 29.9488 18.4816 29.7678 18.0406 29.6598C15.4146 29.0378 13.8126 29.1638 11.6436 29.3698Z" fill="black"/>
<path d="M10.0218 78.3431C7.88479 77.8481 6.49881 77.1141 3.78081 76.8771C3.55081 76.8631 3.2488 76.8401 2.8078 76.8361C2.5828 76.8361 2.3408 76.8341 2.0238 76.8461C1.7108 76.8731 1.2558 76.8821 0.732804 77.2431C0.319804 77.5331 0.020808 78.1041 0.00280795 78.6631C-0.023192 79.2251 0.12981 79.8021 0.52681 80.3141C1.25581 81.1721 2.1248 81.6231 2.9068 82.0471C3.6938 82.4541 4.4118 82.7671 4.9138 82.9991C5.4118 83.2351 5.7218 83.3821 5.7218 83.3821C5.7218 83.3821 6.80482 83.9271 8.24982 84.4581C9.69082 85.0031 11.4948 85.4881 12.7928 85.7541C14.8038 86.1681 16.0758 86.2631 16.7348 86.3171C19.4178 86.4971 20.9378 86.1421 23.1208 85.9591C20.9188 86.0931 19.4248 85.6941 16.8838 85.2191C16.2568 85.0871 15.0508 84.8501 13.1478 84.3111C11.9158 83.9601 10.2108 83.4151 8.85281 82.8741C7.48981 82.3421 6.46581 81.8401 6.46581 81.8401C6.46581 81.8401 6.1418 81.6871 5.6208 81.4431C5.0988 81.2071 4.38981 80.9101 3.65581 80.5571C2.93481 80.2121 2.1338 79.7711 1.7218 79.3271C1.5738 79.1711 1.4748 78.9071 1.4718 78.7111C1.4678 78.5061 1.5208 78.4081 1.5818 78.3391C1.6698 78.2411 1.9058 78.1691 2.1528 78.1321C2.4078 78.0951 2.6578 78.0701 2.8578 78.0491C3.2688 78.0181 3.55181 77.9971 3.76781 77.9811C6.31881 77.9001 7.87179 77.8921 10.0218 78.3431Z" fill="black"/>
<path d="M23.4087 40.7979C23.7177 40.4679 24.1027 40.3969 24.5827 40.1329C24.8347 39.9779 25.5697 39.5219 26.2057 39.0979C26.8367 38.6699 27.4107 38.2809 27.4107 38.2809C27.4107 38.2809 27.9867 37.8939 28.6187 37.4679C29.2507 37.0379 29.9457 36.5229 30.1837 36.3479C30.6077 36.0009 30.8167 35.6679 31.2377 35.5039C30.8027 35.6149 30.4317 35.4739 29.8547 35.5219C29.7067 35.5539 29.3917 35.5779 29.0327 35.6829C28.6697 35.7759 28.2457 35.9089 27.8597 36.0819C27.0807 36.4149 26.4507 36.8609 26.4507 36.8609C26.4507 36.8609 25.8037 37.2819 25.2047 37.8809C24.9017 38.1749 24.6207 38.5199 24.3977 38.8209C24.1677 39.1159 24.0267 39.3979 23.9427 39.5239C23.6827 40.0399 23.6737 40.4349 23.4087 40.7979Z" fill="black"/>
<path d="M22.9419 40.9353C23.1069 40.5473 23.4379 40.3713 23.7949 40.0213C23.8859 39.9253 24.0659 39.7353 24.2859 39.5033C24.4959 39.2723 24.7589 39.0183 25.0019 38.7783C25.4839 38.2943 25.9339 37.8803 25.9339 37.8803C25.9339 37.8803 26.3899 37.4733 26.9189 37.0413C27.1819 36.8243 27.4599 36.5873 27.7099 36.4003C27.9629 36.2043 28.1689 36.0433 28.2739 35.9623C28.6569 35.6403 28.8639 35.3263 29.2659 35.2003C28.8559 35.2723 28.5129 35.1033 27.9569 35.1323C27.8169 35.1613 27.5099 35.1733 27.1689 35.2833C26.8209 35.3773 26.4159 35.5233 26.0569 35.7183C25.3269 36.0933 24.7819 36.6113 24.7819 36.6113C24.7819 36.6113 24.2139 37.1033 23.7699 37.7943C23.5409 38.1323 23.3579 38.5213 23.2299 38.8583C23.0889 39.1883 23.0459 39.4913 23.0029 39.6283C22.9209 40.1763 23.0529 40.5333 22.9419 40.9353Z" fill="black"/>
<path d="M23.0659 41.2534C23.1019 41.1484 23.3589 41.1144 23.5409 41.0974C23.5779 41.0864 23.6679 41.0794 23.7419 41.0714C23.8149 41.0614 23.8999 41.0614 23.9579 41.0474C24.0759 41.0234 24.1479 40.9464 24.1479 40.9464C24.1479 40.9464 24.2299 40.8844 24.3049 40.7384C24.3429 40.6684 24.3729 40.5654 24.4009 40.4744C24.4299 40.3854 24.4429 40.2804 24.4539 40.2384C24.4729 40.0364 24.4179 39.7824 24.4979 39.7104C24.3939 39.7334 24.2149 39.5454 24.0179 39.4644C23.9719 39.4564 23.8659 39.4154 23.7559 39.4134C23.6449 39.4064 23.5119 39.4084 23.3989 39.4444C23.1679 39.5064 23.0019 39.6724 23.0019 39.6724C23.0019 39.6724 22.8189 39.8174 22.7099 40.0854C22.6539 40.2164 22.6339 40.3794 22.6359 40.5174C22.6329 40.6534 22.6849 40.7754 22.6979 40.8284C22.8059 41.0454 23.0479 41.1524 23.0659 41.2534Z" fill="black"/>
<path d="M27.8589 36.3015C27.9539 36.2845 28.1209 36.4765 28.2889 36.5805C28.3279 36.5955 28.4159 36.6465 28.5039 36.6725C28.5919 36.6995 28.6939 36.7315 28.7779 36.7335C28.9479 36.7435 29.0699 36.6835 29.0699 36.6835C29.0699 36.6835 29.1999 36.6425 29.3139 36.5165C29.3719 36.4565 29.4229 36.3635 29.4669 36.2815C29.5109 36.2025 29.5379 36.1025 29.5549 36.0645C29.6019 35.8735 29.5859 35.6165 29.6659 35.5625C29.5709 35.5635 29.4359 35.3435 29.2749 35.2205C29.2359 35.2015 29.1489 35.1395 29.0569 35.1085C28.9639 35.0735 28.8539 35.0385 28.7589 35.0365C28.5659 35.0245 28.4209 35.0965 28.4209 35.0965C28.4209 35.0965 28.2669 35.1485 28.1379 35.2915C28.0719 35.3605 28.0189 35.4625 27.9759 35.5515C27.9319 35.6385 27.9139 35.7435 27.8989 35.7835C27.8699 35.9865 27.9269 36.2355 27.8589 36.3015Z" fill="black"/>
<path d="M31.9307 38.3287C31.9917 38.0157 32.1227 37.7697 32.2177 37.4747C32.3087 37.1867 32.4237 36.8267 32.2977 36.3407C32.2587 36.2137 32.1907 36.0207 32.0327 35.7977C31.8807 35.5807 31.5977 35.3127 31.1997 35.2087C30.3637 34.9857 29.5947 35.3907 29.0857 35.7097C28.0627 36.3517 27.2867 37.0777 27.2867 37.0777C27.2867 37.0777 26.4897 37.7807 25.7167 38.6007C24.9517 39.4187 24.1187 40.3107 23.8407 40.6087C23.3357 41.1687 23.0917 41.6057 22.5347 41.9247C23.1107 41.6567 23.6147 41.6497 24.3587 41.3307C24.5497 41.2317 24.9467 41.0467 25.3857 40.7617C25.8307 40.4827 26.3297 40.1287 26.7817 39.7677C27.6837 39.0427 28.4257 38.3587 28.4257 38.3587C28.4257 38.3587 29.1787 37.6827 30.0047 36.9897C30.3947 36.6517 30.7647 36.4237 30.9557 36.4197C31.1537 36.3777 31.4127 36.5747 31.4947 36.7057C31.8637 37.1537 32.0117 37.7177 31.9307 38.3287Z" fill="black"/>
<path d="M14.5718 80.0137C15.6348 80.3037 16.4668 80.7377 17.3048 81.2317C18.1408 81.7337 18.9878 82.3007 20.0328 83.0377C20.2108 83.1607 20.4408 83.3287 20.7708 83.5757C20.9338 83.7027 21.1208 83.8487 21.3398 84.0187C21.5428 84.1817 21.8328 84.4137 22.0458 84.6097C22.0948 84.6577 22.1448 84.7097 22.1828 84.7587C22.2168 84.7967 22.2638 84.8787 22.2538 84.8607L22.2528 84.8567C22.2448 84.8527 22.3098 84.8377 22.1028 84.9237C21.9188 84.9867 21.7348 85.0187 21.4908 85.0357C21.0348 85.0757 20.7388 85.1047 20.7388 85.1047C20.7388 85.1047 20.6048 85.1097 20.3858 85.1177C20.1668 85.1277 19.8628 85.1427 19.5198 85.1357C18.8348 85.1467 17.9938 85.0867 17.3918 85.0447C15.4498 84.8677 14.2298 84.6487 13.5938 84.5597C11.0158 84.1387 9.4508 84.1617 7.2998 83.7227C9.4448 84.2367 10.7508 85.0947 13.3098 85.8407C13.9458 86.0117 15.1548 86.3917 17.2138 86.6877C17.8538 86.7687 18.7588 86.8587 19.5128 86.8517C19.8878 86.8617 20.2248 86.8447 20.4668 86.8317C20.7088 86.8197 20.8558 86.8117 20.8558 86.8117C20.8558 86.8117 21.1848 86.7817 21.6918 86.7287C21.9288 86.7067 22.3138 86.6537 22.7088 86.4977C22.9168 86.4087 23.1258 86.3197 23.3788 86.0887C23.6248 85.8717 23.8068 85.5737 23.8758 85.2437C23.9558 84.9207 23.9058 84.4737 23.6798 84.0987C23.5578 83.8957 23.4728 83.8047 23.3668 83.6877C23.2668 83.5817 23.1698 83.4977 23.0848 83.4267C22.7178 83.1407 22.4768 82.9837 22.2158 82.8097C21.9688 82.6447 21.7508 82.5117 21.5628 82.3977C21.1848 82.1717 20.9188 82.0267 20.7148 81.9197C18.2848 80.6787 16.6848 80.5677 14.5718 80.0137Z" fill="black"/>
<path d="M17.8518 33.2017C17.8598 33.1277 17.9618 33.0107 17.8698 32.7257C17.8338 32.6797 17.7338 32.5987 17.5808 32.5677C17.5058 32.5617 17.4188 32.5497 17.3098 32.5157C17.2128 32.5137 17.1268 32.5607 17.0458 32.6017C16.9168 32.7207 16.7868 32.8347 16.7448 32.9527C16.7008 33.0667 16.6878 33.1457 16.6878 33.1457C16.6878 33.1457 16.6748 33.2247 16.6838 33.3467C16.6878 33.4727 16.7758 33.6207 16.8638 33.7737C16.9288 33.8367 16.9968 33.9087 17.0898 33.9367C17.2038 33.9367 17.2898 33.9527 17.3638 33.9687C17.5198 33.9847 17.6398 33.9387 17.6878 33.9057C17.8618 33.6607 17.7988 33.5177 17.8138 33.4447C17.7898 33.4717 17.7228 33.4457 17.6838 33.4007C17.6358 33.3527 17.6138 33.2587 17.6258 33.2907V33.2917C17.6058 33.3167 17.6548 33.2357 17.7148 33.2047C17.7658 33.1727 17.8378 33.1677 17.8518 33.2017Z" fill="black"/>
<path d="M20.9209 33.3718C20.9059 33.3598 20.9199 33.2948 20.9009 33.2298C20.8959 33.1748 20.8739 33.2068 20.8649 33.0728C20.8529 33.0778 20.8409 33.0858 20.8269 33.0958C20.8149 33.1228 20.7969 33.1038 20.7739 33.0548C20.7279 32.9268 20.6349 32.9258 20.5159 32.9438C20.3949 32.9618 20.2539 33.0308 20.1549 33.1388C19.9359 33.3598 20.0039 33.6588 20.0009 33.6478C19.9989 33.6368 20.0219 33.9428 20.2929 34.0938C20.4189 34.1698 20.5739 34.1968 20.6949 34.1798C20.8149 34.1628 20.9049 34.1358 20.9119 33.9988C20.9199 33.9448 20.9319 33.9218 20.9509 33.9438C20.9669 33.9498 20.9819 33.9538 20.9939 33.9548C20.9619 33.8198 20.9909 33.8428 21.0069 33.8318C20.9809 33.7298 20.9479 33.6578 20.9609 33.6498C20.9429 33.6658 20.8909 33.6288 20.8549 33.5808C20.8159 33.5198 20.8339 33.5418 20.8259 33.5268C20.8289 33.5108 20.8189 33.5358 20.8379 33.4668C20.8559 33.4118 20.8999 33.3618 20.9209 33.3718Z" fill="black"/>
<path d="M20.0918 36.9111C20.0898 36.9461 19.9648 37.0961 20.0028 37.2661C20.0158 37.3461 20.1668 37.5681 20.3938 37.5921C20.6138 37.6341 20.8258 37.4741 20.8258 37.4741C20.8138 37.4671 20.9358 37.4421 21.0488 37.1661L21.0978 37.0491L21.1078 36.8851C21.1178 36.7331 20.9218 36.4161 20.7158 36.3941C20.5218 36.3381 20.3788 36.4341 20.3288 36.4741C20.1798 36.6181 20.2568 36.8271 20.2678 36.8521C20.2768 36.8271 20.3518 36.8811 20.3588 36.9021C20.3628 36.9081 20.3688 36.9241 20.3708 36.9411C20.3748 36.9561 20.3628 36.9751 20.3798 36.9401C20.3998 36.9061 20.4258 36.9061 20.4078 36.9081L20.3398 36.8231L20.3258 36.8081C20.3258 36.8081 20.2998 36.7671 20.2998 36.7451C20.3028 36.7271 20.2918 36.7901 20.2808 36.7991C20.3158 36.7811 20.1248 36.9611 20.0918 36.9111Z" fill="black"/>
<path d="M23.7579 35.0087C23.6969 35.0177 23.5859 34.9567 23.3369 35.0177C23.2609 35.0537 23.1039 35.2997 23.1729 35.5607C23.2279 35.8217 23.4489 35.9457 23.4489 35.9457C23.4489 35.9457 23.6479 36.1047 23.9109 36.0557C24.1789 36.0207 24.3469 35.7807 24.3509 35.6967C24.3119 35.4427 24.2129 35.3617 24.1979 35.3027C24.1749 35.3607 23.9509 35.2177 23.9529 35.1917C23.9279 35.2037 23.7139 35.0527 23.7579 35.0087Z" fill="black"/>
<path d="M34.345 39.0918C34.381 39.0198 34.574 39.0578 34.677 39.1268C34.693 39.1288 34.763 39.1928 34.755 39.1898H34.753V39.1868C34.753 39.1868 34.763 39.1988 34.757 39.2218C34.76 39.2418 34.71 39.3148 34.675 39.2968C34.707 39.3298 34.704 39.3468 34.785 39.4798C34.88 39.5488 34.945 39.5438 35.163 39.5398C35.231 39.5538 35.268 39.5038 35.318 39.4468C35.353 39.3858 35.511 39.3358 35.522 39.2408C35.595 39.0608 35.616 38.8568 35.571 38.6968C35.525 38.5378 35.416 38.4348 35.342 38.3538C35.256 38.2838 35.191 38.2548 35.191 38.2548C35.191 38.2548 35.13 38.2158 35.024 38.1888C34.917 38.1768 34.769 38.1608 34.623 38.1828C34.477 38.2268 34.346 38.3208 34.269 38.4228C34.232 38.5848 34.196 38.6438 34.194 38.7008C34.188 38.8988 34.339 39.0268 34.345 39.0918Z" fill="black"/>
<path d="M31.0488 41.2062C31.1018 41.1882 31.0738 41.2172 31.0898 41.2272C31.1038 41.2372 31.2028 41.2862 31.1978 41.2812C31.2268 41.3162 31.3668 41.5212 31.3298 41.5612C31.4078 41.5382 31.4928 41.6202 31.7548 41.6332C31.8208 41.6242 31.9718 41.5962 32.0708 41.4792C32.1268 41.3652 32.2328 41.2162 32.2448 41.0832C32.2958 40.8182 32.3418 40.5752 32.3418 40.5752C32.3418 40.5752 32.3478 40.5552 32.3478 40.5352C32.3258 40.5462 32.2938 40.5632 32.2548 40.5832C32.1768 40.6232 32.0698 40.6782 31.9598 40.7362C31.7358 40.8522 31.5158 40.9652 31.4088 41.0212C31.2558 41.0992 31.1078 41.1842 31.0488 41.2062Z" fill="black"/>
<path d="M15.0608 30.2732C15.0708 30.3222 14.9468 30.4662 14.9468 30.6282C14.9448 30.7032 15.0218 30.9362 15.1878 31.0352C15.3458 31.1422 15.5148 31.1332 15.5148 31.1332C15.5148 31.1332 15.6838 31.1452 15.8428 31.0392C16.0108 30.9432 16.0888 30.7092 16.0878 30.6342C16.0888 30.4722 15.9648 30.3262 15.9758 30.2772C15.9288 30.3112 15.7638 30.2212 15.6738 30.1372C15.6238 30.1052 15.5378 29.9832 15.5308 29.9322C15.5168 29.8772 15.5208 29.8852 15.5208 29.8852C15.5208 29.8852 15.5248 29.8782 15.5098 29.9332C15.5008 29.9852 15.4148 30.1052 15.3648 30.1372C15.2708 30.2192 15.1068 30.3072 15.0608 30.2732Z" fill="black"/>
<path d="M37.7621 38.4551C37.7301 38.5021 37.5391 38.5241 37.4301 38.6631C37.4121 38.6971 37.361 38.7761 37.35 38.8781C37.271 39.0111 37.3501 39.1221 37.3951 39.2371C37.5151 39.4671 37.7451 39.5511 37.7451 39.5511C37.7451 39.5511 37.9581 39.6731 38.2111 39.6141C38.3281 39.5731 38.4641 39.5621 38.5131 39.4141C38.5841 39.3401 38.6091 39.2491 38.6241 39.2131C38.6591 39.0401 38.55 38.8791 38.565 38.8241C38.512 38.8661 38.3471 38.7671 38.2661 38.6741C38.2491 38.6611 38.2061 38.6051 38.1931 38.5731L38.1941 38.5721V38.5751L38.1961 38.5731C38.1581 38.5851 38.092 38.5891 38.07 38.5851C37.945 38.5821 37.7641 38.5221 37.7621 38.4551Z" fill="black"/>
<path d="M20.7627 42.5254C20.9267 42.8954 20.8917 43.2234 21.0787 43.7164C21.1817 43.9644 21.5827 44.7794 22.3497 45.2434C22.7197 45.4764 23.1237 45.6044 23.4187 45.6594C23.7157 45.7164 23.9067 45.7184 23.9067 45.7184C23.9067 45.7184 24.6867 45.7784 25.4537 45.5064C26.2267 45.2554 26.8897 44.7384 27.0977 44.5664C27.4777 44.2264 27.6197 43.9284 27.9597 43.7074C27.6007 43.8934 27.2697 43.8784 26.7947 43.9934C26.5417 44.0654 25.7957 44.2854 25.1627 44.3924C24.5267 44.5074 23.9777 44.4724 23.9777 44.4724C23.9777 44.4724 23.4227 44.4594 22.8937 44.2324C22.3567 44.0234 21.7917 43.5264 21.6087 43.3494C21.2507 43.0404 20.9617 42.8774 20.7627 42.5254Z" fill="black"/>
<path d="M6.10303 12.2374C6.17503 12.2754 6.17204 12.4674 6.18204 12.6064C6.19704 12.6744 6.21003 12.8484 6.23003 12.9334C6.25003 13.0234 6.29404 13.0654 6.29404 13.0654C6.29404 13.0654 6.32703 13.1164 6.41203 13.1514C6.49103 13.1854 6.66104 13.2284 6.72504 13.2554C6.86004 13.2894 7.05103 13.3204 7.07603 13.3974C7.09103 13.3224 7.27303 13.2504 7.36803 13.1064C7.41203 13.0374 7.49804 12.7934 7.44304 12.5904C7.39904 12.3854 7.27003 12.2474 7.27003 12.2474C7.27003 12.2474 7.15604 12.0964 6.96204 12.0184C6.77104 11.9294 6.51702 11.9714 6.44102 12.0014C6.28202 12.0704 6.17903 12.2344 6.10303 12.2374Z" fill="black"/>
<path d="M18.3112 0C18.2832 0.03 18.0992 0.013001 17.9682 0.026001C17.9072 0.036001 17.7482 0.0699995 17.6842 0.118999C17.6142 0.166999 17.6082 0.224003 17.6082 0.224003C17.6082 0.224003 17.5872 0.278002 17.6302 0.351002C17.6662 0.423002 17.7962 0.522003 17.8472 0.557003C17.9592 0.625003 18.1352 0.689001 18.1472 0.727001C18.1752 0.697001 18.3612 0.715 18.4912 0.701C18.5522 0.691 18.7122 0.658002 18.7752 0.608002C18.8452 0.560002 18.8492 0.503002 18.8492 0.503002C18.8492 0.503002 18.8682 0.448999 18.8252 0.375999C18.7882 0.303999 18.6592 0.205002 18.6082 0.170002C18.4982 0.102002 18.3242 0.039 18.3112 0Z" fill="black"/>
<path d="M15.9951 20.5293C16.0841 20.7303 15.9951 20.9493 16.0051 21.2343C16.0201 21.3853 16.0771 21.8213 16.1861 22.1863C16.2911 22.5543 16.4271 22.8673 16.4271 22.8673C16.4271 22.8673 16.5501 23.1863 16.7331 23.5223C16.9111 23.8583 17.1781 24.2103 17.2731 24.3273C17.4661 24.5373 17.6851 24.6293 17.7631 24.8363C17.7251 24.6203 17.8641 24.4263 17.9051 24.1353C17.9181 23.9813 17.9281 23.5193 17.8371 23.1223C17.7541 22.7233 17.6061 22.3853 17.6061 22.3853C17.6061 22.3853 17.4741 22.0413 17.2521 21.6993C17.0371 21.3533 16.7061 21.0303 16.5891 20.9303C16.3531 20.7503 16.1201 20.7093 15.9951 20.5293Z" fill="black"/>
<path d="M19.2219 21.2867C18.9789 21.3657 18.7489 21.2617 18.4199 21.2637C18.2459 21.2737 17.7319 21.3277 17.2929 21.4537C16.8509 21.5737 16.4729 21.7387 16.4729 21.7387C16.4729 21.7387 16.0889 21.8897 15.6919 22.1177C15.2919 22.3387 14.8919 22.6667 14.7619 22.7827C14.5279 23.0137 14.4399 23.2517 14.2129 23.3677C14.4559 23.2887 14.6859 23.3947 15.0149 23.3917C15.1889 23.3817 15.7039 23.3287 16.1419 23.2017C16.5829 23.0807 16.9609 22.9147 16.9609 22.9147C16.9609 22.9147 17.3449 22.7627 17.7419 22.5347C18.1409 22.3127 18.5419 21.9857 18.6719 21.8697C18.9059 21.6397 18.9949 21.4037 19.2219 21.2867Z" fill="black"/>
<path d="M21.2504 26.4551C21.2954 26.6281 21.1664 26.8071 21.1274 27.0501C21.1154 27.1781 21.1024 27.5541 21.1684 27.8691C21.2284 28.1861 21.3384 28.4521 21.3384 28.4521C21.3384 28.4521 21.4344 28.7241 21.6024 28.9991C21.7644 29.2771 22.0274 29.5461 22.1224 29.6321C22.3144 29.7861 22.5314 29.8311 22.6144 29.9901C22.5694 29.8171 22.6994 29.6381 22.7384 29.3951C22.7504 29.2671 22.7644 28.8911 22.6974 28.5761C22.6374 28.2591 22.5254 27.9931 22.5254 27.9931C22.5254 27.9931 22.4284 27.7211 22.2594 27.4461C22.0964 27.1691 21.8344 26.9001 21.7394 26.8131C21.5484 26.6601 21.3334 26.6131 21.2504 26.4551Z" fill="black"/>
<path d="M23.3642 27.6328C23.2442 27.7088 23.0512 27.6318 22.8432 27.6478C22.7372 27.6638 22.4332 27.7318 22.2092 27.8558C21.9812 27.9758 21.8132 28.1308 21.8132 28.1308C21.8132 28.1308 21.6352 28.2738 21.4832 28.4818C21.3262 28.6848 21.2162 28.9758 21.1852 29.0788C21.1392 29.2828 21.1882 29.4858 21.0952 29.5928C21.2152 29.5158 21.4092 29.5948 21.6172 29.5778C21.7232 29.5618 22.0282 29.4948 22.2512 29.3698C22.4792 29.2498 22.6462 29.0938 22.6462 29.0938C22.6462 29.0938 22.8232 28.9498 22.9752 28.7418C23.1312 28.5378 23.2422 28.2478 23.2732 28.1448C23.3192 27.9418 23.2712 27.7398 23.3642 27.6328Z" fill="black"/>
<path d="M24.6442 19.758C24.6962 19.82 24.6231 19.997 24.5781 20.129C24.5631 20.184 24.5271 20.315 24.4921 20.443C24.4741 20.531 24.4952 20.584 24.4952 20.584C24.4952 20.584 24.5042 20.64 24.5662 20.705C24.6642 20.793 24.7652 20.884 24.8082 20.923C24.9162 21.009 25.0751 21.119 25.0651 21.2C25.1111 21.14 25.3072 21.153 25.4542 21.061C25.5232 21.016 25.7052 20.827 25.7372 20.616C25.7812 20.408 25.7172 20.227 25.7172 20.227C25.7172 20.227 25.6722 20.041 25.5232 19.89C25.3812 19.73 25.1272 19.669 25.0452 19.668C24.8722 19.669 24.7162 19.784 24.6442 19.758Z" fill="black"/>
<path d="M6.73788 35.0212C6.71688 35.0282 6.67987 34.9702 6.67187 34.9112C6.66387 34.8362 6.66987 34.8742 6.67187 34.8422C6.67187 34.8182 6.71488 34.7812 6.66688 34.8202C6.60888 34.8452 6.61188 34.8322 6.61488 34.8362C6.60988 34.8372 6.61588 34.8252 6.64688 34.8792C6.66288 34.9392 6.64987 34.8842 6.66387 34.8642C6.68087 34.8372 6.65487 34.8642 6.70387 34.8092C6.74487 34.7662 6.80887 34.7412 6.82287 34.7592C6.82587 34.7252 6.94087 34.5502 6.85787 34.3762C6.82287 34.2962 6.60788 34.0812 6.31788 34.1532C6.17888 34.1822 6.03687 34.2852 5.96087 34.3942C5.88287 34.5012 5.86187 34.5882 5.86187 34.5882C5.86187 34.5882 5.82687 34.6712 5.82687 34.8032C5.82287 34.9352 5.87687 35.1022 5.97187 35.2082C6.16287 35.4372 6.46187 35.3922 6.53787 35.3482C6.70787 35.2572 6.71988 35.0502 6.73788 35.0212Z" fill="black"/>
<path d="M25.312 21.5644C25.338 21.5854 25.37 21.5944 25.404 21.5914C25.461 21.5854 25.503 21.5444 25.522 21.5194L25.449 21.4724L25.454 21.4654L25.522 21.5194C25.582 21.4454 25.583 21.3624 25.526 21.3164L25.47 21.3854C25.468 21.3834 25.47 21.3804 25.47 21.3804C25.427 21.4104 25.382 21.4004 25.345 21.4714C25.351 21.4874 25.362 21.4864 25.37 21.4914L25.312 21.5644Z" fill="black"/>
<path d="M15.7688 24.5154L15.8348 24.4344C15.8378 24.4364 15.8348 24.4414 15.8348 24.4414C15.8698 24.4064 15.9078 24.4334 15.9368 24.3804C15.9308 24.3644 15.9209 24.3624 15.9129 24.3564L15.9808 24.2734C15.9158 24.2204 15.8208 24.2364 15.7598 24.3104C15.7388 24.3364 15.7258 24.3654 15.7218 24.3944C15.7158 24.4414 15.7338 24.4864 15.7688 24.5154Z" fill="black"/>
<path d="M31.3692 34.0605L31.4992 34.0285C31.5182 33.9855 31.5422 33.9545 31.5622 33.9275C31.5912 33.8885 31.6222 33.8485 31.6172 33.7935L31.4842 33.7305C31.4712 33.7395 31.4552 33.7445 31.4342 33.7515C31.3842 33.7675 31.3172 33.7895 31.2622 33.8815L31.2812 33.9895L31.3692 34.0605Z" fill="black"/>
<path d="M24.5889 44.7995L24.6599 44.8255C24.7039 44.8205 24.8279 44.7625 24.8589 44.6745C24.8759 44.6275 24.8639 44.5755 24.8269 44.5385L24.7189 44.5295C24.7279 44.5225 24.7469 44.5215 24.7469 44.5215L24.6259 44.5195C24.4819 44.6615 24.5609 44.7695 24.5889 44.7995Z" fill="black"/>
<path d="M21.112 40.0808L21.105 40.1308C21.113 40.1988 21.147 40.2618 21.2 40.3048C21.278 40.3678 21.389 40.3838 21.49 40.3458L21.554 40.2638L21.569 40.1138L21.523 40.0188L21.492 39.9938C21.342 39.8718 21.229 39.9238 21.175 39.9658L21.145 40.0058L21.112 40.0808Z" fill="black"/>
<path d="M25.6609 38.9539L25.6679 39.0899C25.6949 39.1079 25.7449 39.1399 25.8039 39.1249C25.8419 39.1159 25.8709 39.0889 25.8929 39.0469L25.8629 38.9369C25.8559 38.9329 25.8499 38.9269 25.8419 38.9219C25.8139 38.8999 25.7269 38.8329 25.6509 38.9069L25.6519 38.9649C25.6549 38.9589 25.6579 38.9559 25.6609 38.9539Z" fill="black"/>
<path d="M30.799 39.4415C30.799 39.4415 30.787 39.4395 30.767 39.4315L30.909 39.4745C30.954 39.4285 30.975 39.3805 30.973 39.3305C30.971 39.2975 30.957 39.2485 30.901 39.2035L30.882 39.1895L30.767 39.2065C30.752 39.2255 30.739 39.2325 30.71 39.2405L30.688 39.3915C30.735 39.4315 30.774 39.4365 30.799 39.4415Z" fill="black"/>
<path d="M17.3979 45.2472L17.3779 45.3572C17.3899 45.3772 17.3969 45.3982 17.4049 45.4192C17.4159 45.4492 17.4279 45.4792 17.4449 45.5082L17.5759 45.5262C17.6229 45.4812 17.6499 45.4172 17.6479 45.3522C17.6459 45.3022 17.6269 45.2592 17.5929 45.2322C17.5719 45.2162 17.4979 45.1682 17.3979 45.2472Z" fill="black"/>
<path d="M20.791 44.021C20.858 44.075 20.949 44.0691 21.007 44.0041L21.011 43.8951C21.007 43.8901 21.005 43.883 21 43.872C20.99 43.847 20.974 43.809 20.934 43.776C20.922 43.767 20.909 43.758 20.892 43.748L20.8 43.757C20.755 43.793 20.73 43.8421 20.73 43.8931C20.729 43.9431 20.752 43.989 20.791 44.021Z" fill="black"/>
<path d="M19.1059 21.2529C19.1039 21.2899 19.1009 21.3509 19.1509 21.4059L19.2809 21.3989C19.3329 21.3299 19.3469 21.1659 19.2679 21.1019C19.2289 21.0699 19.1759 21.0679 19.1269 21.0949L19.1069 21.2249C19.1069 21.2289 19.1059 21.2429 19.1059 21.2529Z" fill="black"/>
<path d="M14.0199 27.7142L14.0149 27.7262C13.9329 27.7462 13.8249 27.7922 13.7739 27.9212C13.7339 28.0242 13.7529 28.1412 13.8269 28.2342L13.9369 28.3032L14.0389 28.3282L14.1209 28.3292L14.1559 28.3272C14.2419 28.3222 14.4019 28.3142 14.5099 28.1772C14.5749 28.0952 14.5989 27.9872 14.5769 27.8742L14.4319 27.7202L14.3209 27.6912L14.3219 27.6662C14.1789 27.6222 14.0789 27.6682 14.0199 27.7142Z" fill="black"/>
<path d="M21.355 25.6713V25.7163C21.361 25.7423 21.38 25.8203 21.446 25.8743C21.478 25.9003 21.595 25.9763 21.751 25.8643L21.792 25.7903L21.797 25.6253C21.791 25.6033 21.775 25.5363 21.709 25.4823L21.676 25.4593L21.602 25.4453L21.496 25.4653L21.438 25.5003L21.391 25.5583L21.371 25.5983L21.355 25.6713Z" fill="black"/>
<path d="M8.48495 33.1706L8.52496 33.2306C8.67496 33.3346 8.79395 33.3156 8.86795 33.2826L8.91196 33.2436L8.96097 33.1616L8.97595 33.1026C8.96995 33.0246 8.93194 32.9506 8.87094 32.9026C8.81194 32.8546 8.73594 32.8346 8.66394 32.8476C8.58494 32.8616 8.51695 32.9106 8.47195 32.9876L8.45996 33.0596L8.48495 33.1706Z" fill="black"/>
<path d="M11.9219 35.9125C11.9259 35.9405 11.9368 35.9835 11.9698 36.0265L12.0409 36.0635L12.1879 36.0715C12.2079 36.0685 12.2529 36.0605 12.2999 36.0275L12.3399 35.9555L12.3489 35.7975C12.3439 35.7765 12.3349 35.7345 12.3029 35.6925L12.2319 35.6535L12.0799 35.6445C12.0599 35.6485 12.0129 35.6565 11.9669 35.6935L11.9299 35.7645L11.9219 35.9125Z" fill="black"/>
<path d="M19.2473 24.5491C19.2513 24.5701 19.2603 24.6131 19.2933 24.6551L19.3663 24.6931L19.5273 24.6981C19.5553 24.6911 19.6423 24.6701 19.6983 24.5691L19.7083 24.5021L19.6873 24.3961L19.6523 24.3381L19.5663 24.2681L19.4933 24.2461L19.3753 24.2581L19.3083 24.2951L19.2613 24.3521L19.2393 24.4181L19.2473 24.5491Z" fill="black"/>
<path d="M14.481 20.5977C14.48 20.6027 14.473 20.6157 14.469 20.6247C14.451 20.6607 14.417 20.7287 14.461 20.7957L14.6 20.7987C14.613 20.7807 14.624 20.7757 14.656 20.7657L14.692 20.6287C14.688 20.6227 14.682 20.6027 14.679 20.5897C14.667 20.5487 14.654 20.5007 14.616 20.4697C14.6 20.4567 14.543 20.4187 14.465 20.4677L14.489 20.6237C14.485 20.6197 14.48 20.6057 14.481 20.5977Z" fill="black"/>
<path d="M5.06104 31.214C5.13804 31.276 5.23304 31.272 5.29404 31.204L5.29103 31.073C5.28903 31.047 5.28603 31.009 5.25803 30.97L5.11703 30.957C5.09003 30.959 5.05102 30.962 5.01202 30.99L4.97803 31.065C4.98203 31.118 5.01304 31.175 5.06104 31.214Z" fill="black"/>
<path d="M11.5839 23.6244C11.6419 23.5584 11.6359 23.4634 11.5719 23.4034L11.4629 23.3984C11.4579 23.4014 11.4508 23.4054 11.4398 23.4104C11.4058 23.4244 11.3559 23.4454 11.3179 23.5184L11.3259 23.6094C11.3989 23.7004 11.5159 23.7024 11.5839 23.6244Z" fill="black"/>
<path d="M11.7662 27.1427L11.6731 27.1797L11.6091 27.2397C11.5081 27.3617 11.4941 27.4727 11.5711 27.5697L11.6481 27.6067L11.6882 27.6077L11.6921 27.6177C11.8321 27.6997 11.9281 27.6437 11.9721 27.6037L11.9961 27.5707L12.0292 27.4977C12.0812 27.3837 12.0622 27.2787 11.9742 27.2067C11.9382 27.1777 11.8912 27.1557 11.8272 27.1387L11.7662 27.1427Z" fill="black"/>
<path d="M12.8513 25.4917L12.9253 25.5377L13.0583 25.5517L13.1403 25.5207C13.1903 25.4687 13.2833 25.3707 13.2743 25.2397C13.2693 25.1667 13.2343 25.1007 13.1733 25.0517C13.1613 25.0417 13.1483 25.0327 13.1303 25.0227L13.0553 25.0117L12.9403 25.0397L12.8793 25.0857C12.8463 25.1427 12.7423 25.3157 12.8513 25.4917Z" fill="black"/>
<path d="M7.46909 24.5639C7.59009 24.5039 7.7211 24.4459 7.8531 24.4239L7.87108 24.2629C7.76808 24.2199 7.61209 24.2339 7.49309 24.2989C7.41209 24.3429 7.3621 24.4029 7.3501 24.4729L7.46909 24.5639Z" fill="black"/>
<path d="M8.05597 28.5104L8.17596 28.5284C8.18096 28.5244 8.18894 28.5214 8.19894 28.5164C8.23194 28.5024 8.28195 28.4824 8.32095 28.4104L8.30795 28.3124C8.29495 28.2984 8.28295 28.2864 8.26895 28.2764C8.18495 28.2084 8.09394 28.2074 8.02594 28.2734L8.02295 28.4074C8.02495 28.4324 8.02797 28.4714 8.05597 28.5104Z" fill="black"/>
<path d="M22.8458 31.6267H22.8358C22.8228 31.6847 22.8228 31.7567 22.8458 31.8247L22.8188 31.9057L22.8228 32.0157L22.8268 32.0507C22.8318 32.0757 22.8448 32.1407 22.8968 32.2057L23.0438 32.2797L23.1738 32.2837L23.2328 32.2767C23.3328 32.2497 23.4108 32.1907 23.4608 32.1017L23.4828 31.9667L23.4628 31.8607L23.4398 31.8227L23.4728 31.6937L23.4518 31.5687L23.3558 31.4297C23.1708 31.2867 23.0018 31.3357 22.9048 31.4287L22.8438 31.5737L22.8458 31.6267Z" fill="black"/>
<path d="M22.4811 36.2959C22.5411 36.3449 22.6131 36.3649 22.6761 36.3509C22.7391 36.3389 22.7931 36.2979 22.8241 36.2389L22.8331 36.1739L22.8221 36.1179L22.8071 36.1159L22.8081 36.0399L22.7711 35.9609L22.7121 35.9139L22.6671 35.8929L22.5871 35.8789L22.5381 35.8819C22.4531 35.9099 22.3931 35.9769 22.3781 36.0589C22.3661 36.1409 22.4051 36.2349 22.4811 36.2959Z" fill="black"/>
<path d="M18.34 37.1481C18.392 37.1901 18.454 37.2201 18.524 37.2351L18.632 37.2291L18.7159 37.2001L18.805 37.1381L18.922 36.9941L18.9659 36.8491L18.9529 36.7301L18.881 36.5971L18.709 36.4571L18.562 36.4141L18.442 36.4281L18.309 36.5021C18.138 36.7161 18.151 36.9941 18.34 37.1481Z" fill="black"/>
<path d="M21.4868 32.9329L21.5038 33.0319L21.5948 33.1689C21.8218 33.3539 22.0488 33.2449 22.1298 33.2049L22.1628 33.1899L22.2568 33.1009L22.3048 33.0079L22.3228 32.8799C22.3038 32.7789 22.2538 32.6919 22.1768 32.6299C22.0788 32.5509 21.9518 32.5219 21.8258 32.5489C21.6888 32.5799 21.5708 32.6749 21.5028 32.8119L21.4868 32.9329Z" fill="black"/>
<path d="M29.3541 28.3958L29.4971 28.4158L29.6371 28.2428L29.5831 28.1058C29.5101 28.0958 29.4661 28.0768 29.4191 28.0578C29.3641 28.0348 29.3061 28.0108 29.2201 28.0098L29.1351 28.0908C29.1301 28.1888 29.1801 28.2548 29.2691 28.3108C29.3031 28.3328 29.3381 28.3568 29.3541 28.3958Z" fill="black"/>
<path d="M11.447 40.4758L11.314 40.4688L11.459 40.6748L11.4749 40.5438C11.4719 40.5278 11.467 40.5028 11.447 40.4758Z" fill="black"/>
<path d="M18.3059 31.1328L18.1869 31.1448L18.0529 31.2168L18.0059 31.2748L17.9619 31.4088L17.9709 31.5498C17.9759 31.5768 17.9879 31.6398 18.0389 31.7038L18.1849 31.7788L18.3159 31.7848L18.3769 31.7788C18.4149 31.7678 18.5319 31.7378 18.6069 31.6028L18.6289 31.4688L18.6079 31.3628L18.5379 31.2458L18.4509 31.1748L18.3059 31.1328Z" fill="black"/>
<path d="M19.2701 29.1462L19.2271 29.2252L19.2021 29.3332C19.2081 29.4312 19.2571 29.5212 19.3391 29.5892C19.4391 29.6702 19.5751 29.7062 19.7011 29.6832L19.8241 29.6092L19.8931 29.5192L19.9331 29.3822C19.9231 29.2512 19.8751 29.1512 19.7911 29.0832C19.7341 29.0372 19.5771 28.9432 19.3471 29.0682L19.2701 29.1462Z" fill="black"/>
<path d="M23.574 25.8824C23.612 25.8784 23.646 25.8594 23.67 25.8284L23.639 25.6944C23.641 25.6644 23.645 25.6004 23.585 25.5514C23.573 25.5414 23.559 25.5324 23.543 25.5254L23.457 25.5334C23.407 25.5694 23.378 25.6224 23.377 25.6794C23.374 25.7834 23.476 25.8924 23.574 25.8824Z" fill="black"/>
<path d="M24.1081 27.7167C24.1791 27.7747 24.2662 27.7927 24.3422 27.7667C24.4192 27.7407 24.4752 27.6757 24.4952 27.5897L24.4912 27.5347L24.4621 27.4507L24.4312 27.4067L24.3451 27.3367L24.2952 27.3147L24.2072 27.3027L24.1521 27.3117C24.0711 27.3487 24.0201 27.4167 24.0101 27.4967C24.0011 27.5767 24.0371 27.6587 24.1081 27.7167Z" fill="black"/>
<path d="M27.73 36.7431C27.741 36.7531 27.751 36.7631 27.762 36.7721C27.778 36.7861 27.828 36.8261 27.889 36.8091C27.931 36.7981 27.963 36.7651 27.984 36.7121L27.989 36.6751C27.984 36.6151 27.957 36.5811 27.936 36.5641C27.86 36.5021 27.754 36.5491 27.709 36.5691L27.707 36.7231C27.714 36.7281 27.722 36.7361 27.73 36.7431Z" fill="black"/>
<path d="M17.03 28.2563L17.076 28.3313L17.157 28.4043C17.322 28.4863 17.47 28.4533 17.578 28.4293L17.68 28.3743L17.745 28.3083L17.798 28.2073C17.826 28.0653 17.778 27.9273 17.671 27.8403C17.55 27.7413 17.375 27.7243 17.227 27.7953C17.087 27.8623 16.999 27.9993 16.999 28.1523L17.03 28.2563Z" fill="black"/>
<path d="M14.6322 38.607L14.6192 38.639L14.6182 38.754L14.6442 38.821C14.6562 38.835 14.6692 38.847 14.6822 38.857C14.7412 38.905 14.8082 38.925 14.8842 38.917C15.0122 38.898 15.0902 38.79 15.1322 38.73L15.1502 38.661L15.1372 38.549L15.1022 38.484L15.0842 38.469C15.0052 38.405 14.9222 38.374 14.8392 38.375L14.8022 38.383L14.7452 38.407L14.7152 38.428C14.6472 38.493 14.6352 38.563 14.6272 38.604L14.6322 38.607Z" fill="black"/>
<path d="M16.9938 32.5791C16.9908 32.5431 16.9848 32.4581 16.9238 32.3731L16.7678 32.2911L16.6338 32.2871L16.4738 32.3601L16.4038 32.4461L16.3618 32.6051L16.3828 32.7301L16.4798 32.8711C16.7068 33.0431 16.8758 32.9191 16.9228 32.8771L16.9888 32.7371L16.9938 32.5791Z" fill="black"/>
<path d="M8.10183 18.9296C8.10583 18.9716 8.12281 19.0056 8.15081 19.0276L8.21084 18.9536C8.21884 18.9596 8.22283 18.9716 8.23483 18.9686C8.27783 18.9616 8.28281 18.8716 8.27581 18.8586C8.26481 18.8396 8.25582 18.8426 8.24682 18.8376L8.30682 18.7636C8.25482 18.7216 8.18582 18.7286 8.14282 18.7816C8.11182 18.8186 8.09583 18.8766 8.10183 18.9296Z" fill="black"/>
<path d="M12.1208 30.4936L12.0889 30.6206L12.0989 30.7256L12.1529 30.8436C12.1769 30.8686 12.1999 30.8896 12.2219 30.9076C12.4369 31.0826 12.6559 31.0486 12.7879 30.9596L12.8599 30.8706L12.8949 30.7856L12.9069 30.6756C12.8889 30.5726 12.8319 30.4776 12.7479 30.4096C12.6479 30.3286 12.5209 30.2926 12.3979 30.3116C12.2849 30.3286 12.1858 30.3936 12.1208 30.4936Z" fill="black"/>
<path d="M26.3052 32.5746C26.3082 32.5936 26.3172 32.6416 26.3552 32.6906L26.4272 32.7286L26.5742 32.7346C26.6022 32.7306 26.6452 32.7196 26.6882 32.6846L26.7252 32.6146L26.7332 32.4686C26.7302 32.4506 26.7222 32.4036 26.6862 32.3566L26.6162 32.3176L26.4632 32.3086C26.4412 32.3126 26.3972 32.3216 26.3512 32.3566L26.3132 32.4276L26.3052 32.5746Z" fill="black"/>
<path d="M7.45893 37.1968L7.39694 37.1758C7.31894 37.1808 7.23794 37.2448 7.21194 37.3208C7.19094 37.3838 7.20793 37.4478 7.25793 37.4918L7.31994 37.5118C7.39694 37.5058 7.47794 37.4428 7.50294 37.3668C7.52494 37.3028 7.50793 37.2408 7.45893 37.1968Z" fill="black"/>
<path d="M18.4021 42.3077L18.4811 42.3267C18.5611 42.3057 18.6251 42.2537 18.6771 42.1687L18.6661 42.0667L18.6491 42.0517C18.5651 41.9837 18.4531 42.0147 18.3931 42.0827C18.3331 42.1527 18.3371 42.2477 18.4021 42.3077Z" fill="black"/>
</svg>
