<svg width="74" height="55" viewBox="0 0 74 55" fill="none" xmlns="http://www.w3.org/2000/svg">
<path d="M36.62 54.9991C27.212 54.4922 19.1019 49.4805 14.1754 39.7281C8.9909 29.4648 10.7746 16.865 18.4535 8.62327C23.9244 2.75142 30.7581 -0.159782 38.7925 0.227538C49.9173 0.76378 59.5164 8.1155 62.9069 18.7483C66.1834 29.0236 64.3991 38.4213 57.1955 46.564C52.3583 52.0318 45.3705 55.0061 36.62 54.9991ZM63.1746 30.3796C63.252 22.6448 61.8213 17.7115 58.8617 13.3022C53.7222 5.64504 46.5878 1.46506 37.2375 1.50247C30.7466 1.52845 25.137 3.898 20.5124 8.41324C16.778 12.0594 14.1907 16.7855 13.1342 21.8967C12.1053 26.8741 12.5268 32.1212 14.3374 36.8704C16.2466 41.8781 19.7579 46.4184 24.1886 49.4462C29.4096 53.0141 35.9584 54.4031 42.1911 53.3646C45.0571 52.8871 47.8271 51.8816 50.3353 50.4155C58.8683 45.4276 62.8169 37.6984 63.1746 30.3796Z" fill="#2E332E"/>
<path d="M3.38437 10.7257C3.48081 10.0416 3.46138 9.34216 3.47426 8.65243C3.50409 7.05368 3.48174 5.4539 3.50388 3.85484C3.51053 3.3716 3.57008 2.88554 3.64885 2.40791C3.72804 1.92706 3.98515 1.53808 4.5111 1.50036C4.84189 1.47656 5.22224 1.6656 5.42915 1.91813C5.74362 2.30181 5.79611 3.01004 5.84287 3.48705C5.91011 4.17231 5.90481 4.86195 5.92206 5.54961C5.96696 7.33698 5.87675 9.13765 5.9655 10.9098C5.9735 11.0692 6.01071 11.267 6.16472 11.3086C6.27353 11.338 6.38878 11.263 6.44272 11.164C6.49665 11.0651 6.50382 10.9482 6.50912 10.8356C6.5827 9.27638 6.57594 7.71474 6.55984 6.15423C6.55163 5.36099 6.54061 4.56774 6.53635 3.7744C6.5324 3.03758 6.55713 2.49656 6.97064 1.85983C7.36461 1.25333 8.05446 1.33283 8.39054 1.98463C8.60764 2.40562 8.7656 2.90051 8.78909 3.37035C8.91421 5.87167 8.91743 8.35937 8.9167 10.8595C8.9167 11.0136 8.97001 11.2221 9.12382 11.2131C9.26391 11.2049 9.30683 11.021 9.31057 10.8807C9.35058 9.37002 9.39069 7.85929 9.4307 6.34857C9.45076 5.59315 9.47071 4.83784 9.49077 4.08242C9.51041 3.34145 9.4306 2.67407 9.89794 2.05458C10.3746 1.42283 11.1178 1.32296 11.5455 2.08763C11.8784 2.6829 11.894 3.49869 11.8634 4.16192C11.7533 6.55537 11.763 8.96877 11.4282 11.3323C11.2151 12.8367 10.709 14.3609 9.89909 15.6524C9.375 16.4881 8.16586 17.3946 8.19475 18.4536C8.31156 22.7273 8.46069 27.0014 8.48605 31.276C8.50974 35.2738 8.40426 39.2727 8.33183 43.2706C8.31738 44.067 8.24391 44.8699 8.11099 45.655C7.92133 46.7751 7.3165 47.4231 6.53084 47.4808C5.7005 47.5418 5.10533 47.0082 4.76093 46.299C3.97746 44.686 4.12732 42.7122 4.09157 40.978C4.042 38.5685 3.99315 36.1589 3.91115 33.7502C3.74581 28.8929 3.62475 24.0287 3.83311 19.1707C3.86844 18.3465 3.65114 17.7704 3.04018 17.1672C1.2021 15.3525 0.426521 13.0274 0.174404 10.5048C0.0305746 9.06543 -0.0172313 7.61767 0.00531991 6.17169C0.0169593 5.42469 0.0474075 4.67811 0.0925101 3.93236C0.145407 3.05972 0.189159 1.49828 1.47759 1.58277C2.09292 1.62309 2.42402 2.10695 2.48607 2.66367C2.57378 3.45161 2.6407 4.24194 2.68653 5.03352C2.7891 6.80416 2.71667 8.56773 2.79108 10.3396C2.79804 10.5059 2.80667 10.6753 2.86497 10.8312C3.04132 11.3026 3.32545 11.1438 3.38437 10.7257ZM1.73886 2.91142C1.70425 2.76406 1.63483 2.63322 1.49599 2.59269C1.34395 2.54832 1.17975 2.64985 1.10046 2.78693C1.02117 2.924 1.00683 3.08789 0.995397 3.24595C0.928055 4.17679 0.897808 5.11022 0.904667 6.04345C0.932727 9.8994 1.2736 14.4952 4.62604 16.9989C4.83534 17.1552 4.93407 17.53 4.97834 17.8196C5.0408 18.2281 5.01492 18.6518 5.00879 19.0687C4.89645 26.8233 5.12768 34.5722 5.40983 42.3199C5.44828 43.3764 5.26101 44.983 5.90523 45.8912C6.23789 46.36 6.70242 46.1951 6.91775 45.7248C7.02812 45.4839 7.05731 45.2149 7.0808 44.9509C7.14243 44.2578 7.18078 43.559 7.18078 42.8629C7.19096 35.7015 7.19117 28.54 7.17256 21.3786C7.16976 20.3029 7.04734 19.2279 6.99548 18.1518C6.97335 17.6925 7.02313 17.2434 7.42136 16.9214C8.18415 16.3046 8.78753 15.5176 9.22889 14.6441C9.66516 13.7808 10.0489 13.0466 10.2559 12.0923C10.896 9.14035 11.0425 6.13947 10.953 3.1361C10.9466 2.92462 10.9132 2.67001 10.7204 2.58282C9.88475 2.20537 10.1397 5.16395 10.1343 5.47427C10.1038 7.22235 10.0275 8.99828 9.96144 10.727C9.94242 11.2235 9.75546 12.1318 9.17765 12.2706C8.34357 12.4709 8.22624 11.5831 8.21855 11.0326C8.20629 10.1539 8.19413 9.27535 8.18187 8.39668C8.15744 6.63934 8.13292 4.88211 8.1085 3.12488C8.10465 2.85094 8.02931 2.49324 7.75662 2.46591C7.59949 2.45022 7.45461 2.57201 7.39164 2.71687C7.32866 2.86174 7.32908 3.02512 7.33064 3.18308C7.34487 4.65691 7.42198 6.12918 7.46636 7.60229C7.50522 8.89249 7.4833 10.315 7.15314 11.5746C7.03394 12.0294 6.73931 12.3975 6.1934 12.3754C5.0488 12.3754 5.12778 11.1814 5.11843 10.3671C5.10242 8.97199 5.04973 7.57631 5.04973 6.18115C5.03695 5.40412 5.02417 4.62698 5.01149 3.84995C5.00671 3.55658 5.17268 2.39367 4.70232 2.32997C4.56847 2.31178 4.44189 2.41447 4.38733 2.53793C4.33267 2.66149 4.3336 2.80147 4.33547 2.93667C4.35698 4.50424 4.31344 6.07182 4.26034 7.63846C4.21347 9.02271 4.34722 10.5102 3.95886 11.8353C3.84922 12.2092 3.57538 12.5256 3.1281 12.5081C2.63904 12.489 2.3785 12.1335 2.27884 11.7118C2.15174 11.1741 2.05593 10.6196 2.03182 10.0686C1.93091 7.76057 1.88591 5.45837 1.76941 3.14733C1.76557 3.07116 1.75705 2.98895 1.73886 2.91142Z" fill="#2E332E"/>
<path d="M73.5474 13.0612C73.4918 18.0134 73.1502 21.6316 71.4885 24.9263C70.6684 26.5522 70.4583 28.1625 70.4745 29.9176C70.5083 33.576 70.5135 37.2344 70.5016 40.8929C70.4977 42.1002 70.4919 43.3076 70.4848 44.5149C70.4785 45.5534 70.5806 46.7224 70.1913 47.709C69.8237 48.6403 68.8638 48.8249 68.0723 48.3171C67.2444 47.7859 67.173 46.4699 67.1748 45.5981C67.2049 31.5851 67.2365 17.5721 67.2688 3.55909C67.2695 3.24628 67.2507 2.92932 67.2938 2.6216C67.4443 1.54829 68.4278 1.13415 69.2896 1.79354C70.102 2.41531 70.6851 3.22539 71.1764 4.12526C72.9224 7.32338 73.6109 10.7579 73.5474 13.0612ZM68.4803 2.81157C68.4569 3.15182 68.4349 3.32339 68.4348 3.49507C68.428 17.7752 68.4226 32.0554 68.4203 46.3355C68.4201 46.7314 68.4415 47.7282 69.1292 47.3412C69.538 47.1111 69.4466 46.6585 69.4568 46.2612C69.4684 45.8078 69.4877 45.3546 69.4877 44.901C69.4877 43.0644 69.4877 41.228 69.4877 39.3915C69.4877 37.4413 69.4877 35.4911 69.4877 33.5408C69.4877 32.4025 69.5509 31.2502 69.5192 30.1192C69.5 29.4321 69.5372 28.7527 69.5805 28.0732C69.628 27.3289 69.67 26.5864 69.8202 25.857C69.976 25.1002 70.4087 24.4021 70.7098 23.6979C71.765 21.2318 72.0819 18.6146 72.2662 15.9731C72.5395 12.056 72.0953 8.27137 70.1667 4.76543C69.7696 4.04306 69.3811 3.31539 68.4803 2.81157Z" fill="#2E332E"/>
<path d="M58.5157 28.1382C58.4634 37.1262 52.2011 45.5967 43.1428 48.2312C32.4944 51.328 21.2579 45.4815 17.6979 34.7999C14.9038 26.4165 16.6481 18.8448 22.6496 12.3991C27.3372 7.36444 33.289 5.2971 40.1026 6.08141C48.6475 7.06504 55.6436 13.3624 57.7976 21.7599C58.275 23.6213 58.5126 25.5115 58.5157 28.1382ZM36.293 7.22477C30.2095 7.46442 24.4327 10.6226 20.5743 16.9698C17.5509 21.9433 16.935 27.3555 18.3882 32.9585C21.6602 45.5733 35.8629 51.6084 47.0928 45.2006C55.316 40.5084 59.225 30.3675 56.3312 21.2338C53.677 12.8559 46.1318 7.2095 36.293 7.22477Z" fill="#2E332E"/>
<path d="M40.2815 42.3785C39.3963 42.3779 38.5202 42.2963 37.6946 42.157C35.3122 41.7551 32.9908 40.7399 31.3281 38.947C28.1471 35.5172 25.8156 31.5998 24.8899 26.9889C24.1878 23.4917 24.3703 19.9951 25.7984 16.656C27.1224 13.5601 30.189 11.6781 33.3556 12.0609C35.7457 12.3499 37.7234 13.4014 39.012 15.5243C39.336 16.0582 39.6214 16.6155 39.9218 17.1636C41.2372 19.5635 43.6262 20.3132 46.0399 21.2023C48.7291 22.1929 50.6677 24.0496 51.4542 26.8567C52.2245 29.6063 51.6917 32.5992 50.612 35.19C50.3835 35.738 50.127 36.2744 49.8437 36.7962C49.0589 38.2416 47.7412 39.4443 46.4877 40.4762C44.7954 41.8694 42.509 42.3802 40.2815 42.3785ZM40.2506 41.1404C44.282 41.2496 47.8328 38.6666 49.3488 34.9739C50.3284 32.5878 50.9632 29.8709 50.2799 27.3165C49.8228 25.6075 48.9225 24.2321 47.4028 23.2552C46.1636 22.4584 44.8688 21.8144 43.4469 21.4344C41.1516 20.8211 39.5763 19.4056 38.517 17.2828C37.7324 15.7104 36.6584 14.3941 35.0048 13.701C33.484 13.0636 31.7429 13.0438 30.2239 13.6978C25.3236 15.8076 25.1325 23.029 26.2648 27.4241C27.2893 31.4008 29.3109 34.8524 32.0833 37.8754C33.1907 39.0829 34.5299 39.9083 36.0558 40.4679C37.4133 40.9657 38.8242 41.1038 40.2506 41.1404Z" fill="#2E332E"/>
<path d="M37.4578 25.336C38.1083 25.3606 38.7589 25.3783 39.4092 25.3255C40.241 25.2581 41.0569 25.0699 41.866 24.8731C42.1461 24.8049 42.4259 24.7355 42.7065 24.6692C46.4392 23.788 49.3954 26.9473 48.754 30.2507C48.5494 31.3047 48.3377 32.3689 47.992 33.3816C47.4137 35.0764 46.2608 36.2274 44.4348 36.5318C43.242 36.7309 42.4532 37.3595 41.8479 38.4035C40.2281 41.1969 37.057 41.3038 35.1116 38.6907C34.5948 37.9965 34.0708 37.2964 33.467 36.6805C32.1607 35.3476 31.8925 33.7915 32.3472 32.0586C32.4785 31.5578 32.6682 31.0624 32.9017 30.6002C33.3701 29.6733 33.8359 28.7395 34.1619 27.7511C34.4136 26.988 34.6634 26.1395 35.382 25.6705C35.9232 25.3171 36.5973 25.3027 37.2215 25.3269C37.3002 25.33 37.379 25.333 37.4578 25.336ZM38.2265 26.5058C37.7066 26.5058 37.1865 26.5091 36.6666 26.5049C35.9708 26.4995 35.6347 26.8574 35.4166 27.5134C35.0681 28.5624 34.5997 29.5712 34.1926 30.6013C33.938 31.2455 33.6363 31.8814 33.4752 32.5497C33.241 33.5214 33.2883 34.501 33.9442 35.33C34.7181 36.308 35.4779 37.3053 36.3365 38.2059C37.6586 39.5927 39.6477 40.083 40.8262 37.7426C41.5148 36.3752 42.5925 35.5611 44.1437 35.3594C45.5698 35.174 46.4613 34.2811 46.8678 32.9514C47.1808 31.9272 47.4333 30.8737 47.5904 29.815C47.8553 28.0291 46.5731 26.2057 44.8036 25.8622C44.1796 25.7411 43.4938 25.8024 42.8576 25.9085C41.32 26.1649 39.8156 26.6516 38.2265 26.5058Z" fill="#2E332E"/>
<path d="M34.7556 19.6871C34.7327 20.653 34.5309 21.6838 33.8651 22.4138C33.6626 22.6358 33.403 22.7729 33.211 23.0046C32.7801 23.5243 32.7621 24.2105 32.7086 24.8572C32.6578 25.4727 32.6485 26.0914 32.6814 26.7081C32.722 27.4726 32.8511 28.5309 32.2233 29.0969C31.8265 29.4547 31.0022 29.6114 30.5954 29.2067C30.1089 28.7226 29.7392 28.1211 29.4235 27.525C28.9347 26.6019 28.4801 25.6607 28.061 24.7038C27.6493 23.7637 27.4126 22.7954 27.3196 21.7715C27.2722 21.2493 27.2398 20.7364 27.311 20.2176C27.3907 19.6369 27.519 19.0631 27.6861 18.5013C28.1202 17.042 29.1123 15.1295 30.8199 14.9736C31.5944 14.903 32.2604 15.1295 32.8712 15.5938C33.4214 16.0118 33.8713 16.5582 34.1933 17.1685C34.5996 17.9384 34.7764 18.8121 34.7556 19.6871ZM31.339 28.3296C31.4508 28.3433 31.5633 28.3249 31.6581 28.2633C31.8679 28.1268 31.9162 27.8439 31.9281 27.5939C31.9791 26.5265 31.6641 25.4581 31.7982 24.3964C31.9146 23.4754 32.333 22.5905 32.985 21.9277C33.2482 21.6602 33.4697 21.4561 33.5685 21.0753C33.9904 19.4472 33.8906 17.9106 32.6695 16.5934C31.6291 15.4709 30.2324 15.601 29.4984 16.9567C28.5303 18.745 28.0698 20.6605 28.3939 22.6892C28.4629 23.1215 28.6365 23.5284 28.8199 23.9229C28.9902 24.2892 29.1135 24.6582 29.2943 25.0185C29.725 25.8765 30.1556 26.7344 30.5863 27.5924C30.6938 27.8064 30.8064 28.0272 30.9919 28.1787C31.0897 28.2588 31.214 28.3142 31.339 28.3296Z" fill="#2E332E"/>
<path d="M35.7805 21.5954C35.7963 20.0041 37.3083 18.9067 38.834 19.4663C40.2542 19.9872 41.13 21.133 41.6765 22.4842C42.0072 23.302 41.481 23.9503 40.5671 24.0798C40.1567 24.138 39.7374 24.1799 39.3437 24.3C37.2989 24.9241 35.7591 23.7637 35.7805 21.5954ZM40.632 22.683C40.5795 22.4757 40.4068 22.2448 40.3259 22.1065C40.082 21.6898 39.8093 21.2813 39.454 20.9504C38.9335 20.4657 38.1079 20.18 37.4306 20.5102C36.8746 20.7812 36.7187 21.5096 36.7955 22.0718C36.8556 22.5116 37.105 22.9171 37.4556 23.1861C37.8831 23.5139 38.314 23.5135 38.8236 23.4032C39.18 23.326 39.5364 23.2488 39.8928 23.1716C40.0812 23.1308 40.2864 23.1389 40.4651 23.0582C40.6441 22.9774 40.671 22.8366 40.632 22.683Z" fill="#2E332E"/>
<path d="M14.2519 31.7291C14.1327 31.6568 14.0273 31.5023 13.9891 31.379C13.8647 30.9763 13.8481 30.5624 13.7998 30.1466C13.7486 29.7055 13.699 29.2642 13.655 28.8222C13.5684 27.9504 13.5032 27.0759 13.4892 26.1997C13.4525 23.9184 13.7157 21.6181 14.4708 19.4566C14.5598 19.202 14.792 18.3267 15.1894 18.4121C15.5484 18.4893 15.2455 19.3581 15.1902 19.5505C14.8033 20.8985 14.4402 22.2065 14.2905 23.6094C14.1986 24.4701 14.181 25.3431 14.1969 26.2095C14.2134 27.1109 14.2994 28.0114 14.3728 28.911C14.4252 29.5533 14.4894 30.1947 14.553 30.836C14.5734 31.0415 14.6859 31.4057 14.5912 31.6005C14.4981 31.7922 14.3684 31.7998 14.2519 31.7291Z" fill="#2E332E"/>
<path d="M16.381 37.8811C16.3778 37.8919 16.3741 37.9027 16.3699 37.9132C16.29 38.1181 16.1241 38.1199 15.979 37.9669C15.7607 37.7369 15.7019 37.3846 15.5839 37.1009C15.4099 36.6823 15.2533 36.2564 15.1145 35.8247C14.9929 35.4462 14.8851 35.0633 14.7913 34.6769C14.7075 34.3309 14.5563 34.0036 14.6444 33.6398C14.6714 33.5282 14.7446 33.4096 14.859 33.3993C15.1401 33.374 15.2682 33.8957 15.3277 34.0864C15.4433 34.4576 15.559 34.8289 15.6747 35.2001C15.8877 35.8839 16.1269 36.5625 16.3154 37.2537C16.3665 37.4409 16.4401 37.6852 16.381 37.8811Z" fill="#2E332E"/>
</svg>
