<svg width="30" height="30" viewBox="0 0 30 30" fill="none" xmlns="http://www.w3.org/2000/svg">
<path d="M28.6957 19.8555C28.0425 19.0714 27.3003 18.3687 26.5824 17.6891C26.3272 17.4474 26.0633 17.1975 25.8089 16.949C25.0785 16.2349 25.0519 15.9666 25.6302 15.1555C26.0302 14.5964 26.4544 14.0365 26.8647 13.495C27.2368 13.0038 27.6216 12.4958 27.9903 11.9861L28.0661 11.8813C28.7709 10.906 29.4999 9.89753 29.8879 8.68094C29.9886 8.35996 30.0944 7.88763 29.8525 7.49267C29.6108 7.09804 29.142 6.97764 28.8102 6.92141C28.6462 6.89358 28.4832 6.88978 28.332 6.88978L23.716 6.88648L23.6778 6.88615C22.9799 6.88615 22.5095 7.21505 22.24 7.89176C21.9827 8.53833 21.7 9.22685 21.3775 9.88151C20.7356 11.1851 19.9204 12.6866 18.7408 13.9389L18.691 13.9922C18.5516 14.1419 18.3938 14.3114 18.2785 14.3114C18.2608 14.3114 18.2416 14.308 18.2198 14.3012C17.9754 14.2059 17.8114 13.6145 17.8189 13.3393C17.8189 13.3355 17.819 13.3317 17.819 13.3279L17.8158 7.99267C17.8158 7.97417 17.8145 7.95584 17.8121 7.93751C17.6947 7.07021 17.4346 6.53032 16.4517 6.33784C16.4256 6.33264 16.399 6.33008 16.3724 6.33008H11.5726C10.7906 6.33008 10.3597 6.64791 9.95464 7.12364C9.84531 7.2508 9.61773 7.51554 9.73053 7.83668C9.84498 8.16261 10.2165 8.2323 10.3375 8.25493C10.938 8.36921 11.2764 8.73651 11.3723 9.37829C11.5397 10.4927 11.5603 11.6823 11.437 13.1218C11.4027 13.5219 11.3347 13.8309 11.2228 14.0949C11.1968 14.1565 11.1045 14.3576 11.0105 14.3576C10.9806 14.3576 10.8941 14.3459 10.7366 14.2374C10.3643 13.9823 10.0919 13.6183 9.7743 13.1687C8.69387 11.6418 7.7871 9.95971 7.0018 8.0252C6.71056 7.31306 6.16663 6.91439 5.46952 6.90266C4.70354 6.89102 4.00908 6.8854 3.34673 6.8854C2.62303 6.8854 1.9521 6.89209 1.29694 6.90572C0.736087 6.91563 0.348144 7.08375 0.144016 7.4058C-0.0604428 7.72809 -0.047148 8.15146 0.18357 8.66393C2.03047 12.7699 3.70503 15.7552 5.61337 18.3442C6.95052 20.1557 8.29172 21.4096 9.83375 22.29C11.4584 23.2194 13.279 23.6712 15.3995 23.6712C15.6399 23.6712 15.8885 23.6654 16.1391 23.6536C17.3713 23.5936 17.8284 23.1476 17.8862 21.9479C17.9137 21.3347 17.9808 20.6917 18.2822 20.1433C18.4725 19.7978 18.6498 19.7978 18.7081 19.7978C18.8204 19.7978 18.9597 19.8495 19.1092 19.9464C19.3774 20.1215 19.6074 20.356 19.7959 20.5608C19.9734 20.7555 20.1488 20.9521 20.3245 21.1488C20.7035 21.5733 21.0954 22.0122 21.5048 22.4285C22.4009 23.3402 23.3881 23.7412 24.522 23.6541H28.7542C28.7632 23.6541 28.7723 23.6538 28.7813 23.6532C29.203 23.6254 29.5682 23.3915 29.7833 23.0115C30.0498 22.5407 30.0444 21.9401 29.769 21.4045C29.4564 20.7989 29.051 20.2815 28.6957 19.8555Z" fill="white"/>
</svg>
