<svg width="30" height="30" viewBox="0 0 30 30" fill="none" xmlns="http://www.w3.org/2000/svg">
<path d="M22.9471 5.36523C21.9723 5.36523 21.1924 6.15359 21.1924 7.11997C21.1924 8.08634 21.9807 8.87471 22.9471 8.87471C23.9135 8.87471 24.7019 8.08634 24.7019 7.11997C24.7019 6.15359 23.9135 5.36523 22.9471 5.36523Z" fill="white"/>
<path d="M15.1315 7.62109C11.0625 7.62109 7.74805 10.9356 7.74805 15.0045C7.74805 19.0735 11.0625 22.388 15.1315 22.388C19.2004 22.388 22.5149 19.0735 22.5149 15.0045C22.5149 10.9356 19.2004 7.62109 15.1315 7.62109ZM15.1315 19.7347C12.5206 19.7347 10.4013 17.6154 10.4013 15.0045C10.4013 12.3936 12.5206 10.2744 15.1315 10.2744C17.7424 10.2744 19.8616 12.3936 19.8616 15.0045C19.8616 17.6154 17.7424 19.7347 15.1315 19.7347Z" fill="white"/>
<path d="M20.989 30H9.01101C4.04351 30 0 25.9565 0 20.989V9.01102C0 4.04351 4.04351 0 9.01101 0H20.989C25.9565 0 30 4.04351 30 9.01102V20.989C30 25.9565 25.9565 30 20.989 30ZM9.01101 2.83131C5.60327 2.83131 2.82282 5.60328 2.82282 9.0195V20.9975C2.82282 24.4052 5.59479 27.1856 9.01101 27.1856H20.989C24.3967 27.1856 27.1772 24.4137 27.1772 20.9975V9.0195C27.1772 5.61175 24.4052 2.83131 20.989 2.83131H9.01101Z" fill="white"/>
</svg>
