<svg width="30" height="30" viewBox="0 0 30 30" fill="none" xmlns="http://www.w3.org/2000/svg">
<path fill-rule="evenodd" clip-rule="evenodd" d="M24.7216 5.5373C26.0815 4.96471 27.5394 6.11462 27.2992 7.57049L24.4631 24.7664C24.1896 26.4244 22.3686 27.3757 20.8475 26.5495C19.5746 25.8581 17.6861 24.794 15.9841 23.6819C15.1343 23.1265 12.5319 21.3457 12.8517 20.0781C13.1252 18.9942 17.5001 14.9219 20.0001 12.5C20.9821 11.5487 20.5349 10.9991 19.3751 11.875C16.4981 14.0479 11.8791 17.3515 10.3517 18.2812C9.00404 19.1015 8.30039 19.2415 7.46107 19.1015C5.92841 18.8461 4.50745 18.4506 3.34735 17.9697C1.77939 17.3197 1.85576 15.165 3.34629 14.5375L24.7216 5.5373Z" fill="white"/>
</svg>
