<svg width="99" height="99" viewBox="0 0 99 99" fill="none" xmlns="http://www.w3.org/2000/svg">
<path opacity="0.4" d="M44.938 86.9434C48.0301 94.3476 54.8162 98.7578 62.7554 97.5371C63.4783 97.4258 64.0239 97.285 64.7261 97.0859C65.5044 96.8654 65.9837 96.7842 66.4731 96.9053C66.6716 96.9544 66.7446 96.9902 66.8569 97.0146C66.9276 96.9385 67.01 96.8504 67.0991 96.748C67.3593 96.4491 67.6714 96.0695 67.9878 95.6709C68.6279 94.8644 69.2443 94.0342 69.4702 93.6885C70.4178 92.2377 70.9634 91.0324 71.5444 89.1582C72.1078 87.339 72.2491 85.415 72.1782 83.29C72.1419 82.2202 71.9352 80.8393 71.731 79.623C71.633 79.0395 71.5288 78.4567 71.4595 78.0352C71.4238 77.8182 71.3932 77.6191 71.3726 77.4551C71.356 77.3239 71.3317 77.1175 71.3462 76.9395L71.4419 75.7764L72.5767 76.0488C72.9531 76.1393 73.2858 76.2771 73.5581 76.3916C73.7741 76.4824 73.957 76.561 74.145 76.6279L74.3354 76.6904C76.4775 77.3409 77.1551 77.6653 79.1304 77.9385L80.0649 78.0537C82.7002 78.3445 86.2239 78.4969 88.5757 77.9111C90.0903 77.5336 91.1046 77.2505 92.0308 76.8711C92.9444 76.4967 93.8039 76.0149 94.9741 75.2119C95.846 74.614 96.7284 73.8438 97.4741 73.1768C97.6413 73.0273 97.7258 72.9518 97.7866 72.8916C97.7867 72.8901 97.7876 72.8883 97.7876 72.8867C97.7894 72.7804 97.7805 72.6247 97.7603 72.3486C97.6132 70.3409 97.531 69.0885 97.2114 67.8457C96.9375 66.7808 96.4793 65.6908 95.5923 64.1533L95.1851 63.4658C93.8083 61.193 92.5482 60.2237 90.8794 58.5176C90.4267 58.0549 89.749 57.5455 89.062 57.0645L88.3804 56.5957C85.7666 54.8225 83.7542 53.9568 82.2124 53.4385C81.4326 53.1764 80.7691 53.0017 80.1655 52.835C79.5842 52.6744 79.0079 52.5085 78.5093 52.2686L77.7349 51.8965L77.9868 51.0752C77.994 51.0519 77.987 51.0844 78.0015 50.9883C78.0083 50.9432 78.0323 50.7708 78.1362 50.5869C78.2526 50.3809 78.4104 50.2566 78.5269 50.1846C78.6802 50.0899 78.8903 50.0168 78.98 49.9834C79.1269 49.9286 79.3357 49.851 79.6431 49.7256V49.7266C80.1677 49.5114 80.561 49.3737 81.0112 49.1689C83.5794 48.0011 85.727 46.5811 87.6479 44.7295V44.7305C88.785 43.6336 89.8163 42.3457 90.6733 40.6348C90.9482 40.0861 91.3394 39.026 91.6821 37.8906C91.9504 37.002 92.1648 36.1425 92.272 35.5107L89.2729 32.8691C85.7432 30.6976 82.3787 30.2512 79.5913 30.3027C78.1788 30.3289 76.9215 30.4823 75.8345 30.6084C75.2994 30.6705 74.7883 30.7273 74.3364 30.7539C73.893 30.78 73.4378 30.7822 73.0298 30.7031L72.1646 30.5352L72.2222 29.6553C72.2441 29.3245 72.3857 28.9744 72.4878 28.7393C72.6072 28.4643 72.7594 28.1604 72.9087 27.873C73.1514 27.4059 73.3705 27.0041 73.5161 26.7031L73.6353 26.4365C73.9991 25.5184 74.3687 24.5911 74.6714 23.6074L74.7964 23.1816C75.5655 20.4509 76.0071 17.1763 75.7778 14.0381C75.5479 10.8919 74.6515 7.97359 72.8384 5.84863L72.8218 5.8291L72.8052 5.80762L71.0796 3.55566C68.501 3.16167 66.4198 3.10032 64.2974 4.00586C63.348 4.41069 62.6947 4.76269 61.9663 5.25488L61.6489 5.47461C60.0824 6.58537 59.13 7.40686 58.2954 8.34082C57.4467 9.2906 56.6978 10.3799 55.5454 12.0811C55.0174 12.8606 54.4875 13.7684 54.021 14.7549C53.9044 15.0016 53.8124 15.2178 53.7065 15.46C53.6544 15.5793 53.6001 15.7028 53.5405 15.832L53.3433 16.2393C53.0227 16.8709 52.9996 17.0406 52.9038 17.2764C52.8755 17.3461 52.8186 17.4752 52.7144 17.6064C52.5969 17.7542 52.461 17.854 52.3315 17.9219C52.2238 17.9784 52.1194 18.0123 52.0669 18.0293C52.0233 18.0434 51.9261 18.0731 51.8823 18.0869L51.1685 18.3135L50.7505 17.6904C50.6437 17.531 50.5818 17.3525 50.5513 17.2607C50.5117 17.1418 50.4756 17.0081 50.4419 16.875C50.3742 16.6075 50.3055 16.2862 50.2417 15.9736C50.1048 15.3026 49.9991 14.7256 49.936 14.4971L49.9351 14.4961C48.7974 10.3555 46.6031 6.09246 43.2603 3.94531V3.94434C42.8508 3.68107 41.9126 3.1937 40.897 2.72754C40.1493 2.3844 39.4326 2.08791 38.9087 1.9082C38.6426 2.15101 38.3466 2.39569 38.0444 2.63379C37.792 2.83264 37.5212 3.03997 37.2476 3.25C36.9719 3.46161 36.6902 3.6782 36.4058 3.90332C35.2539 4.81491 34.1333 5.8079 33.3921 6.92578C31.7412 9.41545 30.6488 11.9488 30.3452 15.082C30.0478 18.1613 30.4226 19.3314 30.8042 22.3359L31.0103 23.9619L29.4702 23.4014C28.9383 23.2076 28.3028 22.8556 27.7388 22.5273C27.1312 22.1738 26.6038 21.8474 26.1538 21.5996V21.5986C23.352 20.0558 18.4469 18.7932 14.9634 18.7324C10.0583 18.6467 6.77739 20.2146 2.96045 22.8838C2.50208 23.2043 2.27731 23.36 2.14014 23.4717C2.13989 23.476 2.13942 23.4807 2.13916 23.4854C2.13519 23.5577 2.12792 23.7432 2.11768 23.9033C2.09387 24.2752 2.04206 24.7798 1.896 25.5C1.51774 27.366 1.92971 29.6393 2.48486 31.5908C3.19652 34.0931 4.31777 35.8557 5.67139 37.6162C6.40008 38.5643 7.05679 39.3257 7.85498 40.0029C9.93243 41.7671 10.7325 42.6059 13.2993 43.9834L13.2983 43.9844C13.6143 44.1538 14.232 44.4134 14.9517 44.7451C15.2886 44.9004 15.636 45.0661 15.9341 45.2275C16.2 45.3716 16.5377 45.5692 16.7671 45.8008L17.4497 46.4902L16.7808 47.1924C16.6137 47.3681 16.3909 47.5088 16.23 47.6045C16.044 47.7151 15.8185 47.8357 15.5757 47.9609C15.0373 48.2387 14.5143 48.4917 13.7827 48.8721C12.4074 49.5872 10.7779 50.51 9.36865 51.6514L7.32373 53.4736C5.95321 54.7695 4.9888 56.0284 4.24951 57.5625C3.55405 59.0057 3.0415 60.7298 2.6001 63.0225L5.73291 66.082C6.99706 66.9218 8.35538 67.7897 9.98291 68.3301H9.98389C11.5888 68.8635 13.9134 69.2259 15.7524 69.248C17.694 69.2716 18.6598 69.169 19.4312 69.0449C20.204 68.9206 20.9482 68.74 22.2476 68.6426L23.5513 68.5449L23.3042 69.8281C23.2674 70.0194 23.188 70.1982 23.1343 70.3105C23.0711 70.4427 22.9932 70.5846 22.9116 70.7256C22.7478 71.0089 22.5409 71.3348 22.3335 71.6504C22.1246 71.9682 21.907 72.2873 21.7212 72.5596L21.2944 73.1885C19.4498 75.9923 18.1756 79.9805 18.0913 83.583C18.0185 86.7137 18.31 88.6466 18.9253 90.2783C19.5504 91.9362 20.5303 93.35 22.0024 95.4658L22.0034 95.4678C22.0789 95.5769 22.1516 95.6728 22.2397 95.79L22.5249 96.1875C22.6087 96.3131 22.6848 96.4436 22.7485 96.5537C30.2205 97.3296 35.4284 92.7128 39.3452 87.2012C39.6088 86.8304 40.1034 85.9636 40.6196 85.0693C40.8676 84.6398 41.115 84.2137 41.3237 83.875C41.4276 83.7064 41.5287 83.5487 41.6196 83.418C41.69 83.3167 41.8161 83.139 41.9663 83.0088L42.5425 82.5098L43.1763 82.9326C43.5551 83.1858 43.7609 83.6025 43.8706 83.8467C44.0028 84.1407 44.1204 84.4894 44.228 84.8281C44.4564 85.5468 44.6616 86.2815 44.938 86.9434Z" stroke="#40972E" stroke-width="1.99907"/>
</svg>
