<svg width="104" height="98" viewBox="0 0 104 98" fill="none" xmlns="http://www.w3.org/2000/svg">
<path opacity="0.4" d="M65.8799 96.7314C66.8963 96.8197 67.9186 96.6622 68.792 96.3447C69.6774 96.0229 70.3386 95.5636 70.6992 95.1113L70.7051 95.1045L72.3877 93.0322C72.6269 92.6772 72.9537 92.1388 73.4033 91.7617C73.9513 91.3021 74.6249 91.0919 75.498 91.1035C77.0184 91.1237 77.7488 90.9714 78.2246 90.7041C78.6889 90.4432 79.0554 89.9944 79.6465 88.9834V88.9844C81.0984 86.4996 81.2011 84.4008 80.5869 82.5615C79.9545 80.6677 78.5215 78.9293 76.6758 77.2998C76.5182 77.1609 76.3731 77.051 76.1982 76.918C76.03 76.7899 75.8349 76.6404 75.6211 76.4502L73.5752 74.6826C72.668 73.9034 69.9663 71.7479 67.5713 69.6172C66.3606 68.5401 65.1822 67.4293 64.2852 66.4434C63.8376 65.9514 63.4417 65.4703 63.1445 65.0254C62.8681 64.6114 62.5927 64.1078 62.5381 63.5918L62.4062 62.3486L63.6475 62.4941C64.4542 62.5886 65.5409 63.0303 66.6494 63.5654C67.7982 64.12 69.1049 64.8426 70.4004 65.6016C72.9936 67.1208 75.5984 68.8172 76.9092 69.6787C79.3764 71.3003 81.5606 73.07 83.8301 74.7822L83.8311 74.7812C85.3326 75.9138 86.7157 77.0646 88.3574 77.7334C89.9254 78.372 91.7327 78.5625 94.0459 77.6357C95.2156 77.1671 95.909 76.679 96.3447 76.2246C96.7725 75.7786 97.0001 75.3155 97.166 74.8105C97.2521 74.5485 97.3192 74.2808 97.3936 73.9814C97.4651 73.6932 97.5458 73.3659 97.6494 73.043C97.8371 72.4581 98.1151 71.8417 98.6348 71.2715L98.873 71.0303C99.3795 70.5547 99.9667 70.1021 100.462 69.6963C100.98 69.2716 101.446 68.8621 101.836 68.3965C102.574 67.5165 103.103 66.373 102.923 64.4482V64.4473C102.829 63.4393 102.486 62.6626 102.033 61.9209C101.8 61.5398 101.545 61.1782 101.268 60.7822C101.065 60.4926 100.851 60.1847 100.646 59.8594L100.445 59.5283C99.5464 57.984 100.024 56.5394 100.3 55.5615C100.592 54.5233 100.723 53.8725 100.231 53.0977C99.8732 52.5338 99.2319 52.0583 98.376 51.6865C97.5294 51.3188 96.5556 51.0886 95.6553 50.9648C95.0503 50.8816 94.1466 50.9174 93.0225 51.0566C91.9163 51.1937 90.6649 51.4221 89.3955 51.6895C86.8481 52.226 84.3153 52.8981 82.7803 53.2695H82.7793C81.4094 53.6009 78.4035 54.1819 75.4473 54.5674C73.9683 54.7602 72.4805 54.9078 71.2041 54.9473C69.9832 54.985 68.7814 54.9342 67.9912 54.624L67.2217 54.3213L67.374 53.5078C67.5049 52.8134 68.0096 52.3941 68.4248 52.1562C68.8492 51.9132 69.3508 51.7585 69.8027 51.6504C70.2654 51.5397 70.7452 51.4625 71.1514 51.4014C71.584 51.3363 71.8938 51.2937 72.1074 51.248V51.249C73.6684 50.914 75.0248 50.5591 76.5469 50.1689C77.8327 49.8397 79.3535 49.3671 80.5566 48.9209C82.3715 48.2481 84.373 47.4969 86.0791 46.4658C87.7864 45.4341 89.0674 44.1983 89.5996 42.625C89.7825 42.0842 89.7986 41.3952 89.6709 40.6963C89.559 40.084 89.3505 39.5431 89.1328 39.1748L89.0391 39.0273C88.8171 38.7065 88.3102 38.2736 87.6689 37.7295C87.3791 37.4836 87.0686 37.2178 86.8154 36.9688C86.6009 36.7577 86.2742 36.4177 86.1318 36.0156V36.0146C85.9342 35.4555 85.9314 34.9513 85.9756 34.5283C85.9968 34.3255 86.0299 34.1319 86.0566 33.9756C86.0852 33.8087 86.1072 33.681 86.1201 33.5576C86.1441 33.3285 86.1308 33.1713 86.0713 33.0156C86.0089 32.8525 85.8609 32.6034 85.4746 32.2607C84.742 31.611 83.3958 31.2218 81.834 31.1973C80.2903 31.173 78.7949 31.5102 77.8906 32.0371C76.2413 32.9983 74.8114 34.1874 73.4023 35.4863C72.0308 36.7507 70.5838 38.2143 69.085 39.5244C68.8406 39.7381 68.4431 40.133 67.9102 40.6553C67.3936 41.1615 66.7785 41.7587 66.1426 42.3262C65.5111 42.8897 64.8334 43.447 64.1914 43.8643C63.8701 44.0731 63.5361 44.2614 63.2041 44.3965C62.8811 44.5279 62.4964 44.6359 62.0947 44.6172L60.7168 44.5527L61.207 43.2627C61.3557 42.8721 61.6169 42.4995 61.8877 42.1641C62.1676 41.8174 62.5143 41.4435 62.8916 41.0518C63.664 40.2498 64.5836 39.351 65.5811 38.2471C67.5572 36.0601 69.7082 33.2048 70.9326 29.4766C72.0369 26.1142 71.991 23.3868 70.2793 21.4365L70.1084 21.25C69.6521 20.7735 69.2596 20.6639 68.5605 20.2803C68.2337 20.1009 67.8655 19.8631 67.5352 19.4912C67.2008 19.1147 66.9472 18.6489 66.7725 18.0605V18.0596C66.3251 16.5519 65.7918 15.5937 65.0723 14.8633L64.9258 14.7207C64.2783 14.1111 62.8727 13.457 61.1797 13.0908C59.5015 12.7278 57.7778 12.7003 56.5469 13.1211C53.988 13.9961 51.8554 15.9433 50.71 18.0361C49.3844 20.4574 48.5247 23.2746 48.2373 26.2061L48.1875 26.7939C48.053 28.6805 48.0166 30.4661 48.0898 32.377C48.0998 32.6335 48.1421 33.0435 48.1992 33.5762C48.2544 34.0908 48.3203 34.6938 48.3672 35.2861C48.4138 35.8745 48.4446 36.4847 48.4238 37.0137C48.4134 37.2779 48.3901 37.5457 48.3408 37.793C48.2946 38.0249 48.2101 38.3212 48.0312 38.583L47.5908 39.2275L46.8594 38.957C46.3565 38.7709 46.0181 38.3453 45.8154 38.0459C45.5864 37.7075 45.3871 37.3075 45.2197 36.9258C45.0519 36.5431 44.9004 36.1422 44.7734 35.7832L44.4727 34.8926C43.0691 30.6723 43.704 26.4481 44.4023 22.4443C45.114 18.3642 45.885 14.5237 45.1016 10.6777C44.543 7.93459 43.2062 5.80928 41.4678 5.08789L41.2988 5.02246C39.8833 4.51705 38.9181 4.8952 37.5322 5.18457C36.8604 5.32482 36.0782 5.43377 35.2207 5.23535C34.3504 5.03394 33.5119 4.54387 32.6543 3.68164C30.0591 1.07193 26.03 0.686498 22.9961 3.33301L22.7061 3.59863L22.3672 3.92285C22.1056 4.17661 21.8918 4.39903 21.707 4.66602L21.5996 4.83203C21.4788 5.03184 21.2525 5.45105 21.0576 5.74023C20.8358 6.06925 20.5205 6.45461 20.0488 6.71777C19.3797 7.09103 18.6763 7.19601 18.0723 7.25C17.4088 7.30928 16.9289 7.30996 16.3496 7.40918C15.8228 7.49944 15.3088 7.66391 14.7881 8.00879C14.263 8.35656 13.683 8.92003 13.0732 9.87109C11.2418 12.728 11.4612 15.4361 12.583 17.9795C13.7328 20.5861 15.8001 22.9444 17.5859 24.9619H17.5869C17.6913 25.0799 17.7367 25.1198 17.7891 25.1641C17.8641 25.2275 17.9889 25.3265 18.1836 25.5117V25.5127C18.524 25.837 19.8127 27.2382 20.9873 28.5625C21.5818 29.2327 22.1635 29.9012 22.5996 30.4268C22.8161 30.6877 23.006 30.9242 23.1455 31.1123C23.2138 31.2044 23.2824 31.3012 23.3379 31.3916C23.365 31.4357 23.4008 31.4962 23.4326 31.5654C23.4497 31.6026 23.53 31.7727 23.5371 31.9961C23.5442 32.2192 23.5237 32.5071 23.3916 32.7861C23.2388 33.1087 22.9643 33.3559 22.6094 33.4609C22.3039 33.5513 22.0234 33.5114 21.8447 33.4697C21.6556 33.4256 21.4783 33.3546 21.3311 33.2871L21.2305 33.2412L21.1426 33.1748L18.042 30.8203L18.0234 30.8057L18.0059 30.791C16.8185 29.7987 15.1056 28.4497 13.3066 27.3203C11.4708 26.1678 9.69025 25.3388 8.33594 25.2246H8.33496C7.0633 25.1173 5.77097 25.4746 4.78613 26.1289C3.85905 26.7448 3.2836 27.5633 3.15137 28.418L3.13086 28.5889C3.11155 28.8204 3.15514 29.1079 3.22754 29.5459C3.27923 29.8586 3.3627 30.3259 3.33203 30.7783L3.31152 30.9717C3.21444 31.6241 2.86344 32.1463 2.58105 32.5264C2.25176 32.9696 2.01317 33.2325 1.77734 33.6133C1.57046 33.9474 1.438 34.2737 1.41016 34.6514C1.38226 35.0305 1.45341 35.5462 1.78906 36.2627C2.12554 36.98 2.39285 37.4153 2.6875 37.7598C2.98163 38.1036 3.34183 38.4028 3.92676 38.8047L3.92578 38.8057C5.25357 39.7177 7.42986 40.4022 10.2324 40.9824C13.0078 41.557 16.2372 41.9994 19.6025 42.5029C22.9469 43.0033 26.4086 43.5621 29.5684 44.3662C32.7183 45.1679 35.648 46.2324 37.8906 47.7852C37.9942 47.8569 38.1233 47.9409 38.2812 48.0449C38.434 48.1455 38.6077 48.2603 38.7793 48.3799C39.0948 48.5997 39.5077 48.905 39.7783 49.2344C39.9015 49.3844 40.1233 49.6887 40.1484 50.0996C40.1627 50.3328 40.1113 50.5794 39.9746 50.8037C39.8441 51.0179 39.6681 51.1589 39.5117 51.25C39.2216 51.419 38.8837 51.4828 38.5928 51.5127C38.2792 51.5449 37.9022 51.548 37.4609 51.5264C35.9816 51.4541 33.8907 51.112 32.5273 50.8516C30.1336 50.3943 26.1897 49.1834 24.0283 48.2773C22.0371 47.4427 18.21 46.6993 15.6172 46.3252C13.1188 45.9643 10.7098 46.307 9.04785 47.1953C8.22487 47.6352 7.6156 48.1915 7.24121 48.8311C6.9193 49.381 6.74539 50.0342 6.79199 50.8135L6.82617 51.1553C6.87479 51.5145 6.96829 51.8378 7.08203 52.1641C7.17921 52.4428 7.34802 52.8694 7.44824 53.2012C7.5621 53.5782 7.65436 54.0216 7.6084 54.5186C7.56726 54.9629 7.42168 55.3932 7.16699 55.8203L7.05176 56.0029C6.27032 57.1693 5.64087 58.2506 5.37402 59.3936C5.13364 60.4234 5.17596 61.5558 5.79199 62.9004L5.92383 63.1719C6.67809 64.6653 7.8023 65.5286 8.86133 66.1709C9.12866 66.333 9.38844 66.4784 9.64258 66.6211C9.89003 66.76 10.144 66.902 10.3701 67.042C10.5944 67.1808 10.8302 67.341 11.0342 67.5273C11.2372 67.7129 11.4577 67.9689 11.583 68.3115V68.3125C11.7428 68.7507 11.7955 69.2441 11.8408 69.5742C11.8924 69.9502 11.9451 70.2509 12.0586 70.5342L12.0596 70.5352C12.8376 72.4797 14.6744 73.398 16.9814 73.4961C19.3006 73.5946 21.8638 72.8323 23.6162 71.6689C27.1969 69.292 29.5405 67.2437 32.127 65.2617C34.7067 63.2849 37.43 61.4579 41.6162 59.665L41.6182 59.6641C41.8549 59.5631 42.3339 59.3505 42.7168 59.2598L42.8086 59.2383L42.9023 59.2344L43.7988 59.1934L43.9355 59.1875L44.0684 59.2178C44.1396 59.2341 44.2119 59.2505 44.2715 59.2666C44.3312 59.2827 44.4318 59.3125 44.542 59.3682C44.6579 59.4268 44.7409 59.4936 44.7627 59.5107C44.7851 59.5283 44.7899 59.5326 44.8047 59.543L45.084 59.7383L45.1855 60.0635C45.4195 60.8122 45.1357 61.5934 44.8613 62.1465C44.5589 62.756 44.1141 63.3856 43.6533 63.959C42.7327 65.1047 41.6216 66.1763 41.0557 66.6299C39.6458 67.7597 37.9835 68.7742 36.3125 69.7373C34.6174 70.7142 32.9356 71.6263 31.3721 72.6016C28.2915 74.5231 26.1278 76.4284 25.6602 78.7979L25.6201 79.0293C25.3758 80.666 25.9159 82.2353 26.7207 83.4385V83.4395C27.7313 84.9511 28.2623 85.7143 28.8877 86.1396C29.4207 86.5021 30.1335 86.6782 31.7275 86.5146C33.366 86.346 34.368 87.4251 35.1055 88.0986C35.8965 88.8211 36.7383 89.5169 38.2891 89.7334C41.9161 90.2395 44.2481 88.5052 45.6611 86.5635L45.9316 86.1729C47.9186 83.1592 48.4658 78.9607 48.7988 74.915C48.9611 72.9431 49.0761 70.982 49.3086 69.3496C49.5356 67.7559 49.9022 66.2156 50.7275 65.209L51.0684 64.793L51.6035 64.8486C51.9852 64.8884 52.5113 64.9737 52.9023 65.4092C53.0764 65.6031 53.1741 65.8126 53.2354 65.9639C53.2924 66.1048 53.351 66.2837 53.3975 66.418C53.4798 66.655 53.5628 66.9084 53.6426 67.1514C53.7235 67.3979 53.8014 67.6352 53.8779 67.8545C55.8743 73.5756 54.096 79.7147 52.7432 84.8262C52.1852 86.9357 51.6308 89.1446 52.041 91.2422C52.1845 91.9733 52.5922 92.7877 53.1348 93.4961C53.6857 94.2154 54.2873 94.711 54.7246 94.9033C55.8081 95.3797 56.7403 95.2333 57.6611 94.9482C57.8976 94.875 58.1251 94.7957 58.3633 94.7129C58.5936 94.6329 58.8415 94.5475 59.083 94.4785C59.5415 94.3476 60.1532 94.2196 60.7725 94.4053C61.2116 94.5369 61.6256 94.7819 61.9766 95.0059C62.3806 95.2637 62.6789 95.4773 63.1055 95.7383C63.886 96.2158 64.765 96.635 65.8799 96.7314Z" stroke="#40972E" stroke-width="1.99907"/>
</svg>
