<svg width="358" height="334" viewBox="0 0 358 334" fill="none" xmlns="http://www.w3.org/2000/svg">
<g style="mix-blend-mode:multiply" opacity="0.1">
<path d="M226.75 5.79195C230.021 5.50891 233.323 6.01357 236.138 7.03316C239.013 8.07464 241.018 9.51581 242.032 10.7832L242.046 10.8017L242.061 10.8193L247.814 17.8769C248.57 19.0028 249.847 21.0699 251.579 22.5175C253.675 24.2691 256.186 25.0812 259.205 25.1396L259.815 25.1416C265.013 25.0727 267.179 25.61 268.444 26.3183C269.65 26.9932 270.737 28.1973 272.768 31.6582L272.768 31.6591C277.569 39.8477 277.839 46.5886 275.879 52.4384C273.826 58.5647 269.121 64.3194 262.837 69.8476C262.341 70.2827 261.885 70.6299 261.277 71.0908C260.834 71.427 260.31 71.8235 259.736 72.3037L259.211 72.7568L252.157 78.833C249.124 81.4293 239.675 88.9506 231.427 96.2626C227.237 99.9773 223.121 103.836 219.972 107.286C218.402 109.006 216.979 110.723 215.894 112.343C214.912 113.808 213.775 115.808 213.544 117.982L212.884 124.201L219.095 123.477C222.164 123.118 226.124 121.487 229.939 119.651C233.955 117.719 238.503 115.21 242.988 112.592C251.97 107.348 260.982 101.501 265.508 98.5371C274.075 92.9258 281.693 86.7828 289.468 80.9374C294.739 76.9757 299.306 73.192 304.732 70.9892C309.634 68.9995 315.251 68.337 322.498 71.0527L323.204 71.3261C327.094 72.8791 329.281 74.451 330.592 75.8134C331.862 77.1334 332.546 78.4967 333.066 80.0761C333.343 80.9142 333.563 81.78 333.82 82.8134C334.064 83.7909 334.354 84.9709 334.73 86.1415C335.471 88.4426 336.626 90.965 338.902 93.2675L339.373 93.7255C341.171 95.4077 343.279 97.027 344.933 98.3779C346.703 99.8236 348.215 101.159 349.465 102.644C351.748 105.359 353.431 108.874 352.852 115.059L352.851 115.059C352.555 118.213 351.49 120.654 350.008 123.071C349.236 124.331 348.387 125.529 347.422 126.902C346.607 128.062 345.712 129.345 344.871 130.726L344.515 131.322C341.029 137.288 342.933 142.914 343.855 146.179C344.864 149.746 345.098 151.349 343.808 153.375C342.803 154.95 340.901 156.421 338.099 157.634C335.516 158.751 332.532 159.491 329.686 159.919L329.118 160.001C327.235 160.259 324.28 160.16 320.434 159.685C316.678 159.222 312.409 158.445 308.051 157.53C300.386 155.922 292.786 153.963 287.428 152.636L285.274 152.108C280.489 150.955 270.065 148.947 259.819 147.616C254.692 146.95 249.504 146.439 245.029 146.301C240.833 146.171 236.393 146.323 233.339 147.518L229.477 149.027L230.247 153.102C230.822 156.146 233.026 157.902 234.631 158.818C236.285 159.762 238.181 160.335 239.792 160.719C241.456 161.115 243.165 161.389 244.572 161.6C246.112 161.83 247.103 161.964 247.778 162.108L247.778 162.107C253.126 163.251 257.773 164.462 263.032 165.806L263.033 165.806C267.419 166.925 272.611 168.533 276.709 170.048L276.71 170.048C282.991 172.368 289.757 174.905 295.497 178.362C301.245 181.824 305.304 185.822 306.969 190.726C307.488 192.256 307.567 194.335 307.158 196.564C306.749 198.799 305.944 200.665 305.233 201.691C304.615 202.581 303.075 203.912 300.782 205.851C299.79 206.689 298.674 207.638 297.753 208.541C297.026 209.253 295.643 210.65 295.017 212.414L295.016 212.416C294.231 214.629 294.225 216.614 294.393 218.215C294.472 218.972 294.596 219.689 294.688 220.22C294.788 220.803 294.853 221.19 294.892 221.555C294.959 222.194 294.906 222.463 294.819 222.689C294.718 222.953 294.387 223.61 293.187 224.672C291.064 226.548 286.862 227.857 281.626 227.939C276.482 228.02 271.627 226.889 268.823 225.262C263.275 222.04 258.439 218.037 253.611 213.602C249.262 209.607 244.498 204.84 239.657 200.548L238.688 199.696L238.363 199.406C237.55 198.665 236.334 197.463 234.7 195.868C232.916 194.125 230.771 192.052 228.548 190.075C226.347 188.118 223.942 186.14 221.63 184.643C220.472 183.893 219.23 183.193 217.964 182.68C216.743 182.185 215.184 181.732 213.489 181.81L206.583 182.131L209.05 188.589C209.653 190.167 210.678 191.603 211.643 192.794C212.653 194.041 213.888 195.366 215.195 196.719C217.9 199.517 221.019 202.553 224.439 206.325C231.185 213.764 238.446 223.388 242.572 235.909L242.572 235.91C246.443 247.656 245.954 256.504 240.088 262.607L240.088 262.608C238.733 264.018 237.759 264.215 235.125 265.655C233.922 266.313 232.479 267.23 231.172 268.696C229.844 270.186 228.868 272 228.209 274.211L228.209 274.212C226.615 279.564 224.747 282.667 222.268 284.995C220.332 286.811 215.802 288.978 210.078 290.212C204.606 291.391 199.147 291.475 195.286 290.278L194.918 290.158C186.478 287.282 179.419 280.858 175.645 273.985L175.645 273.984L175.203 273.167C170.842 264.949 168.051 255.416 167.209 245.517L167.132 244.526C166.672 238.096 166.55 232.016 166.8 225.509C166.832 224.693 166.971 223.347 167.17 221.494C167.36 219.731 167.59 217.634 167.754 215.571C167.916 213.529 168.028 211.359 167.952 209.447C167.914 208.491 167.826 207.48 167.634 206.519C167.457 205.636 167.115 204.378 166.324 203.225L164.123 200.013L160.47 201.36C158.256 202.177 156.857 203.994 156.122 205.076C155.256 206.352 154.523 207.825 153.928 209.177C152.734 211.89 151.781 214.851 151.298 216.304C146.316 231.233 148.594 246.123 150.999 259.861C153.394 273.543 155.89 286.049 153.652 298.515L153.421 299.721C151.536 308.948 147.11 315.612 141.819 317.805L141.305 318.003C136.931 319.559 134.131 318.425 129.145 317.388C126.756 316.891 123.794 316.462 120.509 317.22C117.16 317.992 114.022 319.86 110.91 322.978L110.909 322.978C102.228 331.677 88.6727 332.709 78.752 323.237L78.751 323.237C77.1345 321.694 76.1524 320.798 75.3516 319.565L75.1934 319.314C74.8598 318.764 73.971 317.151 73.2813 316.131C72.4558 314.91 71.2048 313.354 69.2706 312.278C66.6696 310.832 63.975 310.451 61.836 310.261C59.4002 310.044 57.9393 310.059 56.0167 309.73C54.356 309.447 52.799 308.944 51.2227 307.903C49.6249 306.849 47.7667 305.084 45.7569 301.96C39.79 292.685 40.4746 283.957 44.1836 275.577C48.0342 266.878 54.9921 258.949 61.1817 251.981L61.1817 251.98C61.4908 251.632 61.594 251.548 61.7198 251.442C61.959 251.241 62.4342 250.862 63.1485 250.185L63.1504 250.183C64.3826 249.013 68.8753 244.142 72.9131 239.605C74.9684 237.296 76.988 234.982 78.5088 233.156C79.2622 232.252 79.9376 231.412 80.4444 230.731C80.6907 230.4 80.958 230.027 81.1846 229.659C81.2947 229.48 81.4512 229.213 81.5977 228.895C81.6697 228.74 82.0672 227.913 82.1026 226.809C82.1311 225.918 82.0583 224.642 81.4502 223.363C80.7391 221.868 79.4505 220.711 77.7891 220.221C76.3738 219.803 75.1076 219.995 74.3662 220.167C73.5718 220.352 72.8541 220.642 72.2998 220.895L71.7998 221.124L71.3623 221.455L60.6661 229.548L60.5733 229.618L60.4834 229.693C56.4125 233.084 50.5648 237.671 44.4434 241.501C38.138 245.446 32.2643 248.116 27.9854 248.476L27.9844 248.476C23.9506 248.815 19.8368 247.678 16.7227 245.616C13.59 243.542 11.926 240.88 11.708 238.339C11.6608 237.778 11.7636 236.998 12.0225 235.437C12.214 234.283 12.6239 232.09 12.3174 230.046L12.3155 230.046C11.9192 227.392 10.5005 225.33 9.50492 223.995C8.27308 222.343 7.57496 221.608 6.80473 220.369C6.17969 219.363 5.84438 218.485 5.7725 217.514C5.70011 216.535 5.86539 215.032 6.93461 212.758L6.93363 212.757C8.06358 210.357 8.91499 209.003 9.80277 207.969C10.5782 207.065 11.5286 206.234 13.0752 205.136L13.7754 204.647C18.0779 201.702 25.3119 199.392 34.9688 197.399C44.488 195.436 55.5643 193.923 67.2061 192.187C78.7442 190.467 90.7547 188.538 101.737 185.753C112.328 183.067 122.338 179.497 130.189 174.284L130.943 173.774C131.282 173.541 131.708 173.263 132.262 172.899C132.789 172.553 133.401 172.149 134.012 171.726C135.093 170.975 136.683 169.819 137.77 168.501C138.251 167.917 139.284 166.549 139.402 164.625C139.47 163.523 139.226 162.351 138.575 161.286C137.956 160.274 137.133 159.623 136.433 159.217C135.146 158.47 133.719 158.224 132.646 158.114C131.606 158.008 130.416 157.988 129.087 158.036L128.509 158.061C123.944 158.284 117.785 159.225 113.158 160.059L111.278 160.406C102.912 161.999 89.2026 166.192 81.6524 169.346C74.9843 172.131 61.9596 174.666 53.0127 175.952L53.0117 175.952C44.6273 177.159 36.6676 175.989 31.2959 173.128C28.6498 171.718 26.7881 169.988 25.6739 168.092C24.5923 166.251 24.0513 163.984 24.4434 161.111L24.4444 161.108C24.5922 160.02 24.8795 159.02 25.2539 157.95C25.5452 157.118 26.184 155.489 26.5381 154.321C26.961 152.926 27.3375 151.181 27.1524 149.189C26.9622 147.144 26.2188 145.215 24.9688 143.356C22.2862 139.366 20.26 135.852 19.4092 132.221C18.6109 128.813 18.7858 125.016 21.1748 120.303C23.588 115.541 27.1882 112.763 30.7256 110.625C31.6226 110.083 32.4959 109.593 33.374 109.102C34.2189 108.629 35.1271 108.122 35.9414 107.62C36.746 107.124 37.6543 106.516 38.4629 105.779C39.2669 105.047 40.2218 103.967 40.7725 102.465L40.7735 102.462C41.3974 100.757 41.5995 98.8507 41.7442 97.7998C41.9206 96.5181 42.0827 95.6515 42.3965 94.8711L42.3975 94.8682C44.7674 88.9643 50.3867 85.9886 58.0029 85.666C65.6741 85.3411 74.1956 87.8696 79.9727 91.6914L79.9736 91.6914C92.2684 99.8241 100.241 106.777 109.245 113.653C118.217 120.504 127.723 126.861 142.313 133.088L142.32 133.091C143.078 133.413 144.88 134.211 146.361 134.561L146.816 134.668L147.283 134.688L150.377 134.829L151.056 134.86L151.719 134.708C151.957 134.653 152.236 134.59 152.476 134.525C152.715 134.461 153.183 134.328 153.705 134.065C154.257 133.787 154.65 133.468 154.726 133.409C154.806 133.346 154.79 133.359 154.801 133.352L156.198 132.376L156.708 130.749C157.712 127.549 156.471 124.372 155.497 122.416C154.382 120.176 152.772 117.91 151.149 115.898C148.111 112.13 144.481 108.585 142.352 106.809L141.946 106.478C136.985 102.515 131.166 98.9812 125.392 95.665C119.496 92.279 113.758 89.1793 108.394 85.8447C97.3968 79.0092 90.4275 72.583 89.2725 64.8496L89.2715 64.8476C88.5022 59.7107 90.1973 54.7068 92.8193 50.8008L92.8203 50.7998C96.3744 45.5021 98.0265 43.1918 99.876 41.9385C101.266 40.9968 103.281 40.3582 108.649 40.9072L108.649 40.9082C115.118 41.5712 119.112 37.2415 121.5 35.0683C124.151 32.6557 126.767 30.5177 131.652 29.8379L131.651 29.8369C144.227 28.0879 151.972 34.5301 156.512 41.3935L156.513 41.3945C163.115 51.3733 164.997 65.4082 166.148 79.3535C166.703 86.0716 167.105 92.9055 167.916 98.5791C168.699 104.059 170.001 109.757 173.152 113.587L174.858 115.661L177.529 115.384C178.884 115.243 181.229 114.917 182.998 112.954C183.777 112.089 184.195 111.172 184.434 110.586C184.651 110.05 184.879 109.36 185.023 108.944L185.022 108.943C185.311 108.116 185.602 107.235 185.875 106.405C186.155 105.555 186.419 104.755 186.678 104.018C193.757 83.8042 187.428 62.1843 182.798 44.7519C180.858 37.4437 179.066 30.2015 180.4 23.4043L180.401 23.4052C180.837 21.1926 182.109 18.6127 183.878 16.3115C185.688 13.9564 187.57 12.4708 188.754 11.9521C192.005 10.5276 194.795 10.9256 197.812 11.8564C198.598 12.0988 199.354 12.3631 200.184 12.6504C200.974 12.9239 201.866 13.2317 202.747 13.4824C204.386 13.9489 206.857 14.4971 209.436 13.7275L209.437 13.7285C211.174 13.2099 212.758 12.2606 213.979 11.4843C215.464 10.5395 216.373 9.88464 217.85 8.98434C220.439 7.40566 223.235 6.09496 226.749 5.79195L226.75 5.79195Z" stroke="#3EA83C" stroke-width="10"/>
</g>
</svg>
