<svg width="288" height="288" viewBox="0 0 288 288" fill="none" xmlns="http://www.w3.org/2000/svg">
<g style="mix-blend-mode:multiply" opacity="0.1">
<path d="M131.714 252.525C140.484 273.543 159.577 285.855 181.836 282.43V282.429C183.836 282.12 185.343 281.732 187.374 281.156H187.375C189.658 280.509 191.524 280.116 193.521 280.598C194.223 279.782 195.053 278.77 195.902 277.698C197.543 275.63 199.097 273.551 199.868 272.439L200.148 272.025C202.811 267.945 204.339 264.581 205.999 259.223V259.222C207.561 254.174 207.975 248.77 207.771 242.646C207.669 239.654 207.082 235.718 206.481 232.137C206.202 230.468 205.886 228.687 205.685 227.461C205.579 226.817 205.483 226.202 205.417 225.68C205.372 225.322 205.268 224.508 205.331 223.739L205.806 217.918L211.484 219.284C212.772 219.594 213.888 220.061 214.687 220.396C215.343 220.673 215.826 220.878 216.297 221.046L216.77 221.203C224.047 223.415 225.398 224.272 233.226 225.133L233.228 225.134C240.95 225.987 250.978 226.388 257.501 224.762V224.763C261.948 223.654 264.799 222.853 267.369 221.799C269.876 220.771 272.267 219.436 275.628 217.128L275.629 217.127C278.069 215.452 280.574 213.272 282.765 211.311V211.31C282.837 211.244 282.903 211.186 282.963 211.133L282.926 210.559C282.489 204.591 282.254 201.12 281.371 197.684C280.574 194.583 279.19 191.33 276.259 186.375L275.651 185.36C272.011 179.346 268.771 176.688 264.222 172.124L263.294 171.185C261.693 169.547 258.929 167.605 256.268 165.799H256.267C248.75 160.695 243.009 158.232 238.648 156.765C236.424 156.016 234.541 155.52 232.745 155.023C231.061 154.558 229.191 154.028 227.533 153.229L223.663 151.365L224.886 147.377C224.889 147.355 224.892 147.329 224.896 147.3C224.923 147.123 225.037 146.301 225.537 145.415C226.1 144.418 226.858 143.826 227.394 143.494C227.844 143.215 228.272 143.041 228.443 142.972C228.652 142.887 228.898 142.796 229.092 142.724C229.517 142.565 230.106 142.345 230.979 141.988V141.989C232.639 141.308 233.639 140.967 234.924 140.382C242.276 137.036 248.384 132.99 253.841 127.727V127.726C257.038 124.639 259.92 121.038 262.318 116.245V116.244C263.046 114.79 264.156 111.81 265.152 108.506C265.781 106.42 266.29 104.451 266.617 102.875L258.818 95.9971C248.93 89.9544 239.52 88.7047 231.646 88.8506C227.613 88.9253 224.021 89.3627 220.812 89.7354C219.248 89.9169 217.689 90.0935 216.293 90.1758C214.94 90.2555 213.397 90.2726 211.94 89.9902L207.612 89.1514L207.902 84.752C207.993 83.3814 208.552 82.0525 208.847 81.374C209.228 80.4963 209.704 79.5506 210.146 78.6982C211.155 76.7551 211.887 75.4401 212.193 74.668V74.667C213.421 71.5667 214.622 68.5428 215.536 65.2988V65.2979C217.741 57.4622 219.001 48.0746 218.348 39.1211C217.691 30.1283 215.145 22.0293 210.201 16.2305L210.115 16.1299L210.035 16.0254L205.469 10.0586C198.416 9.03767 192.98 9.02736 187.491 11.3711H187.49C184.435 12.6751 182.514 13.7607 180.096 15.4736H180.097C175.569 18.6865 172.904 21.0019 170.59 23.5938C168.503 25.9306 166.616 28.581 163.897 32.5742L162.679 34.3711C161.37 36.3042 160.057 38.52 158.862 40.9199L158.358 41.959C158.033 42.6489 157.778 43.2459 157.459 43.9756C157.226 44.5097 156.969 45.0882 156.663 45.7227L156.34 46.376C155.448 48.1345 155.479 48.384 155.121 49.2656C155.01 49.5398 154.757 50.1291 154.271 50.7412C153.719 51.4376 153.079 51.9034 152.487 52.2139C152.004 52.4676 151.554 52.613 151.388 52.667C151.265 52.707 150.9 52.8192 150.832 52.8408L147.257 53.9717L145.17 50.8555C144.688 50.1354 144.434 49.3761 144.341 49.0947C144.202 48.6777 144.079 48.2309 143.975 47.8164C143.763 46.9809 143.554 45.9966 143.365 45.0723C142.942 42.9944 142.661 41.4515 142.5 40.8691L142.499 40.8633C139.208 28.8772 132.95 16.9351 123.763 11.0293L123.761 11.0283C122.686 10.3366 120.04 8.95131 117.074 7.58887C115.39 6.81516 113.818 6.15225 112.547 5.66602C111.982 6.1457 111.403 6.61239 110.837 7.05859C110.083 7.65341 109.275 8.27232 108.476 8.88672C107.666 9.50898 106.849 10.1376 106.026 10.7891C102.878 13.2827 99.9821 15.856 97.9961 18.6377L97.6104 19.1973C93.0471 26.0847 90.0373 32.992 89.0791 41.4189L88.9922 42.2393C88.1472 50.9964 89.1928 54.1161 90.334 63.1084L91.3672 71.2441L83.6621 68.4355C81.9035 67.7945 79.8886 66.6682 78.2432 65.71C76.3803 64.6251 74.9322 63.7228 73.6309 63.0059H73.6299C65.7164 58.6444 51.6408 55.0072 41.7168 54.834C28.3364 54.6001 19.272 58.687 8.70312 65.9521L7.6748 66.665C6.94996 67.1723 6.45061 67.5203 6.09375 67.7725C6.08753 67.8877 6.08379 68.0015 6.07715 68.1055C6.01116 69.1377 5.87723 70.4736 5.54395 72.2764L5.38867 73.0781C4.37997 78.0573 5.46598 84.3407 7.0791 90.0156C9.07179 97.0278 12.202 101.973 16.0928 107.038L16.0938 107.039C18.1968 109.778 20.0224 111.884 22.2061 113.738L22.208 113.74C28.3576 118.967 30.5314 121.272 37.8389 125.197L37.8398 125.196C38.6974 125.656 40.353 126.351 42.585 127.381C43.5866 127.843 44.6544 128.353 45.5898 128.86C46.3639 129.28 47.6048 129.984 48.5176 130.906L51.9287 134.353L48.5879 137.868C47.882 138.611 47.0048 139.147 46.5283 139.431C45.9267 139.789 45.2213 140.165 44.5 140.537C42.7923 141.419 41.4581 142.06 39.2383 143.215C35.2511 145.29 30.6322 147.912 26.667 151.117L20.6885 156.449C16.8337 160.104 14.1764 163.598 12.1387 167.83C10.3085 171.631 8.89703 176.194 7.66895 182.287L15.9424 190.376C19.5996 192.804 23.3429 195.165 27.7744 196.638H27.7764C32.264 198.131 38.878 199.169 44.0947 199.231H44.0957C49.7036 199.299 52.4199 199.002 54.5488 198.659C56.6853 198.315 59.0636 197.752 62.9971 197.457L69.5166 196.968L68.2812 203.388C68.1205 204.223 67.7885 204.947 67.6182 205.304C67.4003 205.76 67.1424 206.229 66.8887 206.668C66.3782 207.551 65.7447 208.547 65.1279 209.486C64.5042 210.436 63.8595 211.387 63.3125 212.189L62.0752 214.012C57.0328 221.683 53.4715 232.574 53.0371 242.528L53.0049 243.488C52.7943 252.548 53.6435 257.939 55.3232 262.397C57.0525 266.987 59.7653 270.929 64.126 277.201L64.1338 277.211C64.3278 277.492 64.5129 277.737 64.7793 278.092C65.0311 278.427 65.349 278.854 65.6826 279.355L65.6836 279.354C65.7413 279.441 65.7954 279.53 65.8506 279.616C85.4722 281.211 99.5691 269.444 110.597 254.407L111.696 252.884C112.397 251.897 113.779 249.477 115.335 246.779C116.062 245.519 116.804 244.242 117.435 243.218C117.748 242.708 118.068 242.207 118.366 241.777C118.562 241.495 119.064 240.769 119.726 240.195L122.609 237.693L125.782 239.815C127.427 240.916 128.228 242.639 128.557 243.37C128.997 244.351 129.373 245.475 129.691 246.477C130.393 248.686 130.948 250.691 131.714 252.525Z" stroke="#3EA83C" stroke-width="10"/>
</g>
</svg>
