<svg width="112" height="179" viewBox="0 0 112 179" fill="none" xmlns="http://www.w3.org/2000/svg">
<path fill-rule="evenodd" clip-rule="evenodd" d="M59.0961 77.5462L61.6347 77.39C62.7292 79.3277 63.8869 87.1431 60.8686 87.4757C57.032 87.8986 58.3179 79.7323 59.0961 77.5462ZM63.7285 76.3805C64.6316 75.2588 66.454 72.5612 67.4766 71.8986C71.5501 69.2587 73.0484 69.278 76.6165 64.6343C77.716 63.2025 79.0646 60.6098 79.9345 59.5838C80.1879 60.3335 80.3186 71.4753 80.323 73.2739C80.3431 81.152 80.821 93.2692 81.2493 101.253C81.4909 105.755 81.9381 110.542 81.8396 115.012C81.2005 114.345 79.6159 110.259 78.9312 109.022C75.2641 102.398 77.3521 91.6575 67.4236 93.7096C66.6494 92.859 66.2876 91.2216 65.756 90.1233C63.1559 84.7502 65.8637 87.1779 64.7933 81.0055C64.5984 79.8832 63.7569 77.049 63.7285 76.3805ZM4.53411 44.3952C4.81387 41.0583 6.73106 38.1831 8.18838 35.2706C9.38181 32.887 14.7679 31.9591 17.2655 31.5356C32.7885 28.9029 47.7469 44.0956 57.1385 54.833C58.47 56.3552 62.2825 60.2698 63.0699 61.6974C62.2439 62.9149 58.2781 70.1195 62.1787 69.2728C63.1969 67.9368 62.3868 64.0076 65.016 63.1137L68.0213 66.8857C67.5673 68.6535 66.5742 70.3114 65.3259 71.4361C64.158 72.4883 63.4401 74.0214 62.1042 75.1802C60.3876 75.8913 55.2893 72.1358 56.2116 84.3772C56.3569 86.3056 57.0046 86.5966 56.8907 88.3998C58.9463 89.8726 60.6099 90.1602 62.7811 88.9023C63.5062 89.6003 65.3122 93.4835 64.9533 94.4617C63.9956 95.0166 58.6614 96.3826 56.9404 97.0698C52.5935 98.8045 46.8273 101.678 42.877 104.208C41.7051 104.959 36.9326 108.34 36.2289 108.573C35.4724 104.672 34.2664 99.5053 32.3094 96.0329C33.1577 95.4722 39.179 93.8012 43.028 91.8284C43.6416 91.5132 50.8598 87.8148 47.7782 86.8866C46.3249 86.4491 35.5044 95.9485 22.1811 94.4166C9.67361 92.978 3.27514 80.5674 2.07066 69.4171C1.77622 66.6869 2.36931 61.6722 2.96743 58.9712C3.27855 57.567 2.6501 56.4224 3.50528 55.6932C3.97698 56.7602 3.7742 58.8927 4.39242 60.0686C5.00582 61.2359 7.03293 61.8029 8.04246 61.2154C7.23471 60.591 5.51532 60.6468 5.08502 59.406C4.72446 58.3669 4.57407 55.9997 4.72038 54.916C6.61926 53.2264 8.40602 52.2675 11.0704 52.2128C10.1727 53.3044 8.94427 52.8407 8.2356 55.1041C6.44506 60.8241 15.7997 62.7616 15.9768 56.8794C16.024 55.315 16.0566 53.5928 14.8772 52.4761C13.9977 51.643 12.4821 50.5509 11.194 50.4194C6.67676 49.9578 4.46579 53.0298 2.92125 53.7624C2.96627 52.3774 3.39937 48.0881 3.97418 47.0022C7.39128 45.5324 10.3093 45.1324 13.408 47.4387C14.3965 48.1741 15.5495 49.5112 16.2526 50.6198C18.8249 54.675 15.7473 60.9602 13.8062 64.784C12.6349 67.0909 10.3698 72.3408 12.4936 74.3958C14.4735 74.6862 21.8638 75.0128 22.6932 72.792C21.8774 72.0759 15.2933 72.1755 13.7351 72.1601C14.5002 64.1073 25.2045 53.1603 14.2015 44.9576C10.3081 42.0548 8.53988 43.3288 4.53411 44.3952ZM79.6332 36.2894C78.9097 35.5209 77.6356 33.0403 76.9047 31.9408C73.8288 27.3142 70.4829 23.9533 66.0899 20.5608C63.4049 18.4864 59.4948 16.8052 56.4224 15.5085C53.2069 14.1509 48.0949 13.4131 45.3073 11.9346C51.1322 8.61723 64.3067 11.8824 69.4078 15.7991C73.2205 18.7256 74.0009 19.8065 76.6422 23.9881C78.3166 26.6395 79.882 33.0876 79.6332 36.2894ZM51.0536 7.65733C54.1179 4.18999 63.059 3.35771 67.2744 4.21289C72.7709 5.32834 76.4314 7.18501 80.7537 10.7251C90.5887 18.7799 91.0405 26.5752 93.3398 38.1837C94.4576 43.8266 94.9163 49.6565 96.092 55.3839L102.662 88.924C102.914 90.1528 104.387 96.3776 104.247 97.1033C103.961 98.5942 99.5389 101.075 98.167 100.846C97.2139 100 97.5375 97.6946 97.3233 96.4317C97.0994 95.1094 96.8453 92.9069 96.7354 91.5595C96.483 88.4688 96.1485 84.7417 95.6507 81.7023L93.2122 62.1783C92.5411 53.9897 89.9382 38.5949 86.8469 30.4527C86.5084 29.561 85.933 27.0065 85.1424 26.8829C85.0847 27.976 86.6816 34.9716 86.9711 36.7798C87.5338 40.2956 87.8986 44.1496 88.5542 47.5748C89.8857 54.5282 90.3835 62.0871 91.5738 69.1293C92.7644 76.1733 93.2146 83.6074 94.3055 90.7266C94.6359 92.8807 96.9706 112.312 96.5616 113.095C94.3829 114.992 87.9538 118.682 85.0101 118.704C84.3048 117.347 83.6947 90.9316 83.6742 87.2627C83.6149 76.5401 82.9165 65.6877 82.8258 54.9446C82.7643 47.6369 82.8318 31.012 80.3646 24.6102C78.0704 18.6579 73.9161 14.8076 68.7278 11.6452C67.5086 10.9018 63.1239 9.33234 62.8926 9.1209C63.3689 8.87128 63.7661 8.83711 64.3239 8.68959C65.6694 8.33406 65.4001 8.54268 65.5629 7.52571C60.9813 6.97421 62.0541 8.51413 58.666 7.9962C57.5927 7.8316 56.2413 7.76605 55.1116 7.63783C53.4662 7.45212 52.3575 7.77852 51.0536 7.65733ZM30.4767 96.4333C31.8104 99.704 34.358 107.328 34.4185 110.645C32.8227 112.579 30.5546 114.608 28.7896 116.661C19.3677 127.613 15.3262 144.98 12.6594 158.626C12.125 161.359 9.29417 177.22 9.62398 178.763C11.8806 180.025 12.1097 175.908 12.4445 174.343C13.8257 167.892 14.634 161.178 16.1888 154.202C22.0153 128.062 30.2298 110.375 57.2058 99.2615C59.2072 98.4371 67.7443 95.7491 69.5805 95.7001C74.186 95.5771 74.5273 102.57 75.2396 105.907C75.979 109.369 78.5911 113.64 80.0398 117.074C84.9315 128.663 88.2672 141.728 91.1555 153.932L95.548 173.414C95.8899 174.963 96.3593 179.156 98.6023 177.806C98.862 176.119 92.9296 148.573 91.6033 143.881C90.8844 141.34 88.957 135.17 88.729 132.901C90.4975 131.975 95.1231 131.127 97.926 128.884C99.9435 127.27 99.7166 127.024 99.3759 124.567C99.1812 123.159 98.6551 119.736 98.919 118.527C102.032 118.26 105.459 118.125 108.234 116.522C112.218 114.219 111.115 112.498 110.225 108.573C108.809 102.33 107.213 96.296 105.927 89.99C103.314 77.172 100.703 64.4406 98.3328 51.5691C97.1142 44.9558 96.6954 38.3762 95.1026 31.8529C92.1936 19.9385 88.212 10.0289 76.7112 4.14836C70.8931 1.17343 63.9428 0.0180054 57.5276 1.19736C53.1103 2.00912 46.5351 6.70651 43.1699 9.72646C41.7011 11.0443 42.0697 11.7182 39.6901 11.8185C37.6304 11.9057 36.5161 12.0172 34.4856 12.3615C26.504 13.7145 17.1021 18.1942 11.5759 23.959C9.34319 26.2875 8.09991 27.5095 6.38734 30.35C4.06238 34.2082 4.08869 34.8076 3.58262 39.1749C3.11956 43.1687 1.03844 48.1325 1.04587 53.714C1.04788 55.7547 1.27718 57.171 0.782563 59.2221C-2.31778 72.0833 3.74341 93.1336 19.8702 96.4488C24.2223 97.3437 26.2914 96.6949 30.4767 96.4333Z" fill="#0E6125"/>
<path fill-rule="evenodd" clip-rule="evenodd" d="M24.2959 59.4947C26.569 58.6547 28.4862 53.9638 36.0713 54.6954C35.1705 55.9208 33.9643 56.2763 33.6711 58.3482C33.2551 61.2858 34.7398 61.6584 34.7388 63.004C32.4622 63.1127 30.4864 61.4989 28.3295 61.4629C28.559 61.9905 28.5881 61.9808 29.5156 62.4411C30.0072 62.685 30.5121 62.9276 31.0053 63.1316C34.4447 64.5526 39.1107 64.5741 41.5103 61.9056C41.2096 61.0458 41.6545 61.8554 40.6951 61.2942C41.7741 59.396 41.34 57.7119 40.6137 55.8149C42.0179 56.752 42.7157 57.5445 43.8336 58.7408C44.3213 59.2627 47.6524 62.2109 47.1568 59.3317C47.0752 58.8606 40.3202 48.7389 30.2215 52.9668C28.0332 53.8828 24.3773 56.9981 24.2959 59.4947Z" fill="#0E6125"/>
<path fill-rule="evenodd" clip-rule="evenodd" d="M25.029 48.3492C26.2345 48.3942 33.9541 43.5323 45.0157 50.8058C46.2041 51.5874 49.2588 53.8754 50.4546 53.8828C51.1263 49.9022 42.5261 46.0612 39.3795 45.1222C31.935 42.8998 22.3166 45.0414 25.029 48.3492Z" fill="#0E6125"/>
<path fill-rule="evenodd" clip-rule="evenodd" d="M10.2599 78.3731C9.99885 81.3448 17.6615 82.2215 19.892 82.2079C22.0666 82.1938 29.5098 80.8048 29.5007 78.1533C28.3909 78.0895 21.5127 80.7648 14.822 79.2854C13.51 78.9947 11.4248 78.1526 10.2599 78.3731Z" fill="#0E6125"/>
</svg>
