<svg width="146" height="201" viewBox="0 0 146 201" fill="none" xmlns="http://www.w3.org/2000/svg">
<g style="mix-blend-mode:multiply" opacity="0.1">
<mask id="path-1-inside-1_324_9332" fill="white">
<path fill-rule="evenodd" clip-rule="evenodd" d="M84.8113 190.443C85.9018 192.357 86.2862 191.873 88.0421 191.479C89.4434 191.165 95.6166 189.121 97.0927 188.584L102.676 186.314C103.873 185.738 105.425 185.133 106.551 184.469C107.676 183.806 109.196 183.079 110.335 182.504C111.6 181.865 113.38 181.267 112.975 179.815C112.389 177.716 110.649 178.66 109.663 179.258C109.007 179.656 108.559 179.81 107.832 180.214L102.174 182.947C100.091 183.813 96.7742 185.304 94.7348 185.943C93.4606 186.341 92.264 186.773 91.0296 187.157C90.019 187.471 86.1837 188.362 85.5547 188.864C84.8521 189.426 84.9242 190.167 84.8113 190.443ZM106.523 169.269C110.916 166.611 114.312 163.981 117.683 160.681C118.743 159.643 121.153 157.193 121.476 156.013C122.201 153.373 118.963 152.063 118.066 152.205C117.33 152.628 115.883 154.604 115.165 155.381C109.963 161.001 102.282 166.208 95.114 168.787C93.6753 169.305 92.1934 169.788 90.767 170.225L86.5056 171.249C85.7183 172.71 85.5538 175.485 88.0691 176.203C89.2268 176.533 92.383 175.547 93.8588 175.059C98.3755 173.562 102.141 171.92 106.523 169.269ZM104.936 78.2785C98.0736 66.9031 87.8301 65.1708 77.776 66.4456C75.7243 66.7058 76.2333 66.2996 74.8381 67.9939C66.1956 78.4923 52.6959 86.8851 40.0073 91.6687C29.2471 95.7258 31.6189 91.773 27.5041 98.2899C22.7788 105.775 20.7706 115.258 26.9702 125.561C33.0269 135.628 42.8503 143.495 51.9095 149.824C54.9065 151.916 57.8348 153.558 60.8677 155.32C67.4567 159.148 74.8078 161.969 81.9202 164.172L85.5808 165.177C88.0075 165.769 87.3736 165.784 89.3572 165.249C97.0099 163.186 105.886 157.69 111.278 151.884C112.738 150.312 112.676 149.696 113.192 147.16C113.511 145.593 113.974 143.945 114.198 142.3C114.645 139.003 115.188 135.811 115.385 132.276C116.008 121.044 115.564 112.51 113.229 100.895C111.89 94.2395 108.897 84.8447 104.936 78.2785ZM68.3952 58.9436C67.9325 59.2636 66.9053 60.4507 66.4236 60.9266C62.9314 64.374 59.4238 67.5119 55.4161 70.3343C47.4416 75.951 38.7113 80.5014 29.388 83.2324C28.7105 83.4306 27.3875 83.7567 26.8082 84.0734L29.8289 89.077C31.6719 89.0647 38.8279 86.6225 41.0612 85.671C48.602 82.4601 57.2923 77.3844 63.5472 71.9877C65.2442 70.5239 70.6537 65.4752 71.4904 63.9401L68.9371 59.8585L68.3952 58.9436ZM48.4611 63.4339C46.7024 63.2728 47.6462 62.9519 44.7664 64.6968C42.526 66.0551 37.6209 68.7026 35.2004 69.8053C34.7401 70.0152 33.8602 70.4628 33.4138 70.623L24.3018 73.8864C23.6998 74.0732 23.158 74.2514 22.5839 74.3812C19.7689 75.0133 20.307 75.6395 19.9444 76.4909C20.1898 76.891 20.4236 77.5764 20.8872 77.732C21.6263 77.979 23.5154 77.4599 24.3687 77.2371L29.7028 75.5395L38.8966 71.5987C40.8545 70.7786 40.2568 71.0596 42.1449 69.9238C42.7601 69.5531 43.1304 69.4801 43.741 69.1159L48.9959 65.9185C49.1134 64.7514 49.3865 64.8784 48.4611 63.4339ZM58.6482 42.7744C52.6618 30.9956 40.5562 19.5841 28.5356 17.9037C25.2968 17.4505 20.1358 17.0437 16.1333 19.4519C11.9759 21.9531 9.11208 28.0717 8.21432 32.6239C7.64303 35.5234 7.41352 38.3943 7.51508 41.4619C7.79336 49.8592 11.2724 59.4906 17.0222 67.9426C18.0301 67.9398 21.2256 67.0841 22.5084 66.7067C28.2171 65.0254 34.842 61.9857 39.949 58.854C43.7855 56.5013 47.3998 53.9068 50.6656 51.0819C52.713 49.3103 57.7262 44.7243 58.6482 42.7744ZM9.41552 8.59933C6.24883 10.5022 9.11546 15.1545 12.357 13.2019C13.0667 12.7748 13.6276 12.0321 13.7024 11.4276C13.9129 9.73338 12.9127 8.3447 11.2123 8.09586C11.1819 8.09279 11.1429 8.08357 11.1122 8.08051C11.0809 8.07744 11.042 8.07442 11.0107 8.07442C10.4148 8.05602 9.95921 8.27226 9.41552 8.59933ZM68.0237 41.388C71.4941 42.9979 73.2335 46.4002 73.2246 50.0556C73.2203 51.8109 72.5029 52.9422 71.808 54.4269L76.0096 61.384C78.4107 60.6332 84.9825 60.6133 87.8117 61.0603L92.4864 62.0094C93.3701 62.2468 94.5974 62.766 95.508 63.1722C102.395 66.2508 107.879 71.7754 111.313 78.9977C113.604 83.8169 115.461 88.6723 116.824 93.5602C120.783 107.738 121.738 122.843 120.162 137.354C120.046 138.422 119.931 139.491 119.797 140.575C119.725 141.156 119.585 141.66 119.525 142.208C119.405 143.297 119.074 144.305 118.964 145.377C118.899 146.006 118.705 146.213 118.68 146.952C120.835 147.895 121.74 147.238 124.28 149.603C124.987 150.259 125.35 151.652 126.329 151.502L127.709 151.122C130.711 150.461 133.949 149.803 136.914 150.361C140.743 151.082 144.133 154.328 144.878 158.374C145.329 160.827 145.132 163.057 143.879 165.245C141.811 168.857 136.319 173.823 132.71 176.911C123.528 184.768 112.363 191.27 101.261 195.857C96.8169 197.693 90.0156 200.128 85.8306 200.318C83.8709 200.408 80.9948 199.475 79.2103 197.95C76.7202 195.824 75.7479 193.608 75.4862 190.65C75.145 186.798 77.3289 183.732 79.6276 180.862C80.3244 179.993 81.2028 179.196 81.8481 178.299C82.3316 177.625 81.5044 177.196 81.1749 175.835C81.0227 175.207 80.8147 174.218 80.8027 173.629C80.7677 171.988 80.7895 170.866 81.4602 169.604C81.1497 169.382 80.3339 169.159 79.9252 169.017C79.345 168.814 78.9155 168.82 78.3282 168.594C76.3514 167.833 74.2727 167.233 72.2559 166.415C67.167 164.348 62.2619 162.189 57.4611 159.378L47.3026 153.052C43.9742 150.791 40.7379 148.146 37.6451 145.5C32.6415 141.221 28.6565 136.588 24.5105 131.223C21.2238 126.971 19.0181 121.388 18.1832 116.621C17.738 114.078 17.8414 112.083 17.9494 109.851C18.0457 107.839 18.2249 107.423 18.6241 105.81C18.6971 105.516 18.6781 105.344 18.7355 105.038C18.9269 104.006 19.4252 102.96 19.7244 101.973C20.3325 99.9709 22.3302 96.5392 23.4921 94.6918C23.9425 93.9751 25.1272 92.3965 25.3272 91.8408L21.1864 84.9788C19.667 85.2684 17.8917 84.7959 16.5107 84.1464C12.4325 82.2279 10.4645 77.2798 11.8925 73.0957C12.0333 72.6824 12.7187 71.2066 12.6614 70.889C9.83556 66.029 7.28036 61.9771 5.40508 56.7682C3.76758 52.2187 2.75875 48.2248 2.37768 43.8075C2.19328 41.661 2.18623 39.6772 2.26477 37.6681C2.30987 36.5099 2.41849 35.7106 2.53508 34.6302C2.76826 32.4794 3.18217 30.8193 3.81698 28.8317C3.91178 28.5334 3.8851 28.3718 3.9753 28.0778L4.73652 26.0565C5.68613 23.5553 7.05086 21.7392 7.51354 20.6441C6.61855 19.916 4.9157 19.8164 2.97445 17.2437C1.55234 15.358 0.843581 13.5125 0.683421 11.4375C0.212145 5.31886 5.34187 0.535233 11.3644 0.610092C15.1515 0.657043 18.8208 3.16891 20.3377 6.87468C21.6647 10.1153 20.8848 10.953 21.163 12.3956C21.7092 12.4263 22.2179 12.3262 22.8058 12.3174C27.1083 12.2529 30.6263 12.7365 34.6969 14.0515C42.4711 16.5644 48.6949 21.506 54.395 27.5819C56.0669 29.363 57.6019 31.4991 59.0256 33.5508C59.8552 34.7468 62.9157 39.9477 63.4465 40.4209C63.7107 40.573 65.3111 40.593 65.7965 40.6688C66.5696 40.7878 67.2045 41.0079 68.0237 41.388Z"/>
</mask>
<path fill-rule="evenodd" clip-rule="evenodd" d="M84.8113 190.443C85.9018 192.357 86.2862 191.873 88.0421 191.479C89.4434 191.165 95.6166 189.121 97.0927 188.584L102.676 186.314C103.873 185.738 105.425 185.133 106.551 184.469C107.676 183.806 109.196 183.079 110.335 182.504C111.6 181.865 113.38 181.267 112.975 179.815C112.389 177.716 110.649 178.66 109.663 179.258C109.007 179.656 108.559 179.81 107.832 180.214L102.174 182.947C100.091 183.813 96.7742 185.304 94.7348 185.943C93.4606 186.341 92.264 186.773 91.0296 187.157C90.019 187.471 86.1837 188.362 85.5547 188.864C84.8521 189.426 84.9242 190.167 84.8113 190.443ZM106.523 169.269C110.916 166.611 114.312 163.981 117.683 160.681C118.743 159.643 121.153 157.193 121.476 156.013C122.201 153.373 118.963 152.063 118.066 152.205C117.33 152.628 115.883 154.604 115.165 155.381C109.963 161.001 102.282 166.208 95.114 168.787C93.6753 169.305 92.1934 169.788 90.767 170.225L86.5056 171.249C85.7183 172.71 85.5538 175.485 88.0691 176.203C89.2268 176.533 92.383 175.547 93.8588 175.059C98.3755 173.562 102.141 171.92 106.523 169.269ZM104.936 78.2785C98.0736 66.9031 87.8301 65.1708 77.776 66.4456C75.7243 66.7058 76.2333 66.2996 74.8381 67.9939C66.1956 78.4923 52.6959 86.8851 40.0073 91.6687C29.2471 95.7258 31.6189 91.773 27.5041 98.2899C22.7788 105.775 20.7706 115.258 26.9702 125.561C33.0269 135.628 42.8503 143.495 51.9095 149.824C54.9065 151.916 57.8348 153.558 60.8677 155.32C67.4567 159.148 74.8078 161.969 81.9202 164.172L85.5808 165.177C88.0075 165.769 87.3736 165.784 89.3572 165.249C97.0099 163.186 105.886 157.69 111.278 151.884C112.738 150.312 112.676 149.696 113.192 147.16C113.511 145.593 113.974 143.945 114.198 142.3C114.645 139.003 115.188 135.811 115.385 132.276C116.008 121.044 115.564 112.51 113.229 100.895C111.89 94.2395 108.897 84.8447 104.936 78.2785ZM68.3952 58.9436C67.9325 59.2636 66.9053 60.4507 66.4236 60.9266C62.9314 64.374 59.4238 67.5119 55.4161 70.3343C47.4416 75.951 38.7113 80.5014 29.388 83.2324C28.7105 83.4306 27.3875 83.7567 26.8082 84.0734L29.8289 89.077C31.6719 89.0647 38.8279 86.6225 41.0612 85.671C48.602 82.4601 57.2923 77.3844 63.5472 71.9877C65.2442 70.5239 70.6537 65.4752 71.4904 63.9401L68.9371 59.8585L68.3952 58.9436ZM48.4611 63.4339C46.7024 63.2728 47.6462 62.9519 44.7664 64.6968C42.526 66.0551 37.6209 68.7026 35.2004 69.8053C34.7401 70.0152 33.8602 70.4628 33.4138 70.623L24.3018 73.8864C23.6998 74.0732 23.158 74.2514 22.5839 74.3812C19.7689 75.0133 20.307 75.6395 19.9444 76.4909C20.1898 76.891 20.4236 77.5764 20.8872 77.732C21.6263 77.979 23.5154 77.4599 24.3687 77.2371L29.7028 75.5395L38.8966 71.5987C40.8545 70.7786 40.2568 71.0596 42.1449 69.9238C42.7601 69.5531 43.1304 69.4801 43.741 69.1159L48.9959 65.9185C49.1134 64.7514 49.3865 64.8784 48.4611 63.4339ZM58.6482 42.7744C52.6618 30.9956 40.5562 19.5841 28.5356 17.9037C25.2968 17.4505 20.1358 17.0437 16.1333 19.4519C11.9759 21.9531 9.11208 28.0717 8.21432 32.6239C7.64303 35.5234 7.41352 38.3943 7.51508 41.4619C7.79336 49.8592 11.2724 59.4906 17.0222 67.9426C18.0301 67.9398 21.2256 67.0841 22.5084 66.7067C28.2171 65.0254 34.842 61.9857 39.949 58.854C43.7855 56.5013 47.3998 53.9068 50.6656 51.0819C52.713 49.3103 57.7262 44.7243 58.6482 42.7744ZM9.41552 8.59933C6.24883 10.5022 9.11546 15.1545 12.357 13.2019C13.0667 12.7748 13.6276 12.0321 13.7024 11.4276C13.9129 9.73338 12.9127 8.3447 11.2123 8.09586C11.1819 8.09279 11.1429 8.08357 11.1122 8.08051C11.0809 8.07744 11.042 8.07442 11.0107 8.07442C10.4148 8.05602 9.95921 8.27226 9.41552 8.59933ZM68.0237 41.388C71.4941 42.9979 73.2335 46.4002 73.2246 50.0556C73.2203 51.8109 72.5029 52.9422 71.808 54.4269L76.0096 61.384C78.4107 60.6332 84.9825 60.6133 87.8117 61.0603L92.4864 62.0094C93.3701 62.2468 94.5974 62.766 95.508 63.1722C102.395 66.2508 107.879 71.7754 111.313 78.9977C113.604 83.8169 115.461 88.6723 116.824 93.5602C120.783 107.738 121.738 122.843 120.162 137.354C120.046 138.422 119.931 139.491 119.797 140.575C119.725 141.156 119.585 141.66 119.525 142.208C119.405 143.297 119.074 144.305 118.964 145.377C118.899 146.006 118.705 146.213 118.68 146.952C120.835 147.895 121.74 147.238 124.28 149.603C124.987 150.259 125.35 151.652 126.329 151.502L127.709 151.122C130.711 150.461 133.949 149.803 136.914 150.361C140.743 151.082 144.133 154.328 144.878 158.374C145.329 160.827 145.132 163.057 143.879 165.245C141.811 168.857 136.319 173.823 132.71 176.911C123.528 184.768 112.363 191.27 101.261 195.857C96.8169 197.693 90.0156 200.128 85.8306 200.318C83.8709 200.408 80.9948 199.475 79.2103 197.95C76.7202 195.824 75.7479 193.608 75.4862 190.65C75.145 186.798 77.3289 183.732 79.6276 180.862C80.3244 179.993 81.2028 179.196 81.8481 178.299C82.3316 177.625 81.5044 177.196 81.1749 175.835C81.0227 175.207 80.8147 174.218 80.8027 173.629C80.7677 171.988 80.7895 170.866 81.4602 169.604C81.1497 169.382 80.3339 169.159 79.9252 169.017C79.345 168.814 78.9155 168.82 78.3282 168.594C76.3514 167.833 74.2727 167.233 72.2559 166.415C67.167 164.348 62.2619 162.189 57.4611 159.378L47.3026 153.052C43.9742 150.791 40.7379 148.146 37.6451 145.5C32.6415 141.221 28.6565 136.588 24.5105 131.223C21.2238 126.971 19.0181 121.388 18.1832 116.621C17.738 114.078 17.8414 112.083 17.9494 109.851C18.0457 107.839 18.2249 107.423 18.6241 105.81C18.6971 105.516 18.6781 105.344 18.7355 105.038C18.9269 104.006 19.4252 102.96 19.7244 101.973C20.3325 99.9709 22.3302 96.5392 23.4921 94.6918C23.9425 93.9751 25.1272 92.3965 25.3272 91.8408L21.1864 84.9788C19.667 85.2684 17.8917 84.7959 16.5107 84.1464C12.4325 82.2279 10.4645 77.2798 11.8925 73.0957C12.0333 72.6824 12.7187 71.2066 12.6614 70.889C9.83556 66.029 7.28036 61.9771 5.40508 56.7682C3.76758 52.2187 2.75875 48.2248 2.37768 43.8075C2.19328 41.661 2.18623 39.6772 2.26477 37.6681C2.30987 36.5099 2.41849 35.7106 2.53508 34.6302C2.76826 32.4794 3.18217 30.8193 3.81698 28.8317C3.91178 28.5334 3.8851 28.3718 3.9753 28.0778L4.73652 26.0565C5.68613 23.5553 7.05086 21.7392 7.51354 20.6441C6.61855 19.916 4.9157 19.8164 2.97445 17.2437C1.55234 15.358 0.843581 13.5125 0.683421 11.4375C0.212145 5.31886 5.34187 0.535233 11.3644 0.610092C15.1515 0.657043 18.8208 3.16891 20.3377 6.87468C21.6647 10.1153 20.8848 10.953 21.163 12.3956C21.7092 12.4263 22.2179 12.3262 22.8058 12.3174C27.1083 12.2529 30.6263 12.7365 34.6969 14.0515C42.4711 16.5644 48.6949 21.506 54.395 27.5819C56.0669 29.363 57.6019 31.4991 59.0256 33.5508C59.8552 34.7468 62.9157 39.9477 63.4465 40.4209C63.7107 40.573 65.3111 40.593 65.7965 40.6688C66.5696 40.7878 67.2045 41.0079 68.0237 41.388Z" stroke="#3EA83C" stroke-width="20" mask="url(#path-1-inside-1_324_9332)"/>
<mask id="path-2-inside-2_324_9332" fill="white">
<path fill-rule="evenodd" clip-rule="evenodd" d="M98.2846 86.9603C94.0968 80.0547 87.4462 74.9912 79.7518 74.2763C78.8289 74.191 77.8618 74.2916 77.454 72.7508C77.1972 71.7837 77.867 70.7955 79.0332 70.6522C80.0604 70.5252 83.3845 71.2443 84.2369 71.5107C87.3913 72.4977 90.7433 73.8014 93.9483 76.4391C106.619 86.8691 110.551 108.557 110.935 121.457C111.049 125.274 111.072 128.572 110.87 132.261C110.77 134.087 110.618 135.797 110.428 137.562C110.229 139.402 109.743 143.632 109.331 145.406C109.131 146.269 109.12 147.314 107.872 147.536C106.875 147.713 105.883 147.188 105.736 145.926C105.681 145.456 106.029 143.903 106.11 143.311C106.594 139.795 107.134 136.465 107.281 132.683C107.551 125.756 107.643 118.437 106.304 110.708C104.989 103.116 102.926 94.6139 98.2846 86.9603Z"/>
</mask>
<path d="M98.2846 86.9603L106.835 81.7749L106.835 81.7753L98.2846 86.9603ZM79.7518 74.2763L80.6721 64.3188L80.6769 64.3192L79.7518 74.2763ZM77.454 72.7508L87.119 70.1843L87.1212 70.1925L77.454 72.7508ZM79.0332 70.6522L80.2604 80.5766L80.2527 80.5775L79.0332 70.6522ZM84.2369 71.5107L87.2192 61.9657L87.2232 61.967L84.2369 71.5107ZM93.9483 76.4391L100.303 68.7178L100.304 68.7183L93.9483 76.4391ZM110.935 121.457L100.939 121.755L100.939 121.754L110.935 121.457ZM110.87 132.261L120.855 132.807L120.855 132.808L110.87 132.261ZM110.428 137.562L100.485 136.491L100.485 136.489L110.428 137.562ZM109.331 145.406L99.5895 143.147L99.5907 143.142L109.331 145.406ZM107.872 147.536L106.117 137.691L106.124 137.69L107.872 147.536ZM105.736 145.926L115.668 144.764L115.669 144.769L105.736 145.926ZM106.11 143.311L116.017 144.673L116.017 144.676L106.11 143.311ZM107.281 132.683L97.2887 132.294L97.2887 132.294L107.281 132.683ZM106.304 110.708L116.158 109.001L116.158 109.001L106.304 110.708ZM98.2846 86.9603L89.7341 92.1456C86.7423 87.2123 82.5979 84.5838 78.8267 84.2334L79.7518 74.2763L80.6769 64.3192C92.2945 65.3986 101.451 72.8971 106.835 81.7749L98.2846 86.9603ZM79.7518 74.2763L78.8315 84.2339C79.4828 84.2941 78.0833 84.1726 77.8944 84.1504C77.2217 84.0714 75.901 83.8754 74.4097 83.2245C72.7842 82.5151 71.2216 81.3844 69.9654 79.7713C68.7753 78.243 68.1393 76.6412 67.7868 75.3091L77.454 72.7508L87.1212 70.1925C86.9726 69.6308 86.6104 68.5942 85.7452 67.4832C84.8138 66.2872 83.6271 65.4256 82.4097 64.8942C81.3265 64.4215 80.4461 64.3126 80.2271 64.2869C80.1066 64.2728 80.0351 64.2689 80.1316 64.2759C80.1646 64.2783 80.4301 64.2964 80.6721 64.3188L79.7518 74.2763ZM77.454 72.7508L67.789 75.3173C65.7948 67.8076 71.3446 61.5216 77.8138 60.7268L79.0332 70.6522L80.2527 80.5775C84.3894 80.0693 88.5996 75.7598 87.119 70.1843L77.454 72.7508ZM79.0332 70.6522L77.806 60.7278C79.3468 60.5372 80.7844 60.7015 81.2968 60.7601C82.0736 60.849 82.8553 60.9778 83.5198 61.1008C84.7254 61.3238 86.2262 61.6554 87.2192 61.9657L84.2369 71.5107L81.2545 81.0556C81.3781 81.0942 81.416 81.1017 81.3182 81.0765C81.2426 81.057 81.1244 81.028 80.9681 80.9921C80.6529 80.9196 80.266 80.8382 79.8814 80.7671C79.48 80.6928 79.1847 80.649 79.0227 80.6304C78.9423 80.6212 78.9762 80.6278 79.0965 80.6328C79.1607 80.6355 79.2848 80.6394 79.4547 80.6359C79.6148 80.6326 79.8972 80.6215 80.2604 80.5766L79.0332 70.6522ZM84.2369 71.5107L87.2232 61.967C90.8632 63.106 95.6397 64.88 100.303 68.7178L93.9483 76.4391L87.5937 84.1604C85.8468 82.7227 83.9194 81.8894 81.2506 81.0544L84.2369 71.5107ZM93.9483 76.4391L100.304 68.7183C108.763 75.6816 113.698 85.8035 116.591 95.0297C119.531 104.404 120.717 113.983 120.93 121.16L110.935 121.457L100.939 121.754C100.769 116.032 99.7976 108.317 97.5076 101.014C95.1712 93.5639 91.8047 87.6266 87.5931 84.1599L93.9483 76.4391ZM110.935 121.457L120.93 121.159C121.048 125.116 121.079 128.724 120.855 132.807L110.87 132.261L100.885 131.715C101.066 128.419 101.049 125.432 100.939 121.755L110.935 121.457ZM110.87 132.261L120.855 132.808C120.743 134.854 120.574 136.745 120.37 138.635L110.428 137.562L100.485 136.489C100.662 134.849 100.797 133.321 100.885 131.714L110.87 132.261ZM110.428 137.562L120.37 138.633C120.199 140.223 119.653 145.166 119.071 147.67L109.331 145.406L99.5907 143.142C99.8334 142.098 100.26 138.582 100.485 136.491L110.428 137.562ZM109.331 145.406L119.073 147.665C119.09 147.588 119.097 147.547 119.075 147.661C119.062 147.725 119.016 147.965 118.964 148.207C118.862 148.671 118.618 149.726 118.068 150.914C117.476 152.193 116.477 153.744 114.815 155.063C113.144 156.39 111.305 157.083 109.619 157.382L107.872 147.536L106.124 137.69C105.062 137.878 103.693 138.357 102.38 139.399C101.078 140.432 100.329 141.626 99.9204 142.508C99.5541 143.299 99.4289 143.917 99.4247 143.936C99.4206 143.955 99.4179 143.97 99.4492 143.811C99.4706 143.702 99.5217 143.439 99.5895 143.147L109.331 145.406ZM107.872 147.536L109.626 157.381C106.941 157.859 103.706 157.481 100.847 155.53C97.8212 153.464 96.176 150.287 95.8028 147.082L105.736 145.926L115.669 144.769C115.442 142.827 114.367 140.543 112.123 139.011C110.046 137.594 107.806 137.39 106.117 137.691L107.872 147.536ZM105.736 145.926L95.8035 147.088C95.7033 146.232 95.7291 145.527 95.7451 145.205C95.7646 144.814 95.7999 144.472 95.8291 144.226C95.8869 143.738 95.9638 143.274 96.0188 142.956C96.0746 142.634 96.1392 142.288 96.1731 142.103C96.2243 141.823 96.2191 141.836 96.204 141.945L106.11 143.311L116.017 144.676C116 144.801 115.982 144.914 115.967 145.007C115.952 145.102 115.937 145.191 115.924 145.27C115.897 145.424 115.869 145.577 115.846 145.704C115.834 145.768 115.822 145.835 115.811 145.894C115.8 145.956 115.789 146.014 115.779 146.071C115.758 146.186 115.74 146.284 115.725 146.372C115.709 146.461 115.699 146.525 115.692 146.57C115.685 146.617 115.686 146.616 115.69 146.579C115.693 146.559 115.697 146.518 115.702 146.461C115.707 146.405 115.715 146.316 115.72 146.201C115.726 146.09 115.732 145.919 115.729 145.705C115.728 145.596 115.724 145.463 115.716 145.312C115.707 145.161 115.693 144.976 115.668 144.764L105.736 145.926ZM106.11 143.311L96.2036 141.948C96.7267 138.145 97.166 135.454 97.2887 132.294L107.281 132.683L117.274 133.071C117.102 137.476 116.461 141.445 116.017 144.673L106.11 143.311ZM107.281 132.683L97.2887 132.294C97.5529 125.502 97.6013 119.056 96.451 112.415L106.304 110.708L116.158 109.001C117.685 117.817 117.548 126.01 117.274 133.071L107.281 132.683ZM106.304 110.708L96.451 112.415C95.2025 105.207 93.3954 98.1837 89.7338 92.1453L98.2846 86.9603L106.835 81.7753C112.456 91.0441 114.776 101.026 116.158 109.001L106.304 110.708Z" fill="#3EA83C" mask="url(#path-2-inside-2_324_9332)"/>
<mask id="path-4-inside-3_324_9332" fill="white">
<path fill-rule="evenodd" clip-rule="evenodd" d="M29.0745 107.826C32.0178 107.064 31.3167 110.916 31.3594 111.65C31.4628 113.438 31.8221 115.275 32.4464 117.13C33.104 119.086 34.0069 121.13 35.2183 122.992C35.908 124.054 39.0557 126.918 36.1602 128.094C35.1044 128.522 34.4834 127.932 33.786 126.953C30.615 122.495 28.3274 118.045 27.8675 112.602C27.7423 111.121 27.256 108.296 29.0745 107.826Z"/>
</mask>
<path d="M29.0745 107.826L31.5803 117.507L31.5755 117.508L29.0745 107.826ZM31.3594 111.65L41.3425 111.069L41.3427 111.072L31.3594 111.65ZM32.4464 117.13L41.9235 113.938L41.9252 113.943L32.4464 117.13ZM35.2183 122.992L43.6015 117.541L43.6031 117.543L35.2183 122.992ZM36.1602 128.094L32.3985 118.828L32.3996 118.828L36.1602 128.094ZM33.786 126.953L25.6402 132.754L25.6371 132.749L33.786 126.953ZM27.8675 112.602L37.8319 111.759L37.832 111.76L27.8675 112.602ZM29.0745 107.826L26.5687 98.1452C29.189 97.467 33.1654 97.3342 36.7226 100.041C39.8693 102.435 40.7925 105.674 41.0983 107.156C41.4363 108.794 41.4146 110.251 41.3937 110.939C41.3823 111.314 41.3608 111.676 41.3553 111.779C41.3358 112.142 41.3767 111.657 41.3425 111.069L31.3594 111.65L21.3762 112.23C21.3477 111.739 21.3588 111.331 21.3636 111.174C21.3695 110.979 21.3791 110.799 21.384 110.707C21.3972 110.462 21.4005 110.41 21.4029 110.332C21.4095 110.116 21.371 110.52 21.511 111.198C21.6189 111.721 22.1628 114.094 24.6119 115.957C27.4714 118.133 30.4316 117.804 31.5803 117.507L29.0745 107.826ZM31.3594 111.65L41.3427 111.072C41.3917 111.919 41.5669 112.879 41.9235 113.938L32.4464 117.13L22.9694 120.321C22.0772 117.672 21.5339 114.956 21.3761 112.227L31.3594 111.65ZM32.4464 117.13L41.9252 113.943C42.3843 115.309 42.9551 116.547 43.6015 117.541L35.2183 122.992L26.835 128.444C25.0587 125.713 23.8237 122.862 22.9677 120.316L32.4464 117.13ZM35.2183 122.992L43.6031 117.543C43.4303 117.277 43.0592 116.802 43.8906 117.848C44.3062 118.37 45.1977 119.507 45.9298 120.933C46.5523 122.146 47.9617 125.259 47.0878 129.144C46.041 133.799 42.58 136.28 39.9208 137.359L36.1602 128.094L32.3996 118.828C31.1882 119.319 28.4195 121.002 27.5753 124.756C26.9039 127.74 28.0263 129.851 28.1375 130.067C28.3585 130.498 28.5147 130.646 28.2366 130.296C28.0347 130.042 28.0919 130.119 27.7807 129.732C27.6405 129.558 27.2249 129.044 26.8334 128.442L35.2183 122.992ZM36.1602 128.094L39.9219 137.359C36.8409 138.61 33.1554 138.627 29.8367 136.71C27.4139 135.311 26.0152 133.28 25.6402 132.754L33.786 126.953L41.9318 121.153C42.0016 121.251 41.8857 121.075 41.6349 120.805C41.3846 120.535 40.7938 119.943 39.8407 119.392C38.8047 118.794 37.4651 118.319 35.9154 118.245C34.4123 118.174 33.1983 118.503 32.3985 118.828L36.1602 128.094ZM33.786 126.953L25.6371 132.749C21.9642 127.585 18.576 121.41 17.903 113.444L27.8675 112.602L37.832 111.76C38.0788 114.681 39.2658 117.404 41.9349 121.157L33.786 126.953ZM27.8675 112.602L17.903 113.444C17.8952 113.352 17.8859 113.264 17.8573 112.974C17.8336 112.735 17.8008 112.395 17.7736 112.019C17.7226 111.314 17.6652 110.173 17.7867 108.891C17.9005 107.692 18.2322 105.617 19.4807 103.494C20.9151 101.054 23.3269 98.9826 26.5735 98.144L29.0745 107.826L31.5755 117.508C33.9129 116.905 35.7035 115.362 36.7215 113.631C37.5536 112.215 37.6738 111.028 37.6974 110.779C37.7289 110.447 37.7029 110.32 37.7214 110.575C37.729 110.68 37.7405 110.807 37.7603 111.007C37.7752 111.158 37.8084 111.481 37.8319 111.759L27.8675 112.602Z" fill="#3EA83C" mask="url(#path-4-inside-3_324_9332)"/>
<path d="M28.1421 42.4902C28.8656 42.5105 29.4459 42.2948 29.8599 42.0312C30.2301 41.7955 30.6533 41.3997 30.9517 40.7988C29.8549 40.8179 28.8281 41.4265 28.2603 42.2939C28.2191 42.3568 28.1796 42.4223 28.1421 42.4902Z" stroke="#3EA83C" stroke-width="10"/>
<path d="M20.3389 40.0977L20.2881 39.9209L20.1465 39.9648L20.1982 40.1465M20.3389 40.0977L20.1982 40.1465M20.3389 40.0977L20.4795 40.584C20.4243 40.6036 20.3758 40.6194 20.335 40.6309L20.1982 40.1465M20.3389 40.0977L20.1982 40.1465M20.1953 40.1475L20.1445 39.9658L18.6777 40.4229C18.6412 40.4634 18.6049 40.5039 18.5703 40.5459C18.6625 40.5759 18.7528 40.601 18.8408 40.6221M20.1953 40.1475L18.8408 40.6221M20.1953 40.1475L20.332 40.6318C20.1275 40.6892 19.5616 40.7948 18.8408 40.6221M20.1953 40.1475L18.8408 40.6221M21.875 39.4238C21.3485 39.2865 20.7728 39.2831 20.1592 39.46L20.291 39.9189L21.875 39.4238ZM20.4824 40.583C20.6758 40.514 20.9492 40.391 21.25 40.1719C21.5083 39.9836 21.7493 39.752 21.959 39.4844C21.9541 39.4702 21.9502 39.4557 21.9453 39.4414C21.9237 39.4352 21.9017 39.4305 21.8799 39.4248L20.291 39.9199L20.4824 40.583ZM20.2871 39.9199L20.1553 39.4609C20.1135 39.473 20.0682 39.4903 20.0186 39.5078L20.1465 39.9639L20.2871 39.9199ZM20.1445 39.9648L20.0156 39.5078C19.7827 39.5904 19.4692 39.7358 19.1377 39.9932C18.9712 40.1224 18.8177 40.2666 18.6777 40.4219L20.1445 39.9648Z" stroke="#3EA83C" stroke-width="10"/>
<path d="M33.5576 31.8447C33.6006 31.7017 33.6329 31.5572 33.6553 31.4111C33.5955 31.4211 33.5344 31.4311 33.4727 31.4443L33.5576 31.8447ZM31.3799 34.0244C32.1526 33.8026 32.8491 33.2548 33.2705 32.5186C33.3934 32.3037 33.4866 32.0796 33.5557 31.8516L33.4688 31.4453C32.331 31.6896 31.6083 32.4437 31.2715 33.042C31.2316 33.1128 31.195 33.1866 31.1602 33.2627L31.3799 34.0244ZM31.0625 34.0801C31.2445 34.06 31.3574 34.0309 31.377 34.0254L31.1592 33.2666C31.0638 33.4761 30.9897 33.7059 30.9453 33.959C30.9839 33.9993 31.0234 34.0393 31.0625 34.0801Z" stroke="#3EA83C" stroke-width="10"/>
<path d="M22.9517 51.6182C23.7199 51.8823 24.3955 51.8081 24.8354 51.6777C25.3105 51.5369 25.8397 51.2398 26.2808 50.6826C26.3484 50.5972 26.4132 50.5037 26.4761 50.4043C26.452 50.3354 26.427 50.2668 26.4028 50.1982C25.829 50.0308 25.2592 50.0294 24.8296 50.1299C24.2871 50.2569 23.6255 50.5803 23.0894 51.2451C23.0242 51.3259 22.9632 51.4086 22.9067 51.4932C22.9214 51.535 22.937 51.5764 22.9517 51.6182Z" stroke="#3EA83C" stroke-width="10"/>
<path d="M40.1162 42.4404C40.4254 42.2226 40.6927 41.9556 40.9014 41.6543C41.1384 41.3118 41.3117 40.9142 41.4072 40.4902C41.3618 40.4409 41.3156 40.3916 41.2695 40.3418C41.023 40.3788 40.7616 40.4441 40.4922 40.5508C39.5497 40.9241 39.1039 41.5512 38.9727 41.7783L40.1162 42.4404ZM38.7002 42.9941C39.2248 42.9263 39.7064 42.7284 40.1143 42.4414L38.9717 41.7812C38.8689 41.9592 38.7053 42.2952 38.6152 42.7695C38.608 42.8074 38.6026 42.8457 38.5967 42.8838C38.6309 42.9206 38.6656 42.9572 38.7002 42.9941Z" stroke="#3EA83C" stroke-width="10"/>
<path d="M22.7617 29.3223C22.9838 29.0882 23.2779 28.6995 23.4766 28.1338C23.3995 28.0087 23.3224 27.8853 23.2461 27.7646C23.0003 27.7507 22.7597 27.7612 22.5303 27.7959H22.5312M22.7617 29.3223L22.5312 27.7959M22.7617 29.3223C22.676 29.4126 22.602 29.4808 22.5479 29.5264C22.2572 29.7706 21.9304 29.9338 21.5371 30.0166L21.541 30.0156C21.54 30.0158 21.5383 30.0161 21.5361 30.0166M22.7617 29.3223L22.5312 27.7959M22.5312 27.7959L22.5303 27.7969C22.1071 27.861 21.6301 28.0397 21.1855 28.3496M21.1855 28.3496L21.5361 30.0166M21.1855 28.3496L21.5361 30.0166M21.1855 28.3496C20.9333 28.5255 20.6906 28.743 20.4756 29.0068C20.3176 29.2007 20.199 29.3914 20.1074 29.5664C20.1911 29.7127 20.2758 29.8594 20.3584 30.0068C20.4235 30.0178 20.4885 30.0284 20.5537 30.0361C20.8749 30.0741 21.1296 30.064 21.2842 30.0508C21.4224 30.039 21.5125 30.0214 21.5361 30.0166" stroke="#3EA83C" stroke-width="10"/>
<path d="M14.0679 54.5352C14.6838 54.7663 15.2816 54.7799 15.7671 54.6855C16.3357 54.575 17.0846 54.1955 17.6304 53.5303C17.5717 53.3037 17.511 53.0757 17.4487 52.8525C16.2184 52.4146 14.7427 52.7519 13.856 53.7324C13.9248 54.0003 13.9978 54.2716 14.0679 54.5352Z" stroke="#3EA83C" stroke-width="10"/>
<path d="M45.6074 36.6338C46.6581 36.4092 47.423 35.6755 47.7676 35.0195C47.9314 34.7075 48.0494 34.3408 48.0986 33.9414C47.9173 33.7707 47.7274 33.5937 47.5352 33.417C46.5835 33.6536 45.7987 34.3032 45.3906 35.0654C45.2173 35.3893 45.0993 35.7449 45.0439 36.1143C45.2266 36.2844 45.4162 36.4595 45.6074 36.6338Z" stroke="#3EA83C" stroke-width="10"/>
<path d="M40.0786 26.2607C39.9986 26.1948 39.9181 26.129 39.8374 26.0635C39.4393 26.1849 39.0739 26.3844 38.7612 26.6396M40.0786 26.2607L40.1685 26.6406M40.0786 26.2607C40.2212 26.3782 40.364 26.4941 40.5044 26.6084L40.5054 26.6357C40.5054 26.6372 40.5054 26.6392 40.5054 26.6406M40.0786 26.2607L40.1685 26.6406M38.7612 26.6396L40.1685 26.6406M38.7612 26.6396L40.1655 26.6406M38.7612 26.6396C38.5272 26.8308 38.3214 27.0507 38.1548 27.291C37.8913 27.6712 37.7529 28.05 37.688 28.3877L37.7642 28.79M40.1685 26.6406H40.5054M40.1685 26.6406L40.3794 27.5312M40.1685 26.6406H40.1655M40.1685 26.6406H40.5054M40.1685 26.6406L40.3794 27.5312M40.5054 26.6406C40.505 26.9598 40.4582 27.2572 40.3794 27.5312M39.5874 28.8643C39.6843 28.7688 39.7742 28.6712 39.853 28.5703C40.0783 28.2819 40.2633 27.9336 40.3784 27.5352M39.5874 28.8643L37.7642 28.79M39.5874 28.8643L37.7642 28.79M39.5874 28.8643C39.5864 28.8652 39.5855 28.8662 39.5845 28.8672M40.3784 27.5352L40.1655 26.6406M40.3784 27.5352L40.1655 26.6406M40.3784 27.5352C40.3788 27.5339 40.379 27.5325 40.3794 27.5312M37.7642 28.79L37.7651 28.7949M37.7651 28.7949L39.5845 28.8672M37.7651 28.7949L39.5845 28.8672M37.7651 28.7949L37.8511 29.2471C38.0058 29.3729 38.1648 29.5 38.3247 29.627C38.8361 29.4633 39.2595 29.1865 39.5845 28.8672M37.8501 29.2461L37.688 28.3896C37.6613 28.529 37.6462 28.6614 37.6411 28.7842C37.6372 28.8795 37.6382 28.978 37.6431 29.0791C37.7112 29.1342 37.7806 29.1896 37.8501 29.2461Z" stroke="#3EA83C" stroke-width="10"/>
<path d="M14.7026 43.6084C14.6574 43.4037 14.6157 43.2066 14.5845 43.0215C13.9567 42.7293 13.3716 42.6647 12.9136 42.6865L13.3179 43.8672M14.7026 43.6084L13.3179 43.8672M14.7026 43.6084C14.7202 43.6877 14.7371 43.7683 14.7554 43.8496C14.3334 44.286 13.8816 44.5253 13.5786 44.6289L13.3179 43.8672M14.7026 43.6084L13.3179 43.8672M13.1021 43.2432L12.9116 42.6875C12.5314 42.7058 12.239 42.783 12.0825 42.8418L12.2827 43.3779M13.1021 43.2432L12.2827 43.3779M13.1021 43.2432L13.5757 44.6299C13.3683 44.7007 13.1089 44.7599 12.8071 44.7744L12.2827 43.3779M13.1021 43.2432L12.2827 43.3779M11.1499 44.2734L12.521 44.0176M11.1499 44.2734C11.1071 44.0449 11.0512 43.8055 10.9946 43.5605C11.0583 43.4968 11.1246 43.435 11.1938 43.376C11.5273 43.0916 11.8482 42.9299 12.0796 42.8428L12.521 44.0176M11.1499 44.2734L12.521 44.0176M11.1499 44.2734C11.157 44.3112 11.1605 44.3544 11.1675 44.4014C11.3908 44.5166 11.62 44.6049 11.8462 44.666C12.1986 44.7612 12.5212 44.788 12.8062 44.7744L12.521 44.0176" stroke="#3EA83C" stroke-width="10"/>
<path d="M28.876 25.3555C29.1219 25.1683 29.3578 24.9382 29.5654 24.6572C30.1193 23.9078 30.2709 23.0908 30.2256 22.4482C30.2097 22.223 30.1679 22.0106 30.1094 21.8105C29.7363 21.6955 29.2958 21.5636 28.8525 21.4404C28.6429 21.61 28.4404 21.815 28.2598 22.0615C27.7677 22.7334 27.5705 23.5164 27.6133 24.2363C27.6302 24.5205 27.6804 24.781 27.7549 25.0186C28.0962 25.1265 28.4833 25.2445 28.876 25.3555Z" stroke="#3EA83C" stroke-width="10"/>
<path d="M15.1201 31.9053C15.2907 32.0258 15.4502 32.164 15.5977 32.3174C15.5582 32.5208 15.5222 32.7608 15.4824 33.0205L14.1738 33.9268C13.9683 33.9281 13.7294 33.9074 13.4639 33.8477C12.8221 33.7032 12.2119 33.3645 11.7324 32.875C11.824 32.4656 11.9258 32.0307 12.0098 31.5723C12.1102 31.5275 12.2157 31.485 12.3271 31.4473C12.7707 31.2976 13.3651 31.2237 14.0381 31.3984C14.0632 31.4049 14.0873 31.4147 14.1123 31.4219M15.1201 31.9053L14.1865 31.6504M15.1201 31.9053C14.8089 31.6854 14.4658 31.5229 14.1123 31.4219M15.1201 31.9053L14.1865 31.6504M14.1865 31.6504L14.1123 31.4219M14.1865 31.6504L14.1123 31.4219M14.1777 33.9268C14.5181 33.924 14.7667 33.8615 14.8936 33.8203L15.126 33.7324C15.2076 33.6974 15.2946 33.6551 15.3857 33.6055C15.4213 33.4059 15.453 33.2103 15.4814 33.0244L14.1777 33.9268Z" stroke="#3EA83C" stroke-width="10"/>
</g>
</svg>
