<svg width="1043" height="510" viewBox="0 0 1043 510" fill="none" xmlns="http://www.w3.org/2000/svg">
<path fill-rule="evenodd" clip-rule="evenodd" d="M128.754 91.5104C128.431 93.878 125.474 95.1605 123.844 96.7348C121.7 98.8099 108.11 110.729 107.866 112.082C107.485 114.177 115.795 119.56 118.497 121.705C120.643 123.414 121.761 124.934 123.608 126.598C126.261 128.993 126.756 128.423 130.608 129.483C136.767 131.178 135.902 135.8 140.433 140.262C142.395 142.197 150.135 146.83 154.399 145.871C161.946 144.172 172.795 131.474 177.404 127.312C183.941 121.411 189.048 121.873 195.993 114.216C197.704 112.329 198.819 109.911 200.712 108.456C203.448 109.651 206.234 115.333 208.58 119.234C212.519 125.788 219.25 135.167 224.375 140.318C226.603 142.556 227.01 143.007 230.87 141.532C236.59 139.347 238.181 133.896 240.385 132.852C243.381 131.431 249.117 136.647 252.755 128.807C253.803 126.548 253.844 124.609 255.154 122.497C259.23 115.917 274.671 127.116 271.307 102.575C270.624 97.572 269.285 91.5024 269.649 86.7745C272.484 85.8861 282.196 90.1544 285.483 91.3C288.959 92.509 297.964 96.9128 301.699 96.0612C305.405 95.2117 307.475 86.7601 311.225 83.7901C314.566 81.1415 322.583 84.1152 323.993 73.6988C325.307 63.9935 321.243 70.656 330.385 59.0962C332.04 57.0045 333.658 54.9561 332.727 51.1288C331.767 47.1768 323.871 43.214 320.611 41.1634C318.387 39.7649 316.613 38.3779 314.09 36.7236C311.033 34.7242 303.418 30.711 301.981 26.7201C302.677 24.5449 303.507 24.5895 305.627 23.209L327.922 7.2699C332.05 3.86118 330.17 4.35982 329.006 -4.3569C327.92 -12.4756 329.485 -13.7804 324.3 -18.2677C322.694 -19.6583 320.804 -20.3349 320.063 -23.2861C319.366 -26.0673 319.665 -29.36 318.313 -31.8234C316.179 -35.7077 312.698 -38.9738 308.088 -39.2613C303.747 -39.5307 298.915 -35.011 294.717 -33.2508C289.659 -31.1311 286.136 -30.136 281.428 -27.4788C274.468 -23.5455 270.926 -20.2982 265.22 -15.7618C263.513 -14.4037 261.438 -13.1291 259.771 -11.7767C257.984 -10.3249 251.117 -4.07518 250.02 -4.03412C247.367 -3.93396 248.389 -10.7269 246.851 -16.2582C245.837 -19.8954 244.879 -23.6492 243.56 -27.2035C241.037 -34.0044 238.392 -40.8031 235.635 -47.4923C232.931 -54.0562 228.52 -58.3309 224.8 -63.5063C222.328 -66.9482 215.443 -76.7861 212.289 -77.7401C209.923 -76.1247 204.706 -67.7055 203.503 -64.2356C202.201 -60.4695 202.054 -48.3238 200.565 -46.4224C198.502 -49.5227 196.939 -54.7205 195.476 -58.8216C193.214 -65.1592 187.254 -77.0454 184.273 -83.1604C183.156 -85.4559 182.875 -87.5274 179.882 -86.8797C175.129 -85.8465 164.382 -79.4353 161.045 -79.9743C156.711 -80.6789 151.38 -81.5652 146.242 -79.9455C144.519 -79.4022 142.818 -76.9417 142.246 -75.5461C141.269 -73.1691 141.589 -71.3578 141.89 -68.4411C142.173 -65.6982 145.376 -47.5449 144.753 -46.6933L140.035 -48.4665C131.106 -53.0821 135.05 -44.9375 135.106 -36.6999C132.986 -36.1732 129.197 -38.5508 126.089 -39.8434C116.289 -43.9179 121.142 -42.6765 110.234 -45.4641C106.677 -46.3749 99.8285 -48.8808 96.06 -46.9635C91.1711 -44.4734 94.8901 -37.8584 91.8767 -34.2674C90.1777 -32.2435 88.7291 -32.4093 88.2446 -29.2044C87.6287 -25.1321 87.9215 -26.1472 85.8177 -22.9489C82.0183 -17.1668 83.4045 -16.9565 87.9583 -12.3099C91.0714 -9.13391 93.8075 -6.2872 97.2688 -3.62997L104.004 2.84236C104.987 3.84315 105.815 3.87778 106.25 5.71436C103.194 6.14305 93.0976 5.41824 89.785 6.31023C87.783 6.84988 87.2376 8.12015 86.1717 9.19443C86.9368 13.7041 90.5301 16.3894 92.8493 18.5221C94.3388 19.8947 95.6165 21.1685 97.0859 22.2594C98.5875 23.3726 100.838 24.0607 101.436 25.6149C100.093 26.5854 94.819 25.2085 92.9168 24.9577C88.3509 24.3568 78.8465 23.2054 74.4557 23.1622C66.2132 23.0786 66.2476 21.7796 68.9149 37.7179C69.8531 43.3329 69.0879 43.067 67.1671 46.7827C65.908 49.2209 65.4179 52.577 66.9763 55.4583C69.0737 59.3455 70.6485 57.9131 70.3399 63.7464C70.1181 67.8965 70.6327 69.7589 73.9676 70.9989L89.6408 76.3459C103.143 80.2078 101.694 84.5647 120.241 89.07C122.556 89.632 127.391 90.0132 128.754 91.5104Z" fill="#40972E"/>
<path fill-rule="evenodd" clip-rule="evenodd" d="M912.146 225.164C908.894 220.559 920.024 205.683 923.787 202.931C929.118 199.033 935.679 202.68 943.61 204.54C944.688 204.793 945.788 205.133 946.872 205.42C948.233 205.781 949.266 205.687 950.052 206.701C949.143 206.8 935.14 215.447 933.935 216.485C928.984 220.745 928.508 223.079 925.941 226.235C924.563 227.928 924.689 228.485 922.439 228.225C922.239 225.774 924.698 221.405 925.832 219.315C927.377 216.471 929.915 214.205 931.242 211.477C930.275 208.978 928.977 210.376 927.809 211.775C925.367 214.696 922.01 219.014 920.801 222.658C920.329 224.078 919.915 225.391 919.464 226.827C918.862 228.746 917.015 229.362 916.791 227.521C916.412 224.397 917.816 221.472 919.048 218.752C920.376 215.818 921.027 213.777 923.185 211.221C923.998 210.26 925.79 208.038 923.646 207.275C921.715 206.588 916.761 216.218 916.139 217.767C915.46 219.459 914.517 225.498 912.146 225.164ZM918.534 202.806C916.636 200.767 916.787 195.207 917.405 192.547C917.905 190.393 920.903 183.199 922.563 182.265L930.509 178.885C938.293 176.582 953.758 177.771 961.193 179.916C965.328 181.109 976.183 183.976 976.609 189.099C975.147 189.98 971.738 188.575 970.993 188.116C969.018 186.899 964.974 185.417 962.578 184.493C959.683 183.377 954.805 182.211 951.59 181.653C949.555 181.301 948.613 181.72 949.44 183.932C953.134 185.227 956.492 185.51 960.56 187.15C964.245 188.637 967.603 189.735 971.002 191.707C978.76 196.208 976.27 199.386 972.535 198.186C971.227 197.765 968.96 196.11 967.676 195.294C964.953 193.56 965.92 194.047 962.73 192.51C960.596 191.482 947.062 186.893 945.923 188.364C944.454 190.261 949.069 190.836 950.146 191.172C952.001 191.75 953.773 192.23 955.673 192.873C958.999 193.999 969.042 198.043 970.272 201.511C969.103 202.698 968.516 202.506 966.879 202.101C963.321 201.224 958.94 197.802 950.821 195.595C949.638 195.273 948.499 195.065 947.339 194.811C945.941 194.505 945.162 193.757 943.634 194.434L943.627 195.934C944.854 196.901 954.457 199.842 957.801 201.16C960.385 202.179 961.093 202.661 960.869 204.372C959.1 205.332 952.591 203.204 950.286 202.689C946.996 201.952 943.067 200.957 939.782 200.397C933.492 199.324 927.635 194.97 920.829 201.075C920.291 201.558 919.108 202.548 918.534 202.806ZM927.698 176.745C927.276 173.393 935.691 154.396 937.487 150.226C939.089 146.503 941.946 141.527 943.991 137.919C945.178 135.824 946.39 133.886 947.58 131.86C949.887 127.936 957.662 118.201 960.756 115.164C964.484 111.505 967.502 108.54 971.57 105.193C977.779 100.083 975.817 99.554 983.718 103.901C997.103 111.262 1007.58 120.032 1015.03 134.046C1019.83 143.082 1024.29 157.433 1022.44 167.705C1019.41 184.592 1005.5 193.064 990.619 198.034C987.678 199.016 975.194 202.334 972.65 201.851C974.48 200.543 977.378 201.348 978.508 198.52C978.972 197.359 978.889 196.261 978.408 195.117C977.503 192.964 977.183 193.179 976.783 192.308C980.351 191.142 980.161 188.014 977.963 185.471C976.302 183.548 974.277 182.03 972.234 180.838C969.836 179.438 961.292 176.266 958.415 175.998C959.748 174.879 963.274 172.805 964.912 171.903C972.198 167.894 979.868 163.943 988.402 163.135C990.003 162.983 995.223 163.369 996.1 162.694C997.4 161.694 996.248 160.514 995.017 160.271C988.777 159.038 980.807 161.331 975.031 163.389C974.949 161.156 974.375 158.579 974.226 156.198C973.843 150.088 974.537 145.915 973.337 139.258C973.03 137.557 972.81 137.034 971.111 137.681C970.743 138.983 970.903 154.52 971.179 157.506C971.967 166.058 974.835 163.235 966.702 167.365C964.018 168.729 959.343 171.739 956.676 173.451C954.015 175.16 954.763 175.433 951.423 175.143C943.798 174.482 935.125 174.179 927.698 176.745ZM895.907 182.667C889.943 183.327 886.62 184 880.852 185.879C879.637 186.274 878.091 186.547 878.642 188.102C879.368 190.159 884.937 187.272 889.619 186.532C898.403 185.143 909.503 185.93 917.599 183.753C914.685 189.251 912.35 196.128 914.848 202.271C915.787 204.582 916.649 204.335 914.792 206.411C913.616 207.725 913.217 208.843 911.561 209.721C898.423 216.684 874.164 221.945 865.003 206.404C857.09 192.976 863.946 173.621 869.851 160.097L873.723 152.235C874.323 150.717 881.283 137.027 881.653 136.764C882.967 138.038 883.46 138.531 884.846 139.658C884.44 140.83 883.399 148.9 883.239 150.586C882.354 159.927 883.373 166.467 888.398 174.623C889.396 176.244 890.539 177.675 891.85 179.057C893.59 180.892 895.531 182.245 895.907 182.667ZM954.747 117.216C953.741 113.41 953.232 109.652 952.936 105.743L952.22 95.1596C956.029 94.5932 970.996 98.1297 973.361 99.5125C973.3 99.6206 968.839 103.256 968.269 103.741C966.622 105.141 965.171 106.619 963.562 108.041C961.25 110.085 955.852 116.292 954.747 117.216ZM905.851 96.8816C909.373 96.1024 912.079 95.2144 915.057 93.1194C916.455 92.1353 919.94 88.8046 920.477 87.2587C921.694 83.7597 915.805 89.0507 915.248 89.4463C900.581 99.8687 888.712 91.1126 881.726 76.5036C877.321 67.2919 871.92 49.528 875.063 39.4755C875.709 37.4109 877.359 34.3658 878.705 32.6705C881.158 29.5807 883.289 29.9427 886.12 28.134C887.277 27.3945 887.922 26.1756 889.375 26.3935C891.523 26.7169 891.512 26.8135 893.738 26.2567C902.318 24.1093 909.749 28.2727 914.692 35.4527C923.247 47.876 923.882 60.0429 927.53 72.8934C929.577 80.1019 931.664 84.3001 934.952 90.8729C944.697 110.347 938.405 114.565 944.166 128.344C946.318 133.491 935.299 137.367 931.797 138.617C920.709 142.574 918.784 141.253 912.175 143.244C911.666 141.183 913.053 139.192 912.817 137.216C911.85 136.42 911.695 136.269 910.494 136.688C909.546 138.438 909.214 141.384 908.962 143.42C903.327 144.984 893.662 142.912 888.797 140.049C888.709 136.442 893.893 125.988 896.014 122.855C899.22 118.122 904.015 111.27 909.193 108.847L910.329 112.666C911.646 113.355 911.956 113.355 913.321 112.53C912.814 109.254 907.833 99.6797 905.851 96.8816ZM938.466 43.5506C941.143 41.3235 943.798 37.0911 945.188 33.9207C945.987 32.0984 946.893 30.4594 947.775 28.6762C948.839 26.522 949.686 25.2502 952.258 26.6487C955.34 28.3251 958.087 33.3437 960.287 36.2863C965.895 43.7877 968.367 37.8713 970.148 36.6632C974.187 38.446 974.036 46.7948 980.16 47.0049C983.06 47.1043 995.312 44.7256 997.44 43.2722C997.507 42.0946 997.703 42.6337 997.252 41.4224C995.91 41.1087 988.751 42.5255 986.905 42.883C985.111 43.2303 983.442 43.4376 981.636 43.8015C977.129 44.7095 977.828 39.8175 972.584 34.6706C969.223 31.372 967.022 36.4632 964.962 37.0583C961.57 35.0533 955.595 19.6253 948.607 23.3914C944.016 25.8662 942.23 36.5397 937.22 40.9716C934.358 35.4219 933.112 30.9883 928.98 25.8996C921.989 17.2907 914.009 13.1225 902.887 14.0187C897.466 14.4551 890.19 16.7621 885.503 19.4964C876.272 24.8825 871.178 33.0439 869.428 43.4829C868.322 50.0795 869.186 53.5893 869.825 59.9895L872.734 77.8554C868.467 78.4586 866.394 77.9028 863.196 81.601C861.106 84.0182 856.81 83.9909 854.951 81.3692C853.155 78.8342 852.078 74.8807 848.154 76.0323C844.573 77.0832 844.569 80.9637 842.485 82.4824C840.352 81.7728 837.04 75.3882 834.254 74.0261C830.429 72.1568 830.39 78.4585 830.415 80.5731C830.426 81.5257 830.73 83.2863 830.671 83.8237C829.861 83.5167 827.008 79.0625 822.579 76.7435C820.314 75.5574 812.667 73.2453 813.607 78.199C814.489 82.843 818.233 92.8809 819.905 98.6255C820.585 100.962 820.747 104.084 823.58 102.845C824.282 100.96 823.064 98.7953 822.427 96.9874C820.991 92.9065 817.19 81.4277 816.749 78.2096C818.384 77.6393 822.356 80.1819 823.647 81.2195C832.325 88.1971 830.433 96.2308 839.781 99.4415C845.825 101.518 846.581 97.9617 844.283 97.2576C843.055 96.8813 842.018 96.9626 840.483 96.316C835.401 94.1739 834.441 91.1002 833.55 85.7534C833.286 84.165 832.825 78.1155 833.526 77.1372C834.118 77.2763 834.242 77.5379 834.721 78.1635C835.029 78.566 835.341 78.9679 835.633 79.3516C836.323 80.2587 836.839 81.0648 837.546 81.9285C841.334 86.5547 843.916 87.1696 846.23 81.5422C847.051 79.5481 848.442 77.6491 850.399 79.9595C853.4 83.5012 854.62 87.1264 860.209 86.0331C862.415 85.6014 865.34 84.7947 866.63 82.9005C868.027 80.8486 870.677 81.1792 873.085 80.8011C874.04 84.9376 875.851 90.9713 877.448 94.8956C881.342 104.465 887.148 107.633 887.287 118.705C887.356 124.25 885.712 124.195 882.9 128.43C878.896 134.457 875.956 140.746 872.632 147.122C869.539 153.055 865.926 160.297 863.781 166.595C859.067 180.434 853.484 199.545 864.968 211.754C870.654 217.798 876.716 219.633 884.883 219.862C892.719 220.081 904.345 217.308 911.287 213.752C909.724 217.256 907.009 224.396 910.305 227.756C911.246 228.716 912.907 228.836 914.121 229.771C915.64 230.941 915.917 232.087 918.232 231.596C926.159 229.914 924.352 233.546 929.852 225.637C934.819 218.495 937.674 217.896 944.721 213.599C947.609 211.839 950.252 209.977 953.023 208.064C956.202 205.867 958.263 208.828 962.517 206.495C964.775 205.256 964.228 205.096 966.922 205.185L983.167 203.235C1002.12 200.133 1022.79 187.8 1025.7 167.077C1027.53 154.018 1021.33 136.569 1013.84 125.917C1006.4 115.32 998.035 108.118 986.816 101.819C980.965 98.534 976.501 97.2301 970.259 95.1561C965.955 93.7257 965.321 94.9157 962.741 90.7104C961.07 87.9881 958.915 85.3708 957.152 82.6378C949.422 70.6488 945.465 56.8984 938.466 43.5506Z" fill="#40972E"/>
<path fill-rule="evenodd" clip-rule="evenodd" d="M837.351 123.669C838.078 120.29 857.082 114.762 860.855 113.328C863.03 112.501 865.565 111.703 867.816 111.099C868.704 110.859 870.338 110.732 870.394 109.585C870.467 108.098 869.359 108.226 868.323 108.464C863.728 109.52 859.17 110.71 854.679 112.195C850.423 113.603 833.684 118.571 833.675 123.908C833.663 130.195 851.581 122.962 853.491 129.581C852.753 131.539 845.956 134.817 843.863 136.274C840.775 138.423 838.184 143.254 842.628 145.475C848.241 148.278 862.684 144.049 865.834 145.985C864.152 148.07 848.203 155.898 842.869 159.252C842.061 159.76 839.892 161.051 839.517 161.747C838.721 163.225 839.783 164.686 841.766 163.405C846.262 160.502 852.642 156.96 857.502 154.734C860.061 153.562 872.199 147.863 868.534 144.023C864.201 139.483 846.155 145.885 843.616 142.224C841.735 139.515 853.1 135.461 855.846 131.885C857.725 129.438 856.306 126.177 853.86 124.921C848.365 122.1 840.12 124.356 837.351 123.669Z" fill="#40972E"/>
<path fill-rule="evenodd" clip-rule="evenodd" d="M976.063 68.4322C976.912 66.7865 989.603 63.3639 992.009 62.7696C993.077 62.5054 1000.77 61.2393 997.654 59.0905C996.426 58.2436 990.916 60.1695 989.369 60.6626C984.867 62.0978 976.771 63.8757 973.317 66.7293C970.527 69.0323 973.331 70.5963 975.861 70.9824C977.041 71.1622 978.235 71.1956 979.43 71.2776C981.043 71.3886 981.513 71.065 982.904 70.9889C980.652 73.5938 963.449 76.5242 960.855 78.5377C960.208 79.5252 960.556 80.643 961.842 80.8449C962.822 80.9983 964.633 80.2089 965.606 79.8839C968.222 79.0095 970.903 78.3551 973.559 77.6181C976.038 76.9294 978.707 76.1724 981.043 75.1153C982.89 74.2795 986.724 72.8457 983.661 70.7077C985.896 66.791 978.964 69.3568 976.063 68.4322Z" fill="#40972E"/>
<path fill-rule="evenodd" clip-rule="evenodd" d="M887.352 56.8252C884.005 57.1757 879.793 57.6872 877.19 60.0377C877.82 63.5851 879.71 61.0216 881.916 60.7222C882.915 61.2773 882.461 61.7375 883.738 62.0355C884.773 62.2772 887.689 62.0062 886.517 59.6981L887.981 59.2458C888.694 61.2389 888.531 68.1043 888.993 70.8293C889.805 75.6225 893.806 76.8053 897.686 74.031C905.631 68.3515 900.938 66.1831 899.658 67.6014C898.928 68.4108 899.457 69.5172 896.448 71.5342C889.9 75.9214 892.902 66.9537 890.876 58.3161C890.032 54.7172 887.654 50.8556 883.563 50.8326C881.384 50.8208 879.383 51.6247 877.618 52.8092C874.731 54.7473 876.594 57.0306 878.148 56.1151C878.842 55.7065 884.133 50.5594 887.352 56.8252Z" fill="#40972E"/>
<path fill-rule="evenodd" clip-rule="evenodd" d="M873.956 96.4669C875.071 93.2704 869.942 95.2997 868.852 95.6357C861.005 98.05 844.003 104.236 836.608 107.385C834.353 108.346 825.682 110.802 825.024 112.914C824.698 113.958 825.683 114.636 826.596 114.573L841.909 108.395C843.968 107.438 846.199 106.846 848.326 106.02C852.411 104.435 857.238 102.732 861.413 101.38C863.457 100.718 873.431 97.9701 873.956 96.4669Z" fill="#40972E"/>
<path fill-rule="evenodd" clip-rule="evenodd" d="M974.218 57.7275C970.258 58.7617 966.309 59.9617 962.333 60.9374C960.295 61.4387 952.081 62.8859 951.364 64.5561C949.745 68.3304 959.461 64.5756 961.067 64.3095C965.829 63.5193 994.54 55.9467 996.086 54.4871C996.132 51.4476 993.623 52.9412 991.655 53.4991C987.063 54.8021 979.557 56.334 974.218 57.7275Z" fill="#40972E"/>
<path fill-rule="evenodd" clip-rule="evenodd" d="M869.304 131.473C867.245 127.779 875.698 124.024 878.062 122.288C883.403 118.363 879.967 113.955 874.124 114.717C871.474 115.063 864.939 116.947 862.515 118.458C861.473 119.108 860.83 120.627 862.476 121.038C864.787 121.613 874.807 115.395 877.918 117.877C875.78 121.631 869.337 122.864 866.814 127.084C865.698 128.951 865.434 132.971 867.588 134.215C869.267 135.186 874.045 133.695 874.765 131.825C873.605 129.558 871.943 131.607 869.304 131.473Z" fill="#40972E"/>
<path fill-rule="evenodd" clip-rule="evenodd" d="M897.848 54.6614C898.831 54.9669 898.774 55.5672 899.97 55.0892C900.769 54.7704 901.634 54.0385 902.435 53.6466C903.01 56.822 908.493 58.904 908.195 51.7537C910.561 51.3445 911.845 52.7845 912.325 49.9926C910.468 48.0409 906.585 49.1052 904.315 49.7554C902.002 50.4173 897.603 51.8106 897.848 54.6614Z" fill="#40972E"/>
<path fill-rule="evenodd" clip-rule="evenodd" d="M911.04 45.826C911.161 43.6878 911.241 43.5257 908.792 43.0545C904.189 42.1692 897.6 44.0174 895.612 46.9901C894.568 48.5517 895.888 50.2717 897.542 49.0736C898.8 48.1623 899.92 47.3226 901.413 46.6731C905.707 44.8043 908.53 46.7083 911.04 45.826Z" fill="#40972E"/>
<path fill-rule="evenodd" clip-rule="evenodd" d="M908.841 76.5712C909.15 75.9614 909.114 74.8589 908.194 74.6627C907.623 74.5416 906.966 75.1204 906.443 75.3997C903.803 76.8115 900.712 77.8903 897.829 78.6722C896.729 78.9709 894.199 79.1165 893.873 80.1756C892.895 83.3512 900.329 81.1237 901.47 80.6896C903.052 80.0882 908.297 77.6439 908.841 76.5712Z" fill="#40972E"/>
<path fill-rule="evenodd" clip-rule="evenodd" d="M899.694 82.7195C899.303 85.0635 900.728 84.638 902.312 83.9935C904.036 83.2916 905.515 83.1986 904.61 81.0686L899.694 82.7195Z" fill="#40972E"/>
<path fill-rule="evenodd" clip-rule="evenodd" d="M687.804 612.471C689.9 619.144 674.56 634.571 669.782 638.383C644.242 658.761 599.068 671.819 594.87 699.904C593.493 709.088 596.555 717.666 600.837 724.039C610.009 737.699 613.077 742.258 629.003 740.63C639.507 739.554 641.408 753.361 658.973 755.803C679.704 758.684 692.647 747.762 699.824 736.92C720.18 706.182 710.286 652.901 722.272 638.348C725.645 638.697 725.715 639.519 726.789 642.612C727.538 644.759 728.31 647.23 729.07 649.397C737.965 674.773 730.105 702.213 723.581 726.757C720.98 736.548 717.997 748.027 720.185 759.163C721.9 767.863 729.51 777.167 735.651 779.855C748.932 785.67 758.593 775.832 764.874 777.707C770.474 779.376 777.422 787.78 790.045 788.867C801.139 789.826 812.195 785.472 817.009 779.461L825.127 769.511C827.968 765.357 829.455 762.231 835.996 762.319C850.707 762.513 854.17 759.595 859.819 749.974C874.831 724.396 862.795 704.732 844.776 688.895C842.989 687.327 841.505 686.426 839.741 684.856L830.03 676.498C820.842 668.642 780.373 637.155 779.319 627.224C791.084 628.595 827.741 652.281 840.146 660.399C851.674 667.942 861.789 676.105 872.717 684.314C886.394 694.584 901.428 708.11 925.767 698.401C949.745 688.837 940.423 675.354 950.137 666.277C959.122 657.877 972.759 652.075 970.812 631.323C969.746 619.942 962.957 613.883 958.445 606.164C952.221 595.52 964.436 586.788 957.333 575.649C952.533 568.127 941.387 564.685 932.28 563.439C918.283 561.521 883.741 570.968 869.471 574.406C856.856 577.444 813.139 585.267 802.198 580.991C803.194 575.721 816.17 575.087 820.975 574.064C828.488 572.458 835.021 570.758 842.209 568.923C848.459 567.33 855.824 565.051 861.691 562.885C878.776 556.579 901.335 548.131 907.41 530.251C909.813 523.18 907.454 513.815 904.166 509.075C901.168 504.756 892.021 498.977 890.949 495.962C888.435 488.882 895.442 484.168 886.509 476.279C877.089 467.962 855.535 468.576 845.018 474.678C828.51 484.256 816.732 498.191 802.532 510.548C797.363 515.047 780.328 533.782 772.728 533.43C776.206 524.331 806.72 505.106 818.913 468.141C824.5 451.206 824.682 435.748 813.926 424.567C808.262 418.678 801.876 420.299 799.23 411.429C796.811 403.313 793.735 397.846 789.178 393.572C781.22 386.113 758.616 380.242 744.666 384.989C731.342 389.526 720.328 399.549 714.366 410.395C707.32 423.21 702.945 438.189 701.834 453.667C701.184 462.736 701.012 471.34 701.366 480.544C701.586 486.181 704.502 503.221 701.911 506.998C698.253 505.65 694.842 494.94 693.446 490.749C680.978 453.428 704.439 415.413 696.576 376.981C693.718 363.006 686.465 350.682 675.494 346.78C658.935 340.893 650.673 355.979 636.274 341.565C621.86 327.134 598.958 325.356 582.46 341.093C580.309 343.145 578.156 345.062 576.441 347.883C574.792 350.599 573.433 353.665 570.834 355.108C561.725 360.168 548.772 351.848 536.074 371.566C516.6 401.81 541.154 429.625 557.917 448.48C559.223 449.95 559.436 449.86 561.03 451.371C563.908 454.1 584.894 477.158 584.943 478.711C585.032 481.462 583.425 481.385 581.196 480.367L566.494 469.253C555.081 459.756 533.268 443.172 518 441.892C503.753 440.694 489.247 449.811 488.203 462.081C487.9 465.67 489.547 469.997 489.092 473.027C487.99 480.431 474.822 484.884 482.27 500.709C485.641 507.864 488.18 510.603 494.011 514.592C522.597 534.144 615.246 529.545 655.043 556.978C659.435 560.007 671.644 566.814 655.935 566.047C649.271 565.723 639.632 564.163 633.201 562.939C622.189 560.845 603.803 555.228 593.843 551.071C583.784 546.873 565.09 543.303 552.805 541.538C527.664 537.923 502.803 548.091 505.747 569.645C506.906 578.172 512.278 582.281 507.575 589.269C500.085 600.4 493.934 612.096 501.934 627.866C510.224 644.209 526.647 646.441 528.549 651.624C529.628 654.57 529.313 658.414 530.858 662.251C540.124 685.315 574.42 681.85 592.677 669.782C626.982 647.11 638.48 630.059 677.273 613.519C678.577 612.965 680.396 612.176 681.718 611.864L685.97 611.671C687.422 612.003 687.027 611.928 687.804 612.471Z" fill="#40972E"/>
</svg>
