<svg width="253" height="289" viewBox="0 0 253 289" fill="none" xmlns="http://www.w3.org/2000/svg">
<path fill-rule="evenodd" clip-rule="evenodd" d="M-40.5699 257.195C-40.7574 258.577 -42.4739 259.325 -43.4202 260.244C-44.6649 261.456 -52.5542 268.413 -52.6959 269.202C-52.9167 270.425 -48.0927 273.567 -46.5242 274.819C-45.2783 275.817 -44.6295 276.704 -43.5569 277.676C-42.0168 279.073 -41.7296 278.74 -39.4935 279.359C-35.9182 280.349 -36.4205 283.046 -33.7898 285.651C-32.651 286.78 -28.1577 289.485 -25.6821 288.925C-21.3009 287.933 -15.0029 280.521 -12.3272 278.092C-8.53234 274.648 -5.56742 274.917 -1.53584 270.448C-0.542427 269.346 0.104622 267.935 1.20346 267.086C2.79192 267.784 4.40914 271.1 5.77092 273.377C8.05777 277.202 11.9651 282.677 14.9408 285.683C16.2338 286.99 16.4702 287.253 18.7112 286.392C22.0314 285.117 22.9553 281.935 24.2345 281.326C25.9743 280.496 29.3041 283.541 31.4159 278.965C32.0243 277.646 32.048 276.514 32.8085 275.282C35.1746 271.441 44.1386 277.977 42.1859 263.653C41.7892 260.733 41.0122 257.19 41.2234 254.431C42.869 253.912 48.5069 256.403 50.4154 257.072C52.4331 257.778 57.661 260.348 59.8287 259.851C61.9805 259.355 63.1819 254.422 65.3592 252.689C67.2985 251.143 71.9526 252.878 72.771 246.798C73.534 241.134 71.175 245.022 76.4821 238.275C77.4426 237.054 78.3818 235.858 77.8418 233.625C77.2842 231.318 72.7002 229.005 70.8079 227.808C69.517 226.992 68.4869 226.182 67.0222 225.216C65.2478 224.049 60.8267 221.707 59.9929 219.377C60.3967 218.108 60.8788 218.134 62.1093 217.328L75.052 208.024C77.4484 206.035 76.3571 206.326 75.6816 201.238C75.0507 196.499 75.9592 195.738 72.9494 193.118C72.0173 192.307 70.92 191.912 70.49 190.189C70.085 188.566 70.2587 186.644 69.4741 185.206C68.2352 182.939 66.2143 181.032 63.5378 180.865C61.018 180.707 58.2128 183.345 55.7759 184.373C52.8394 185.61 50.7946 186.191 48.0614 187.742C44.0207 190.038 41.9643 191.933 38.652 194.581C37.6611 195.374 36.4564 196.118 35.4888 196.907C34.4517 197.755 30.4651 201.402 29.8284 201.426C28.2882 201.485 28.8811 197.52 27.9881 194.291C27.3997 192.168 26.8434 189.977 26.078 187.903C24.6133 183.933 23.0777 179.965 21.4772 176.06C19.9075 172.229 17.3468 169.734 15.1875 166.713C13.7524 164.704 9.75506 158.962 7.92449 158.405C6.55063 159.348 3.52205 164.262 2.82407 166.287C2.06818 168.486 1.98275 175.575 1.11852 176.685C-0.0794983 174.875 -0.986717 171.841 -1.83595 169.447C-3.1494 165.748 -6.60926 158.81 -8.3394 155.241C-8.9882 153.901 -9.15108 152.692 -10.8887 153.07C-13.6477 153.673 -19.887 157.415 -21.8242 157.101C-24.3402 156.69 -27.4346 156.172 -30.4174 157.118C-31.4179 157.435 -32.4055 158.871 -32.7372 159.686C-33.3043 161.073 -33.1189 162.13 -32.9439 163.833C-32.7797 165.434 -30.9204 176.03 -31.2821 176.527L-34.021 175.492C-39.2044 172.798 -36.9151 177.552 -36.8822 182.36C-38.1131 182.667 -40.3124 181.279 -42.1171 180.525C-47.8059 178.147 -44.9886 178.871 -51.3212 177.244C-53.386 176.713 -57.3617 175.25 -59.5494 176.369C-62.3876 177.822 -60.2286 181.683 -61.9779 183.78C-62.9643 184.961 -63.8052 184.864 -64.0865 186.735C-64.444 189.112 -64.274 188.519 -65.4954 190.386C-67.701 193.761 -66.8962 193.884 -64.2527 196.596C-62.4455 198.45 -60.857 200.111 -58.8477 201.662L-54.9378 205.44C-54.3674 206.024 -53.8864 206.045 -53.6339 207.117C-55.4078 207.367 -61.2692 206.944 -63.1922 207.464C-64.3544 207.779 -64.6711 208.521 -65.2899 209.148C-64.8457 211.78 -62.7597 213.347 -61.4133 214.592C-60.5487 215.393 -59.8069 216.137 -58.9539 216.774C-58.0822 217.423 -56.7759 217.825 -56.4287 218.732C-57.208 219.299 -60.2699 218.495 -61.3741 218.349C-64.0248 217.998 -69.5423 217.326 -72.0913 217.301C-76.8762 217.252 -76.8563 216.494 -75.3078 225.797C-74.7632 229.074 -75.2074 228.919 -76.3225 231.088C-77.0534 232.511 -77.3379 234.47 -76.4333 236.152C-75.2157 238.421 -74.3014 237.584 -74.4806 240.989C-74.6094 243.412 -74.3106 244.499 -72.3746 245.223L-63.2759 248.344C-55.4374 250.598 -56.2787 253.141 -45.512 255.77C-44.1677 256.099 -41.3612 256.321 -40.5699 257.195Z" fill="#40972E"/>
<path fill-rule="evenodd" clip-rule="evenodd" d="M130.147 22.4656C131.056 25.3586 124.402 32.0472 122.329 33.6997C111.25 42.5345 91.6529 48.1961 89.8316 60.3722C89.2344 64.3542 90.5624 68.073 92.42 70.8362C96.3989 76.7586 97.73 78.7348 104.639 78.0293C109.195 77.5627 110.02 83.5488 117.64 84.6076C126.633 85.8565 132.248 81.1212 135.362 76.4207C144.192 63.0942 139.9 39.9943 145.1 33.6844C146.563 33.836 146.593 34.1923 147.059 35.5332C147.384 36.4641 147.719 37.5354 148.049 38.4751C151.907 49.4767 148.498 61.3733 145.667 72.0145C144.539 76.2595 143.245 81.2361 144.194 86.0642C144.938 89.8361 148.24 93.8697 150.904 95.0354C156.665 97.5561 160.856 93.2908 163.581 94.1037C166.01 94.8276 169.024 98.4709 174.5 98.9425C179.313 99.3583 184.109 97.4706 186.197 94.8643L189.719 90.5505C190.952 88.7495 191.597 87.3945 194.434 87.4323C200.816 87.5166 202.318 86.2513 204.769 82.0803C211.281 70.9909 206.06 62.4653 198.243 55.5992C197.468 54.9195 196.824 54.5289 196.059 53.8481L191.846 50.2247C187.86 46.8185 170.305 33.1675 169.847 28.8617C174.951 29.4562 190.853 39.7252 196.234 43.2447C201.235 46.5154 205.623 50.0544 210.364 53.6133C216.297 58.066 222.819 63.93 233.377 59.7208C243.78 55.5743 239.736 49.7287 243.95 45.7933C247.847 42.1516 253.763 39.6362 252.919 30.6391C252.456 25.7049 249.511 23.078 247.554 19.7313C244.854 15.1163 250.153 11.3307 247.071 6.50145C244.989 3.24036 240.154 1.74782 236.203 1.20755C230.131 0.376335 215.146 4.47208 208.956 5.9623C203.483 7.27956 184.518 10.6712 179.772 8.81754C180.205 6.53275 185.833 6.25787 187.918 5.8142C191.177 5.11815 194.011 4.38084 197.13 3.58551C199.841 2.89481 203.036 1.90667 205.581 0.9674C212.992 -1.7664 222.779 -5.42912 225.414 -13.1807C226.456 -16.2467 225.433 -20.3066 224.007 -22.3619C222.706 -24.2343 218.738 -26.7398 218.273 -28.0471C217.183 -31.1165 220.222 -33.1601 216.347 -36.5804C212.261 -40.1866 202.91 -39.9201 198.348 -37.2749C191.187 -33.1223 186.077 -27.0808 179.917 -21.7231C177.675 -19.7728 170.285 -11.65 166.988 -11.8028C168.497 -15.7477 181.734 -24.0827 187.023 -40.1087C189.447 -47.451 189.526 -54.1527 184.86 -59.0002C182.403 -61.5534 179.632 -60.8508 178.485 -64.6965C177.435 -68.2149 176.101 -70.5853 174.124 -72.4382C170.672 -75.6722 160.866 -78.2177 154.814 -76.1593C149.034 -74.1926 144.256 -69.8472 141.67 -65.1447C138.613 -59.5889 136.716 -53.0943 136.233 -46.3839C135.952 -42.452 135.877 -38.7219 136.03 -34.7316C136.126 -32.2876 137.391 -24.8999 136.267 -23.2623C134.68 -23.8468 133.2 -28.4901 132.595 -30.3071C127.186 -46.4877 137.364 -62.9691 133.953 -79.6312C132.713 -85.6902 129.566 -91.0334 124.807 -92.7252C117.624 -95.2773 114.039 -88.7368 107.793 -94.9859C101.54 -101.243 91.6051 -102.014 84.4482 -95.1906C83.5148 -94.3009 82.5807 -93.4697 81.837 -92.2468C81.1216 -91.0693 80.5319 -89.7401 79.4047 -89.1143C75.4529 -86.9208 69.8339 -90.5278 64.3254 -81.9789C55.8776 -68.8666 66.529 -56.8074 73.801 -48.6328C74.3677 -47.9955 74.4598 -48.0344 75.1515 -47.3796C76.4 -46.1963 85.504 -36.1993 85.5254 -35.5261C85.5636 -34.3333 84.8665 -34.367 83.8995 -34.8084L77.5219 -39.6269C72.5709 -43.744 63.1083 -50.934 56.4848 -51.4892C50.3042 -52.0084 44.0114 -48.0558 43.5583 -42.7363C43.4272 -41.1801 44.1414 -39.3042 43.9441 -37.9904C43.4661 -34.7805 37.7539 -32.8496 40.9849 -25.9888C42.4471 -22.8869 43.5484 -21.6995 46.0782 -19.9698C58.4789 -11.4931 98.671 -13.487 115.935 -1.59344C117.841 -0.280373 123.137 2.67106 116.322 2.3385C113.431 2.19799 109.25 1.52146 106.46 0.991119C101.683 0.0831604 93.7066 -2.3521 89.3862 -4.15427C85.0225 -5.97439 76.9128 -7.52223 71.5832 -8.28739C60.6772 -9.85474 49.8923 -5.4463 51.1694 3.89825C51.6723 7.59538 54.0024 9.37693 51.9625 12.4063C48.7131 17.2324 46.0445 22.3029 49.5153 29.1401C53.1115 36.2258 60.2359 37.1933 61.0611 39.4403C61.5291 40.7175 61.3926 42.3841 62.0625 44.0477C66.0824 54.0471 80.9602 52.545 88.8803 47.3129C103.762 37.4835 108.75 30.0911 125.579 22.9199C126.145 22.6797 126.933 22.3376 127.507 22.2025L129.351 22.1189C129.981 22.2628 129.81 22.2304 130.147 22.4656Z" fill="#40972E"/>
</svg>
